M48
; DRILL file {KiCad 7.0.7-7.0.7~ubuntu22.04.1} date Fr 08 Sep 2023 18:19:27
; FORMAT={-:-/ absolute / metric / decimal}
; #@! TF.CreationDate,2023-09-08T18:19:27+02:00
; #@! TF.GenerationSoftware,Kicad,Pcbnew,7.0.7-7.0.7~ubuntu22.04.1
; #@! TF.FileFunction,Plated,1,4,PTH
FMAT,2
METRIC
; #@! TA.AperFunction,Plated,PTH,ComponentDrill
T1C0.200
; #@! TA.AperFunction,Plated,PTH,ViaDrill
T2C0.400
; #@! TA.AperFunction,Plated,PTH,ComponentDrill
T3C0.600
; #@! TA.AperFunction,Plated,PTH,ComponentDrill
T4C1.000
; #@! TA.AperFunction,Plated,PTH,ComponentDrill
T5C1.100
; #@! TA.AperFunction,Plated,PTH,ComponentDrill
T6C1.600
%
G90
G05
T1
X17.671Y-70.65
X17.671Y-72.05
X18.371Y-69.95
X18.371Y-71.35
X18.371Y-72.75
X19.071Y-70.65
X19.071Y-72.05
X19.771Y-69.95
X19.771Y-71.35
X19.771Y-72.75
X20.471Y-70.65
X20.471Y-72.05
T2
X11.506Y-43.18
X11.506Y-45.72
X11.684Y-68.072
X12.446Y-74.168
X13.081Y-66.294
X13.411Y-44.45
X13.97Y-71.12
X14.173Y-82.55
X14.478Y-75.946
X14.681Y-43.18
X14.707Y-63.771
X15.875Y-54.61
X16.764Y-63.754
X17.78Y-52.895
X18.542Y-82.55
X18.745Y-46.228
X19.253Y-42.099
X19.761Y-39.37
X19.761Y-50.165
X20.447Y-66.548
X21.031Y-76.2
X22.098Y-66.599
X23.063Y-70.866
X23.114Y-50.546
X23.163Y-84.279
X23.571Y-81.28
X24.384Y-76.2
X24.638Y-72.136
X25.146Y-50.292
X25.476Y-39.37
X26.111Y-43.18
X26.111Y-76.289
X26.18Y-66.707
X26.198Y-53.975
X26.67Y-63.246
X26.746Y-56.896
X28.738Y-50.165
X29.464Y-58.928
X29.718Y-60.706
X29.972Y-80.518
X30.008Y-51.435
X30.988Y-83.82
X31.496Y-46.228
X31.75Y-80.518
X31.888Y-54.051
X32.233Y-75.209
X32.766Y-71.374
X33.401Y-78.613
X34.036Y-48.768
X35.047Y-60.701
X36.195Y-67.945
X37.592Y-80.01
X37.846Y-73.316
X38.608Y-65.024
X39.37Y-57.15
X39.575Y-49.325
X41.656Y-76.2
X41.91Y-63.246
X42.926Y-75.184
X46.228Y-80.772
X46.99Y-60.198
X49.53Y-66.04
X50.546Y-80.772
X53.34Y-46.99
X55.626Y-66.04
X58.42Y-78.232
X59.69Y-51.562
X60.452Y-71.882
X65.024Y-55.88
X66.294Y-78.232
X68.453Y-69.596
X68.961Y-41.021
X69.85Y-79.375
X70.866Y-72.898
X72.39Y-74.93
X74.041Y-73.025
X74.93Y-55.88
X74.93Y-59.69
X77.47Y-76.2
X82.314Y-43.688
X84.582Y-79.883
X84.709Y-64.389
X86.995Y-53.975
X88.392Y-67.183
X88.459Y-70.612
X88.9Y-58.42
X89.535Y-80.01
X89.535Y-83.82
X89.662Y-77.724
X89.789Y-63.5
X93.599Y-67.31
X93.726Y-64.135
X96.52Y-69.85
X97.282Y-71.628
X99.06Y-72.39
X99.205Y-78.105
X101.6Y-57.15
X103.886Y-62.992
X108.712Y-67.31
X114.046Y-77.216
X114.3Y-70.866
X114.427Y-61.595
X118.618Y-62.865
X121.744Y-43.688
X122.174Y-50.292
X123.19Y-65.405
X123.19Y-67.31
X124.46Y-71.12
X128.72Y-48.65
X129.54Y-71.12
X130.175Y-67.945
X132.285Y-68.58
X132.92Y-64.135
X135.46Y-68.58
X136.73Y-77.724
X137.922Y-83.566
X140.54Y-77.724
X141.605Y-83.82
X143.51Y-53.34
X145.796Y-67.056
X147.144Y-43.18
X148.844Y-70.358
X149.86Y-66.675
X149.987Y-60.96
X150.57Y-49.66
X150.876Y-79.756
X151.384Y-82.55
X154.51Y-64.77
X155.575Y-71.12
X156.542Y-52.832
X157.988Y-67.818
X158.75Y-81.915
X160.655Y-74.041
X162.814Y-52.578
X163.195Y-84.455
X163.322Y-70.104
X163.4Y-56.515
X167.005Y-67.31
X167.845Y-81.915
X168.91Y-70.485
X169.164Y-52.324
X169.75Y-83.82
X170.385Y-56.515
X170.766Y-69.596
T4
X12.781Y-57.15
X15.321Y-57.15
X17.861Y-57.15
X20.401Y-57.15
X22.941Y-57.15
X44.45Y-50.392
X44.465Y-42.672
X46.99Y-50.392
X47.005Y-42.672
X49.53Y-50.392
X49.545Y-42.672
T5
X52.07Y-55.88
X52.07Y-66.04
T6
X61.74Y-44.45
X66.82Y-44.45
X71.9Y-44.45
X76.98Y-44.45
X87.14Y-44.45
X92.22Y-44.45
X97.3Y-44.45
X102.38Y-44.45
X111.736Y-44.502
X116.816Y-44.502
X126.57Y-44.45
X131.65Y-44.45
X136.73Y-44.45
X141.81Y-44.45
X151.97Y-44.45
X157.05Y-44.45
X162.13Y-44.45
X167.21Y-44.45
T3
G00X12.061Y-40.13
M15
G01X12.861Y-40.13
M16
G05
G00X12.061Y-48.77
M15
G01X12.861Y-48.77
M16
G05
G00X16.061Y-40.13
M15
G01X17.161Y-40.13
M16
G05
G00X16.061Y-48.77
M15
G01X17.161Y-48.77
M16
G05
T0
M30
