G04 #@! TF.GenerationSoftware,KiCad,Pcbnew,7.0.7-7.0.7~ubuntu22.04.1*
G04 #@! TF.CreationDate,2023-08-27T11:43:30+02:00*
G04 #@! TF.ProjectId,pcb_esp32_wled_pwm_multichannel,7063625f-6573-4703-9332-5f776c65645f,rev?*
G04 #@! TF.SameCoordinates,Original*
G04 #@! TF.FileFunction,Copper,L2,Inr*
G04 #@! TF.FilePolarity,Positive*
%FSLAX46Y46*%
G04 Gerber Fmt 4.6, Leading zero omitted, Abs format (unit mm)*
G04 Created by KiCad (PCBNEW 7.0.7-7.0.7~ubuntu22.04.1) date 2023-08-27 11:43:30*
%MOMM*%
%LPD*%
G01*
G04 APERTURE LIST*
G04 #@! TA.AperFunction,ComponentPad*
%ADD10R,1.700000X1.700000*%
G04 #@! TD*
G04 #@! TA.AperFunction,ComponentPad*
%ADD11O,1.700000X1.700000*%
G04 #@! TD*
G04 #@! TA.AperFunction,ComponentPad*
%ADD12R,2.700000X2.700000*%
G04 #@! TD*
G04 #@! TA.AperFunction,ComponentPad*
%ADD13C,2.700000*%
G04 #@! TD*
G04 #@! TA.AperFunction,ComponentPad*
%ADD14C,0.475000*%
G04 #@! TD*
G04 #@! TA.AperFunction,ComponentPad*
%ADD15R,2.200000X2.200000*%
G04 #@! TD*
G04 #@! TA.AperFunction,ComponentPad*
%ADD16O,2.200000X2.200000*%
G04 #@! TD*
G04 #@! TA.AperFunction,ComponentPad*
%ADD17O,2.100000X1.000000*%
G04 #@! TD*
G04 #@! TA.AperFunction,ComponentPad*
%ADD18O,1.800000X1.000000*%
G04 #@! TD*
G04 #@! TA.AperFunction,ViaPad*
%ADD19C,0.800000*%
G04 #@! TD*
G04 APERTURE END LIST*
D10*
G04 #@! TO.N,GND*
G04 #@! TO.C,J107*
X44450000Y-50392000D03*
D11*
G04 #@! TO.N,/I2S_SM*
X46990000Y-50392000D03*
G04 #@! TO.N,/I2S_SCK*
X49530000Y-50392000D03*
G04 #@! TD*
D10*
G04 #@! TO.N,/I2S_SD*
G04 #@! TO.C,J106*
X49545000Y-42672000D03*
D11*
G04 #@! TO.N,+3V3*
X47005000Y-42672000D03*
G04 #@! TO.N,GND*
X44465000Y-42672000D03*
G04 #@! TD*
D12*
G04 #@! TO.N,VDD*
G04 #@! TO.C,J104*
X151970000Y-44450000D03*
D13*
G04 #@! TO.N,/LED_R4*
X157050000Y-44450000D03*
G04 #@! TO.N,/LED_G4*
X162130000Y-44450000D03*
G04 #@! TO.N,/LED_B4*
X167210000Y-44450000D03*
G04 #@! TD*
D12*
G04 #@! TO.N,VDD*
G04 #@! TO.C,J103*
X126570000Y-44450000D03*
D13*
G04 #@! TO.N,/LED_R3*
X131650000Y-44450000D03*
G04 #@! TO.N,/LED_G3*
X136730000Y-44450000D03*
G04 #@! TO.N,/LED_B3*
X141810000Y-44450000D03*
G04 #@! TD*
D12*
G04 #@! TO.N,VDD*
G04 #@! TO.C,J102*
X87140000Y-44450000D03*
D13*
G04 #@! TO.N,/LED_R2*
X92220000Y-44450000D03*
G04 #@! TO.N,/LED_G2*
X97300000Y-44450000D03*
G04 #@! TO.N,/LED_B2*
X102380000Y-44450000D03*
G04 #@! TD*
D14*
G04 #@! TO.N,GND*
G04 #@! TO.C,U101*
X18371200Y-72750000D03*
X19771200Y-72750000D03*
X17671200Y-72050000D03*
X19071200Y-72050000D03*
X20471200Y-72050000D03*
X18371200Y-71350000D03*
X19771200Y-71350000D03*
X17671200Y-70650000D03*
X19071200Y-70650000D03*
X20471200Y-70650000D03*
X18371200Y-69950000D03*
X19771200Y-69950000D03*
G04 #@! TD*
D15*
G04 #@! TO.N,+3V3*
G04 #@! TO.C,D118*
X52070000Y-66040000D03*
D16*
G04 #@! TO.N,GND*
X52070000Y-55880000D03*
G04 #@! TD*
D12*
G04 #@! TO.N,VDD*
G04 #@! TO.C,J101*
X61740000Y-44450000D03*
D13*
G04 #@! TO.N,/LED_R1*
X66820000Y-44450000D03*
G04 #@! TO.N,/LED_G1*
X71900000Y-44450000D03*
G04 #@! TO.N,/LED_B1*
X76980000Y-44450000D03*
G04 #@! TD*
D10*
G04 #@! TO.N,GND*
G04 #@! TO.C,J105*
X12781200Y-57150000D03*
D11*
G04 #@! TO.N,/RXcp21*
X15321200Y-57150000D03*
G04 #@! TO.N,/RXDesp*
X17861200Y-57150000D03*
G04 #@! TO.N,/IO0*
X20401200Y-57150000D03*
G04 #@! TO.N,+3V3*
X22941200Y-57150000D03*
G04 #@! TD*
D17*
G04 #@! TO.N,GND*
G04 #@! TO.C,J109*
X16611200Y-40130000D03*
D18*
X12461200Y-40130000D03*
D17*
X16611200Y-48770000D03*
D18*
X12461200Y-48770000D03*
G04 #@! TD*
D12*
G04 #@! TO.N,VDD*
G04 #@! TO.C,J108*
X111736000Y-44501500D03*
D13*
G04 #@! TO.N,GND*
X116816000Y-44501500D03*
G04 #@! TD*
D19*
G04 #@! TO.N,+3V3*
X32766000Y-71374000D03*
X39574999Y-49325001D03*
X124460000Y-71120000D03*
X26111200Y-44450000D03*
X50546000Y-80772000D03*
X14173200Y-82550000D03*
X21793200Y-47752000D03*
X46228000Y-80772000D03*
X33401000Y-78613000D03*
X23163000Y-84279000D03*
X16586200Y-51435000D03*
G04 #@! TO.N,GND*
X114300000Y-70866000D03*
X34036000Y-48768000D03*
X24206200Y-53975000D03*
X88900000Y-58420000D03*
X167210000Y-66040000D03*
X140540000Y-77724000D03*
X19761200Y-50165000D03*
X18542000Y-82550000D03*
X165305000Y-83820000D03*
X121744000Y-43688000D03*
X122174000Y-50292000D03*
X11506200Y-45720000D03*
X123190000Y-67310000D03*
X58420000Y-78232000D03*
X26746200Y-50165000D03*
X114046000Y-77216000D03*
X135460000Y-68580000D03*
X93980000Y-70104000D03*
X156542000Y-52832000D03*
X170766000Y-69596000D03*
X145796000Y-67056000D03*
X19761200Y-39370000D03*
X84709000Y-64389000D03*
X37592000Y-80010000D03*
X99205000Y-78105000D03*
X138635000Y-71755000D03*
X12446000Y-74168000D03*
X59690000Y-51562000D03*
X53340000Y-46990000D03*
X132285000Y-68580000D03*
X25476200Y-39370000D03*
X167845000Y-80645000D03*
X154510000Y-64770000D03*
X38608000Y-65024000D03*
X11506200Y-43180000D03*
X127840000Y-67310000D03*
X159766000Y-80772000D03*
X28016200Y-51435000D03*
X93726000Y-64135000D03*
X147144000Y-43180000D03*
X132920000Y-64135000D03*
X88392000Y-67183000D03*
X93599000Y-67310000D03*
X108712000Y-67310000D03*
X13970000Y-71120000D03*
X157988000Y-67818000D03*
X149987000Y-60960000D03*
X39370000Y-57150000D03*
X26746200Y-56896000D03*
X82314000Y-43688000D03*
X30988000Y-83820000D03*
X114554000Y-62230000D03*
X170385000Y-56515000D03*
X66294000Y-78232000D03*
X23063200Y-70866000D03*
X169750000Y-83820000D03*
X163400000Y-56515000D03*
X11684000Y-68072000D03*
X136730000Y-77724000D03*
X150700000Y-67945000D03*
X142445000Y-83185000D03*
G04 #@! TO.N,VDD*
X101600000Y-57150000D03*
X143510000Y-53340000D03*
X74930000Y-59690000D03*
X150570000Y-49660000D03*
X128720000Y-48650000D03*
X169164000Y-52324000D03*
X162814000Y-52578000D03*
G04 #@! TO.N,/ESP_EN*
X37846000Y-73316500D03*
X34544000Y-66256500D03*
X14478000Y-75946000D03*
X129540000Y-71120000D03*
G04 #@! TO.N,/IO0*
X35047356Y-60701356D03*
X113792000Y-58674000D03*
X29718000Y-60706000D03*
G04 #@! TO.N,/UVBUS*
X19253200Y-42099500D03*
X18745200Y-46228000D03*
X31724600Y-46456600D03*
G04 #@! TO.N,/UCD+*
X14681200Y-43180000D03*
X13411200Y-44449998D03*
G04 #@! TO.N,/I2S_SD*
X26670000Y-63246000D03*
X41910000Y-63246000D03*
G04 #@! TO.N,/I2S_SM*
X26111200Y-76289500D03*
X41656000Y-76200000D03*
G04 #@! TO.N,/I2S_SCK*
X32232600Y-75209400D03*
X42926000Y-75184000D03*
G04 #@! TO.N,Net-(Q109-G)*
X31750000Y-80518000D03*
X150876000Y-79756000D03*
G04 #@! TO.N,/RTS*
X29895800Y-54051200D03*
X28448000Y-58928000D03*
G04 #@! TO.N,Net-(Q112-G)*
X76073000Y-72263000D03*
X167210000Y-69215000D03*
G04 #@! TO.N,/PWM_R1*
X71882000Y-69558500D03*
X26180215Y-66707499D03*
G04 #@! TO.N,/PWM_G1*
X24638000Y-72136000D03*
X70866000Y-72644000D03*
G04 #@! TO.N,/PWM_B1*
X88459103Y-70612000D03*
X22098000Y-66598800D03*
G04 #@! TO.N,/PWM_R2*
X20447000Y-66548000D03*
X97282000Y-71628000D03*
G04 #@! TO.N,/PWM_G2*
X16764000Y-63754000D03*
X89789000Y-63500000D03*
G04 #@! TO.N,/PWM_B2*
X103886000Y-62992000D03*
X14706600Y-63770802D03*
G04 #@! TO.N,/PWM_R3*
X13081000Y-66294000D03*
X128016000Y-64008000D03*
G04 #@! TO.N,/PWM_G3*
X137922000Y-83566000D03*
X23571200Y-81280000D03*
G04 #@! TO.N,/PWM_R4*
X151384000Y-82550000D03*
X29972000Y-80518000D03*
G04 #@! TO.N,/PWM_G4*
X160655000Y-74041000D03*
X21031200Y-76200000D03*
G04 #@! TO.N,/PWM_B4*
X72390000Y-74930000D03*
X24384000Y-76200000D03*
G04 #@! TD*
G04 #@! TA.AperFunction,Conductor*
G04 #@! TO.N,GND*
G36*
X172153621Y-37485502D02*
G01*
X172200114Y-37539158D01*
X172211500Y-37591500D01*
X172211500Y-85598500D01*
X172191498Y-85666621D01*
X172137842Y-85713114D01*
X172085500Y-85724500D01*
X9778500Y-85724500D01*
X9710379Y-85704498D01*
X9663886Y-85650842D01*
X9652500Y-85598500D01*
X9652500Y-84278999D01*
X22249496Y-84278999D01*
X22269457Y-84468927D01*
X22271268Y-84474500D01*
X22328473Y-84650556D01*
X22328476Y-84650561D01*
X22423958Y-84815941D01*
X22423965Y-84815951D01*
X22551744Y-84957864D01*
X22551747Y-84957866D01*
X22706248Y-85070118D01*
X22880712Y-85147794D01*
X23067513Y-85187500D01*
X23258487Y-85187500D01*
X23445288Y-85147794D01*
X23619752Y-85070118D01*
X23774253Y-84957866D01*
X23902040Y-84815944D01*
X23997527Y-84650556D01*
X24056542Y-84468928D01*
X24076504Y-84279000D01*
X24056542Y-84089072D01*
X23997527Y-83907444D01*
X23902040Y-83742056D01*
X23902038Y-83742054D01*
X23902034Y-83742048D01*
X23774255Y-83600135D01*
X23727271Y-83565999D01*
X137008496Y-83565999D01*
X137028457Y-83755927D01*
X137058526Y-83848470D01*
X137087473Y-83937556D01*
X137087476Y-83937561D01*
X137182958Y-84102941D01*
X137182965Y-84102951D01*
X137310744Y-84244864D01*
X137310747Y-84244866D01*
X137465248Y-84357118D01*
X137639712Y-84434794D01*
X137826513Y-84474500D01*
X138017487Y-84474500D01*
X138204288Y-84434794D01*
X138378752Y-84357118D01*
X138533253Y-84244866D01*
X138661040Y-84102944D01*
X138756527Y-83937556D01*
X138815542Y-83755928D01*
X138835504Y-83566000D01*
X138815542Y-83376072D01*
X138756527Y-83194444D01*
X138661040Y-83029056D01*
X138661038Y-83029054D01*
X138661034Y-83029048D01*
X138533255Y-82887135D01*
X138378752Y-82774882D01*
X138204288Y-82697206D01*
X138017487Y-82657500D01*
X137826513Y-82657500D01*
X137639711Y-82697206D01*
X137465247Y-82774882D01*
X137310744Y-82887135D01*
X137182965Y-83029048D01*
X137182958Y-83029058D01*
X137087476Y-83194438D01*
X137087473Y-83194445D01*
X137028457Y-83376072D01*
X137008496Y-83565999D01*
X23727271Y-83565999D01*
X23619752Y-83487882D01*
X23445288Y-83410206D01*
X23258487Y-83370500D01*
X23067513Y-83370500D01*
X22880711Y-83410206D01*
X22706247Y-83487882D01*
X22551744Y-83600135D01*
X22423965Y-83742048D01*
X22423958Y-83742058D01*
X22328476Y-83907438D01*
X22328473Y-83907445D01*
X22269457Y-84089072D01*
X22249496Y-84278999D01*
X9652500Y-84278999D01*
X9652500Y-82550000D01*
X13259696Y-82550000D01*
X13279657Y-82739927D01*
X13291015Y-82774882D01*
X13338673Y-82921556D01*
X13338676Y-82921561D01*
X13434158Y-83086941D01*
X13434165Y-83086951D01*
X13561944Y-83228864D01*
X13561947Y-83228866D01*
X13716448Y-83341118D01*
X13890912Y-83418794D01*
X14077713Y-83458500D01*
X14268687Y-83458500D01*
X14455488Y-83418794D01*
X14629952Y-83341118D01*
X14784453Y-83228866D01*
X14912240Y-83086944D01*
X15007727Y-82921556D01*
X15066742Y-82739928D01*
X15086704Y-82550000D01*
X150470496Y-82550000D01*
X150490457Y-82739927D01*
X150501815Y-82774882D01*
X150549473Y-82921556D01*
X150549476Y-82921561D01*
X150644958Y-83086941D01*
X150644965Y-83086951D01*
X150772744Y-83228864D01*
X150772747Y-83228866D01*
X150927248Y-83341118D01*
X151101712Y-83418794D01*
X151288513Y-83458500D01*
X151479487Y-83458500D01*
X151666288Y-83418794D01*
X151840752Y-83341118D01*
X151995253Y-83228866D01*
X152123040Y-83086944D01*
X152218527Y-82921556D01*
X152277542Y-82739928D01*
X152297504Y-82550000D01*
X152277542Y-82360072D01*
X152218527Y-82178444D01*
X152123040Y-82013056D01*
X152123038Y-82013054D01*
X152123034Y-82013048D01*
X151995255Y-81871135D01*
X151840752Y-81758882D01*
X151666288Y-81681206D01*
X151479487Y-81641500D01*
X151288513Y-81641500D01*
X151101711Y-81681206D01*
X150927247Y-81758882D01*
X150772744Y-81871135D01*
X150644965Y-82013048D01*
X150644958Y-82013058D01*
X150549476Y-82178438D01*
X150549473Y-82178445D01*
X150490457Y-82360072D01*
X150470496Y-82550000D01*
X15086704Y-82550000D01*
X15066742Y-82360072D01*
X15007727Y-82178444D01*
X14912240Y-82013056D01*
X14912238Y-82013054D01*
X14912234Y-82013048D01*
X14784455Y-81871135D01*
X14629952Y-81758882D01*
X14455488Y-81681206D01*
X14268687Y-81641500D01*
X14077713Y-81641500D01*
X13890911Y-81681206D01*
X13716447Y-81758882D01*
X13561944Y-81871135D01*
X13434165Y-82013048D01*
X13434158Y-82013058D01*
X13338676Y-82178438D01*
X13338673Y-82178445D01*
X13279657Y-82360072D01*
X13259696Y-82550000D01*
X9652500Y-82550000D01*
X9652500Y-81280000D01*
X22657696Y-81280000D01*
X22677657Y-81469927D01*
X22707726Y-81562470D01*
X22736673Y-81651556D01*
X22765041Y-81700691D01*
X22832158Y-81816941D01*
X22832165Y-81816951D01*
X22959944Y-81958864D01*
X22959947Y-81958866D01*
X23114448Y-82071118D01*
X23288912Y-82148794D01*
X23475713Y-82188500D01*
X23666687Y-82188500D01*
X23853488Y-82148794D01*
X24027952Y-82071118D01*
X24182453Y-81958866D01*
X24182455Y-81958864D01*
X24310234Y-81816951D01*
X24310235Y-81816949D01*
X24310240Y-81816944D01*
X24405727Y-81651556D01*
X24464742Y-81469928D01*
X24484704Y-81280000D01*
X24464742Y-81090072D01*
X24405727Y-80908444D01*
X24310240Y-80743056D01*
X24310238Y-80743054D01*
X24310234Y-80743048D01*
X24182455Y-80601135D01*
X24068029Y-80518000D01*
X29058496Y-80518000D01*
X29078457Y-80707927D01*
X29099276Y-80771999D01*
X29137473Y-80889556D01*
X29137476Y-80889561D01*
X29232958Y-81054941D01*
X29232965Y-81054951D01*
X29360744Y-81196864D01*
X29360747Y-81196866D01*
X29515248Y-81309118D01*
X29689712Y-81386794D01*
X29876513Y-81426500D01*
X30067487Y-81426500D01*
X30254288Y-81386794D01*
X30428752Y-81309118D01*
X30583253Y-81196866D01*
X30631249Y-81143561D01*
X30711034Y-81054951D01*
X30711035Y-81054949D01*
X30711040Y-81054944D01*
X30751882Y-80984202D01*
X30803261Y-80935212D01*
X30872975Y-80921775D01*
X30938886Y-80948162D01*
X30970118Y-80984204D01*
X31010960Y-81054944D01*
X31010965Y-81054951D01*
X31138744Y-81196864D01*
X31138747Y-81196866D01*
X31293248Y-81309118D01*
X31467712Y-81386794D01*
X31654513Y-81426500D01*
X31845487Y-81426500D01*
X32032288Y-81386794D01*
X32206752Y-81309118D01*
X32361253Y-81196866D01*
X32409249Y-81143561D01*
X32489034Y-81054951D01*
X32489035Y-81054949D01*
X32489040Y-81054944D01*
X32584527Y-80889556D01*
X32622724Y-80771999D01*
X45314496Y-80771999D01*
X45334457Y-80961927D01*
X45364526Y-81054470D01*
X45393473Y-81143556D01*
X45393476Y-81143561D01*
X45488958Y-81308941D01*
X45488965Y-81308951D01*
X45616744Y-81450864D01*
X45616747Y-81450866D01*
X45771248Y-81563118D01*
X45945712Y-81640794D01*
X46132513Y-81680500D01*
X46323487Y-81680500D01*
X46510288Y-81640794D01*
X46684752Y-81563118D01*
X46839253Y-81450866D01*
X46896945Y-81386793D01*
X46967034Y-81308951D01*
X46967035Y-81308949D01*
X46967040Y-81308944D01*
X47062527Y-81143556D01*
X47121542Y-80961928D01*
X47141504Y-80772000D01*
X49632496Y-80772000D01*
X49652457Y-80961927D01*
X49682526Y-81054470D01*
X49711473Y-81143556D01*
X49711476Y-81143561D01*
X49806958Y-81308941D01*
X49806965Y-81308951D01*
X49934744Y-81450864D01*
X49934747Y-81450866D01*
X50089248Y-81563118D01*
X50263712Y-81640794D01*
X50450513Y-81680500D01*
X50641487Y-81680500D01*
X50828288Y-81640794D01*
X51002752Y-81563118D01*
X51157253Y-81450866D01*
X51214945Y-81386793D01*
X51285034Y-81308951D01*
X51285035Y-81308949D01*
X51285040Y-81308944D01*
X51380527Y-81143556D01*
X51439542Y-80961928D01*
X51459504Y-80772000D01*
X51439542Y-80582072D01*
X51380527Y-80400444D01*
X51285040Y-80235056D01*
X51285038Y-80235054D01*
X51285034Y-80235048D01*
X51157255Y-80093135D01*
X51002752Y-79980882D01*
X50828288Y-79903206D01*
X50641487Y-79863500D01*
X50450513Y-79863500D01*
X50263711Y-79903206D01*
X50089247Y-79980882D01*
X49934744Y-80093135D01*
X49806965Y-80235048D01*
X49806958Y-80235058D01*
X49711476Y-80400438D01*
X49711473Y-80400445D01*
X49652457Y-80582072D01*
X49632496Y-80772000D01*
X47141504Y-80772000D01*
X47121542Y-80582072D01*
X47062527Y-80400444D01*
X46967040Y-80235056D01*
X46967038Y-80235054D01*
X46967034Y-80235048D01*
X46839255Y-80093135D01*
X46684752Y-79980882D01*
X46510288Y-79903206D01*
X46323487Y-79863500D01*
X46132513Y-79863500D01*
X45945711Y-79903206D01*
X45771247Y-79980882D01*
X45616744Y-80093135D01*
X45488965Y-80235048D01*
X45488958Y-80235058D01*
X45393476Y-80400438D01*
X45393473Y-80400445D01*
X45334457Y-80582072D01*
X45314496Y-80771999D01*
X32622724Y-80771999D01*
X32643542Y-80707928D01*
X32663504Y-80518000D01*
X32643542Y-80328072D01*
X32584527Y-80146444D01*
X32489040Y-79981056D01*
X32489038Y-79981054D01*
X32489034Y-79981048D01*
X32361255Y-79839135D01*
X32206752Y-79726882D01*
X32032288Y-79649206D01*
X31845487Y-79609500D01*
X31654513Y-79609500D01*
X31467711Y-79649206D01*
X31293247Y-79726882D01*
X31138744Y-79839135D01*
X31010965Y-79981048D01*
X31010961Y-79981055D01*
X30970119Y-80051795D01*
X30918736Y-80100788D01*
X30849022Y-80114223D01*
X30783111Y-80087836D01*
X30751881Y-80051795D01*
X30711040Y-79981056D01*
X30711036Y-79981051D01*
X30711034Y-79981048D01*
X30583255Y-79839135D01*
X30428752Y-79726882D01*
X30254288Y-79649206D01*
X30067487Y-79609500D01*
X29876513Y-79609500D01*
X29689711Y-79649206D01*
X29515247Y-79726882D01*
X29360744Y-79839135D01*
X29232965Y-79981048D01*
X29232958Y-79981058D01*
X29137476Y-80146438D01*
X29137473Y-80146445D01*
X29078457Y-80328072D01*
X29058496Y-80518000D01*
X24068029Y-80518000D01*
X24027952Y-80488882D01*
X23853488Y-80411206D01*
X23666687Y-80371500D01*
X23475713Y-80371500D01*
X23288911Y-80411206D01*
X23114447Y-80488882D01*
X22959944Y-80601135D01*
X22832165Y-80743048D01*
X22832158Y-80743058D01*
X22747579Y-80889554D01*
X22736673Y-80908444D01*
X22723768Y-80948162D01*
X22677657Y-81090072D01*
X22657696Y-81280000D01*
X9652500Y-81280000D01*
X9652500Y-78613000D01*
X32487496Y-78613000D01*
X32507457Y-78802927D01*
X32521940Y-78847500D01*
X32566473Y-78984556D01*
X32566476Y-78984561D01*
X32661958Y-79149941D01*
X32661965Y-79149951D01*
X32789744Y-79291864D01*
X32789747Y-79291866D01*
X32944248Y-79404118D01*
X33118712Y-79481794D01*
X33305513Y-79521500D01*
X33496487Y-79521500D01*
X33683288Y-79481794D01*
X33857752Y-79404118D01*
X33979359Y-79315765D01*
X93395788Y-79315765D01*
X93425412Y-79585014D01*
X93493928Y-79847090D01*
X93599869Y-80096389D01*
X93630418Y-80146445D01*
X93740982Y-80327610D01*
X93914255Y-80535820D01*
X94115998Y-80716582D01*
X94341910Y-80866044D01*
X94587176Y-80981020D01*
X94846569Y-81059060D01*
X94846572Y-81059060D01*
X94846574Y-81059061D01*
X95114557Y-81098500D01*
X95114561Y-81098500D01*
X95317633Y-81098500D01*
X95352363Y-81095957D01*
X95520156Y-81083677D01*
X95520160Y-81083676D01*
X95520161Y-81083676D01*
X95649111Y-81054951D01*
X95784553Y-81024780D01*
X96037558Y-80928014D01*
X96273777Y-80795441D01*
X96488177Y-80629888D01*
X96676186Y-80434881D01*
X96833799Y-80214579D01*
X96885396Y-80114223D01*
X96957656Y-79973675D01*
X96957657Y-79973672D01*
X97031917Y-79756000D01*
X149962496Y-79756000D01*
X149982457Y-79945927D01*
X150012526Y-80038470D01*
X150041473Y-80127556D01*
X150041476Y-80127561D01*
X150136958Y-80292941D01*
X150136965Y-80292951D01*
X150264744Y-80434864D01*
X150264769Y-80434882D01*
X150419248Y-80547118D01*
X150593712Y-80624794D01*
X150780513Y-80664500D01*
X150971487Y-80664500D01*
X151158288Y-80624794D01*
X151332752Y-80547118D01*
X151487253Y-80434866D01*
X151583827Y-80327610D01*
X151615034Y-80292951D01*
X151615035Y-80292949D01*
X151615040Y-80292944D01*
X151710527Y-80127556D01*
X151769542Y-79945928D01*
X151789504Y-79756000D01*
X151769542Y-79566072D01*
X151710527Y-79384444D01*
X151615040Y-79219056D01*
X151615038Y-79219054D01*
X151615034Y-79219048D01*
X151487255Y-79077135D01*
X151332752Y-78964882D01*
X151158288Y-78887206D01*
X150971487Y-78847500D01*
X150780513Y-78847500D01*
X150593711Y-78887206D01*
X150419247Y-78964882D01*
X150264744Y-79077135D01*
X150136965Y-79219048D01*
X150136958Y-79219058D01*
X150041476Y-79384438D01*
X150041473Y-79384444D01*
X150026999Y-79428986D01*
X149982457Y-79566072D01*
X149962496Y-79756000D01*
X97031917Y-79756000D01*
X97045118Y-79717305D01*
X97094319Y-79450933D01*
X97104212Y-79180235D01*
X97082682Y-78984561D01*
X97074587Y-78910985D01*
X97006071Y-78648909D01*
X96900130Y-78399610D01*
X96841525Y-78303583D01*
X96759018Y-78168390D01*
X96585745Y-77960180D01*
X96585741Y-77960177D01*
X96585740Y-77960175D01*
X96384012Y-77779427D01*
X96384002Y-77779418D01*
X96158090Y-77629956D01*
X95912824Y-77514980D01*
X95755392Y-77467615D01*
X95653425Y-77436938D01*
X95385442Y-77397500D01*
X95385439Y-77397500D01*
X95182369Y-77397500D01*
X95182367Y-77397500D01*
X94979839Y-77412323D01*
X94979838Y-77412323D01*
X94715456Y-77471217D01*
X94715441Y-77471222D01*
X94462441Y-77567986D01*
X94226229Y-77700555D01*
X94226225Y-77700557D01*
X94011818Y-77866116D01*
X93823815Y-78061117D01*
X93823810Y-78061123D01*
X93666203Y-78281417D01*
X93666196Y-78281427D01*
X93542343Y-78522324D01*
X93542342Y-78522327D01*
X93454883Y-78778689D01*
X93454880Y-78778702D01*
X93405681Y-79045058D01*
X93405680Y-79045069D01*
X93395788Y-79315765D01*
X33979359Y-79315765D01*
X34012253Y-79291866D01*
X34077810Y-79219058D01*
X34140034Y-79149951D01*
X34140035Y-79149949D01*
X34140040Y-79149944D01*
X34235527Y-78984556D01*
X34294542Y-78802928D01*
X34314504Y-78613000D01*
X34294542Y-78423072D01*
X34235527Y-78241444D01*
X34140040Y-78076056D01*
X34140038Y-78076054D01*
X34140034Y-78076048D01*
X34012255Y-77934135D01*
X33857752Y-77821882D01*
X33683288Y-77744206D01*
X33496487Y-77704500D01*
X33305513Y-77704500D01*
X33118711Y-77744206D01*
X32944247Y-77821882D01*
X32789744Y-77934135D01*
X32661965Y-78076048D01*
X32661958Y-78076058D01*
X32566476Y-78241438D01*
X32566473Y-78241445D01*
X32507457Y-78423072D01*
X32487496Y-78613000D01*
X9652500Y-78613000D01*
X9652500Y-75946000D01*
X13564496Y-75946000D01*
X13584457Y-76135927D01*
X13605276Y-76199998D01*
X13643473Y-76317556D01*
X13643476Y-76317561D01*
X13738958Y-76482941D01*
X13738965Y-76482951D01*
X13866744Y-76624864D01*
X13866747Y-76624866D01*
X14021248Y-76737118D01*
X14195712Y-76814794D01*
X14382513Y-76854500D01*
X14573487Y-76854500D01*
X14760288Y-76814794D01*
X14934752Y-76737118D01*
X15089253Y-76624866D01*
X15137249Y-76571561D01*
X15217034Y-76482951D01*
X15217035Y-76482949D01*
X15217040Y-76482944D01*
X15312527Y-76317556D01*
X15350724Y-76200000D01*
X20117696Y-76200000D01*
X20137657Y-76389927D01*
X20166738Y-76479427D01*
X20196673Y-76571556D01*
X20196676Y-76571561D01*
X20292158Y-76736941D01*
X20292165Y-76736951D01*
X20419944Y-76878864D01*
X20419947Y-76878866D01*
X20574448Y-76991118D01*
X20748912Y-77068794D01*
X20935713Y-77108500D01*
X21126687Y-77108500D01*
X21313488Y-77068794D01*
X21487952Y-76991118D01*
X21642453Y-76878866D01*
X21742966Y-76767235D01*
X21770234Y-76736951D01*
X21770235Y-76736949D01*
X21770240Y-76736944D01*
X21865727Y-76571556D01*
X21924742Y-76389928D01*
X21944704Y-76200000D01*
X21944704Y-76199999D01*
X23470496Y-76199999D01*
X23490457Y-76389927D01*
X23519538Y-76479427D01*
X23549473Y-76571556D01*
X23549476Y-76571561D01*
X23644958Y-76736941D01*
X23644965Y-76736951D01*
X23772744Y-76878864D01*
X23772747Y-76878866D01*
X23927248Y-76991118D01*
X24101712Y-77068794D01*
X24288513Y-77108500D01*
X24479487Y-77108500D01*
X24666288Y-77068794D01*
X24840752Y-76991118D01*
X24995253Y-76878866D01*
X25123040Y-76736944D01*
X25123042Y-76736939D01*
X25127301Y-76732210D01*
X25187747Y-76694970D01*
X25258731Y-76696321D01*
X25317716Y-76735835D01*
X25330057Y-76753520D01*
X25372158Y-76826441D01*
X25372165Y-76826451D01*
X25499944Y-76968364D01*
X25499947Y-76968366D01*
X25654448Y-77080618D01*
X25828912Y-77158294D01*
X26015713Y-77198000D01*
X26206687Y-77198000D01*
X26393488Y-77158294D01*
X26567952Y-77080618D01*
X26722453Y-76968366D01*
X26722455Y-76968364D01*
X26850234Y-76826451D01*
X26850235Y-76826449D01*
X26850240Y-76826444D01*
X26945727Y-76661056D01*
X27004742Y-76479428D01*
X27024704Y-76289500D01*
X27015297Y-76200000D01*
X40742496Y-76200000D01*
X40762457Y-76389927D01*
X40791538Y-76479427D01*
X40821473Y-76571556D01*
X40821476Y-76571561D01*
X40916958Y-76736941D01*
X40916965Y-76736951D01*
X41044744Y-76878864D01*
X41044747Y-76878866D01*
X41199248Y-76991118D01*
X41373712Y-77068794D01*
X41560513Y-77108500D01*
X41751487Y-77108500D01*
X41938288Y-77068794D01*
X42112752Y-76991118D01*
X42234359Y-76902765D01*
X153085788Y-76902765D01*
X153115412Y-77172014D01*
X153183928Y-77434090D01*
X153289869Y-77683389D01*
X153300347Y-77700557D01*
X153430982Y-77914610D01*
X153604255Y-78122820D01*
X153604257Y-78122822D01*
X153604259Y-78122824D01*
X153709236Y-78216883D01*
X153805998Y-78303582D01*
X154031910Y-78453044D01*
X154277176Y-78568020D01*
X154536569Y-78646060D01*
X154536572Y-78646060D01*
X154536574Y-78646061D01*
X154804557Y-78685500D01*
X154804561Y-78685500D01*
X155007633Y-78685500D01*
X155042363Y-78682957D01*
X155210156Y-78670677D01*
X155210160Y-78670676D01*
X155210161Y-78670676D01*
X155320665Y-78646060D01*
X155474553Y-78611780D01*
X155727558Y-78515014D01*
X155963777Y-78382441D01*
X156178177Y-78216888D01*
X156366186Y-78021881D01*
X156523799Y-77801579D01*
X156553297Y-77744206D01*
X156647656Y-77560675D01*
X156647657Y-77560672D01*
X156689869Y-77436940D01*
X156735118Y-77304305D01*
X156784319Y-77037933D01*
X156794212Y-76767235D01*
X156772682Y-76571561D01*
X156764587Y-76497985D01*
X156717418Y-76317561D01*
X156696072Y-76235912D01*
X156653583Y-76135928D01*
X156590130Y-75986610D01*
X156590130Y-75986609D01*
X156449018Y-75755390D01*
X156275745Y-75547180D01*
X156275741Y-75547177D01*
X156275740Y-75547175D01*
X156074012Y-75366427D01*
X156074002Y-75366418D01*
X155848090Y-75216956D01*
X155602824Y-75101980D01*
X155445392Y-75054615D01*
X155343425Y-75023938D01*
X155075442Y-74984500D01*
X155075439Y-74984500D01*
X154872369Y-74984500D01*
X154872367Y-74984500D01*
X154669839Y-74999323D01*
X154669838Y-74999323D01*
X154405456Y-75058217D01*
X154405441Y-75058222D01*
X154152441Y-75154986D01*
X153916229Y-75287555D01*
X153916225Y-75287557D01*
X153701818Y-75453116D01*
X153513815Y-75648117D01*
X153513810Y-75648123D01*
X153356203Y-75868417D01*
X153356196Y-75868427D01*
X153232343Y-76109324D01*
X153232342Y-76109327D01*
X153144883Y-76365689D01*
X153144880Y-76365702D01*
X153095681Y-76632058D01*
X153095680Y-76632069D01*
X153085788Y-76902765D01*
X42234359Y-76902765D01*
X42267253Y-76878866D01*
X42367766Y-76767235D01*
X42395034Y-76736951D01*
X42395035Y-76736949D01*
X42395040Y-76736944D01*
X42490527Y-76571556D01*
X42549542Y-76389928D01*
X42569504Y-76200000D01*
X42569504Y-76199998D01*
X42569504Y-76193396D01*
X42572383Y-76193396D01*
X42582858Y-76135979D01*
X42631339Y-76084112D01*
X42700164Y-76066689D01*
X42721617Y-76069354D01*
X42830508Y-76092500D01*
X42830513Y-76092500D01*
X43021487Y-76092500D01*
X43208288Y-76052794D01*
X43382752Y-75975118D01*
X43537253Y-75862866D01*
X43636575Y-75752558D01*
X43665034Y-75720951D01*
X43665035Y-75720949D01*
X43665040Y-75720944D01*
X43760527Y-75555556D01*
X43819542Y-75373928D01*
X43839504Y-75184000D01*
X43819542Y-74994072D01*
X43798724Y-74930000D01*
X71476496Y-74930000D01*
X71496457Y-75119927D01*
X71507815Y-75154882D01*
X71555473Y-75301556D01*
X71583841Y-75350691D01*
X71650958Y-75466941D01*
X71650965Y-75466951D01*
X71778744Y-75608864D01*
X71778747Y-75608866D01*
X71933248Y-75721118D01*
X72107712Y-75798794D01*
X72294513Y-75838500D01*
X72485487Y-75838500D01*
X72672288Y-75798794D01*
X72846752Y-75721118D01*
X73001253Y-75608866D01*
X73049249Y-75555561D01*
X73129034Y-75466951D01*
X73129035Y-75466949D01*
X73129040Y-75466944D01*
X73224527Y-75301556D01*
X73283542Y-75119928D01*
X73303504Y-74930000D01*
X73283542Y-74740072D01*
X73224527Y-74558444D01*
X73129040Y-74393056D01*
X73129038Y-74393054D01*
X73129034Y-74393048D01*
X73001255Y-74251135D01*
X72846752Y-74138882D01*
X72672288Y-74061206D01*
X72577227Y-74041000D01*
X159741496Y-74041000D01*
X159761457Y-74230927D01*
X159775940Y-74275500D01*
X159820473Y-74412556D01*
X159820476Y-74412561D01*
X159915958Y-74577941D01*
X159915965Y-74577951D01*
X160043744Y-74719864D01*
X160043747Y-74719866D01*
X160198248Y-74832118D01*
X160372712Y-74909794D01*
X160559513Y-74949500D01*
X160750487Y-74949500D01*
X160937288Y-74909794D01*
X161111752Y-74832118D01*
X161266253Y-74719866D01*
X161266255Y-74719864D01*
X161394034Y-74577951D01*
X161394035Y-74577949D01*
X161394040Y-74577944D01*
X161489527Y-74412556D01*
X161548542Y-74230928D01*
X161568504Y-74041000D01*
X161548542Y-73851072D01*
X161489527Y-73669444D01*
X161394040Y-73504056D01*
X161394038Y-73504054D01*
X161394034Y-73504048D01*
X161266255Y-73362135D01*
X161111752Y-73249882D01*
X160937288Y-73172206D01*
X160750487Y-73132500D01*
X160559513Y-73132500D01*
X160372711Y-73172206D01*
X160198247Y-73249882D01*
X160043744Y-73362135D01*
X159915965Y-73504048D01*
X159915958Y-73504058D01*
X159820476Y-73669438D01*
X159820473Y-73669445D01*
X159761457Y-73851072D01*
X159741496Y-74041000D01*
X72577227Y-74041000D01*
X72485487Y-74021500D01*
X72294513Y-74021500D01*
X72107711Y-74061206D01*
X71933247Y-74138882D01*
X71778744Y-74251135D01*
X71650965Y-74393048D01*
X71650958Y-74393058D01*
X71555476Y-74558438D01*
X71555473Y-74558445D01*
X71496457Y-74740072D01*
X71476496Y-74930000D01*
X43798724Y-74930000D01*
X43760527Y-74812444D01*
X43665040Y-74647056D01*
X43665038Y-74647054D01*
X43665034Y-74647048D01*
X43537255Y-74505135D01*
X43382752Y-74392882D01*
X43208288Y-74315206D01*
X43021487Y-74275500D01*
X42830513Y-74275500D01*
X42643711Y-74315206D01*
X42469247Y-74392882D01*
X42314744Y-74505135D01*
X42186965Y-74647048D01*
X42186958Y-74647058D01*
X42091476Y-74812438D01*
X42091473Y-74812444D01*
X42083222Y-74837838D01*
X42032457Y-74994072D01*
X42012496Y-75184001D01*
X42012496Y-75190603D01*
X42009645Y-75190603D01*
X41999070Y-75248159D01*
X41950526Y-75299966D01*
X41881678Y-75317304D01*
X41860382Y-75314646D01*
X41751488Y-75291500D01*
X41751487Y-75291500D01*
X41560513Y-75291500D01*
X41373711Y-75331206D01*
X41199247Y-75408882D01*
X41044744Y-75521135D01*
X40916965Y-75663048D01*
X40916958Y-75663058D01*
X40821476Y-75828438D01*
X40821473Y-75828445D01*
X40762457Y-76010072D01*
X40742496Y-76200000D01*
X27015297Y-76200000D01*
X27004742Y-76099572D01*
X26945727Y-75917944D01*
X26850240Y-75752556D01*
X26850238Y-75752554D01*
X26850234Y-75752548D01*
X26722455Y-75610635D01*
X26567952Y-75498382D01*
X26393488Y-75420706D01*
X26206687Y-75381000D01*
X26015713Y-75381000D01*
X25828911Y-75420706D01*
X25654447Y-75498382D01*
X25499944Y-75610635D01*
X25367897Y-75757289D01*
X25307451Y-75794529D01*
X25236467Y-75793177D01*
X25177483Y-75753664D01*
X25165142Y-75735979D01*
X25156561Y-75721117D01*
X25123040Y-75663056D01*
X25123038Y-75663054D01*
X25123034Y-75663048D01*
X24995255Y-75521135D01*
X24840752Y-75408882D01*
X24666288Y-75331206D01*
X24479487Y-75291500D01*
X24288513Y-75291500D01*
X24101711Y-75331206D01*
X23927247Y-75408882D01*
X23772744Y-75521135D01*
X23644965Y-75663048D01*
X23644958Y-75663058D01*
X23549476Y-75828438D01*
X23549473Y-75828445D01*
X23490457Y-76010072D01*
X23470496Y-76199999D01*
X21944704Y-76199999D01*
X21924742Y-76010072D01*
X21865727Y-75828444D01*
X21770240Y-75663056D01*
X21770238Y-75663054D01*
X21770234Y-75663048D01*
X21642455Y-75521135D01*
X21487952Y-75408882D01*
X21313488Y-75331206D01*
X21126687Y-75291500D01*
X20935713Y-75291500D01*
X20748911Y-75331206D01*
X20574447Y-75408882D01*
X20419944Y-75521135D01*
X20292165Y-75663048D01*
X20292158Y-75663058D01*
X20196676Y-75828438D01*
X20196673Y-75828445D01*
X20137657Y-76010072D01*
X20117696Y-76200000D01*
X15350724Y-76200000D01*
X15371542Y-76135928D01*
X15391504Y-75946000D01*
X15371542Y-75756072D01*
X15312527Y-75574444D01*
X15217040Y-75409056D01*
X15217038Y-75409054D01*
X15217034Y-75409048D01*
X15089255Y-75267135D01*
X15009790Y-75209400D01*
X31319096Y-75209400D01*
X31339057Y-75399327D01*
X31356535Y-75453116D01*
X31398073Y-75580956D01*
X31398076Y-75580961D01*
X31493558Y-75746341D01*
X31493565Y-75746351D01*
X31621344Y-75888264D01*
X31621347Y-75888266D01*
X31775848Y-76000518D01*
X31950312Y-76078194D01*
X32137113Y-76117900D01*
X32328087Y-76117900D01*
X32514888Y-76078194D01*
X32689352Y-76000518D01*
X32843853Y-75888266D01*
X32861716Y-75868427D01*
X32971634Y-75746351D01*
X32971635Y-75746349D01*
X32971640Y-75746344D01*
X33067127Y-75580956D01*
X33126142Y-75399328D01*
X33146104Y-75209400D01*
X33126142Y-75019472D01*
X33067127Y-74837844D01*
X32971640Y-74672456D01*
X32971638Y-74672454D01*
X32971634Y-74672448D01*
X32843855Y-74530535D01*
X32689352Y-74418282D01*
X32514888Y-74340606D01*
X32328087Y-74300900D01*
X32137113Y-74300900D01*
X31950311Y-74340606D01*
X31775847Y-74418282D01*
X31621344Y-74530535D01*
X31493565Y-74672448D01*
X31493558Y-74672458D01*
X31398076Y-74837838D01*
X31398073Y-74837845D01*
X31339057Y-75019472D01*
X31319096Y-75209400D01*
X15009790Y-75209400D01*
X14934752Y-75154882D01*
X14760288Y-75077206D01*
X14573487Y-75037500D01*
X14382513Y-75037500D01*
X14195711Y-75077206D01*
X14021247Y-75154882D01*
X13866744Y-75267135D01*
X13738965Y-75409048D01*
X13738958Y-75409058D01*
X13654379Y-75555554D01*
X13643473Y-75574444D01*
X13632289Y-75608864D01*
X13584457Y-75756072D01*
X13564496Y-75946000D01*
X9652500Y-75946000D01*
X9652500Y-73420310D01*
X18036762Y-73420310D01*
X18045695Y-73425922D01*
X18045693Y-73425922D01*
X18204258Y-73481405D01*
X18371200Y-73500216D01*
X18538141Y-73481405D01*
X18696706Y-73425922D01*
X18696709Y-73425921D01*
X18705635Y-73420311D01*
X18705636Y-73420310D01*
X19436762Y-73420310D01*
X19445695Y-73425922D01*
X19445693Y-73425922D01*
X19604258Y-73481405D01*
X19771200Y-73500216D01*
X19938141Y-73481405D01*
X20096706Y-73425922D01*
X20096709Y-73425921D01*
X20105635Y-73420311D01*
X20105636Y-73420310D01*
X20001826Y-73316500D01*
X36932496Y-73316500D01*
X36952457Y-73506427D01*
X36982526Y-73598970D01*
X37011473Y-73688056D01*
X37011476Y-73688061D01*
X37106958Y-73853441D01*
X37106965Y-73853451D01*
X37234744Y-73995364D01*
X37234747Y-73995366D01*
X37389248Y-74107618D01*
X37563712Y-74185294D01*
X37750513Y-74225000D01*
X37941487Y-74225000D01*
X38128288Y-74185294D01*
X38302752Y-74107618D01*
X38457253Y-73995366D01*
X38585040Y-73853444D01*
X38680527Y-73688056D01*
X38739542Y-73506428D01*
X38759504Y-73316500D01*
X38739542Y-73126572D01*
X38680527Y-72944944D01*
X38585040Y-72779556D01*
X38585038Y-72779554D01*
X38585034Y-72779548D01*
X38462985Y-72643999D01*
X69952496Y-72643999D01*
X69972457Y-72833927D01*
X69992296Y-72894983D01*
X70031473Y-73015556D01*
X70031476Y-73015561D01*
X70126958Y-73180941D01*
X70126965Y-73180951D01*
X70254744Y-73322864D01*
X70254747Y-73322866D01*
X70409248Y-73435118D01*
X70583712Y-73512794D01*
X70770513Y-73552500D01*
X70961487Y-73552500D01*
X71148288Y-73512794D01*
X71322752Y-73435118D01*
X71477253Y-73322866D01*
X71605040Y-73180944D01*
X71700527Y-73015556D01*
X71759542Y-72833928D01*
X71779504Y-72644000D01*
X71759542Y-72454072D01*
X71700527Y-72272444D01*
X71695074Y-72262999D01*
X75159496Y-72262999D01*
X75179457Y-72452927D01*
X75193711Y-72496794D01*
X75238473Y-72634556D01*
X75256012Y-72664935D01*
X75333958Y-72799941D01*
X75333965Y-72799951D01*
X75461744Y-72941864D01*
X75461747Y-72941866D01*
X75616248Y-73054118D01*
X75790712Y-73131794D01*
X75977513Y-73171500D01*
X76168487Y-73171500D01*
X76355288Y-73131794D01*
X76529752Y-73054118D01*
X76684253Y-72941866D01*
X76757232Y-72860815D01*
X76812034Y-72799951D01*
X76812035Y-72799949D01*
X76812040Y-72799944D01*
X76907527Y-72634556D01*
X76966542Y-72452928D01*
X76986504Y-72263000D01*
X76966542Y-72073072D01*
X76907527Y-71891444D01*
X76812040Y-71726056D01*
X76812038Y-71726054D01*
X76812034Y-71726048D01*
X76723751Y-71628000D01*
X96368496Y-71628000D01*
X96388457Y-71817927D01*
X96399815Y-71852882D01*
X96447473Y-71999556D01*
X96447476Y-71999561D01*
X96542958Y-72164941D01*
X96542965Y-72164951D01*
X96670744Y-72306864D01*
X96670747Y-72306866D01*
X96825248Y-72419118D01*
X96999712Y-72496794D01*
X97186513Y-72536500D01*
X97377487Y-72536500D01*
X97564288Y-72496794D01*
X97738752Y-72419118D01*
X97893253Y-72306866D01*
X97974224Y-72216939D01*
X98021034Y-72164951D01*
X98021035Y-72164949D01*
X98021040Y-72164944D01*
X98116527Y-71999556D01*
X98175542Y-71817928D01*
X98195504Y-71628000D01*
X98175542Y-71438072D01*
X98116527Y-71256444D01*
X98037751Y-71120000D01*
X123546496Y-71120000D01*
X123566457Y-71309927D01*
X123579478Y-71349999D01*
X123625473Y-71491556D01*
X123625476Y-71491561D01*
X123720958Y-71656941D01*
X123720965Y-71656951D01*
X123848744Y-71798864D01*
X123848747Y-71798866D01*
X124003248Y-71911118D01*
X124177712Y-71988794D01*
X124364513Y-72028500D01*
X124555487Y-72028500D01*
X124742288Y-71988794D01*
X124916752Y-71911118D01*
X125071253Y-71798866D01*
X125119249Y-71745561D01*
X125199034Y-71656951D01*
X125199035Y-71656949D01*
X125199040Y-71656944D01*
X125294527Y-71491556D01*
X125353542Y-71309928D01*
X125373504Y-71120000D01*
X128626496Y-71120000D01*
X128646457Y-71309927D01*
X128659478Y-71349999D01*
X128705473Y-71491556D01*
X128705476Y-71491561D01*
X128800958Y-71656941D01*
X128800965Y-71656951D01*
X128928744Y-71798864D01*
X128928747Y-71798866D01*
X129083248Y-71911118D01*
X129257712Y-71988794D01*
X129444513Y-72028500D01*
X129635487Y-72028500D01*
X129822288Y-71988794D01*
X129996752Y-71911118D01*
X130151253Y-71798866D01*
X130199249Y-71745561D01*
X130279034Y-71656951D01*
X130279035Y-71656949D01*
X130279040Y-71656944D01*
X130374527Y-71491556D01*
X130433542Y-71309928D01*
X130453504Y-71120000D01*
X130433542Y-70930072D01*
X130374527Y-70748444D01*
X130279040Y-70583056D01*
X130279038Y-70583054D01*
X130279034Y-70583048D01*
X130151255Y-70441135D01*
X129996752Y-70328882D01*
X129822288Y-70251206D01*
X129635487Y-70211500D01*
X129444513Y-70211500D01*
X129257711Y-70251206D01*
X129083247Y-70328882D01*
X128928744Y-70441135D01*
X128800965Y-70583048D01*
X128800958Y-70583058D01*
X128705619Y-70748191D01*
X128705473Y-70748444D01*
X128690999Y-70792986D01*
X128646457Y-70930072D01*
X128626496Y-71120000D01*
X125373504Y-71120000D01*
X125353542Y-70930072D01*
X125294527Y-70748444D01*
X125199040Y-70583056D01*
X125199038Y-70583054D01*
X125199034Y-70583048D01*
X125071255Y-70441135D01*
X124916752Y-70328882D01*
X124742288Y-70251206D01*
X124555487Y-70211500D01*
X124364513Y-70211500D01*
X124177711Y-70251206D01*
X124003247Y-70328882D01*
X123848744Y-70441135D01*
X123720965Y-70583048D01*
X123720958Y-70583058D01*
X123625619Y-70748191D01*
X123625473Y-70748444D01*
X123610999Y-70792986D01*
X123566457Y-70930072D01*
X123546496Y-71120000D01*
X98037751Y-71120000D01*
X98021040Y-71091056D01*
X98021038Y-71091054D01*
X98021034Y-71091048D01*
X97893255Y-70949135D01*
X97738752Y-70836882D01*
X97564288Y-70759206D01*
X97377487Y-70719500D01*
X97186513Y-70719500D01*
X96999711Y-70759206D01*
X96825247Y-70836882D01*
X96670744Y-70949135D01*
X96542965Y-71091048D01*
X96542958Y-71091058D01*
X96447476Y-71256438D01*
X96447473Y-71256445D01*
X96388457Y-71438072D01*
X96368496Y-71628000D01*
X76723751Y-71628000D01*
X76684255Y-71584135D01*
X76529752Y-71471882D01*
X76355288Y-71394206D01*
X76168487Y-71354500D01*
X75977513Y-71354500D01*
X75790711Y-71394206D01*
X75616247Y-71471882D01*
X75461744Y-71584135D01*
X75333965Y-71726048D01*
X75333958Y-71726058D01*
X75238476Y-71891438D01*
X75238473Y-71891444D01*
X75223999Y-71935986D01*
X75179457Y-72073072D01*
X75159496Y-72262999D01*
X71695074Y-72262999D01*
X71605040Y-72107056D01*
X71605038Y-72107054D01*
X71605034Y-72107048D01*
X71477255Y-71965135D01*
X71322752Y-71852882D01*
X71148288Y-71775206D01*
X70961487Y-71735500D01*
X70770513Y-71735500D01*
X70583711Y-71775206D01*
X70409247Y-71852882D01*
X70254744Y-71965135D01*
X70126965Y-72107048D01*
X70126958Y-72107058D01*
X70031476Y-72272438D01*
X70031473Y-72272445D01*
X69972457Y-72454072D01*
X69952496Y-72643999D01*
X38462985Y-72643999D01*
X38457255Y-72637635D01*
X38302752Y-72525382D01*
X38128288Y-72447706D01*
X37941487Y-72408000D01*
X37750513Y-72408000D01*
X37563711Y-72447706D01*
X37389247Y-72525382D01*
X37234744Y-72637635D01*
X37106965Y-72779548D01*
X37106958Y-72779558D01*
X37011476Y-72944938D01*
X37011473Y-72944945D01*
X36952457Y-73126572D01*
X36932496Y-73316500D01*
X20001826Y-73316500D01*
X19771199Y-73085873D01*
X19436762Y-73420310D01*
X18705636Y-73420310D01*
X18371199Y-73085873D01*
X18036762Y-73420310D01*
X9652500Y-73420310D01*
X9652500Y-72720310D01*
X17336762Y-72720310D01*
X17345695Y-72725922D01*
X17345693Y-72725922D01*
X17504263Y-72781407D01*
X17504261Y-72781407D01*
X17526217Y-72783881D01*
X17591671Y-72811384D01*
X17631864Y-72869907D01*
X17637318Y-72894978D01*
X17639792Y-72916935D01*
X17639792Y-72916936D01*
X17695278Y-73075507D01*
X17700887Y-73084435D01*
X18035324Y-72749998D01*
X18031822Y-72746496D01*
X18253890Y-72746496D01*
X18268924Y-72775487D01*
X18271200Y-72782491D01*
X18271200Y-72782492D01*
X18309397Y-72835065D01*
X18349795Y-72848191D01*
X18368258Y-72860815D01*
X18392604Y-72848191D01*
X18433003Y-72835065D01*
X18471200Y-72782492D01*
X18471200Y-72782489D01*
X18473474Y-72775491D01*
X18488508Y-72753502D01*
X18486692Y-72750000D01*
X18707074Y-72750000D01*
X19041509Y-73084435D01*
X19057097Y-73082680D01*
X19085313Y-73082681D01*
X19100887Y-73084436D01*
X19435324Y-72749998D01*
X19431822Y-72746496D01*
X19653890Y-72746496D01*
X19668924Y-72775487D01*
X19671200Y-72782491D01*
X19671200Y-72782492D01*
X19709397Y-72835065D01*
X19749795Y-72848191D01*
X19768258Y-72860815D01*
X19792604Y-72848191D01*
X19833003Y-72835065D01*
X19871200Y-72782492D01*
X19871200Y-72782489D01*
X19873474Y-72775491D01*
X19888508Y-72753502D01*
X19886692Y-72750000D01*
X20107074Y-72750000D01*
X20441510Y-73084436D01*
X20441511Y-73084435D01*
X20447121Y-73075509D01*
X20447122Y-73075506D01*
X20502607Y-72916937D01*
X20505081Y-72894983D01*
X20532584Y-72829529D01*
X20591107Y-72789336D01*
X20616183Y-72783881D01*
X20638137Y-72781407D01*
X20796706Y-72725922D01*
X20796709Y-72725921D01*
X20805635Y-72720311D01*
X20805636Y-72720310D01*
X20471200Y-72385874D01*
X20442952Y-72414124D01*
X20107074Y-72750000D01*
X19886692Y-72750000D01*
X19873474Y-72724510D01*
X19871200Y-72717511D01*
X19871200Y-72717508D01*
X19833003Y-72664935D01*
X19792601Y-72651807D01*
X19774140Y-72639184D01*
X19749797Y-72651808D01*
X19709396Y-72664935D01*
X19671199Y-72717509D01*
X19668923Y-72724514D01*
X19653890Y-72746496D01*
X19431822Y-72746496D01*
X19099449Y-72414124D01*
X19071198Y-72385874D01*
X19042952Y-72414123D01*
X18707074Y-72750000D01*
X18486692Y-72750000D01*
X18473474Y-72724510D01*
X18471200Y-72717511D01*
X18471200Y-72717508D01*
X18433003Y-72664935D01*
X18392601Y-72651807D01*
X18374140Y-72639184D01*
X18349797Y-72651808D01*
X18309396Y-72664935D01*
X18271199Y-72717509D01*
X18268923Y-72724514D01*
X18253890Y-72746496D01*
X18031822Y-72746496D01*
X17671199Y-72385873D01*
X17336762Y-72720310D01*
X9652500Y-72720310D01*
X9652500Y-72050000D01*
X16920983Y-72050000D01*
X16939793Y-72216939D01*
X16995278Y-72375507D01*
X17000887Y-72384435D01*
X17335324Y-72049998D01*
X17331823Y-72046497D01*
X17553890Y-72046497D01*
X17568922Y-72075483D01*
X17571199Y-72082490D01*
X17571200Y-72082491D01*
X17571200Y-72082492D01*
X17595020Y-72115277D01*
X17609395Y-72135063D01*
X17609397Y-72135065D01*
X17649795Y-72148191D01*
X17668258Y-72160815D01*
X17692604Y-72148191D01*
X17733003Y-72135065D01*
X17771200Y-72082492D01*
X17771200Y-72082489D01*
X17773474Y-72075491D01*
X17788508Y-72053502D01*
X17786691Y-72049999D01*
X18007074Y-72049999D01*
X18039567Y-72082492D01*
X18371199Y-72414123D01*
X18702833Y-72082492D01*
X18735323Y-72049998D01*
X18731821Y-72046496D01*
X18953890Y-72046496D01*
X18968922Y-72075483D01*
X18971199Y-72082490D01*
X18971200Y-72082491D01*
X18971200Y-72082492D01*
X18988505Y-72106311D01*
X19009395Y-72135063D01*
X19009397Y-72135065D01*
X19049797Y-72148191D01*
X19068257Y-72160814D01*
X19092596Y-72148193D01*
X19133003Y-72135065D01*
X19171200Y-72082492D01*
X19171200Y-72082489D01*
X19173475Y-72075487D01*
X19188508Y-72053501D01*
X19186692Y-72049998D01*
X19407074Y-72049998D01*
X19439568Y-72082493D01*
X19771199Y-72414123D01*
X20102832Y-72082493D01*
X20135324Y-72049998D01*
X20131822Y-72046496D01*
X20353890Y-72046496D01*
X20368922Y-72075483D01*
X20371199Y-72082490D01*
X20371200Y-72082491D01*
X20371200Y-72082492D01*
X20395020Y-72115277D01*
X20409395Y-72135063D01*
X20409397Y-72135065D01*
X20449795Y-72148191D01*
X20468258Y-72160815D01*
X20492604Y-72148191D01*
X20533003Y-72135065D01*
X20571200Y-72082492D01*
X20571200Y-72082485D01*
X20573473Y-72075491D01*
X20588508Y-72053501D01*
X20586692Y-72049998D01*
X20807074Y-72049998D01*
X21141511Y-72384436D01*
X21141511Y-72384435D01*
X21147121Y-72375509D01*
X21147122Y-72375506D01*
X21202605Y-72216941D01*
X21211725Y-72136000D01*
X23724496Y-72136000D01*
X23744457Y-72325927D01*
X23773115Y-72414124D01*
X23803473Y-72507556D01*
X23803476Y-72507561D01*
X23898958Y-72672941D01*
X23898965Y-72672951D01*
X24026744Y-72814864D01*
X24026747Y-72814866D01*
X24181248Y-72927118D01*
X24355712Y-73004794D01*
X24542513Y-73044500D01*
X24733487Y-73044500D01*
X24920288Y-73004794D01*
X25094752Y-72927118D01*
X25249253Y-72814866D01*
X25262692Y-72799941D01*
X25377034Y-72672951D01*
X25377035Y-72672949D01*
X25377040Y-72672944D01*
X25472527Y-72507556D01*
X25531542Y-72325928D01*
X25551504Y-72136000D01*
X25531542Y-71946072D01*
X25472527Y-71764444D01*
X25377040Y-71599056D01*
X25377038Y-71599054D01*
X25377034Y-71599048D01*
X25249255Y-71457135D01*
X25134829Y-71374000D01*
X31852496Y-71374000D01*
X31872457Y-71563927D01*
X31893276Y-71627999D01*
X31931473Y-71745556D01*
X31959841Y-71794691D01*
X32026958Y-71910941D01*
X32026965Y-71910951D01*
X32154744Y-72052864D01*
X32195525Y-72082493D01*
X32309248Y-72165118D01*
X32483712Y-72242794D01*
X32670513Y-72282500D01*
X32861487Y-72282500D01*
X33048288Y-72242794D01*
X33222752Y-72165118D01*
X33377253Y-72052866D01*
X33379834Y-72050000D01*
X33505034Y-71910951D01*
X33505035Y-71910949D01*
X33505040Y-71910944D01*
X33600527Y-71745556D01*
X33659542Y-71563928D01*
X33679504Y-71374000D01*
X33659542Y-71184072D01*
X33600527Y-71002444D01*
X33505040Y-70837056D01*
X33505038Y-70837054D01*
X33505034Y-70837048D01*
X33377255Y-70695135D01*
X33262828Y-70611999D01*
X87545599Y-70611999D01*
X87565560Y-70801927D01*
X87595629Y-70894470D01*
X87624576Y-70983556D01*
X87652944Y-71032691D01*
X87720061Y-71148941D01*
X87720068Y-71148951D01*
X87847847Y-71290864D01*
X87847850Y-71290866D01*
X88002351Y-71403118D01*
X88176815Y-71480794D01*
X88363616Y-71520500D01*
X88554590Y-71520500D01*
X88741391Y-71480794D01*
X88915855Y-71403118D01*
X89070356Y-71290866D01*
X89091660Y-71267206D01*
X89198137Y-71148951D01*
X89198138Y-71148949D01*
X89198143Y-71148944D01*
X89293630Y-70983556D01*
X89352645Y-70801928D01*
X89372607Y-70612000D01*
X89352645Y-70422072D01*
X89293630Y-70240444D01*
X89198143Y-70075056D01*
X89198141Y-70075054D01*
X89198137Y-70075048D01*
X89070358Y-69933135D01*
X88915855Y-69820882D01*
X88741391Y-69743206D01*
X88554590Y-69703500D01*
X88363616Y-69703500D01*
X88176814Y-69743206D01*
X88002350Y-69820882D01*
X87847847Y-69933135D01*
X87720068Y-70075048D01*
X87720061Y-70075058D01*
X87624579Y-70240438D01*
X87624576Y-70240445D01*
X87565560Y-70422072D01*
X87545599Y-70611999D01*
X33262828Y-70611999D01*
X33222752Y-70582882D01*
X33048288Y-70505206D01*
X32861487Y-70465500D01*
X32670513Y-70465500D01*
X32483711Y-70505206D01*
X32309247Y-70582882D01*
X32154744Y-70695135D01*
X32026965Y-70837048D01*
X32026958Y-70837058D01*
X31931476Y-71002438D01*
X31931473Y-71002445D01*
X31872457Y-71184072D01*
X31852496Y-71374000D01*
X25134829Y-71374000D01*
X25094752Y-71344882D01*
X24920288Y-71267206D01*
X24733487Y-71227500D01*
X24542513Y-71227500D01*
X24355711Y-71267206D01*
X24181247Y-71344882D01*
X24026744Y-71457135D01*
X23898965Y-71599048D01*
X23898958Y-71599058D01*
X23803476Y-71764438D01*
X23803473Y-71764445D01*
X23744457Y-71946072D01*
X23724496Y-72136000D01*
X21211725Y-72136000D01*
X21221416Y-72049999D01*
X21202605Y-71883058D01*
X21147122Y-71724494D01*
X21141510Y-71715563D01*
X20807074Y-72049998D01*
X20586692Y-72049998D01*
X20573475Y-72024510D01*
X20571200Y-72017511D01*
X20571200Y-72017508D01*
X20533003Y-71964935D01*
X20492601Y-71951807D01*
X20474140Y-71939184D01*
X20449797Y-71951808D01*
X20409396Y-71964935D01*
X20371199Y-72017509D01*
X20368923Y-72024514D01*
X20353890Y-72046496D01*
X20131822Y-72046496D01*
X19799449Y-71714124D01*
X19771198Y-71685874D01*
X19742952Y-71714123D01*
X19407074Y-72049998D01*
X19186692Y-72049998D01*
X19173475Y-72024510D01*
X19171200Y-72017511D01*
X19171200Y-72017508D01*
X19133003Y-71964935D01*
X19092601Y-71951807D01*
X19074140Y-71939184D01*
X19049797Y-71951808D01*
X19009396Y-71964935D01*
X18971199Y-72017509D01*
X18968923Y-72024514D01*
X18953890Y-72046496D01*
X18731821Y-72046496D01*
X18399448Y-71714124D01*
X18371199Y-71685875D01*
X18342952Y-71714124D01*
X18007074Y-72049999D01*
X17786691Y-72049999D01*
X17773474Y-72024510D01*
X17771200Y-72017511D01*
X17771200Y-72017508D01*
X17758155Y-71999554D01*
X17733003Y-71964935D01*
X17692602Y-71951808D01*
X17674140Y-71939184D01*
X17649797Y-71951808D01*
X17609396Y-71964935D01*
X17571199Y-72017509D01*
X17568923Y-72024514D01*
X17553890Y-72046497D01*
X17331823Y-72046497D01*
X17000888Y-71715562D01*
X16995278Y-71724492D01*
X16995277Y-71724493D01*
X16939794Y-71883058D01*
X16920983Y-72050000D01*
X9652500Y-72050000D01*
X9652500Y-71379687D01*
X17336762Y-71379687D01*
X17671199Y-71714123D01*
X18002832Y-71382493D01*
X18035324Y-71349998D01*
X18031822Y-71346496D01*
X18253890Y-71346496D01*
X18268922Y-71375483D01*
X18271199Y-71382490D01*
X18309395Y-71435063D01*
X18309397Y-71435065D01*
X18349795Y-71448191D01*
X18368258Y-71460815D01*
X18392604Y-71448191D01*
X18433003Y-71435065D01*
X18471200Y-71382492D01*
X18471200Y-71382489D01*
X18473474Y-71375491D01*
X18488508Y-71353502D01*
X18486691Y-71349999D01*
X18707074Y-71349999D01*
X18739567Y-71382492D01*
X19071199Y-71714123D01*
X19402832Y-71382493D01*
X19435324Y-71349998D01*
X19431822Y-71346496D01*
X19653890Y-71346496D01*
X19668922Y-71375483D01*
X19671199Y-71382490D01*
X19709395Y-71435063D01*
X19709397Y-71435065D01*
X19749797Y-71448191D01*
X19768257Y-71460814D01*
X19792596Y-71448193D01*
X19833003Y-71435065D01*
X19871200Y-71382492D01*
X19871200Y-71382489D01*
X19873474Y-71375491D01*
X19888508Y-71353502D01*
X19886691Y-71349999D01*
X20107074Y-71349999D01*
X20139567Y-71382492D01*
X20471199Y-71714123D01*
X20805636Y-71379687D01*
X20803881Y-71364111D01*
X20803880Y-71335895D01*
X20805635Y-71320309D01*
X20471200Y-70985874D01*
X20442952Y-71014124D01*
X20107074Y-71349999D01*
X19886691Y-71349999D01*
X19873474Y-71324510D01*
X19871200Y-71317511D01*
X19871200Y-71317508D01*
X19833003Y-71264935D01*
X19792601Y-71251807D01*
X19774140Y-71239184D01*
X19749797Y-71251808D01*
X19709396Y-71264935D01*
X19671199Y-71317509D01*
X19668923Y-71324514D01*
X19653890Y-71346496D01*
X19431822Y-71346496D01*
X19071200Y-70985874D01*
X19042952Y-71014124D01*
X18707074Y-71349999D01*
X18486691Y-71349999D01*
X18473474Y-71324510D01*
X18471200Y-71317511D01*
X18471200Y-71317508D01*
X18433003Y-71264935D01*
X18392601Y-71251807D01*
X18374140Y-71239184D01*
X18349797Y-71251808D01*
X18309396Y-71264935D01*
X18271199Y-71317509D01*
X18268923Y-71324514D01*
X18253890Y-71346496D01*
X18031822Y-71346496D01*
X17699449Y-71014124D01*
X17671198Y-70985874D01*
X17336762Y-71320310D01*
X17338519Y-71335896D01*
X17338518Y-71364117D01*
X17336762Y-71379687D01*
X9652500Y-71379687D01*
X9652500Y-70650000D01*
X16920983Y-70650000D01*
X16939793Y-70816939D01*
X16995278Y-70975507D01*
X17000887Y-70984435D01*
X17335323Y-70649999D01*
X17331821Y-70646497D01*
X17553891Y-70646497D01*
X17568924Y-70675487D01*
X17571200Y-70682490D01*
X17571200Y-70682492D01*
X17609397Y-70735065D01*
X17649797Y-70748191D01*
X17668258Y-70760814D01*
X17692596Y-70748193D01*
X17733003Y-70735065D01*
X17771200Y-70682492D01*
X17771200Y-70682489D01*
X17773474Y-70675491D01*
X17788508Y-70653502D01*
X17786691Y-70649999D01*
X18007074Y-70649999D01*
X18039567Y-70682492D01*
X18371199Y-71014123D01*
X18702832Y-70682493D01*
X18735324Y-70649998D01*
X18731822Y-70646496D01*
X18953890Y-70646496D01*
X18968922Y-70675483D01*
X18971199Y-70682490D01*
X18971200Y-70682491D01*
X18971200Y-70682492D01*
X19009397Y-70735065D01*
X19049795Y-70748191D01*
X19068258Y-70760815D01*
X19092604Y-70748191D01*
X19133003Y-70735065D01*
X19171200Y-70682492D01*
X19171200Y-70682489D01*
X19173474Y-70675491D01*
X19188508Y-70653502D01*
X19186691Y-70649999D01*
X19407074Y-70649999D01*
X19439567Y-70682492D01*
X19771199Y-71014123D01*
X20102832Y-70682493D01*
X20135324Y-70649998D01*
X20131822Y-70646496D01*
X20353890Y-70646496D01*
X20368922Y-70675483D01*
X20371199Y-70682490D01*
X20371200Y-70682491D01*
X20371200Y-70682492D01*
X20409397Y-70735065D01*
X20449795Y-70748191D01*
X20468258Y-70760815D01*
X20492604Y-70748191D01*
X20533003Y-70735065D01*
X20571200Y-70682492D01*
X20571200Y-70682489D01*
X20573474Y-70675491D01*
X20588508Y-70653502D01*
X20586691Y-70649999D01*
X20807073Y-70649999D01*
X21141510Y-70984436D01*
X21141511Y-70984435D01*
X21147121Y-70975509D01*
X21147122Y-70975506D01*
X21202605Y-70816941D01*
X21221416Y-70649999D01*
X21202605Y-70483058D01*
X21147122Y-70324494D01*
X21141510Y-70315562D01*
X20807073Y-70649999D01*
X20586691Y-70649999D01*
X20573474Y-70624510D01*
X20571200Y-70617511D01*
X20571200Y-70617508D01*
X20567197Y-70611999D01*
X20533003Y-70564935D01*
X20492602Y-70551808D01*
X20474140Y-70539184D01*
X20449797Y-70551808D01*
X20409396Y-70564935D01*
X20371199Y-70617509D01*
X20368923Y-70624514D01*
X20353890Y-70646496D01*
X20131822Y-70646496D01*
X19799449Y-70314124D01*
X19771198Y-70285874D01*
X19742952Y-70314123D01*
X19407074Y-70649999D01*
X19186691Y-70649999D01*
X19173474Y-70624510D01*
X19171200Y-70617511D01*
X19171200Y-70617508D01*
X19167197Y-70611999D01*
X19133003Y-70564935D01*
X19092602Y-70551808D01*
X19074139Y-70539184D01*
X19049797Y-70551808D01*
X19009396Y-70564935D01*
X18971199Y-70617509D01*
X18968923Y-70624514D01*
X18953890Y-70646496D01*
X18731822Y-70646496D01*
X18371200Y-70285874D01*
X18342952Y-70314124D01*
X18007074Y-70649999D01*
X17786691Y-70649999D01*
X17773474Y-70624510D01*
X17771200Y-70617511D01*
X17771200Y-70617508D01*
X17767197Y-70611999D01*
X17733003Y-70564935D01*
X17692602Y-70551808D01*
X17674140Y-70539184D01*
X17649797Y-70551808D01*
X17609396Y-70564935D01*
X17571200Y-70617507D01*
X17568924Y-70624513D01*
X17553891Y-70646497D01*
X17331821Y-70646497D01*
X17000888Y-70315563D01*
X16995278Y-70324492D01*
X16995277Y-70324493D01*
X16939794Y-70483058D01*
X16920983Y-70650000D01*
X9652500Y-70650000D01*
X9652500Y-69979688D01*
X17336763Y-69979688D01*
X17671199Y-70314123D01*
X18002832Y-69982493D01*
X18035323Y-69949999D01*
X18031821Y-69946497D01*
X18253891Y-69946497D01*
X18268922Y-69975483D01*
X18271199Y-69982490D01*
X18309395Y-70035063D01*
X18309397Y-70035065D01*
X18349795Y-70048191D01*
X18368258Y-70060815D01*
X18392604Y-70048191D01*
X18433003Y-70035065D01*
X18471200Y-69982492D01*
X18471200Y-69982489D01*
X18473474Y-69975491D01*
X18488508Y-69953502D01*
X18486691Y-69949998D01*
X18707074Y-69949998D01*
X18739567Y-69982491D01*
X19071198Y-70314123D01*
X19402832Y-69982493D01*
X19435323Y-69949999D01*
X19431821Y-69946497D01*
X19653891Y-69946497D01*
X19668922Y-69975483D01*
X19671199Y-69982490D01*
X19709395Y-70035063D01*
X19709397Y-70035065D01*
X19749797Y-70048191D01*
X19768257Y-70060814D01*
X19792596Y-70048193D01*
X19833003Y-70035065D01*
X19871200Y-69982492D01*
X19871200Y-69982489D01*
X19873474Y-69975491D01*
X19888508Y-69953502D01*
X19886691Y-69949999D01*
X20107073Y-69949999D01*
X20139567Y-69982492D01*
X20471199Y-70314123D01*
X20805636Y-69979687D01*
X20796707Y-69974078D01*
X20638135Y-69918592D01*
X20616178Y-69916118D01*
X20550726Y-69888613D01*
X20510535Y-69830089D01*
X20505081Y-69805017D01*
X20502607Y-69783062D01*
X20447122Y-69624494D01*
X20441510Y-69615562D01*
X20107073Y-69949999D01*
X19886691Y-69949999D01*
X19873474Y-69924510D01*
X19871200Y-69917511D01*
X19871200Y-69917508D01*
X19854021Y-69893864D01*
X19833003Y-69864935D01*
X19792602Y-69851808D01*
X19774139Y-69839184D01*
X19749797Y-69851808D01*
X19709396Y-69864935D01*
X19671200Y-69917507D01*
X19668924Y-69924513D01*
X19653891Y-69946497D01*
X19431821Y-69946497D01*
X19100887Y-69615562D01*
X19085317Y-69617318D01*
X19057096Y-69617319D01*
X19041510Y-69615562D01*
X18707074Y-69949998D01*
X18486691Y-69949998D01*
X18473474Y-69924510D01*
X18471200Y-69917511D01*
X18471200Y-69917508D01*
X18454021Y-69893864D01*
X18433003Y-69864935D01*
X18392602Y-69851808D01*
X18374140Y-69839184D01*
X18349797Y-69851808D01*
X18309396Y-69864935D01*
X18271200Y-69917507D01*
X18268924Y-69924513D01*
X18253891Y-69946497D01*
X18031821Y-69946497D01*
X17700888Y-69615563D01*
X17695278Y-69624492D01*
X17695277Y-69624493D01*
X17639793Y-69783058D01*
X17639792Y-69783064D01*
X17637318Y-69805022D01*
X17609813Y-69870474D01*
X17551289Y-69910665D01*
X17526222Y-69916118D01*
X17504264Y-69918592D01*
X17504258Y-69918593D01*
X17345693Y-69974077D01*
X17345692Y-69974078D01*
X17336763Y-69979688D01*
X9652500Y-69979688D01*
X9652500Y-69279688D01*
X18036763Y-69279688D01*
X18371199Y-69614123D01*
X18705635Y-69279688D01*
X19436762Y-69279688D01*
X19771198Y-69614124D01*
X19826823Y-69558499D01*
X70968496Y-69558499D01*
X70988457Y-69748427D01*
X71012000Y-69820882D01*
X71047473Y-69930056D01*
X71047476Y-69930061D01*
X71142958Y-70095441D01*
X71142965Y-70095451D01*
X71270744Y-70237364D01*
X71270747Y-70237366D01*
X71425248Y-70349618D01*
X71599712Y-70427294D01*
X71786513Y-70467000D01*
X71977487Y-70467000D01*
X72164288Y-70427294D01*
X72338752Y-70349618D01*
X72493253Y-70237366D01*
X72516543Y-70211500D01*
X72621034Y-70095451D01*
X72621035Y-70095449D01*
X72621040Y-70095444D01*
X72716527Y-69930056D01*
X72775542Y-69748428D01*
X72795504Y-69558500D01*
X72775542Y-69368572D01*
X72725643Y-69214999D01*
X166296496Y-69214999D01*
X166316457Y-69404927D01*
X166346526Y-69497470D01*
X166375473Y-69586556D01*
X166393234Y-69617319D01*
X166470958Y-69751941D01*
X166470965Y-69751951D01*
X166598744Y-69893864D01*
X166598747Y-69893866D01*
X166753248Y-70006118D01*
X166927712Y-70083794D01*
X167114513Y-70123500D01*
X167305487Y-70123500D01*
X167492288Y-70083794D01*
X167666752Y-70006118D01*
X167821253Y-69893866D01*
X167886968Y-69820882D01*
X167949034Y-69751951D01*
X167949035Y-69751949D01*
X167949040Y-69751944D01*
X168044527Y-69586556D01*
X168103542Y-69404928D01*
X168123504Y-69215000D01*
X168103542Y-69025072D01*
X168044527Y-68843444D01*
X167949040Y-68678056D01*
X167949038Y-68678054D01*
X167949034Y-68678048D01*
X167821255Y-68536135D01*
X167666752Y-68423882D01*
X167492288Y-68346206D01*
X167305487Y-68306500D01*
X167114513Y-68306500D01*
X166927711Y-68346206D01*
X166753247Y-68423882D01*
X166598744Y-68536135D01*
X166470965Y-68678048D01*
X166470958Y-68678058D01*
X166375476Y-68843438D01*
X166375473Y-68843445D01*
X166316457Y-69025072D01*
X166296496Y-69214999D01*
X72725643Y-69214999D01*
X72716527Y-69186944D01*
X72621040Y-69021556D01*
X72621038Y-69021554D01*
X72621034Y-69021548D01*
X72493255Y-68879635D01*
X72338752Y-68767382D01*
X72164288Y-68689706D01*
X71977487Y-68650000D01*
X71786513Y-68650000D01*
X71599711Y-68689706D01*
X71425247Y-68767382D01*
X71270744Y-68879635D01*
X71142965Y-69021548D01*
X71142958Y-69021558D01*
X71047476Y-69186938D01*
X71047473Y-69186944D01*
X71038357Y-69214999D01*
X70988457Y-69368572D01*
X70968496Y-69558499D01*
X19826823Y-69558499D01*
X20105635Y-69279687D01*
X20096707Y-69274078D01*
X19938139Y-69218593D01*
X19771199Y-69199783D01*
X19604258Y-69218594D01*
X19445693Y-69274077D01*
X19445692Y-69274078D01*
X19436762Y-69279688D01*
X18705635Y-69279688D01*
X18705636Y-69279687D01*
X18696707Y-69274078D01*
X18538139Y-69218593D01*
X18371200Y-69199783D01*
X18204258Y-69218594D01*
X18045693Y-69274077D01*
X18045692Y-69274078D01*
X18036763Y-69279688D01*
X9652500Y-69279688D01*
X9652500Y-66294000D01*
X12167496Y-66294000D01*
X12187457Y-66483927D01*
X12198389Y-66517571D01*
X12246473Y-66665556D01*
X12246476Y-66665561D01*
X12341958Y-66830941D01*
X12341965Y-66830951D01*
X12469744Y-66972864D01*
X12469747Y-66972866D01*
X12624248Y-67085118D01*
X12798712Y-67162794D01*
X12985513Y-67202500D01*
X13176487Y-67202500D01*
X13363288Y-67162794D01*
X13537752Y-67085118D01*
X13692253Y-66972866D01*
X13694515Y-66970354D01*
X13820034Y-66830951D01*
X13820035Y-66830949D01*
X13820040Y-66830944D01*
X13915527Y-66665556D01*
X13953724Y-66548000D01*
X19533496Y-66548000D01*
X19553457Y-66737927D01*
X19583526Y-66830470D01*
X19612473Y-66919556D01*
X19612476Y-66919561D01*
X19707958Y-67084941D01*
X19707965Y-67084951D01*
X19835744Y-67226864D01*
X19859949Y-67244450D01*
X19990248Y-67339118D01*
X20164712Y-67416794D01*
X20351513Y-67456500D01*
X20542487Y-67456500D01*
X20729288Y-67416794D01*
X20903752Y-67339118D01*
X21058253Y-67226866D01*
X21157488Y-67116653D01*
X21217932Y-67079415D01*
X21288916Y-67080766D01*
X21347901Y-67120280D01*
X21355004Y-67130459D01*
X21355081Y-67130404D01*
X21358965Y-67135751D01*
X21486744Y-67277664D01*
X21486747Y-67277666D01*
X21641248Y-67389918D01*
X21815712Y-67467594D01*
X22002513Y-67507300D01*
X22193487Y-67507300D01*
X22380288Y-67467594D01*
X22554752Y-67389918D01*
X22709253Y-67277666D01*
X22734883Y-67249201D01*
X22837034Y-67135751D01*
X22837035Y-67135749D01*
X22837040Y-67135744D01*
X22932527Y-66970356D01*
X22991542Y-66788728D01*
X23000080Y-66707498D01*
X25266711Y-66707498D01*
X25286672Y-66897426D01*
X25310369Y-66970356D01*
X25345688Y-67079055D01*
X25367396Y-67116655D01*
X25441173Y-67244440D01*
X25441180Y-67244450D01*
X25568959Y-67386363D01*
X25568962Y-67386365D01*
X25723463Y-67498617D01*
X25897927Y-67576293D01*
X26084728Y-67615999D01*
X26275702Y-67615999D01*
X26462503Y-67576293D01*
X26636967Y-67498617D01*
X26791468Y-67386365D01*
X26791615Y-67386202D01*
X26919249Y-67244450D01*
X26919250Y-67244448D01*
X26919255Y-67244443D01*
X26951468Y-67188649D01*
X50461500Y-67188649D01*
X50468009Y-67249196D01*
X50468011Y-67249204D01*
X50519110Y-67386202D01*
X50519112Y-67386207D01*
X50606738Y-67503261D01*
X50723792Y-67590887D01*
X50723794Y-67590888D01*
X50723796Y-67590889D01*
X50782875Y-67612924D01*
X50860795Y-67641988D01*
X50860803Y-67641990D01*
X50921350Y-67648499D01*
X50921355Y-67648499D01*
X50921362Y-67648500D01*
X50921368Y-67648500D01*
X53218632Y-67648500D01*
X53218638Y-67648500D01*
X53218645Y-67648499D01*
X53218649Y-67648499D01*
X53279196Y-67641990D01*
X53279199Y-67641989D01*
X53279201Y-67641989D01*
X53416204Y-67590889D01*
X53435704Y-67576292D01*
X53533261Y-67503261D01*
X53620887Y-67386207D01*
X53620887Y-67386206D01*
X53620889Y-67386204D01*
X53671989Y-67249201D01*
X53674391Y-67226866D01*
X53678499Y-67188649D01*
X53678500Y-67188632D01*
X53678500Y-64891367D01*
X53678499Y-64891350D01*
X53671990Y-64830803D01*
X53671988Y-64830795D01*
X53620889Y-64693797D01*
X53620887Y-64693792D01*
X53533261Y-64576738D01*
X53416207Y-64489112D01*
X53416202Y-64489110D01*
X53279204Y-64438011D01*
X53279196Y-64438009D01*
X53218649Y-64431500D01*
X53218638Y-64431500D01*
X50921362Y-64431500D01*
X50921350Y-64431500D01*
X50860803Y-64438009D01*
X50860795Y-64438011D01*
X50723797Y-64489110D01*
X50723792Y-64489112D01*
X50606738Y-64576738D01*
X50519112Y-64693792D01*
X50519110Y-64693797D01*
X50468011Y-64830795D01*
X50468009Y-64830803D01*
X50461500Y-64891350D01*
X50461500Y-67188649D01*
X26951468Y-67188649D01*
X27014742Y-67079055D01*
X27073757Y-66897427D01*
X27093719Y-66707499D01*
X27073757Y-66517571D01*
X27014742Y-66335943D01*
X26968875Y-66256499D01*
X33630496Y-66256499D01*
X33650457Y-66446427D01*
X33673574Y-66517571D01*
X33709473Y-66628056D01*
X33709476Y-66628061D01*
X33804958Y-66793441D01*
X33804965Y-66793451D01*
X33932744Y-66935364D01*
X33932747Y-66935366D01*
X34087248Y-67047618D01*
X34261712Y-67125294D01*
X34448513Y-67165000D01*
X34639487Y-67165000D01*
X34826288Y-67125294D01*
X35000752Y-67047618D01*
X35155253Y-66935366D01*
X35169484Y-66919561D01*
X35283034Y-66793451D01*
X35283035Y-66793449D01*
X35283040Y-66793444D01*
X35378527Y-66628056D01*
X35437542Y-66446428D01*
X35457504Y-66256500D01*
X35437542Y-66066572D01*
X35378527Y-65884944D01*
X35283040Y-65719556D01*
X35283038Y-65719554D01*
X35283034Y-65719548D01*
X35155255Y-65577635D01*
X35000752Y-65465382D01*
X34826288Y-65387706D01*
X34639487Y-65348000D01*
X34448513Y-65348000D01*
X34261711Y-65387706D01*
X34087247Y-65465382D01*
X33932744Y-65577635D01*
X33804965Y-65719548D01*
X33804958Y-65719558D01*
X33718600Y-65869135D01*
X33709473Y-65884944D01*
X33698104Y-65919934D01*
X33650457Y-66066572D01*
X33630496Y-66256499D01*
X26968875Y-66256499D01*
X26919255Y-66170555D01*
X26919253Y-66170553D01*
X26919249Y-66170547D01*
X26791470Y-66028634D01*
X26636967Y-65916381D01*
X26462503Y-65838705D01*
X26275702Y-65798999D01*
X26084728Y-65798999D01*
X25897926Y-65838705D01*
X25723462Y-65916381D01*
X25568959Y-66028634D01*
X25441180Y-66170547D01*
X25441173Y-66170557D01*
X25345691Y-66335937D01*
X25345688Y-66335944D01*
X25286672Y-66517571D01*
X25266711Y-66707498D01*
X23000080Y-66707498D01*
X23011504Y-66598800D01*
X22991542Y-66408872D01*
X22932527Y-66227244D01*
X22837040Y-66061856D01*
X22837038Y-66061854D01*
X22837034Y-66061848D01*
X22709255Y-65919935D01*
X22554752Y-65807682D01*
X22380288Y-65730006D01*
X22193487Y-65690300D01*
X22002513Y-65690300D01*
X21815711Y-65730006D01*
X21641247Y-65807682D01*
X21486746Y-65919934D01*
X21387512Y-66030145D01*
X21327066Y-66067384D01*
X21256082Y-66066032D01*
X21197098Y-66026518D01*
X21189995Y-66016340D01*
X21189919Y-66016396D01*
X21186034Y-66011048D01*
X21058255Y-65869135D01*
X20903752Y-65756882D01*
X20729288Y-65679206D01*
X20542487Y-65639500D01*
X20351513Y-65639500D01*
X20164711Y-65679206D01*
X19990247Y-65756882D01*
X19835744Y-65869135D01*
X19707965Y-66011048D01*
X19707958Y-66011058D01*
X19612476Y-66176438D01*
X19612473Y-66176445D01*
X19553457Y-66358072D01*
X19533496Y-66548000D01*
X13953724Y-66548000D01*
X13974542Y-66483928D01*
X13994504Y-66294000D01*
X13974542Y-66104072D01*
X13915527Y-65922444D01*
X13820040Y-65757056D01*
X13820038Y-65757054D01*
X13820034Y-65757048D01*
X13692255Y-65615135D01*
X13537752Y-65502882D01*
X13363288Y-65425206D01*
X13176487Y-65385500D01*
X12985513Y-65385500D01*
X12798711Y-65425206D01*
X12624247Y-65502882D01*
X12469744Y-65615135D01*
X12341965Y-65757048D01*
X12341958Y-65757058D01*
X12246476Y-65922438D01*
X12246473Y-65922445D01*
X12187457Y-66104072D01*
X12167496Y-66294000D01*
X9652500Y-66294000D01*
X9652500Y-63770802D01*
X13793096Y-63770802D01*
X13813057Y-63960729D01*
X13828417Y-64008000D01*
X13872073Y-64142358D01*
X13872076Y-64142363D01*
X13967558Y-64307743D01*
X13967565Y-64307753D01*
X14095344Y-64449666D01*
X14095347Y-64449668D01*
X14249848Y-64561920D01*
X14424312Y-64639596D01*
X14611113Y-64679302D01*
X14802087Y-64679302D01*
X14988888Y-64639596D01*
X15163352Y-64561920D01*
X15317853Y-64449668D01*
X15332982Y-64432866D01*
X15445634Y-64307753D01*
X15445635Y-64307751D01*
X15445640Y-64307746D01*
X15541127Y-64142358D01*
X15600142Y-63960730D01*
X15610873Y-63858628D01*
X15637884Y-63792974D01*
X15681588Y-63762474D01*
X15788799Y-63762474D01*
X15828195Y-63785721D01*
X15860126Y-63849132D01*
X15861492Y-63858629D01*
X15870457Y-63943927D01*
X15875917Y-63960730D01*
X15929473Y-64125556D01*
X15929476Y-64125561D01*
X16024958Y-64290941D01*
X16024965Y-64290951D01*
X16152744Y-64432864D01*
X16159828Y-64438011D01*
X16307248Y-64545118D01*
X16481712Y-64622794D01*
X16668513Y-64662500D01*
X16859487Y-64662500D01*
X17046288Y-64622794D01*
X17220752Y-64545118D01*
X17375253Y-64432866D01*
X17423249Y-64379561D01*
X17503034Y-64290951D01*
X17503035Y-64290949D01*
X17503040Y-64290944D01*
X17598527Y-64125556D01*
X17657542Y-63943928D01*
X17677504Y-63754000D01*
X17657542Y-63564072D01*
X17598527Y-63382444D01*
X17519751Y-63246000D01*
X25756496Y-63246000D01*
X25776457Y-63435927D01*
X25797276Y-63499999D01*
X25835473Y-63617556D01*
X25835476Y-63617561D01*
X25930958Y-63782941D01*
X25930965Y-63782951D01*
X26058744Y-63924864D01*
X26058747Y-63924866D01*
X26213248Y-64037118D01*
X26387712Y-64114794D01*
X26574513Y-64154500D01*
X26765487Y-64154500D01*
X26952288Y-64114794D01*
X27126752Y-64037118D01*
X27281253Y-63924866D01*
X27329249Y-63871561D01*
X27409034Y-63782951D01*
X27409035Y-63782949D01*
X27409040Y-63782944D01*
X27504527Y-63617556D01*
X27563542Y-63435928D01*
X27583504Y-63246000D01*
X40996496Y-63246000D01*
X41016457Y-63435927D01*
X41037276Y-63499999D01*
X41075473Y-63617556D01*
X41075476Y-63617561D01*
X41170958Y-63782941D01*
X41170965Y-63782951D01*
X41298744Y-63924864D01*
X41298747Y-63924866D01*
X41453248Y-64037118D01*
X41627712Y-64114794D01*
X41814513Y-64154500D01*
X42005487Y-64154500D01*
X42192288Y-64114794D01*
X42366752Y-64037118D01*
X42521253Y-63924866D01*
X42569249Y-63871561D01*
X42649034Y-63782951D01*
X42649035Y-63782949D01*
X42649040Y-63782944D01*
X42744527Y-63617556D01*
X42782724Y-63500000D01*
X88875496Y-63500000D01*
X88895457Y-63689927D01*
X88909072Y-63731828D01*
X88954473Y-63871556D01*
X88954476Y-63871561D01*
X89049958Y-64036941D01*
X89049965Y-64036951D01*
X89177744Y-64178864D01*
X89177747Y-64178866D01*
X89332248Y-64291118D01*
X89506712Y-64368794D01*
X89693513Y-64408500D01*
X89884487Y-64408500D01*
X90071288Y-64368794D01*
X90245752Y-64291118D01*
X90400253Y-64178866D01*
X90422192Y-64154500D01*
X90528034Y-64036951D01*
X90528035Y-64036949D01*
X90528040Y-64036944D01*
X90544751Y-64007999D01*
X127102496Y-64007999D01*
X127122457Y-64197927D01*
X127152526Y-64290470D01*
X127181473Y-64379556D01*
X127181476Y-64379561D01*
X127276958Y-64544941D01*
X127276965Y-64544951D01*
X127404744Y-64686864D01*
X127465999Y-64731368D01*
X127559248Y-64799118D01*
X127733712Y-64876794D01*
X127920513Y-64916500D01*
X128111487Y-64916500D01*
X128298288Y-64876794D01*
X128472752Y-64799118D01*
X128627253Y-64686866D01*
X128739756Y-64561919D01*
X128755034Y-64544951D01*
X128755035Y-64544949D01*
X128755040Y-64544944D01*
X128850527Y-64379556D01*
X128909542Y-64197928D01*
X128929504Y-64008000D01*
X128909542Y-63818072D01*
X128850527Y-63636444D01*
X128755040Y-63471056D01*
X128755038Y-63471054D01*
X128755034Y-63471048D01*
X128627255Y-63329135D01*
X128472752Y-63216882D01*
X128298288Y-63139206D01*
X128111487Y-63099500D01*
X127920513Y-63099500D01*
X127733711Y-63139206D01*
X127559247Y-63216882D01*
X127404744Y-63329135D01*
X127276965Y-63471048D01*
X127276958Y-63471058D01*
X127181476Y-63636438D01*
X127181473Y-63636445D01*
X127122457Y-63818072D01*
X127102496Y-64007999D01*
X90544751Y-64007999D01*
X90623527Y-63871556D01*
X90682542Y-63689928D01*
X90702504Y-63500000D01*
X90682542Y-63310072D01*
X90623527Y-63128444D01*
X90544751Y-62992000D01*
X102972496Y-62992000D01*
X102992457Y-63181927D01*
X103009331Y-63233858D01*
X103051473Y-63363556D01*
X103051476Y-63363561D01*
X103146958Y-63528941D01*
X103146965Y-63528951D01*
X103274744Y-63670864D01*
X103274747Y-63670866D01*
X103429248Y-63783118D01*
X103603712Y-63860794D01*
X103790513Y-63900500D01*
X103981487Y-63900500D01*
X104168288Y-63860794D01*
X104342752Y-63783118D01*
X104497253Y-63670866D01*
X104497255Y-63670864D01*
X104625034Y-63528951D01*
X104625035Y-63528949D01*
X104625040Y-63528944D01*
X104720527Y-63363556D01*
X104779542Y-63181928D01*
X104799504Y-62992000D01*
X104779542Y-62802072D01*
X104720527Y-62620444D01*
X104625040Y-62455056D01*
X104625038Y-62455054D01*
X104625034Y-62455048D01*
X104497255Y-62313135D01*
X104342752Y-62200882D01*
X104168288Y-62123206D01*
X103981487Y-62083500D01*
X103790513Y-62083500D01*
X103603711Y-62123206D01*
X103429247Y-62200882D01*
X103274744Y-62313135D01*
X103146965Y-62455048D01*
X103146958Y-62455058D01*
X103051476Y-62620438D01*
X103051473Y-62620445D01*
X102992457Y-62802072D01*
X102972496Y-62992000D01*
X90544751Y-62992000D01*
X90528040Y-62963056D01*
X90528038Y-62963054D01*
X90528034Y-62963048D01*
X90400255Y-62821135D01*
X90245752Y-62708882D01*
X90071288Y-62631206D01*
X89884487Y-62591500D01*
X89693513Y-62591500D01*
X89506711Y-62631206D01*
X89332247Y-62708882D01*
X89177744Y-62821135D01*
X89049965Y-62963048D01*
X89049958Y-62963058D01*
X88954476Y-63128438D01*
X88954473Y-63128445D01*
X88895457Y-63310072D01*
X88875496Y-63500000D01*
X42782724Y-63500000D01*
X42803542Y-63435928D01*
X42823504Y-63246000D01*
X42803542Y-63056072D01*
X42744527Y-62874444D01*
X42649040Y-62709056D01*
X42649038Y-62709054D01*
X42649034Y-62709048D01*
X42521255Y-62567135D01*
X42366752Y-62454882D01*
X42192288Y-62377206D01*
X42005487Y-62337500D01*
X41814513Y-62337500D01*
X41627711Y-62377206D01*
X41453247Y-62454882D01*
X41298744Y-62567135D01*
X41170965Y-62709048D01*
X41170958Y-62709058D01*
X41075476Y-62874438D01*
X41075473Y-62874445D01*
X41016457Y-63056072D01*
X40996496Y-63246000D01*
X27583504Y-63246000D01*
X27563542Y-63056072D01*
X27504527Y-62874444D01*
X27409040Y-62709056D01*
X27409038Y-62709054D01*
X27409034Y-62709048D01*
X27281255Y-62567135D01*
X27126752Y-62454882D01*
X26952288Y-62377206D01*
X26765487Y-62337500D01*
X26574513Y-62337500D01*
X26387711Y-62377206D01*
X26213247Y-62454882D01*
X26058744Y-62567135D01*
X25930965Y-62709048D01*
X25930958Y-62709058D01*
X25835476Y-62874438D01*
X25835473Y-62874445D01*
X25776457Y-63056072D01*
X25756496Y-63246000D01*
X17519751Y-63246000D01*
X17503040Y-63217056D01*
X17503038Y-63217054D01*
X17503034Y-63217048D01*
X17375255Y-63075135D01*
X17220752Y-62962882D01*
X17046288Y-62885206D01*
X16859487Y-62845500D01*
X16668513Y-62845500D01*
X16481711Y-62885206D01*
X16307247Y-62962882D01*
X16152744Y-63075135D01*
X16024965Y-63217048D01*
X16024958Y-63217058D01*
X15940379Y-63363554D01*
X15929473Y-63382444D01*
X15914999Y-63426986D01*
X15870457Y-63564072D01*
X15859727Y-63666171D01*
X15832714Y-63731828D01*
X15788799Y-63762474D01*
X15681588Y-63762474D01*
X15681799Y-63762327D01*
X15642403Y-63739079D01*
X15610473Y-63675668D01*
X15609107Y-63666171D01*
X15600142Y-63580874D01*
X15583271Y-63528951D01*
X15541127Y-63399246D01*
X15445640Y-63233858D01*
X15445638Y-63233856D01*
X15445634Y-63233850D01*
X15317855Y-63091937D01*
X15163352Y-62979684D01*
X14988888Y-62902008D01*
X14802087Y-62862302D01*
X14611113Y-62862302D01*
X14424311Y-62902008D01*
X14249847Y-62979684D01*
X14095344Y-63091937D01*
X13967565Y-63233850D01*
X13967558Y-63233860D01*
X13872076Y-63399240D01*
X13872073Y-63399247D01*
X13813057Y-63580874D01*
X13793096Y-63770802D01*
X9652500Y-63770802D01*
X9652500Y-60705999D01*
X28804496Y-60705999D01*
X28824457Y-60895927D01*
X28854526Y-60988470D01*
X28883473Y-61077556D01*
X28883476Y-61077561D01*
X28978958Y-61242941D01*
X28978965Y-61242951D01*
X29106744Y-61384864D01*
X29106747Y-61384866D01*
X29261248Y-61497118D01*
X29435712Y-61574794D01*
X29622513Y-61614500D01*
X29813487Y-61614500D01*
X30000288Y-61574794D01*
X30174752Y-61497118D01*
X30329253Y-61384866D01*
X30329255Y-61384864D01*
X30457034Y-61242951D01*
X30457035Y-61242949D01*
X30457040Y-61242944D01*
X30552527Y-61077556D01*
X30611542Y-60895928D01*
X30631504Y-60706000D01*
X30631016Y-60701355D01*
X34133852Y-60701355D01*
X34153813Y-60891283D01*
X34183882Y-60983826D01*
X34212829Y-61072912D01*
X34212832Y-61072917D01*
X34308314Y-61238297D01*
X34308321Y-61238307D01*
X34436100Y-61380220D01*
X34436103Y-61380222D01*
X34590604Y-61492474D01*
X34765068Y-61570150D01*
X34951869Y-61609856D01*
X35142843Y-61609856D01*
X35329644Y-61570150D01*
X35504108Y-61492474D01*
X35658609Y-61380222D01*
X35658611Y-61380220D01*
X35786390Y-61238307D01*
X35786391Y-61238305D01*
X35786396Y-61238300D01*
X35881883Y-61072912D01*
X35940898Y-60891284D01*
X35960860Y-60701356D01*
X35940898Y-60511428D01*
X35881883Y-60329800D01*
X35786396Y-60164412D01*
X35786394Y-60164410D01*
X35786390Y-60164404D01*
X35658611Y-60022491D01*
X35504108Y-59910238D01*
X35329644Y-59832562D01*
X35142843Y-59792856D01*
X34951869Y-59792856D01*
X34765067Y-59832562D01*
X34590603Y-59910238D01*
X34436100Y-60022491D01*
X34308321Y-60164404D01*
X34308314Y-60164414D01*
X34212832Y-60329794D01*
X34212829Y-60329801D01*
X34153813Y-60511428D01*
X34133852Y-60701355D01*
X30631016Y-60701355D01*
X30611542Y-60516072D01*
X30552527Y-60334444D01*
X30457040Y-60169056D01*
X30457038Y-60169054D01*
X30457034Y-60169048D01*
X30329255Y-60027135D01*
X30174752Y-59914882D01*
X30000288Y-59837206D01*
X29813487Y-59797500D01*
X29622513Y-59797500D01*
X29435711Y-59837206D01*
X29261247Y-59914882D01*
X29106744Y-60027135D01*
X28978965Y-60169048D01*
X28978958Y-60169058D01*
X28883476Y-60334438D01*
X28883473Y-60334445D01*
X28824457Y-60516072D01*
X28804496Y-60705999D01*
X9652500Y-60705999D01*
X9652500Y-58928000D01*
X27534496Y-58928000D01*
X27554457Y-59117927D01*
X27584526Y-59210470D01*
X27613473Y-59299556D01*
X27613476Y-59299561D01*
X27708958Y-59464941D01*
X27708965Y-59464951D01*
X27836744Y-59606864D01*
X27836747Y-59606866D01*
X27991248Y-59719118D01*
X28165712Y-59796794D01*
X28352513Y-59836500D01*
X28543487Y-59836500D01*
X28730288Y-59796794D01*
X28904752Y-59719118D01*
X28944831Y-59689999D01*
X74016496Y-59689999D01*
X74036457Y-59879927D01*
X74046306Y-59910238D01*
X74095473Y-60061556D01*
X74095476Y-60061561D01*
X74190958Y-60226941D01*
X74190965Y-60226951D01*
X74318744Y-60368864D01*
X74318747Y-60368866D01*
X74473248Y-60481118D01*
X74647712Y-60558794D01*
X74834513Y-60598500D01*
X75025487Y-60598500D01*
X75212288Y-60558794D01*
X75386752Y-60481118D01*
X75541253Y-60368866D01*
X75669040Y-60226944D01*
X75764527Y-60061556D01*
X75823542Y-59879928D01*
X75843504Y-59690000D01*
X75823542Y-59500072D01*
X75764527Y-59318444D01*
X75669040Y-59153056D01*
X75669038Y-59153054D01*
X75669034Y-59153048D01*
X75541255Y-59011135D01*
X75386752Y-58898882D01*
X75212288Y-58821206D01*
X75025487Y-58781500D01*
X74834513Y-58781500D01*
X74647711Y-58821206D01*
X74473247Y-58898882D01*
X74318744Y-59011135D01*
X74190965Y-59153048D01*
X74190958Y-59153058D01*
X74095476Y-59318438D01*
X74095473Y-59318445D01*
X74036457Y-59500072D01*
X74016496Y-59689999D01*
X28944831Y-59689999D01*
X29059253Y-59606866D01*
X29155411Y-59500072D01*
X29187034Y-59464951D01*
X29187035Y-59464949D01*
X29187040Y-59464944D01*
X29282527Y-59299556D01*
X29341542Y-59117928D01*
X29361504Y-58928000D01*
X29341542Y-58738072D01*
X29320723Y-58673999D01*
X112878496Y-58673999D01*
X112898457Y-58863927D01*
X112909815Y-58898882D01*
X112957473Y-59045556D01*
X112957476Y-59045561D01*
X113052958Y-59210941D01*
X113052965Y-59210951D01*
X113180744Y-59352864D01*
X113180747Y-59352866D01*
X113335248Y-59465118D01*
X113509712Y-59542794D01*
X113696513Y-59582500D01*
X113887487Y-59582500D01*
X114074288Y-59542794D01*
X114248752Y-59465118D01*
X114403253Y-59352866D01*
X114451249Y-59299561D01*
X114531034Y-59210951D01*
X114531035Y-59210949D01*
X114531040Y-59210944D01*
X114626527Y-59045556D01*
X114685542Y-58863928D01*
X114705504Y-58674000D01*
X114685542Y-58484072D01*
X114626527Y-58302444D01*
X114531040Y-58137056D01*
X114531038Y-58137054D01*
X114531034Y-58137048D01*
X114403255Y-57995135D01*
X114248752Y-57882882D01*
X114074288Y-57805206D01*
X113887487Y-57765500D01*
X113696513Y-57765500D01*
X113509711Y-57805206D01*
X113335247Y-57882882D01*
X113180744Y-57995135D01*
X113052965Y-58137048D01*
X113052958Y-58137058D01*
X112957476Y-58302438D01*
X112957473Y-58302445D01*
X112898457Y-58484072D01*
X112878496Y-58673999D01*
X29320723Y-58673999D01*
X29282527Y-58556444D01*
X29187040Y-58391056D01*
X29187038Y-58391054D01*
X29187034Y-58391048D01*
X29059255Y-58249135D01*
X28904752Y-58136882D01*
X28730288Y-58059206D01*
X28543487Y-58019500D01*
X28352513Y-58019500D01*
X28165711Y-58059206D01*
X27991247Y-58136882D01*
X27836744Y-58249135D01*
X27708965Y-58391048D01*
X27708958Y-58391058D01*
X27613476Y-58556438D01*
X27613473Y-58556445D01*
X27554457Y-58738072D01*
X27534496Y-58928000D01*
X9652500Y-58928000D01*
X9652500Y-58048597D01*
X11423200Y-58048597D01*
X11429705Y-58109093D01*
X11480755Y-58245964D01*
X11480755Y-58245965D01*
X11568295Y-58362904D01*
X11685234Y-58450444D01*
X11822106Y-58501494D01*
X11882602Y-58507999D01*
X11882615Y-58508000D01*
X12527200Y-58508000D01*
X12527200Y-57764033D01*
X12547202Y-57695912D01*
X12600858Y-57649419D01*
X12671126Y-57639315D01*
X12745437Y-57650000D01*
X12816963Y-57650000D01*
X12891269Y-57639316D01*
X12961541Y-57649419D01*
X13015197Y-57695911D01*
X13035200Y-57764031D01*
X13035200Y-58508000D01*
X13679785Y-58508000D01*
X13679797Y-58507999D01*
X13740293Y-58501494D01*
X13877164Y-58450444D01*
X13877165Y-58450444D01*
X13994104Y-58362904D01*
X14081644Y-58245965D01*
X14125818Y-58127530D01*
X14168365Y-58070694D01*
X14234885Y-58045883D01*
X14304259Y-58060974D01*
X14336572Y-58086222D01*
X14358998Y-58110582D01*
X14397962Y-58152908D01*
X14444900Y-58189441D01*
X14575624Y-58291189D01*
X14773626Y-58398342D01*
X14773627Y-58398342D01*
X14773628Y-58398343D01*
X14885427Y-58436723D01*
X14986565Y-58471444D01*
X15208631Y-58508500D01*
X15208635Y-58508500D01*
X15433765Y-58508500D01*
X15433769Y-58508500D01*
X15655835Y-58471444D01*
X15868774Y-58398342D01*
X16066776Y-58291189D01*
X16244440Y-58152906D01*
X16396922Y-57987268D01*
X16485718Y-57851354D01*
X16539720Y-57805268D01*
X16610068Y-57795692D01*
X16674425Y-57825669D01*
X16696680Y-57851353D01*
X16729807Y-57902058D01*
X16785475Y-57987265D01*
X16785479Y-57987270D01*
X16937962Y-58152908D01*
X16984900Y-58189441D01*
X17115624Y-58291189D01*
X17313626Y-58398342D01*
X17313627Y-58398342D01*
X17313628Y-58398343D01*
X17425427Y-58436723D01*
X17526565Y-58471444D01*
X17748631Y-58508500D01*
X17748635Y-58508500D01*
X17973765Y-58508500D01*
X17973769Y-58508500D01*
X18195835Y-58471444D01*
X18408774Y-58398342D01*
X18606776Y-58291189D01*
X18784440Y-58152906D01*
X18936922Y-57987268D01*
X19025718Y-57851354D01*
X19079720Y-57805268D01*
X19150068Y-57795692D01*
X19214425Y-57825669D01*
X19236680Y-57851353D01*
X19269807Y-57902058D01*
X19325475Y-57987265D01*
X19325479Y-57987270D01*
X19477962Y-58152908D01*
X19524900Y-58189441D01*
X19655624Y-58291189D01*
X19853626Y-58398342D01*
X19853627Y-58398342D01*
X19853628Y-58398343D01*
X19965427Y-58436723D01*
X20066565Y-58471444D01*
X20288631Y-58508500D01*
X20288635Y-58508500D01*
X20513765Y-58508500D01*
X20513769Y-58508500D01*
X20735835Y-58471444D01*
X20948774Y-58398342D01*
X21146776Y-58291189D01*
X21324440Y-58152906D01*
X21476922Y-57987268D01*
X21565718Y-57851354D01*
X21619720Y-57805268D01*
X21690068Y-57795692D01*
X21754425Y-57825669D01*
X21776680Y-57851353D01*
X21809807Y-57902058D01*
X21865475Y-57987265D01*
X21865479Y-57987270D01*
X22017962Y-58152908D01*
X22064900Y-58189441D01*
X22195624Y-58291189D01*
X22393626Y-58398342D01*
X22393627Y-58398342D01*
X22393628Y-58398343D01*
X22505427Y-58436723D01*
X22606565Y-58471444D01*
X22828631Y-58508500D01*
X22828635Y-58508500D01*
X23053765Y-58508500D01*
X23053769Y-58508500D01*
X23275835Y-58471444D01*
X23488774Y-58398342D01*
X23686776Y-58291189D01*
X23864440Y-58152906D01*
X24016922Y-57987268D01*
X24140060Y-57798791D01*
X24230496Y-57592616D01*
X24285764Y-57374368D01*
X24304356Y-57150000D01*
X24285764Y-56925632D01*
X24265328Y-56844933D01*
X24230497Y-56707387D01*
X24230496Y-56707386D01*
X24230496Y-56707384D01*
X24140060Y-56501209D01*
X24124439Y-56477299D01*
X24016924Y-56312734D01*
X24016920Y-56312729D01*
X23864437Y-56147091D01*
X23847618Y-56134000D01*
X50477289Y-56134000D01*
X50535971Y-56378434D01*
X50632830Y-56612272D01*
X50765077Y-56828079D01*
X50929457Y-57020542D01*
X51121920Y-57184922D01*
X51337727Y-57317169D01*
X51571565Y-57414028D01*
X51816000Y-57472710D01*
X51816000Y-56546169D01*
X51836002Y-56478048D01*
X51889658Y-56431555D01*
X51959932Y-56421451D01*
X51975991Y-56424841D01*
X51994404Y-56430000D01*
X52107622Y-56430000D01*
X52107632Y-56429999D01*
X52151071Y-56424028D01*
X52180842Y-56419936D01*
X52251052Y-56430475D01*
X52304418Y-56477299D01*
X52324000Y-56544762D01*
X52324000Y-57472709D01*
X52568434Y-57414028D01*
X52802272Y-57317169D01*
X53018079Y-57184922D01*
X53058968Y-57149999D01*
X100686496Y-57149999D01*
X100706457Y-57339927D01*
X100726860Y-57402718D01*
X100765473Y-57521556D01*
X100765476Y-57521561D01*
X100860958Y-57686941D01*
X100860965Y-57686951D01*
X100988744Y-57828864D01*
X100988769Y-57828882D01*
X101143248Y-57941118D01*
X101317712Y-58018794D01*
X101504513Y-58058500D01*
X101695487Y-58058500D01*
X101882288Y-58018794D01*
X102056752Y-57941118D01*
X102211253Y-57828866D01*
X102307827Y-57721610D01*
X102339034Y-57686951D01*
X102339035Y-57686949D01*
X102339040Y-57686944D01*
X102434527Y-57521556D01*
X102493542Y-57339928D01*
X102513504Y-57150000D01*
X102493542Y-56960072D01*
X102434527Y-56778444D01*
X102394875Y-56709765D01*
X118033788Y-56709765D01*
X118063412Y-56979014D01*
X118131928Y-57241090D01*
X118237869Y-57490389D01*
X118237870Y-57490390D01*
X118378982Y-57721610D01*
X118552255Y-57929820D01*
X118552257Y-57929822D01*
X118552259Y-57929824D01*
X118616371Y-57987268D01*
X118753998Y-58110582D01*
X118979910Y-58260044D01*
X119225176Y-58375020D01*
X119484569Y-58453060D01*
X119484572Y-58453060D01*
X119484574Y-58453061D01*
X119752557Y-58492500D01*
X119752561Y-58492500D01*
X119955633Y-58492500D01*
X119990363Y-58489957D01*
X120158156Y-58477677D01*
X120158160Y-58477676D01*
X120158161Y-58477676D01*
X120280409Y-58450444D01*
X120422553Y-58418780D01*
X120675558Y-58322014D01*
X120911777Y-58189441D01*
X121126177Y-58023888D01*
X121314186Y-57828881D01*
X121471799Y-57608579D01*
X121480009Y-57592612D01*
X121595656Y-57367675D01*
X121595657Y-57367672D01*
X121638842Y-57241088D01*
X121683118Y-57111305D01*
X121732319Y-56844933D01*
X121742212Y-56574235D01*
X121725401Y-56421451D01*
X121712587Y-56304985D01*
X121646980Y-56054035D01*
X121644072Y-56042912D01*
X121584045Y-55901658D01*
X121538130Y-55793610D01*
X121536842Y-55791500D01*
X121397018Y-55562390D01*
X121223745Y-55354180D01*
X121223741Y-55354177D01*
X121223740Y-55354175D01*
X121022012Y-55173427D01*
X121022002Y-55173418D01*
X120796090Y-55023956D01*
X120550824Y-54908980D01*
X120329250Y-54842318D01*
X120291425Y-54830938D01*
X120023442Y-54791500D01*
X120023439Y-54791500D01*
X119820369Y-54791500D01*
X119820367Y-54791500D01*
X119617839Y-54806323D01*
X119617838Y-54806323D01*
X119353456Y-54865217D01*
X119353441Y-54865222D01*
X119100441Y-54961986D01*
X118864229Y-55094555D01*
X118864225Y-55094557D01*
X118649818Y-55260116D01*
X118461815Y-55455117D01*
X118461810Y-55455123D01*
X118304203Y-55675417D01*
X118304196Y-55675427D01*
X118180343Y-55916324D01*
X118180342Y-55916327D01*
X118092883Y-56172689D01*
X118092880Y-56172702D01*
X118043681Y-56439058D01*
X118043680Y-56439069D01*
X118033788Y-56709765D01*
X102394875Y-56709765D01*
X102339040Y-56613056D01*
X102339038Y-56613054D01*
X102339034Y-56613048D01*
X102211255Y-56471135D01*
X102056752Y-56358882D01*
X101882288Y-56281206D01*
X101695487Y-56241500D01*
X101504513Y-56241500D01*
X101317711Y-56281206D01*
X101143247Y-56358882D01*
X100988744Y-56471135D01*
X100860965Y-56613048D01*
X100860958Y-56613058D01*
X100765476Y-56778438D01*
X100765473Y-56778445D01*
X100706457Y-56960072D01*
X100686496Y-57149999D01*
X53058968Y-57149999D01*
X53210542Y-57020542D01*
X53374922Y-56828079D01*
X53507169Y-56612272D01*
X53604028Y-56378434D01*
X53662711Y-56134000D01*
X52738824Y-56134000D01*
X52670703Y-56113998D01*
X52624210Y-56060342D01*
X52613118Y-55999401D01*
X52617380Y-55937095D01*
X52623877Y-55842114D01*
X52610478Y-55777634D01*
X52616203Y-55706869D01*
X52659277Y-55650433D01*
X52726026Y-55626243D01*
X52733843Y-55626000D01*
X53662711Y-55626000D01*
X53604028Y-55381565D01*
X53507169Y-55147727D01*
X53374922Y-54931920D01*
X53210542Y-54739457D01*
X53018079Y-54575077D01*
X52802272Y-54442830D01*
X52568434Y-54345971D01*
X52324000Y-54287288D01*
X52324000Y-55213830D01*
X52303998Y-55281951D01*
X52250342Y-55328444D01*
X52180068Y-55338548D01*
X52164008Y-55335158D01*
X52145598Y-55330000D01*
X52145596Y-55330000D01*
X52032378Y-55330000D01*
X52032364Y-55330000D01*
X51959156Y-55340063D01*
X51888946Y-55329523D01*
X51835580Y-55282698D01*
X51815999Y-55215237D01*
X51815999Y-54287288D01*
X51571566Y-54345971D01*
X51337727Y-54442830D01*
X51121920Y-54575077D01*
X50929457Y-54739457D01*
X50765077Y-54931920D01*
X50632830Y-55147727D01*
X50535971Y-55381565D01*
X50477289Y-55626000D01*
X51401176Y-55626000D01*
X51469297Y-55646002D01*
X51515790Y-55699658D01*
X51526882Y-55760599D01*
X51516123Y-55917885D01*
X51529522Y-55982365D01*
X51523797Y-56053131D01*
X51480723Y-56109567D01*
X51413974Y-56133757D01*
X51406157Y-56134000D01*
X50477289Y-56134000D01*
X23847618Y-56134000D01*
X23744879Y-56054035D01*
X23686776Y-56008811D01*
X23488774Y-55901658D01*
X23488772Y-55901657D01*
X23488771Y-55901656D01*
X23275839Y-55828557D01*
X23275830Y-55828555D01*
X23231676Y-55821187D01*
X23053769Y-55791500D01*
X22828631Y-55791500D01*
X22680411Y-55816233D01*
X22606569Y-55828555D01*
X22606560Y-55828557D01*
X22393628Y-55901656D01*
X22393626Y-55901658D01*
X22195626Y-56008810D01*
X22195624Y-56008811D01*
X22017962Y-56147091D01*
X21865479Y-56312729D01*
X21865479Y-56312730D01*
X21776682Y-56448643D01*
X21722678Y-56494731D01*
X21652330Y-56504306D01*
X21587973Y-56474328D01*
X21565716Y-56448642D01*
X21559460Y-56439067D01*
X21519847Y-56378434D01*
X21476924Y-56312734D01*
X21476920Y-56312729D01*
X21324437Y-56147091D01*
X21204879Y-56054035D01*
X21146776Y-56008811D01*
X20948774Y-55901658D01*
X20948772Y-55901657D01*
X20948771Y-55901656D01*
X20735839Y-55828557D01*
X20735830Y-55828555D01*
X20691676Y-55821187D01*
X20513769Y-55791500D01*
X20288631Y-55791500D01*
X20140411Y-55816233D01*
X20066569Y-55828555D01*
X20066560Y-55828557D01*
X19853628Y-55901656D01*
X19853626Y-55901658D01*
X19655626Y-56008810D01*
X19655624Y-56008811D01*
X19477962Y-56147091D01*
X19325479Y-56312729D01*
X19236683Y-56448643D01*
X19182679Y-56494731D01*
X19112331Y-56504306D01*
X19047974Y-56474329D01*
X19025717Y-56448643D01*
X18936920Y-56312729D01*
X18784437Y-56147091D01*
X18664879Y-56054035D01*
X18606776Y-56008811D01*
X18408774Y-55901658D01*
X18408772Y-55901657D01*
X18408771Y-55901656D01*
X18195839Y-55828557D01*
X18195830Y-55828555D01*
X18151676Y-55821187D01*
X17973769Y-55791500D01*
X17748631Y-55791500D01*
X17600410Y-55816233D01*
X17526569Y-55828555D01*
X17526560Y-55828557D01*
X17313628Y-55901656D01*
X17313626Y-55901658D01*
X17115626Y-56008810D01*
X17115624Y-56008811D01*
X16937962Y-56147091D01*
X16785479Y-56312729D01*
X16785479Y-56312730D01*
X16696682Y-56448643D01*
X16642678Y-56494731D01*
X16572330Y-56504306D01*
X16507973Y-56474328D01*
X16485716Y-56448642D01*
X16479460Y-56439067D01*
X16439847Y-56378434D01*
X16396924Y-56312734D01*
X16396920Y-56312729D01*
X16244437Y-56147091D01*
X16124879Y-56054035D01*
X16066776Y-56008811D01*
X15868774Y-55901658D01*
X15868772Y-55901657D01*
X15868771Y-55901656D01*
X15655839Y-55828557D01*
X15655830Y-55828555D01*
X15611676Y-55821187D01*
X15433769Y-55791500D01*
X15208631Y-55791500D01*
X15060410Y-55816233D01*
X14986569Y-55828555D01*
X14986560Y-55828557D01*
X14773628Y-55901656D01*
X14773626Y-55901658D01*
X14575626Y-56008810D01*
X14575624Y-56008811D01*
X14397959Y-56147094D01*
X14336574Y-56213775D01*
X14275721Y-56250346D01*
X14204757Y-56248211D01*
X14146212Y-56208049D01*
X14125818Y-56172470D01*
X14081643Y-56054033D01*
X13994104Y-55937095D01*
X13877165Y-55849555D01*
X13740293Y-55798505D01*
X13679797Y-55792000D01*
X13035200Y-55792000D01*
X13035200Y-56535966D01*
X13015198Y-56604087D01*
X12961542Y-56650580D01*
X12891269Y-56660683D01*
X12891268Y-56660683D01*
X12816968Y-56650000D01*
X12816963Y-56650000D01*
X12745437Y-56650000D01*
X12745431Y-56650000D01*
X12671132Y-56660683D01*
X12600858Y-56650580D01*
X12547202Y-56604087D01*
X12527200Y-56535966D01*
X12527200Y-55792000D01*
X11882602Y-55792000D01*
X11822106Y-55798505D01*
X11685235Y-55849555D01*
X11685234Y-55849555D01*
X11568295Y-55937095D01*
X11480755Y-56054034D01*
X11480755Y-56054035D01*
X11429705Y-56190906D01*
X11423200Y-56251402D01*
X11423200Y-56896000D01*
X12166356Y-56896000D01*
X12234477Y-56916002D01*
X12280970Y-56969658D01*
X12291074Y-57039932D01*
X12287253Y-57057496D01*
X12281200Y-57078111D01*
X12281200Y-57221888D01*
X12287253Y-57242504D01*
X12287252Y-57313500D01*
X12248867Y-57373226D01*
X12184286Y-57402718D01*
X12166356Y-57404000D01*
X11423200Y-57404000D01*
X11423200Y-58048597D01*
X9652500Y-58048597D01*
X9652500Y-54051200D01*
X28982296Y-54051200D01*
X29002257Y-54241127D01*
X29004653Y-54248500D01*
X29061273Y-54422756D01*
X29061276Y-54422761D01*
X29156758Y-54588141D01*
X29156765Y-54588151D01*
X29284544Y-54730064D01*
X29345799Y-54774568D01*
X29439048Y-54842318D01*
X29613512Y-54919994D01*
X29800313Y-54959700D01*
X29991287Y-54959700D01*
X30178088Y-54919994D01*
X30352552Y-54842318D01*
X30507053Y-54730066D01*
X30634840Y-54588144D01*
X30730327Y-54422756D01*
X30789342Y-54241128D01*
X30809304Y-54051200D01*
X30789342Y-53861272D01*
X30730327Y-53679644D01*
X30634840Y-53514256D01*
X30634838Y-53514254D01*
X30634834Y-53514248D01*
X30507055Y-53372335D01*
X30462548Y-53339999D01*
X142596496Y-53339999D01*
X142616457Y-53529927D01*
X142646526Y-53622470D01*
X142675473Y-53711556D01*
X142675476Y-53711561D01*
X142770958Y-53876941D01*
X142770965Y-53876951D01*
X142898744Y-54018864D01*
X142898747Y-54018866D01*
X143053248Y-54131118D01*
X143227712Y-54208794D01*
X143414513Y-54248500D01*
X143605487Y-54248500D01*
X143792288Y-54208794D01*
X143966752Y-54131118D01*
X144121253Y-54018866D01*
X144249040Y-53876944D01*
X144344527Y-53711556D01*
X144403542Y-53529928D01*
X144423504Y-53340000D01*
X144403542Y-53150072D01*
X144344527Y-52968444D01*
X144249040Y-52803056D01*
X144249038Y-52803054D01*
X144249034Y-52803048D01*
X144121255Y-52661135D01*
X144006828Y-52577999D01*
X161900496Y-52577999D01*
X161920457Y-52767927D01*
X161950526Y-52860470D01*
X161979473Y-52949556D01*
X161979476Y-52949561D01*
X162074958Y-53114941D01*
X162074965Y-53114951D01*
X162202744Y-53256864D01*
X162202747Y-53256866D01*
X162357248Y-53369118D01*
X162531712Y-53446794D01*
X162718513Y-53486500D01*
X162909487Y-53486500D01*
X163096288Y-53446794D01*
X163270752Y-53369118D01*
X163425253Y-53256866D01*
X163521411Y-53150072D01*
X163553034Y-53114951D01*
X163553035Y-53114949D01*
X163553040Y-53114944D01*
X163648527Y-52949556D01*
X163707542Y-52767928D01*
X163727504Y-52578000D01*
X163707542Y-52388072D01*
X163686724Y-52324000D01*
X168250496Y-52324000D01*
X168270457Y-52513927D01*
X168281815Y-52548882D01*
X168329473Y-52695556D01*
X168329476Y-52695561D01*
X168424958Y-52860941D01*
X168424965Y-52860951D01*
X168552744Y-53002864D01*
X168552747Y-53002866D01*
X168707248Y-53115118D01*
X168881712Y-53192794D01*
X169068513Y-53232500D01*
X169259487Y-53232500D01*
X169446288Y-53192794D01*
X169620752Y-53115118D01*
X169775253Y-53002866D01*
X169823249Y-52949561D01*
X169903034Y-52860951D01*
X169903035Y-52860949D01*
X169903040Y-52860944D01*
X169998527Y-52695556D01*
X170057542Y-52513928D01*
X170077504Y-52324000D01*
X170057542Y-52134072D01*
X169998527Y-51952444D01*
X169903040Y-51787056D01*
X169903038Y-51787054D01*
X169903034Y-51787048D01*
X169775255Y-51645135D01*
X169620752Y-51532882D01*
X169446288Y-51455206D01*
X169259487Y-51415500D01*
X169068513Y-51415500D01*
X168881711Y-51455206D01*
X168707247Y-51532882D01*
X168552744Y-51645135D01*
X168424965Y-51787048D01*
X168424958Y-51787058D01*
X168329476Y-51952438D01*
X168329473Y-51952445D01*
X168270457Y-52134072D01*
X168250496Y-52324000D01*
X163686724Y-52324000D01*
X163648527Y-52206444D01*
X163553040Y-52041056D01*
X163553038Y-52041054D01*
X163553034Y-52041048D01*
X163425255Y-51899135D01*
X163270752Y-51786882D01*
X163096288Y-51709206D01*
X162909487Y-51669500D01*
X162718513Y-51669500D01*
X162531711Y-51709206D01*
X162357247Y-51786882D01*
X162202744Y-51899135D01*
X162074965Y-52041048D01*
X162074958Y-52041058D01*
X161979476Y-52206438D01*
X161979473Y-52206444D01*
X161964999Y-52250986D01*
X161920457Y-52388072D01*
X161900496Y-52577999D01*
X144006828Y-52577999D01*
X143966752Y-52548882D01*
X143792288Y-52471206D01*
X143605487Y-52431500D01*
X143414513Y-52431500D01*
X143227711Y-52471206D01*
X143053247Y-52548882D01*
X142898744Y-52661135D01*
X142770965Y-52803048D01*
X142770958Y-52803058D01*
X142675476Y-52968438D01*
X142675473Y-52968445D01*
X142616457Y-53150072D01*
X142596496Y-53339999D01*
X30462548Y-53339999D01*
X30352552Y-53260082D01*
X30178088Y-53182406D01*
X29991287Y-53142700D01*
X29800313Y-53142700D01*
X29613511Y-53182406D01*
X29439047Y-53260082D01*
X29284544Y-53372335D01*
X29156765Y-53514248D01*
X29156758Y-53514258D01*
X29061276Y-53679638D01*
X29061273Y-53679644D01*
X29046799Y-53724186D01*
X29002257Y-53861272D01*
X28982296Y-54051200D01*
X9652500Y-54051200D01*
X9652500Y-51435000D01*
X15672696Y-51435000D01*
X15692657Y-51624927D01*
X15707140Y-51669500D01*
X15751673Y-51806556D01*
X15751676Y-51806561D01*
X15847158Y-51971941D01*
X15847165Y-51971951D01*
X15974944Y-52113864D01*
X15974947Y-52113866D01*
X16129448Y-52226118D01*
X16303912Y-52303794D01*
X16490713Y-52343500D01*
X16681687Y-52343500D01*
X16868488Y-52303794D01*
X17042952Y-52226118D01*
X17197453Y-52113866D01*
X17263010Y-52041058D01*
X17325234Y-51971951D01*
X17325235Y-51971949D01*
X17325240Y-51971944D01*
X17420727Y-51806556D01*
X17479742Y-51624928D01*
X17499704Y-51435000D01*
X17484527Y-51290597D01*
X43092000Y-51290597D01*
X43098505Y-51351093D01*
X43149555Y-51487964D01*
X43149555Y-51487965D01*
X43237095Y-51604904D01*
X43354034Y-51692444D01*
X43490906Y-51743494D01*
X43551402Y-51749999D01*
X43551415Y-51750000D01*
X44196000Y-51750000D01*
X44195999Y-51006033D01*
X44216001Y-50937912D01*
X44269657Y-50891419D01*
X44339926Y-50881315D01*
X44414237Y-50892000D01*
X44485763Y-50892000D01*
X44560069Y-50881316D01*
X44630341Y-50891419D01*
X44683997Y-50937911D01*
X44704000Y-51006031D01*
X44704000Y-51750000D01*
X45348585Y-51750000D01*
X45348597Y-51749999D01*
X45409093Y-51743494D01*
X45545964Y-51692444D01*
X45545965Y-51692444D01*
X45662904Y-51604904D01*
X45750444Y-51487965D01*
X45794618Y-51369530D01*
X45837165Y-51312694D01*
X45903685Y-51287883D01*
X45973059Y-51302974D01*
X46005372Y-51328222D01*
X46026427Y-51351093D01*
X46066762Y-51394908D01*
X46093219Y-51415500D01*
X46244424Y-51533189D01*
X46442426Y-51640342D01*
X46442427Y-51640342D01*
X46442428Y-51640343D01*
X46527360Y-51669500D01*
X46655365Y-51713444D01*
X46877431Y-51750500D01*
X46877435Y-51750500D01*
X47102565Y-51750500D01*
X47102569Y-51750500D01*
X47324635Y-51713444D01*
X47537574Y-51640342D01*
X47735576Y-51533189D01*
X47913240Y-51394906D01*
X48065722Y-51229268D01*
X48154518Y-51093354D01*
X48208520Y-51047268D01*
X48278868Y-51037692D01*
X48343225Y-51067669D01*
X48365480Y-51093353D01*
X48398607Y-51144058D01*
X48454275Y-51229265D01*
X48454279Y-51229270D01*
X48606762Y-51394908D01*
X48633219Y-51415500D01*
X48784424Y-51533189D01*
X48982426Y-51640342D01*
X48982427Y-51640342D01*
X48982428Y-51640343D01*
X49067360Y-51669500D01*
X49195365Y-51713444D01*
X49417431Y-51750500D01*
X49417435Y-51750500D01*
X49642565Y-51750500D01*
X49642569Y-51750500D01*
X49864635Y-51713444D01*
X50077574Y-51640342D01*
X50275576Y-51533189D01*
X50453240Y-51394906D01*
X50605722Y-51229268D01*
X50728860Y-51040791D01*
X50819296Y-50834616D01*
X50874564Y-50616368D01*
X50893156Y-50392000D01*
X50874564Y-50167632D01*
X50833093Y-50003867D01*
X50819297Y-49949387D01*
X50819296Y-49949386D01*
X50819296Y-49949384D01*
X50728860Y-49743209D01*
X50722140Y-49732924D01*
X50674496Y-49659999D01*
X149656496Y-49659999D01*
X149676457Y-49849927D01*
X149694480Y-49905393D01*
X149735473Y-50031556D01*
X149735476Y-50031561D01*
X149830958Y-50196941D01*
X149830965Y-50196951D01*
X149958744Y-50338864D01*
X149958747Y-50338866D01*
X150113248Y-50451118D01*
X150287712Y-50528794D01*
X150474513Y-50568500D01*
X150665487Y-50568500D01*
X150852288Y-50528794D01*
X151026752Y-50451118D01*
X151181253Y-50338866D01*
X151276124Y-50233501D01*
X151309034Y-50196951D01*
X151309035Y-50196949D01*
X151309040Y-50196944D01*
X151404527Y-50031556D01*
X151463542Y-49849928D01*
X151483504Y-49660000D01*
X151463542Y-49470072D01*
X151404527Y-49288444D01*
X151309040Y-49123056D01*
X151309038Y-49123054D01*
X151309034Y-49123048D01*
X151181255Y-48981135D01*
X151026752Y-48868882D01*
X150852288Y-48791206D01*
X150665487Y-48751500D01*
X150474513Y-48751500D01*
X150287711Y-48791206D01*
X150113247Y-48868882D01*
X149958744Y-48981135D01*
X149830965Y-49123048D01*
X149830958Y-49123058D01*
X149735476Y-49288438D01*
X149735473Y-49288445D01*
X149676457Y-49470072D01*
X149656496Y-49659999D01*
X50674496Y-49659999D01*
X50605724Y-49554734D01*
X50605720Y-49554729D01*
X50453237Y-49389091D01*
X50333679Y-49296035D01*
X50275576Y-49250811D01*
X50077574Y-49143658D01*
X50077572Y-49143657D01*
X50077571Y-49143656D01*
X49864639Y-49070557D01*
X49864630Y-49070555D01*
X49820476Y-49063187D01*
X49642569Y-49033500D01*
X49417431Y-49033500D01*
X49291057Y-49054588D01*
X49195369Y-49070555D01*
X49195360Y-49070557D01*
X48982428Y-49143656D01*
X48982426Y-49143658D01*
X48784426Y-49250810D01*
X48784424Y-49250811D01*
X48606762Y-49389091D01*
X48454279Y-49554729D01*
X48365483Y-49690643D01*
X48311479Y-49736731D01*
X48241131Y-49746306D01*
X48176774Y-49716329D01*
X48154517Y-49690643D01*
X48065720Y-49554729D01*
X47913237Y-49389091D01*
X47793679Y-49296035D01*
X47735576Y-49250811D01*
X47537574Y-49143658D01*
X47537572Y-49143657D01*
X47537571Y-49143656D01*
X47324639Y-49070557D01*
X47324630Y-49070555D01*
X47280476Y-49063187D01*
X47102569Y-49033500D01*
X46877431Y-49033500D01*
X46751057Y-49054588D01*
X46655369Y-49070555D01*
X46655360Y-49070557D01*
X46442428Y-49143656D01*
X46442426Y-49143658D01*
X46244426Y-49250810D01*
X46244424Y-49250811D01*
X46066759Y-49389094D01*
X46005374Y-49455775D01*
X45944521Y-49492346D01*
X45873557Y-49490211D01*
X45815012Y-49450049D01*
X45794618Y-49414470D01*
X45750443Y-49296033D01*
X45662904Y-49179095D01*
X45545965Y-49091555D01*
X45409093Y-49040505D01*
X45348597Y-49034000D01*
X44704000Y-49034000D01*
X44704000Y-49777966D01*
X44683998Y-49846087D01*
X44630342Y-49892580D01*
X44560069Y-49902683D01*
X44560068Y-49902683D01*
X44485768Y-49892000D01*
X44485763Y-49892000D01*
X44414237Y-49892000D01*
X44339929Y-49902683D01*
X44269657Y-49892580D01*
X44216001Y-49846087D01*
X44195999Y-49777966D01*
X44196000Y-49034000D01*
X43551402Y-49034000D01*
X43490906Y-49040505D01*
X43354035Y-49091555D01*
X43354034Y-49091555D01*
X43237095Y-49179095D01*
X43149555Y-49296034D01*
X43149555Y-49296035D01*
X43098505Y-49432906D01*
X43092000Y-49493402D01*
X43092000Y-50138000D01*
X43835156Y-50138000D01*
X43903277Y-50158002D01*
X43949770Y-50211658D01*
X43959874Y-50281932D01*
X43956053Y-50299496D01*
X43950000Y-50320111D01*
X43950000Y-50463888D01*
X43956053Y-50484504D01*
X43956052Y-50555500D01*
X43917667Y-50615226D01*
X43853086Y-50644718D01*
X43835156Y-50646000D01*
X43092000Y-50646000D01*
X43092000Y-51290597D01*
X17484527Y-51290597D01*
X17479742Y-51245072D01*
X17420727Y-51063444D01*
X17325240Y-50898056D01*
X17325238Y-50898054D01*
X17325234Y-50898048D01*
X17197455Y-50756135D01*
X17042952Y-50643882D01*
X16868488Y-50566206D01*
X16681687Y-50526500D01*
X16490713Y-50526500D01*
X16303911Y-50566206D01*
X16129447Y-50643882D01*
X15974944Y-50756135D01*
X15847165Y-50898048D01*
X15847158Y-50898058D01*
X15751676Y-51063438D01*
X15751673Y-51063445D01*
X15692657Y-51245072D01*
X15672696Y-51435000D01*
X9652500Y-51435000D01*
X9652500Y-48515999D01*
X11084892Y-48515999D01*
X11084893Y-48516000D01*
X11654711Y-48516000D01*
X11722832Y-48536002D01*
X11769325Y-48589658D01*
X11779429Y-48659932D01*
X11775901Y-48676481D01*
X11757305Y-48741840D01*
X11757304Y-48741841D01*
X11767653Y-48853520D01*
X11770499Y-48863522D01*
X11769901Y-48934516D01*
X11731015Y-48993916D01*
X11666188Y-49022864D01*
X11649308Y-49024000D01*
X11084893Y-49024000D01*
X11125423Y-49157610D01*
X11125424Y-49157612D01*
X11219024Y-49332724D01*
X11344988Y-49486211D01*
X11498475Y-49612175D01*
X11673585Y-49705774D01*
X11673600Y-49705780D01*
X11863593Y-49763414D01*
X11863605Y-49763416D01*
X12011673Y-49777999D01*
X12011691Y-49778000D01*
X12207200Y-49778000D01*
X12207200Y-49196000D01*
X12227202Y-49127879D01*
X12280858Y-49081386D01*
X12333200Y-49070000D01*
X12589200Y-49070000D01*
X12657321Y-49090002D01*
X12703814Y-49143658D01*
X12715200Y-49196000D01*
X12715200Y-49778000D01*
X12910709Y-49778000D01*
X12910726Y-49777999D01*
X13058794Y-49763416D01*
X13058806Y-49763414D01*
X13248799Y-49705780D01*
X13248814Y-49705774D01*
X13423924Y-49612175D01*
X13577411Y-49486211D01*
X13703375Y-49332724D01*
X13796975Y-49157612D01*
X13796976Y-49157610D01*
X13837507Y-49024000D01*
X13267689Y-49024000D01*
X13199568Y-49003998D01*
X13153075Y-48950342D01*
X13142971Y-48880068D01*
X13146499Y-48863519D01*
X13153211Y-48839927D01*
X13165095Y-48798160D01*
X13154746Y-48686479D01*
X13151901Y-48676478D01*
X13152499Y-48605484D01*
X13191385Y-48546084D01*
X13256212Y-48517136D01*
X13273092Y-48516000D01*
X13837507Y-48516000D01*
X13837507Y-48515999D01*
X15084892Y-48515999D01*
X15084893Y-48516000D01*
X15654711Y-48516000D01*
X15722832Y-48536002D01*
X15769325Y-48589658D01*
X15779429Y-48659932D01*
X15775901Y-48676481D01*
X15757305Y-48741840D01*
X15757304Y-48741841D01*
X15767653Y-48853520D01*
X15770499Y-48863522D01*
X15769901Y-48934516D01*
X15731015Y-48993916D01*
X15666188Y-49022864D01*
X15649308Y-49024000D01*
X15084893Y-49024000D01*
X15125423Y-49157610D01*
X15125424Y-49157612D01*
X15219024Y-49332724D01*
X15344988Y-49486211D01*
X15498475Y-49612175D01*
X15673585Y-49705774D01*
X15673600Y-49705780D01*
X15863593Y-49763414D01*
X15863605Y-49763416D01*
X16011673Y-49777999D01*
X16011691Y-49778000D01*
X16357200Y-49778000D01*
X16357200Y-49196000D01*
X16377202Y-49127879D01*
X16430858Y-49081386D01*
X16483200Y-49070000D01*
X16739200Y-49070000D01*
X16807321Y-49090002D01*
X16853814Y-49143658D01*
X16865200Y-49196000D01*
X16865200Y-49778000D01*
X17210709Y-49778000D01*
X17210726Y-49777999D01*
X17358794Y-49763416D01*
X17358806Y-49763414D01*
X17548799Y-49705780D01*
X17548814Y-49705774D01*
X17723924Y-49612175D01*
X17877411Y-49486211D01*
X18003375Y-49332724D01*
X18007503Y-49325001D01*
X38661495Y-49325001D01*
X38681456Y-49514928D01*
X38695614Y-49558500D01*
X38740472Y-49696557D01*
X38745797Y-49705780D01*
X38835957Y-49861942D01*
X38835964Y-49861952D01*
X38963743Y-50003865D01*
X38963746Y-50003867D01*
X39118247Y-50116119D01*
X39292711Y-50193795D01*
X39479512Y-50233501D01*
X39670486Y-50233501D01*
X39857287Y-50193795D01*
X40031751Y-50116119D01*
X40186252Y-50003867D01*
X40273183Y-49907320D01*
X40314033Y-49861952D01*
X40314034Y-49861950D01*
X40314039Y-49861945D01*
X40409526Y-49696557D01*
X40468541Y-49514929D01*
X40488503Y-49325001D01*
X40468541Y-49135073D01*
X40409526Y-48953445D01*
X40314039Y-48788057D01*
X40314037Y-48788055D01*
X40314033Y-48788049D01*
X40189732Y-48649999D01*
X127806496Y-48649999D01*
X127826457Y-48839927D01*
X127856526Y-48932470D01*
X127885473Y-49021556D01*
X127885476Y-49021561D01*
X127980958Y-49186941D01*
X127980965Y-49186951D01*
X128108744Y-49328864D01*
X128108747Y-49328866D01*
X128263248Y-49441118D01*
X128437712Y-49518794D01*
X128624513Y-49558500D01*
X128815487Y-49558500D01*
X129002288Y-49518794D01*
X129176752Y-49441118D01*
X129331253Y-49328866D01*
X129367649Y-49288444D01*
X129459034Y-49186951D01*
X129459035Y-49186949D01*
X129459040Y-49186944D01*
X129554527Y-49021556D01*
X129613542Y-48839928D01*
X129633504Y-48650000D01*
X129613542Y-48460072D01*
X129554527Y-48278444D01*
X129459040Y-48113056D01*
X129459038Y-48113054D01*
X129459034Y-48113048D01*
X129331255Y-47971135D01*
X129176752Y-47858882D01*
X129002288Y-47781206D01*
X128815487Y-47741500D01*
X128624513Y-47741500D01*
X128437711Y-47781206D01*
X128263247Y-47858882D01*
X128108744Y-47971135D01*
X127980965Y-48113048D01*
X127980958Y-48113058D01*
X127885476Y-48278438D01*
X127885473Y-48278444D01*
X127882059Y-48288951D01*
X127826457Y-48460072D01*
X127806496Y-48649999D01*
X40189732Y-48649999D01*
X40186254Y-48646136D01*
X40031751Y-48533883D01*
X39857287Y-48456207D01*
X39670486Y-48416501D01*
X39479512Y-48416501D01*
X39292710Y-48456207D01*
X39118246Y-48533883D01*
X38963743Y-48646136D01*
X38835964Y-48788049D01*
X38835957Y-48788059D01*
X38740475Y-48953439D01*
X38740472Y-48953446D01*
X38681456Y-49135073D01*
X38661495Y-49325001D01*
X18007503Y-49325001D01*
X18096975Y-49157612D01*
X18096976Y-49157610D01*
X18137507Y-49024000D01*
X17567689Y-49024000D01*
X17499568Y-49003998D01*
X17453075Y-48950342D01*
X17442971Y-48880068D01*
X17446499Y-48863519D01*
X17453211Y-48839927D01*
X17465095Y-48798160D01*
X17454746Y-48686479D01*
X17451901Y-48676478D01*
X17452499Y-48605484D01*
X17491385Y-48546084D01*
X17556212Y-48517136D01*
X17573092Y-48516000D01*
X18137507Y-48516000D01*
X18137507Y-48515999D01*
X18096976Y-48382389D01*
X18096975Y-48382387D01*
X18003375Y-48207275D01*
X17877411Y-48053788D01*
X17723924Y-47927824D01*
X17548814Y-47834225D01*
X17548799Y-47834219D01*
X17358806Y-47776585D01*
X17358794Y-47776583D01*
X17210726Y-47762000D01*
X16723957Y-47762000D01*
X16689900Y-47752000D01*
X20879696Y-47752000D01*
X20899657Y-47941927D01*
X20909148Y-47971135D01*
X20958673Y-48123556D01*
X20958676Y-48123561D01*
X21054158Y-48288941D01*
X21054165Y-48288951D01*
X21181944Y-48430864D01*
X21181947Y-48430866D01*
X21336448Y-48543118D01*
X21510912Y-48620794D01*
X21697713Y-48660500D01*
X21888687Y-48660500D01*
X22075488Y-48620794D01*
X22249952Y-48543118D01*
X22404453Y-48430866D01*
X22448104Y-48382387D01*
X22532234Y-48288951D01*
X22532235Y-48288949D01*
X22532240Y-48288944D01*
X22627727Y-48123556D01*
X22686742Y-47941928D01*
X22706704Y-47752000D01*
X22686742Y-47562072D01*
X22627727Y-47380444D01*
X22532240Y-47215056D01*
X22532238Y-47215054D01*
X22532234Y-47215048D01*
X22404455Y-47073135D01*
X22249952Y-46960882D01*
X22075488Y-46883206D01*
X21888687Y-46843500D01*
X21697713Y-46843500D01*
X21510911Y-46883206D01*
X21336447Y-46960882D01*
X21181944Y-47073135D01*
X21054165Y-47215048D01*
X21054158Y-47215058D01*
X20958676Y-47380438D01*
X20958673Y-47380445D01*
X20899657Y-47562072D01*
X20879696Y-47752000D01*
X16689900Y-47752000D01*
X16655836Y-47741998D01*
X16609343Y-47688342D01*
X16599239Y-47618068D01*
X16605232Y-47593805D01*
X16629299Y-47526085D01*
X16655254Y-47453056D01*
X16665581Y-47302079D01*
X16634792Y-47153915D01*
X16565171Y-47019553D01*
X16461880Y-46908956D01*
X16440675Y-46896061D01*
X16332581Y-46830327D01*
X16186867Y-46789500D01*
X16186865Y-46789500D01*
X16073542Y-46789500D01*
X16073528Y-46789500D01*
X15961284Y-46804928D01*
X15822476Y-46865221D01*
X15822474Y-46865223D01*
X15705094Y-46960719D01*
X15705091Y-46960722D01*
X15617823Y-47084351D01*
X15617821Y-47084356D01*
X15567146Y-47226942D01*
X15567145Y-47226948D01*
X15560412Y-47325393D01*
X15556819Y-47377921D01*
X15572433Y-47453057D01*
X15587609Y-47526088D01*
X15657228Y-47660445D01*
X15657231Y-47660449D01*
X15659019Y-47662364D01*
X15660097Y-47664510D01*
X15662200Y-47667489D01*
X15661752Y-47667804D01*
X15690895Y-47725802D01*
X15683413Y-47796403D01*
X15638949Y-47851752D01*
X15626328Y-47859485D01*
X15498473Y-47927825D01*
X15344988Y-48053788D01*
X15219024Y-48207275D01*
X15125424Y-48382387D01*
X15125423Y-48382389D01*
X15084892Y-48515999D01*
X13837507Y-48515999D01*
X13796976Y-48382389D01*
X13796975Y-48382387D01*
X13703375Y-48207275D01*
X13577411Y-48053788D01*
X13423924Y-47927824D01*
X13248814Y-47834225D01*
X13248799Y-47834219D01*
X13058806Y-47776585D01*
X13058794Y-47776583D01*
X12910726Y-47762000D01*
X12715200Y-47762000D01*
X12715200Y-48344000D01*
X12695198Y-48412121D01*
X12641542Y-48458614D01*
X12589200Y-48470000D01*
X12333200Y-48470000D01*
X12265079Y-48449998D01*
X12218586Y-48396342D01*
X12207200Y-48344000D01*
X12207200Y-47762000D01*
X12011673Y-47762000D01*
X11863605Y-47776583D01*
X11863593Y-47776585D01*
X11673600Y-47834219D01*
X11673585Y-47834225D01*
X11498475Y-47927824D01*
X11344988Y-48053788D01*
X11219024Y-48207275D01*
X11125424Y-48382387D01*
X11125423Y-48382389D01*
X11084892Y-48515999D01*
X9652500Y-48515999D01*
X9652500Y-46228000D01*
X17831696Y-46228000D01*
X17851657Y-46417927D01*
X17867566Y-46466888D01*
X17910673Y-46599556D01*
X17910676Y-46599561D01*
X18006158Y-46764941D01*
X18006165Y-46764951D01*
X18133944Y-46906864D01*
X18136825Y-46908957D01*
X18288448Y-47019118D01*
X18462912Y-47096794D01*
X18649713Y-47136500D01*
X18840687Y-47136500D01*
X19027488Y-47096794D01*
X19201952Y-47019118D01*
X19356453Y-46906866D01*
X19377757Y-46883206D01*
X19484234Y-46764951D01*
X19484235Y-46764949D01*
X19484240Y-46764944D01*
X19579727Y-46599556D01*
X19626177Y-46456599D01*
X30811096Y-46456599D01*
X30831057Y-46646527D01*
X30849421Y-46703043D01*
X30890073Y-46828156D01*
X30891327Y-46830328D01*
X30985558Y-46993541D01*
X30985565Y-46993551D01*
X31113344Y-47135464D01*
X31113347Y-47135466D01*
X31267848Y-47247718D01*
X31442312Y-47325394D01*
X31629113Y-47365100D01*
X31820087Y-47365100D01*
X32006888Y-47325394D01*
X32181352Y-47247718D01*
X32335853Y-47135466D01*
X32335855Y-47135464D01*
X32463634Y-46993551D01*
X32463635Y-46993549D01*
X32463640Y-46993544D01*
X32559127Y-46828156D01*
X32618142Y-46646528D01*
X32638104Y-46456600D01*
X32618142Y-46266672D01*
X32559127Y-46085044D01*
X32463640Y-45919656D01*
X32463638Y-45919654D01*
X32463634Y-45919648D01*
X32335855Y-45777735D01*
X32181352Y-45665482D01*
X32006888Y-45587806D01*
X31820087Y-45548100D01*
X31629113Y-45548100D01*
X31442311Y-45587806D01*
X31267847Y-45665482D01*
X31113344Y-45777735D01*
X30985565Y-45919648D01*
X30985558Y-45919658D01*
X30909398Y-46051572D01*
X30890073Y-46085044D01*
X30885959Y-46097707D01*
X30831057Y-46266672D01*
X30811096Y-46456599D01*
X19626177Y-46456599D01*
X19638742Y-46417928D01*
X19658704Y-46228000D01*
X19638742Y-46038072D01*
X19579727Y-45856444D01*
X19484240Y-45691056D01*
X19484238Y-45691054D01*
X19484234Y-45691048D01*
X19356455Y-45549135D01*
X19201952Y-45436882D01*
X19027488Y-45359206D01*
X18840687Y-45319500D01*
X18649713Y-45319500D01*
X18462911Y-45359206D01*
X18288447Y-45436882D01*
X18133944Y-45549135D01*
X18006165Y-45691048D01*
X18006158Y-45691058D01*
X17915173Y-45848649D01*
X17910673Y-45856444D01*
X17896478Y-45900132D01*
X17851657Y-46038072D01*
X17831696Y-46228000D01*
X9652500Y-46228000D01*
X9652500Y-44449997D01*
X12497696Y-44449997D01*
X12517657Y-44639925D01*
X12542106Y-44715168D01*
X12576673Y-44821554D01*
X12576676Y-44821559D01*
X12672158Y-44986939D01*
X12672165Y-44986949D01*
X12799944Y-45128862D01*
X12799947Y-45128864D01*
X12954448Y-45241116D01*
X13128912Y-45318792D01*
X13315713Y-45358498D01*
X13506687Y-45358498D01*
X13693488Y-45318792D01*
X13867952Y-45241116D01*
X14022453Y-45128864D01*
X14022455Y-45128862D01*
X14150234Y-44986949D01*
X14150238Y-44986944D01*
X14150240Y-44986942D01*
X14245727Y-44821554D01*
X14304742Y-44639926D01*
X14324704Y-44449999D01*
X25197696Y-44449999D01*
X25217657Y-44639927D01*
X25230887Y-44680643D01*
X25276673Y-44821556D01*
X25276675Y-44821559D01*
X25276676Y-44821561D01*
X25372158Y-44986941D01*
X25372165Y-44986951D01*
X25499944Y-45128864D01*
X25499947Y-45128866D01*
X25654448Y-45241118D01*
X25828912Y-45318794D01*
X26015713Y-45358500D01*
X26206687Y-45358500D01*
X26393488Y-45318794D01*
X26567952Y-45241118D01*
X26689559Y-45152765D01*
X36880788Y-45152765D01*
X36910412Y-45422014D01*
X36978928Y-45684090D01*
X37084869Y-45933389D01*
X37114899Y-45982595D01*
X37225982Y-46164610D01*
X37399255Y-46372820D01*
X37399257Y-46372822D01*
X37399259Y-46372824D01*
X37492758Y-46456599D01*
X37600998Y-46553582D01*
X37826910Y-46703044D01*
X38072176Y-46818020D01*
X38331569Y-46896060D01*
X38331572Y-46896060D01*
X38331574Y-46896061D01*
X38599557Y-46935500D01*
X38599561Y-46935500D01*
X38802633Y-46935500D01*
X38837363Y-46932957D01*
X39005156Y-46920677D01*
X39005160Y-46920676D01*
X39005161Y-46920676D01*
X39115665Y-46896060D01*
X39269553Y-46861780D01*
X39522558Y-46765014D01*
X39758777Y-46632441D01*
X39973177Y-46466888D01*
X40161186Y-46271881D01*
X40318799Y-46051579D01*
X40321563Y-46046204D01*
X40423132Y-45848649D01*
X59881500Y-45848649D01*
X59888009Y-45909196D01*
X59888011Y-45909204D01*
X59939110Y-46046202D01*
X59939112Y-46046207D01*
X60026738Y-46163261D01*
X60143792Y-46250887D01*
X60143794Y-46250888D01*
X60143796Y-46250889D01*
X60200064Y-46271876D01*
X60280795Y-46301988D01*
X60280803Y-46301990D01*
X60341350Y-46308499D01*
X60341355Y-46308499D01*
X60341362Y-46308500D01*
X60341368Y-46308500D01*
X63138632Y-46308500D01*
X63138638Y-46308500D01*
X63138645Y-46308499D01*
X63138649Y-46308499D01*
X63199196Y-46301990D01*
X63199199Y-46301989D01*
X63199201Y-46301989D01*
X63336204Y-46250889D01*
X63409645Y-46195912D01*
X63453261Y-46163261D01*
X63540887Y-46046207D01*
X63540887Y-46046206D01*
X63540889Y-46046204D01*
X63591989Y-45909201D01*
X63592963Y-45900149D01*
X63598499Y-45848649D01*
X63598500Y-45848632D01*
X63598500Y-44449999D01*
X64956753Y-44449999D01*
X64975718Y-44715171D01*
X65032225Y-44974928D01*
X65032225Y-44974929D01*
X65125130Y-45224020D01*
X65150103Y-45269754D01*
X65252537Y-45457347D01*
X65376831Y-45623384D01*
X65411853Y-45670168D01*
X65411861Y-45670177D01*
X65599822Y-45858138D01*
X65599831Y-45858146D01*
X65599833Y-45858148D01*
X65812653Y-46017463D01*
X66045979Y-46144869D01*
X66295063Y-46237772D01*
X66295066Y-46237772D01*
X66295070Y-46237774D01*
X66427912Y-46266672D01*
X66554832Y-46294282D01*
X66820000Y-46313247D01*
X67085168Y-46294282D01*
X67344928Y-46237774D01*
X67344929Y-46237774D01*
X67344930Y-46237773D01*
X67344937Y-46237772D01*
X67594021Y-46144869D01*
X67827347Y-46017463D01*
X68040167Y-45858148D01*
X68228148Y-45670167D01*
X68387463Y-45457347D01*
X68514869Y-45224021D01*
X68607772Y-44974937D01*
X68664282Y-44715168D01*
X68683247Y-44450000D01*
X68683247Y-44449999D01*
X70036753Y-44449999D01*
X70055718Y-44715171D01*
X70112225Y-44974928D01*
X70112225Y-44974929D01*
X70205130Y-45224020D01*
X70230103Y-45269754D01*
X70332537Y-45457347D01*
X70456831Y-45623384D01*
X70491853Y-45670168D01*
X70491861Y-45670177D01*
X70679822Y-45858138D01*
X70679831Y-45858146D01*
X70679833Y-45858148D01*
X70892653Y-46017463D01*
X71125979Y-46144869D01*
X71375063Y-46237772D01*
X71375066Y-46237772D01*
X71375070Y-46237774D01*
X71507912Y-46266672D01*
X71634832Y-46294282D01*
X71900000Y-46313247D01*
X72165168Y-46294282D01*
X72424928Y-46237774D01*
X72424929Y-46237774D01*
X72424930Y-46237773D01*
X72424937Y-46237772D01*
X72674021Y-46144869D01*
X72907347Y-46017463D01*
X73120167Y-45858148D01*
X73308148Y-45670167D01*
X73467463Y-45457347D01*
X73594869Y-45224021D01*
X73687772Y-44974937D01*
X73744282Y-44715168D01*
X73763247Y-44450000D01*
X75116753Y-44450000D01*
X75135718Y-44715171D01*
X75192225Y-44974928D01*
X75192225Y-44974929D01*
X75285130Y-45224020D01*
X75310103Y-45269754D01*
X75412537Y-45457347D01*
X75536831Y-45623384D01*
X75571853Y-45670168D01*
X75571861Y-45670177D01*
X75759822Y-45858138D01*
X75759831Y-45858146D01*
X75759833Y-45858148D01*
X75972653Y-46017463D01*
X76205979Y-46144869D01*
X76455063Y-46237772D01*
X76455066Y-46237772D01*
X76455070Y-46237774D01*
X76587912Y-46266672D01*
X76714832Y-46294282D01*
X76980000Y-46313247D01*
X77245168Y-46294282D01*
X77504928Y-46237774D01*
X77504929Y-46237774D01*
X77504930Y-46237773D01*
X77504937Y-46237772D01*
X77754021Y-46144869D01*
X77987347Y-46017463D01*
X78200167Y-45858148D01*
X78209666Y-45848649D01*
X85281500Y-45848649D01*
X85288009Y-45909196D01*
X85288011Y-45909204D01*
X85339110Y-46046202D01*
X85339112Y-46046207D01*
X85426738Y-46163261D01*
X85543792Y-46250887D01*
X85543794Y-46250888D01*
X85543796Y-46250889D01*
X85600064Y-46271876D01*
X85680795Y-46301988D01*
X85680803Y-46301990D01*
X85741350Y-46308499D01*
X85741355Y-46308499D01*
X85741362Y-46308500D01*
X85741368Y-46308500D01*
X88538632Y-46308500D01*
X88538638Y-46308500D01*
X88538645Y-46308499D01*
X88538649Y-46308499D01*
X88599196Y-46301990D01*
X88599199Y-46301989D01*
X88599201Y-46301989D01*
X88736204Y-46250889D01*
X88809645Y-46195912D01*
X88853261Y-46163261D01*
X88940887Y-46046207D01*
X88940887Y-46046206D01*
X88940889Y-46046204D01*
X88991989Y-45909201D01*
X88992963Y-45900149D01*
X88998499Y-45848649D01*
X88998500Y-45848632D01*
X88998500Y-44450000D01*
X90356753Y-44450000D01*
X90375718Y-44715171D01*
X90432225Y-44974928D01*
X90432225Y-44974929D01*
X90525130Y-45224020D01*
X90550103Y-45269754D01*
X90652537Y-45457347D01*
X90776831Y-45623384D01*
X90811853Y-45670168D01*
X90811861Y-45670177D01*
X90999822Y-45858138D01*
X90999831Y-45858146D01*
X90999833Y-45858148D01*
X91212653Y-46017463D01*
X91445979Y-46144869D01*
X91695063Y-46237772D01*
X91695066Y-46237772D01*
X91695070Y-46237774D01*
X91827912Y-46266672D01*
X91954832Y-46294282D01*
X92220000Y-46313247D01*
X92485168Y-46294282D01*
X92744928Y-46237774D01*
X92744929Y-46237774D01*
X92744930Y-46237773D01*
X92744937Y-46237772D01*
X92994021Y-46144869D01*
X93227347Y-46017463D01*
X93440167Y-45858148D01*
X93628148Y-45670167D01*
X93787463Y-45457347D01*
X93914869Y-45224021D01*
X94007772Y-44974937D01*
X94064282Y-44715168D01*
X94083247Y-44450000D01*
X95436753Y-44450000D01*
X95455718Y-44715171D01*
X95512225Y-44974928D01*
X95512225Y-44974929D01*
X95605130Y-45224020D01*
X95630103Y-45269754D01*
X95732537Y-45457347D01*
X95856831Y-45623384D01*
X95891853Y-45670168D01*
X95891861Y-45670177D01*
X96079822Y-45858138D01*
X96079831Y-45858146D01*
X96079833Y-45858148D01*
X96292653Y-46017463D01*
X96525979Y-46144869D01*
X96775063Y-46237772D01*
X96775066Y-46237772D01*
X96775070Y-46237774D01*
X96907912Y-46266672D01*
X97034832Y-46294282D01*
X97300000Y-46313247D01*
X97565168Y-46294282D01*
X97824928Y-46237774D01*
X97824929Y-46237774D01*
X97824930Y-46237773D01*
X97824937Y-46237772D01*
X98074021Y-46144869D01*
X98307347Y-46017463D01*
X98520167Y-45858148D01*
X98708148Y-45670167D01*
X98867463Y-45457347D01*
X98994869Y-45224021D01*
X99087772Y-44974937D01*
X99144282Y-44715168D01*
X99163247Y-44450000D01*
X99163247Y-44449999D01*
X100516753Y-44449999D01*
X100535718Y-44715171D01*
X100592225Y-44974928D01*
X100592225Y-44974929D01*
X100685130Y-45224020D01*
X100710103Y-45269754D01*
X100812537Y-45457347D01*
X100936831Y-45623384D01*
X100971853Y-45670168D01*
X100971861Y-45670177D01*
X101159822Y-45858138D01*
X101159831Y-45858146D01*
X101159833Y-45858148D01*
X101372653Y-46017463D01*
X101605979Y-46144869D01*
X101855063Y-46237772D01*
X101855066Y-46237772D01*
X101855070Y-46237774D01*
X101987912Y-46266672D01*
X102114832Y-46294282D01*
X102380000Y-46313247D01*
X102645168Y-46294282D01*
X102904928Y-46237774D01*
X102904929Y-46237774D01*
X102904930Y-46237773D01*
X102904937Y-46237772D01*
X103154021Y-46144869D01*
X103387347Y-46017463D01*
X103544060Y-45900149D01*
X109877500Y-45900149D01*
X109884009Y-45960696D01*
X109884011Y-45960704D01*
X109935110Y-46097702D01*
X109935112Y-46097707D01*
X110022738Y-46214761D01*
X110139792Y-46302387D01*
X110139794Y-46302388D01*
X110139796Y-46302389D01*
X110198875Y-46324424D01*
X110276795Y-46353488D01*
X110276803Y-46353490D01*
X110337350Y-46359999D01*
X110337355Y-46359999D01*
X110337362Y-46360000D01*
X110337368Y-46360000D01*
X113134632Y-46360000D01*
X113134638Y-46360000D01*
X113134645Y-46359999D01*
X113134649Y-46359999D01*
X113195196Y-46353490D01*
X113195199Y-46353489D01*
X113195201Y-46353489D01*
X113332204Y-46302389D01*
X113332739Y-46301989D01*
X113449261Y-46214761D01*
X113536887Y-46097707D01*
X113536887Y-46097706D01*
X113536889Y-46097704D01*
X113587989Y-45960701D01*
X113590926Y-45933389D01*
X113594499Y-45900149D01*
X113594500Y-45900132D01*
X113594500Y-44501499D01*
X114953254Y-44501499D01*
X114972213Y-44766592D01*
X115028707Y-45026293D01*
X115121587Y-45275314D01*
X115248958Y-45508576D01*
X115334902Y-45623384D01*
X115985431Y-44972856D01*
X116047744Y-44938831D01*
X116118559Y-44943895D01*
X116175395Y-44986442D01*
X116181213Y-44994913D01*
X116186575Y-45003447D01*
X116314048Y-45130920D01*
X116314050Y-45130921D01*
X116314052Y-45130923D01*
X116322569Y-45136274D01*
X116322584Y-45136284D01*
X116369621Y-45189464D01*
X116380441Y-45259631D01*
X116351607Y-45324509D01*
X116344642Y-45332066D01*
X115694112Y-45982595D01*
X115694113Y-45982596D01*
X115808919Y-46068539D01*
X116042185Y-46195912D01*
X116291206Y-46288792D01*
X116550907Y-46345286D01*
X116816000Y-46364245D01*
X117081092Y-46345286D01*
X117340793Y-46288792D01*
X117589814Y-46195912D01*
X117823076Y-46068542D01*
X117937885Y-45982595D01*
X117803939Y-45848649D01*
X124711500Y-45848649D01*
X124718009Y-45909196D01*
X124718011Y-45909204D01*
X124769110Y-46046202D01*
X124769112Y-46046207D01*
X124856738Y-46163261D01*
X124973792Y-46250887D01*
X124973794Y-46250888D01*
X124973796Y-46250889D01*
X125030064Y-46271876D01*
X125110795Y-46301988D01*
X125110803Y-46301990D01*
X125171350Y-46308499D01*
X125171355Y-46308499D01*
X125171362Y-46308500D01*
X125171368Y-46308500D01*
X127968632Y-46308500D01*
X127968638Y-46308500D01*
X127968645Y-46308499D01*
X127968649Y-46308499D01*
X128029196Y-46301990D01*
X128029199Y-46301989D01*
X128029201Y-46301989D01*
X128166204Y-46250889D01*
X128239645Y-46195912D01*
X128283261Y-46163261D01*
X128370887Y-46046207D01*
X128370887Y-46046206D01*
X128370889Y-46046204D01*
X128421989Y-45909201D01*
X128422963Y-45900149D01*
X128428499Y-45848649D01*
X128428500Y-45848632D01*
X128428500Y-44449999D01*
X129786753Y-44449999D01*
X129805718Y-44715171D01*
X129862225Y-44974928D01*
X129862225Y-44974929D01*
X129955130Y-45224020D01*
X129980103Y-45269754D01*
X130082537Y-45457347D01*
X130206831Y-45623384D01*
X130241853Y-45670168D01*
X130241861Y-45670177D01*
X130429822Y-45858138D01*
X130429831Y-45858146D01*
X130429833Y-45858148D01*
X130642653Y-46017463D01*
X130875979Y-46144869D01*
X131125063Y-46237772D01*
X131125066Y-46237772D01*
X131125070Y-46237774D01*
X131257912Y-46266672D01*
X131384832Y-46294282D01*
X131650000Y-46313247D01*
X131915168Y-46294282D01*
X132174928Y-46237774D01*
X132174929Y-46237774D01*
X132174930Y-46237773D01*
X132174937Y-46237772D01*
X132424021Y-46144869D01*
X132657347Y-46017463D01*
X132870167Y-45858148D01*
X133058148Y-45670167D01*
X133217463Y-45457347D01*
X133344869Y-45224021D01*
X133437772Y-44974937D01*
X133494282Y-44715168D01*
X133513247Y-44450000D01*
X133513247Y-44449999D01*
X134866753Y-44449999D01*
X134885718Y-44715171D01*
X134942225Y-44974928D01*
X134942225Y-44974929D01*
X135035130Y-45224020D01*
X135060103Y-45269754D01*
X135162537Y-45457347D01*
X135286831Y-45623384D01*
X135321853Y-45670168D01*
X135321861Y-45670177D01*
X135509822Y-45858138D01*
X135509831Y-45858146D01*
X135509833Y-45858148D01*
X135722653Y-46017463D01*
X135955979Y-46144869D01*
X136205063Y-46237772D01*
X136205066Y-46237772D01*
X136205070Y-46237774D01*
X136337912Y-46266672D01*
X136464832Y-46294282D01*
X136730000Y-46313247D01*
X136995168Y-46294282D01*
X137254928Y-46237774D01*
X137254929Y-46237774D01*
X137254930Y-46237773D01*
X137254937Y-46237772D01*
X137504021Y-46144869D01*
X137737347Y-46017463D01*
X137950167Y-45858148D01*
X138138148Y-45670167D01*
X138297463Y-45457347D01*
X138424869Y-45224021D01*
X138517772Y-44974937D01*
X138574282Y-44715168D01*
X138593247Y-44450000D01*
X138593247Y-44449999D01*
X139946753Y-44449999D01*
X139965718Y-44715171D01*
X140022225Y-44974928D01*
X140022225Y-44974929D01*
X140115130Y-45224020D01*
X140140103Y-45269754D01*
X140242537Y-45457347D01*
X140366831Y-45623384D01*
X140401853Y-45670168D01*
X140401861Y-45670177D01*
X140589822Y-45858138D01*
X140589831Y-45858146D01*
X140589833Y-45858148D01*
X140802653Y-46017463D01*
X141035979Y-46144869D01*
X141285063Y-46237772D01*
X141285066Y-46237772D01*
X141285070Y-46237774D01*
X141417912Y-46266672D01*
X141544832Y-46294282D01*
X141810000Y-46313247D01*
X142075168Y-46294282D01*
X142334928Y-46237774D01*
X142334929Y-46237774D01*
X142334930Y-46237773D01*
X142334937Y-46237772D01*
X142584021Y-46144869D01*
X142817347Y-46017463D01*
X143030167Y-45858148D01*
X143039666Y-45848649D01*
X150111500Y-45848649D01*
X150118009Y-45909196D01*
X150118011Y-45909204D01*
X150169110Y-46046202D01*
X150169112Y-46046207D01*
X150256738Y-46163261D01*
X150373792Y-46250887D01*
X150373794Y-46250888D01*
X150373796Y-46250889D01*
X150430064Y-46271876D01*
X150510795Y-46301988D01*
X150510803Y-46301990D01*
X150571350Y-46308499D01*
X150571355Y-46308499D01*
X150571362Y-46308500D01*
X150571368Y-46308500D01*
X153368632Y-46308500D01*
X153368638Y-46308500D01*
X153368645Y-46308499D01*
X153368649Y-46308499D01*
X153429196Y-46301990D01*
X153429199Y-46301989D01*
X153429201Y-46301989D01*
X153566204Y-46250889D01*
X153639645Y-46195912D01*
X153683261Y-46163261D01*
X153770887Y-46046207D01*
X153770887Y-46046206D01*
X153770889Y-46046204D01*
X153821989Y-45909201D01*
X153822963Y-45900149D01*
X153828499Y-45848649D01*
X153828500Y-45848632D01*
X153828500Y-44450000D01*
X155186753Y-44450000D01*
X155205718Y-44715171D01*
X155262225Y-44974928D01*
X155262225Y-44974929D01*
X155355130Y-45224020D01*
X155380103Y-45269754D01*
X155482537Y-45457347D01*
X155606831Y-45623384D01*
X155641853Y-45670168D01*
X155641861Y-45670177D01*
X155829822Y-45858138D01*
X155829831Y-45858146D01*
X155829833Y-45858148D01*
X156042653Y-46017463D01*
X156275979Y-46144869D01*
X156525063Y-46237772D01*
X156525066Y-46237772D01*
X156525070Y-46237774D01*
X156657912Y-46266672D01*
X156784832Y-46294282D01*
X157050000Y-46313247D01*
X157315168Y-46294282D01*
X157574928Y-46237774D01*
X157574929Y-46237774D01*
X157574930Y-46237773D01*
X157574937Y-46237772D01*
X157824021Y-46144869D01*
X158057347Y-46017463D01*
X158270167Y-45858148D01*
X158458148Y-45670167D01*
X158617463Y-45457347D01*
X158744869Y-45224021D01*
X158837772Y-44974937D01*
X158894282Y-44715168D01*
X158913247Y-44450000D01*
X158913247Y-44449999D01*
X160266753Y-44449999D01*
X160285718Y-44715171D01*
X160342225Y-44974928D01*
X160342225Y-44974929D01*
X160435130Y-45224020D01*
X160460103Y-45269754D01*
X160562537Y-45457347D01*
X160686831Y-45623384D01*
X160721853Y-45670168D01*
X160721861Y-45670177D01*
X160909822Y-45858138D01*
X160909831Y-45858146D01*
X160909833Y-45858148D01*
X161122653Y-46017463D01*
X161355979Y-46144869D01*
X161605063Y-46237772D01*
X161605066Y-46237772D01*
X161605070Y-46237774D01*
X161737912Y-46266672D01*
X161864832Y-46294282D01*
X162130000Y-46313247D01*
X162395168Y-46294282D01*
X162654928Y-46237774D01*
X162654929Y-46237774D01*
X162654930Y-46237773D01*
X162654937Y-46237772D01*
X162904021Y-46144869D01*
X163137347Y-46017463D01*
X163350167Y-45858148D01*
X163538148Y-45670167D01*
X163697463Y-45457347D01*
X163824869Y-45224021D01*
X163917772Y-44974937D01*
X163974282Y-44715168D01*
X163993247Y-44450000D01*
X165346753Y-44450000D01*
X165365718Y-44715171D01*
X165422225Y-44974928D01*
X165422225Y-44974929D01*
X165515130Y-45224020D01*
X165540103Y-45269754D01*
X165642537Y-45457347D01*
X165766831Y-45623384D01*
X165801853Y-45670168D01*
X165801861Y-45670177D01*
X165989822Y-45858138D01*
X165989831Y-45858146D01*
X165989833Y-45858148D01*
X166202653Y-46017463D01*
X166435979Y-46144869D01*
X166685063Y-46237772D01*
X166685066Y-46237772D01*
X166685070Y-46237774D01*
X166817912Y-46266672D01*
X166944832Y-46294282D01*
X167210000Y-46313247D01*
X167475168Y-46294282D01*
X167734928Y-46237774D01*
X167734929Y-46237774D01*
X167734930Y-46237773D01*
X167734937Y-46237772D01*
X167984021Y-46144869D01*
X168217347Y-46017463D01*
X168430167Y-45858148D01*
X168618148Y-45670167D01*
X168777463Y-45457347D01*
X168904869Y-45224021D01*
X168997772Y-44974937D01*
X169054282Y-44715168D01*
X169073247Y-44450000D01*
X169054282Y-44184832D01*
X169026472Y-44056993D01*
X168997774Y-43925071D01*
X168997774Y-43925070D01*
X168997772Y-43925066D01*
X168997772Y-43925063D01*
X168904869Y-43675979D01*
X168777463Y-43442653D01*
X168618148Y-43229833D01*
X168618146Y-43229831D01*
X168618138Y-43229822D01*
X168430177Y-43041861D01*
X168430168Y-43041853D01*
X168384946Y-43008000D01*
X168217347Y-42882537D01*
X168026569Y-42778364D01*
X167984020Y-42755130D01*
X167734929Y-42662225D01*
X167475170Y-42605718D01*
X167475172Y-42605718D01*
X167210000Y-42586753D01*
X166944828Y-42605718D01*
X166685071Y-42662225D01*
X166685070Y-42662225D01*
X166435979Y-42755130D01*
X166202653Y-42882537D01*
X165989831Y-43041853D01*
X165989822Y-43041861D01*
X165801861Y-43229822D01*
X165801853Y-43229831D01*
X165642537Y-43442653D01*
X165515130Y-43675979D01*
X165422225Y-43925070D01*
X165422225Y-43925071D01*
X165365718Y-44184828D01*
X165346753Y-44450000D01*
X163993247Y-44450000D01*
X163974282Y-44184832D01*
X163946472Y-44056993D01*
X163917774Y-43925071D01*
X163917774Y-43925070D01*
X163917772Y-43925066D01*
X163917772Y-43925063D01*
X163824869Y-43675979D01*
X163697463Y-43442653D01*
X163538148Y-43229833D01*
X163538146Y-43229831D01*
X163538138Y-43229822D01*
X163350177Y-43041861D01*
X163350168Y-43041853D01*
X163304946Y-43008000D01*
X163137347Y-42882537D01*
X162946569Y-42778364D01*
X162904020Y-42755130D01*
X162654929Y-42662225D01*
X162395170Y-42605718D01*
X162395172Y-42605718D01*
X162130000Y-42586753D01*
X161864828Y-42605718D01*
X161605071Y-42662225D01*
X161605070Y-42662225D01*
X161355979Y-42755130D01*
X161122653Y-42882537D01*
X160909831Y-43041853D01*
X160909822Y-43041861D01*
X160721861Y-43229822D01*
X160721853Y-43229831D01*
X160562537Y-43442653D01*
X160435130Y-43675979D01*
X160342225Y-43925070D01*
X160342225Y-43925071D01*
X160285718Y-44184828D01*
X160266753Y-44449999D01*
X158913247Y-44449999D01*
X158894282Y-44184832D01*
X158866472Y-44056993D01*
X158837774Y-43925071D01*
X158837774Y-43925070D01*
X158837772Y-43925066D01*
X158837772Y-43925063D01*
X158744869Y-43675979D01*
X158617463Y-43442653D01*
X158458148Y-43229833D01*
X158458146Y-43229831D01*
X158458138Y-43229822D01*
X158270177Y-43041861D01*
X158270168Y-43041853D01*
X158224946Y-43008000D01*
X158057347Y-42882537D01*
X157866569Y-42778364D01*
X157824020Y-42755130D01*
X157574929Y-42662225D01*
X157315170Y-42605718D01*
X157315172Y-42605718D01*
X157050000Y-42586753D01*
X156784828Y-42605718D01*
X156525071Y-42662225D01*
X156525070Y-42662225D01*
X156275979Y-42755130D01*
X156042653Y-42882537D01*
X155829831Y-43041853D01*
X155829822Y-43041861D01*
X155641861Y-43229822D01*
X155641853Y-43229831D01*
X155482537Y-43442653D01*
X155355130Y-43675979D01*
X155262225Y-43925070D01*
X155262225Y-43925071D01*
X155205718Y-44184828D01*
X155186753Y-44450000D01*
X153828500Y-44450000D01*
X153828500Y-43051367D01*
X153828499Y-43051350D01*
X153821990Y-42990803D01*
X153821988Y-42990795D01*
X153770889Y-42853797D01*
X153770887Y-42853792D01*
X153683261Y-42736738D01*
X153566207Y-42649112D01*
X153566202Y-42649110D01*
X153429204Y-42598011D01*
X153429196Y-42598009D01*
X153368649Y-42591500D01*
X153368638Y-42591500D01*
X150571362Y-42591500D01*
X150571350Y-42591500D01*
X150510803Y-42598009D01*
X150510795Y-42598011D01*
X150373797Y-42649110D01*
X150373792Y-42649112D01*
X150256738Y-42736738D01*
X150169112Y-42853792D01*
X150169110Y-42853797D01*
X150118011Y-42990795D01*
X150118009Y-42990803D01*
X150111500Y-43051350D01*
X150111500Y-45848649D01*
X143039666Y-45848649D01*
X143218148Y-45670167D01*
X143377463Y-45457347D01*
X143504869Y-45224021D01*
X143597772Y-44974937D01*
X143654282Y-44715168D01*
X143673247Y-44450000D01*
X143654282Y-44184832D01*
X143626472Y-44056993D01*
X143597774Y-43925071D01*
X143597774Y-43925070D01*
X143597772Y-43925066D01*
X143597772Y-43925063D01*
X143504869Y-43675979D01*
X143377463Y-43442653D01*
X143218148Y-43229833D01*
X143218146Y-43229831D01*
X143218138Y-43229822D01*
X143030177Y-43041861D01*
X143030168Y-43041853D01*
X142984946Y-43008000D01*
X142817347Y-42882537D01*
X142626569Y-42778364D01*
X142584020Y-42755130D01*
X142334929Y-42662225D01*
X142075170Y-42605718D01*
X142075172Y-42605718D01*
X141810000Y-42586753D01*
X141544828Y-42605718D01*
X141285071Y-42662225D01*
X141285070Y-42662225D01*
X141035979Y-42755130D01*
X140802653Y-42882537D01*
X140589831Y-43041853D01*
X140589822Y-43041861D01*
X140401861Y-43229822D01*
X140401853Y-43229831D01*
X140242537Y-43442653D01*
X140115130Y-43675979D01*
X140022225Y-43925070D01*
X140022225Y-43925071D01*
X139965718Y-44184828D01*
X139946753Y-44449999D01*
X138593247Y-44449999D01*
X138574282Y-44184832D01*
X138546472Y-44056993D01*
X138517774Y-43925071D01*
X138517774Y-43925070D01*
X138517772Y-43925066D01*
X138517772Y-43925063D01*
X138424869Y-43675979D01*
X138297463Y-43442653D01*
X138138148Y-43229833D01*
X138138146Y-43229831D01*
X138138138Y-43229822D01*
X137950177Y-43041861D01*
X137950168Y-43041853D01*
X137904946Y-43008000D01*
X137737347Y-42882537D01*
X137546569Y-42778364D01*
X137504020Y-42755130D01*
X137254929Y-42662225D01*
X136995170Y-42605718D01*
X136995172Y-42605718D01*
X136730000Y-42586753D01*
X136464828Y-42605718D01*
X136205071Y-42662225D01*
X136205070Y-42662225D01*
X135955979Y-42755130D01*
X135722653Y-42882537D01*
X135509831Y-43041853D01*
X135509822Y-43041861D01*
X135321861Y-43229822D01*
X135321853Y-43229831D01*
X135162537Y-43442653D01*
X135035130Y-43675979D01*
X134942225Y-43925070D01*
X134942225Y-43925071D01*
X134885718Y-44184828D01*
X134866753Y-44449999D01*
X133513247Y-44449999D01*
X133494282Y-44184832D01*
X133466472Y-44056993D01*
X133437774Y-43925071D01*
X133437774Y-43925070D01*
X133437772Y-43925066D01*
X133437772Y-43925063D01*
X133344869Y-43675979D01*
X133217463Y-43442653D01*
X133058148Y-43229833D01*
X133058146Y-43229831D01*
X133058138Y-43229822D01*
X132870177Y-43041861D01*
X132870168Y-43041853D01*
X132824946Y-43008000D01*
X132657347Y-42882537D01*
X132466569Y-42778364D01*
X132424020Y-42755130D01*
X132174929Y-42662225D01*
X131915170Y-42605718D01*
X131915172Y-42605718D01*
X131650000Y-42586753D01*
X131384828Y-42605718D01*
X131125071Y-42662225D01*
X131125070Y-42662225D01*
X130875979Y-42755130D01*
X130642653Y-42882537D01*
X130429831Y-43041853D01*
X130429822Y-43041861D01*
X130241861Y-43229822D01*
X130241853Y-43229831D01*
X130082537Y-43442653D01*
X129955130Y-43675979D01*
X129862225Y-43925070D01*
X129862225Y-43925071D01*
X129805718Y-44184828D01*
X129786753Y-44449999D01*
X128428500Y-44449999D01*
X128428500Y-43051367D01*
X128428499Y-43051350D01*
X128421990Y-42990803D01*
X128421988Y-42990795D01*
X128370889Y-42853797D01*
X128370887Y-42853792D01*
X128283261Y-42736738D01*
X128166207Y-42649112D01*
X128166202Y-42649110D01*
X128029204Y-42598011D01*
X128029196Y-42598009D01*
X127968649Y-42591500D01*
X127968638Y-42591500D01*
X125171362Y-42591500D01*
X125171350Y-42591500D01*
X125110803Y-42598009D01*
X125110795Y-42598011D01*
X124973797Y-42649110D01*
X124973792Y-42649112D01*
X124856738Y-42736738D01*
X124769112Y-42853792D01*
X124769110Y-42853797D01*
X124718011Y-42990795D01*
X124718009Y-42990803D01*
X124711500Y-43051350D01*
X124711500Y-45848649D01*
X117803939Y-45848649D01*
X117287356Y-45332067D01*
X117253331Y-45269754D01*
X117258395Y-45198939D01*
X117300942Y-45142103D01*
X117309394Y-45136297D01*
X117317948Y-45130923D01*
X117445423Y-45003448D01*
X117450783Y-44994917D01*
X117503957Y-44947880D01*
X117574123Y-44937056D01*
X117639003Y-44965886D01*
X117646567Y-44972856D01*
X118297095Y-45623384D01*
X118383042Y-45508576D01*
X118510412Y-45275314D01*
X118603292Y-45026293D01*
X118659786Y-44766592D01*
X118678745Y-44501499D01*
X118659786Y-44236407D01*
X118603292Y-43976706D01*
X118510412Y-43727685D01*
X118383039Y-43494419D01*
X118297096Y-43379613D01*
X118297095Y-43379612D01*
X117646566Y-44030142D01*
X117584254Y-44064168D01*
X117513439Y-44059103D01*
X117456603Y-44016556D01*
X117450784Y-44008084D01*
X117449720Y-44006391D01*
X117445423Y-43999552D01*
X117445421Y-43999550D01*
X117445420Y-43999548D01*
X117317947Y-43872075D01*
X117309413Y-43866713D01*
X117262376Y-43813534D01*
X117251557Y-43743366D01*
X117280391Y-43678489D01*
X117287356Y-43670931D01*
X117937885Y-43020403D01*
X117823076Y-42934458D01*
X117589814Y-42807087D01*
X117340793Y-42714207D01*
X117081092Y-42657713D01*
X116816000Y-42638754D01*
X116550907Y-42657713D01*
X116291206Y-42714207D01*
X116042185Y-42807087D01*
X115808924Y-42934457D01*
X115694113Y-43020402D01*
X116344643Y-43670932D01*
X116378668Y-43733245D01*
X116373604Y-43804060D01*
X116331057Y-43860896D01*
X116322589Y-43866712D01*
X116314053Y-43872076D01*
X116314047Y-43872080D01*
X116186580Y-43999547D01*
X116186576Y-43999553D01*
X116181212Y-44008089D01*
X116128031Y-44055124D01*
X116057863Y-44065941D01*
X115992987Y-44037105D01*
X115985432Y-44030143D01*
X115334902Y-43379613D01*
X115248957Y-43494424D01*
X115121587Y-43727685D01*
X115028707Y-43976706D01*
X114972213Y-44236407D01*
X114953254Y-44501499D01*
X113594500Y-44501499D01*
X113594500Y-43102867D01*
X113594499Y-43102850D01*
X113587990Y-43042303D01*
X113587988Y-43042295D01*
X113547766Y-42934458D01*
X113536889Y-42905296D01*
X113536888Y-42905294D01*
X113536887Y-42905292D01*
X113449261Y-42788238D01*
X113332207Y-42700612D01*
X113332202Y-42700610D01*
X113195204Y-42649511D01*
X113195196Y-42649509D01*
X113134649Y-42643000D01*
X113134638Y-42643000D01*
X110337362Y-42643000D01*
X110337350Y-42643000D01*
X110276803Y-42649509D01*
X110276795Y-42649511D01*
X110139797Y-42700610D01*
X110139792Y-42700612D01*
X110022738Y-42788238D01*
X109935112Y-42905292D01*
X109935110Y-42905297D01*
X109884011Y-43042295D01*
X109884009Y-43042303D01*
X109877500Y-43102850D01*
X109877500Y-45900149D01*
X103544060Y-45900149D01*
X103600167Y-45858148D01*
X103788148Y-45670167D01*
X103947463Y-45457347D01*
X104074869Y-45224021D01*
X104167772Y-44974937D01*
X104224282Y-44715168D01*
X104243247Y-44450000D01*
X104224282Y-44184832D01*
X104196472Y-44056993D01*
X104167774Y-43925071D01*
X104167774Y-43925070D01*
X104167772Y-43925066D01*
X104167772Y-43925063D01*
X104074869Y-43675979D01*
X103947463Y-43442653D01*
X103788148Y-43229833D01*
X103788146Y-43229831D01*
X103788138Y-43229822D01*
X103600177Y-43041861D01*
X103600168Y-43041853D01*
X103554946Y-43008000D01*
X103387347Y-42882537D01*
X103196569Y-42778364D01*
X103154020Y-42755130D01*
X102904929Y-42662225D01*
X102645170Y-42605718D01*
X102645172Y-42605718D01*
X102380000Y-42586753D01*
X102114828Y-42605718D01*
X101855071Y-42662225D01*
X101855070Y-42662225D01*
X101605979Y-42755130D01*
X101372653Y-42882537D01*
X101159831Y-43041853D01*
X101159822Y-43041861D01*
X100971861Y-43229822D01*
X100971853Y-43229831D01*
X100812537Y-43442653D01*
X100685130Y-43675979D01*
X100592225Y-43925070D01*
X100592225Y-43925071D01*
X100535718Y-44184828D01*
X100516753Y-44449999D01*
X99163247Y-44449999D01*
X99144282Y-44184832D01*
X99116472Y-44056993D01*
X99087774Y-43925071D01*
X99087774Y-43925070D01*
X99087772Y-43925066D01*
X99087772Y-43925063D01*
X98994869Y-43675979D01*
X98867463Y-43442653D01*
X98708148Y-43229833D01*
X98708146Y-43229831D01*
X98708138Y-43229822D01*
X98520177Y-43041861D01*
X98520168Y-43041853D01*
X98474946Y-43008000D01*
X98307347Y-42882537D01*
X98116569Y-42778364D01*
X98074020Y-42755130D01*
X97824929Y-42662225D01*
X97565170Y-42605718D01*
X97565172Y-42605718D01*
X97300000Y-42586753D01*
X97034828Y-42605718D01*
X96775071Y-42662225D01*
X96775070Y-42662225D01*
X96525979Y-42755130D01*
X96292653Y-42882537D01*
X96079831Y-43041853D01*
X96079822Y-43041861D01*
X95891861Y-43229822D01*
X95891853Y-43229831D01*
X95732537Y-43442653D01*
X95605130Y-43675979D01*
X95512225Y-43925070D01*
X95512225Y-43925071D01*
X95455718Y-44184828D01*
X95436753Y-44450000D01*
X94083247Y-44450000D01*
X94064282Y-44184832D01*
X94036472Y-44056993D01*
X94007774Y-43925071D01*
X94007774Y-43925070D01*
X94007772Y-43925066D01*
X94007772Y-43925063D01*
X93914869Y-43675979D01*
X93787463Y-43442653D01*
X93628148Y-43229833D01*
X93628146Y-43229831D01*
X93628138Y-43229822D01*
X93440177Y-43041861D01*
X93440168Y-43041853D01*
X93394946Y-43008000D01*
X93227347Y-42882537D01*
X93036569Y-42778364D01*
X92994020Y-42755130D01*
X92744929Y-42662225D01*
X92485170Y-42605718D01*
X92485172Y-42605718D01*
X92273033Y-42590545D01*
X92220000Y-42586753D01*
X92219999Y-42586753D01*
X91954828Y-42605718D01*
X91695071Y-42662225D01*
X91695070Y-42662225D01*
X91445979Y-42755130D01*
X91212653Y-42882537D01*
X90999831Y-43041853D01*
X90999822Y-43041861D01*
X90811861Y-43229822D01*
X90811853Y-43229831D01*
X90652537Y-43442653D01*
X90525130Y-43675979D01*
X90432225Y-43925070D01*
X90432225Y-43925071D01*
X90375718Y-44184828D01*
X90356753Y-44450000D01*
X88998500Y-44450000D01*
X88998500Y-43051367D01*
X88998499Y-43051350D01*
X88991990Y-42990803D01*
X88991988Y-42990795D01*
X88940889Y-42853797D01*
X88940887Y-42853792D01*
X88853261Y-42736738D01*
X88736207Y-42649112D01*
X88736202Y-42649110D01*
X88599204Y-42598011D01*
X88599196Y-42598009D01*
X88538649Y-42591500D01*
X88538638Y-42591500D01*
X85741362Y-42591500D01*
X85741350Y-42591500D01*
X85680803Y-42598009D01*
X85680795Y-42598011D01*
X85543797Y-42649110D01*
X85543792Y-42649112D01*
X85426738Y-42736738D01*
X85339112Y-42853792D01*
X85339110Y-42853797D01*
X85288011Y-42990795D01*
X85288009Y-42990803D01*
X85281500Y-43051350D01*
X85281500Y-45848649D01*
X78209666Y-45848649D01*
X78388148Y-45670167D01*
X78547463Y-45457347D01*
X78674869Y-45224021D01*
X78767772Y-44974937D01*
X78824282Y-44715168D01*
X78843247Y-44450000D01*
X78824282Y-44184832D01*
X78796472Y-44056993D01*
X78767774Y-43925071D01*
X78767774Y-43925070D01*
X78767772Y-43925066D01*
X78767772Y-43925063D01*
X78674869Y-43675979D01*
X78547463Y-43442653D01*
X78388148Y-43229833D01*
X78388146Y-43229831D01*
X78388138Y-43229822D01*
X78200177Y-43041861D01*
X78200168Y-43041853D01*
X78154946Y-43008000D01*
X77987347Y-42882537D01*
X77796569Y-42778364D01*
X77754020Y-42755130D01*
X77504929Y-42662225D01*
X77245170Y-42605718D01*
X77245172Y-42605718D01*
X76980000Y-42586753D01*
X76714828Y-42605718D01*
X76455071Y-42662225D01*
X76455070Y-42662225D01*
X76205979Y-42755130D01*
X75972653Y-42882537D01*
X75759831Y-43041853D01*
X75759822Y-43041861D01*
X75571861Y-43229822D01*
X75571853Y-43229831D01*
X75412537Y-43442653D01*
X75285130Y-43675979D01*
X75192225Y-43925070D01*
X75192225Y-43925071D01*
X75135718Y-44184828D01*
X75116753Y-44450000D01*
X73763247Y-44450000D01*
X73744282Y-44184832D01*
X73716472Y-44056993D01*
X73687774Y-43925071D01*
X73687774Y-43925070D01*
X73687772Y-43925066D01*
X73687772Y-43925063D01*
X73594869Y-43675979D01*
X73467463Y-43442653D01*
X73308148Y-43229833D01*
X73308146Y-43229831D01*
X73308138Y-43229822D01*
X73120177Y-43041861D01*
X73120168Y-43041853D01*
X73074946Y-43008000D01*
X72907347Y-42882537D01*
X72716569Y-42778364D01*
X72674020Y-42755130D01*
X72424929Y-42662225D01*
X72165170Y-42605718D01*
X72165172Y-42605718D01*
X71900000Y-42586753D01*
X71634828Y-42605718D01*
X71375071Y-42662225D01*
X71375070Y-42662225D01*
X71125979Y-42755130D01*
X70892653Y-42882537D01*
X70679831Y-43041853D01*
X70679822Y-43041861D01*
X70491861Y-43229822D01*
X70491853Y-43229831D01*
X70332537Y-43442653D01*
X70205130Y-43675979D01*
X70112225Y-43925070D01*
X70112225Y-43925071D01*
X70055718Y-44184828D01*
X70036753Y-44449999D01*
X68683247Y-44449999D01*
X68664282Y-44184832D01*
X68636472Y-44056993D01*
X68607774Y-43925071D01*
X68607774Y-43925070D01*
X68607772Y-43925066D01*
X68607772Y-43925063D01*
X68514869Y-43675979D01*
X68387463Y-43442653D01*
X68228148Y-43229833D01*
X68228146Y-43229831D01*
X68228138Y-43229822D01*
X68040177Y-43041861D01*
X68040168Y-43041853D01*
X67994946Y-43008000D01*
X67827347Y-42882537D01*
X67636569Y-42778364D01*
X67594020Y-42755130D01*
X67344929Y-42662225D01*
X67085170Y-42605718D01*
X67085172Y-42605718D01*
X66820000Y-42586753D01*
X66554828Y-42605718D01*
X66295071Y-42662225D01*
X66295070Y-42662225D01*
X66045979Y-42755130D01*
X65812653Y-42882537D01*
X65599831Y-43041853D01*
X65599822Y-43041861D01*
X65411861Y-43229822D01*
X65411853Y-43229831D01*
X65252537Y-43442653D01*
X65125130Y-43675979D01*
X65032225Y-43925070D01*
X65032225Y-43925071D01*
X64975718Y-44184828D01*
X64956753Y-44449999D01*
X63598500Y-44449999D01*
X63598500Y-43051367D01*
X63598499Y-43051350D01*
X63591990Y-42990803D01*
X63591988Y-42990795D01*
X63540889Y-42853797D01*
X63540887Y-42853792D01*
X63453261Y-42736738D01*
X63336207Y-42649112D01*
X63336202Y-42649110D01*
X63199204Y-42598011D01*
X63199196Y-42598009D01*
X63138649Y-42591500D01*
X63138638Y-42591500D01*
X60341362Y-42591500D01*
X60341350Y-42591500D01*
X60280803Y-42598009D01*
X60280795Y-42598011D01*
X60143797Y-42649110D01*
X60143792Y-42649112D01*
X60026738Y-42736738D01*
X59939112Y-42853792D01*
X59939110Y-42853797D01*
X59888011Y-42990795D01*
X59888009Y-42990803D01*
X59881500Y-43051350D01*
X59881500Y-45848649D01*
X40423132Y-45848649D01*
X40442656Y-45810675D01*
X40442657Y-45810672D01*
X40485842Y-45684088D01*
X40530118Y-45554305D01*
X40554718Y-45421119D01*
X40579318Y-45287941D01*
X40579319Y-45287930D01*
X40581552Y-45226836D01*
X40589212Y-45017235D01*
X40574338Y-44882058D01*
X40559587Y-44747985D01*
X40491071Y-44485909D01*
X40385130Y-44236610D01*
X40331180Y-44148210D01*
X40244018Y-44005390D01*
X40070745Y-43797180D01*
X40070741Y-43797177D01*
X40070740Y-43797175D01*
X39869012Y-43616427D01*
X39869002Y-43616418D01*
X39643090Y-43466956D01*
X39397824Y-43351980D01*
X39240392Y-43304615D01*
X39138425Y-43273938D01*
X38870442Y-43234500D01*
X38870439Y-43234500D01*
X38667369Y-43234500D01*
X38667367Y-43234500D01*
X38464839Y-43249323D01*
X38464838Y-43249323D01*
X38200456Y-43308217D01*
X38200441Y-43308222D01*
X37947441Y-43404986D01*
X37711229Y-43537555D01*
X37711225Y-43537557D01*
X37496818Y-43703116D01*
X37308815Y-43898117D01*
X37308810Y-43898123D01*
X37151203Y-44118417D01*
X37151196Y-44118427D01*
X37027343Y-44359324D01*
X37027342Y-44359327D01*
X36939883Y-44615689D01*
X36939880Y-44615702D01*
X36890681Y-44882058D01*
X36890680Y-44882069D01*
X36880788Y-45152765D01*
X26689559Y-45152765D01*
X26722453Y-45128866D01*
X26822966Y-45017235D01*
X26850234Y-44986951D01*
X26850235Y-44986949D01*
X26850240Y-44986944D01*
X26945727Y-44821556D01*
X27004742Y-44639928D01*
X27024704Y-44450000D01*
X27004742Y-44260072D01*
X26945727Y-44078444D01*
X26850240Y-43913056D01*
X26850238Y-43913054D01*
X26850234Y-43913048D01*
X26722455Y-43771135D01*
X26567952Y-43658882D01*
X26393488Y-43581206D01*
X26206687Y-43541500D01*
X26015713Y-43541500D01*
X25828911Y-43581206D01*
X25654447Y-43658882D01*
X25499944Y-43771135D01*
X25372165Y-43913048D01*
X25372158Y-43913058D01*
X25276676Y-44078438D01*
X25276673Y-44078444D01*
X25273406Y-44088500D01*
X25217657Y-44260072D01*
X25197696Y-44449999D01*
X14324704Y-44449999D01*
X14324704Y-44449998D01*
X14304742Y-44260070D01*
X14304742Y-44260068D01*
X14291455Y-44219177D01*
X14289426Y-44148210D01*
X14326087Y-44087411D01*
X14389799Y-44056085D01*
X14437485Y-44056993D01*
X14585709Y-44088500D01*
X14585713Y-44088500D01*
X14776687Y-44088500D01*
X14963488Y-44048794D01*
X15137952Y-43971118D01*
X15292453Y-43858866D01*
X15333961Y-43812767D01*
X15420234Y-43716951D01*
X15420235Y-43716949D01*
X15420240Y-43716944D01*
X15515727Y-43551556D01*
X15574742Y-43369928D01*
X15594704Y-43180000D01*
X15574742Y-42990072D01*
X15515727Y-42808444D01*
X15420240Y-42643056D01*
X15420238Y-42643054D01*
X15420234Y-42643048D01*
X15292455Y-42501135D01*
X15137952Y-42388882D01*
X14963488Y-42311206D01*
X14776687Y-42271500D01*
X14585713Y-42271500D01*
X14398911Y-42311206D01*
X14224447Y-42388882D01*
X14069944Y-42501135D01*
X13942165Y-42643048D01*
X13942158Y-42643058D01*
X13846676Y-42808438D01*
X13846673Y-42808445D01*
X13787657Y-42990072D01*
X13767696Y-43180000D01*
X13787657Y-43369927D01*
X13800945Y-43410821D01*
X13802973Y-43481789D01*
X13766310Y-43542587D01*
X13702598Y-43573912D01*
X13654915Y-43573005D01*
X13506687Y-43541498D01*
X13315713Y-43541498D01*
X13128911Y-43581204D01*
X12954447Y-43658880D01*
X12799944Y-43771133D01*
X12672165Y-43913046D01*
X12672158Y-43913056D01*
X12587838Y-44059103D01*
X12576673Y-44078442D01*
X12576672Y-44078445D01*
X12517657Y-44260070D01*
X12497696Y-44449997D01*
X9652500Y-44449997D01*
X9652500Y-39875999D01*
X11084892Y-39875999D01*
X11084893Y-39876000D01*
X11654711Y-39876000D01*
X11722832Y-39896002D01*
X11769325Y-39949658D01*
X11779429Y-40019932D01*
X11775901Y-40036481D01*
X11757305Y-40101840D01*
X11757304Y-40101841D01*
X11767653Y-40213520D01*
X11770499Y-40223522D01*
X11769901Y-40294516D01*
X11731015Y-40353916D01*
X11666188Y-40382864D01*
X11649308Y-40384000D01*
X11084893Y-40384000D01*
X11125423Y-40517610D01*
X11125424Y-40517612D01*
X11219024Y-40692724D01*
X11344988Y-40846211D01*
X11498475Y-40972175D01*
X11673585Y-41065774D01*
X11673600Y-41065780D01*
X11863593Y-41123414D01*
X11863605Y-41123416D01*
X12011673Y-41137999D01*
X12011691Y-41138000D01*
X12207200Y-41138000D01*
X12207200Y-40556000D01*
X12227202Y-40487879D01*
X12280858Y-40441386D01*
X12333200Y-40430000D01*
X12589200Y-40430000D01*
X12657321Y-40450002D01*
X12703814Y-40503658D01*
X12715200Y-40556000D01*
X12715200Y-41138000D01*
X12910709Y-41138000D01*
X12910726Y-41137999D01*
X13058794Y-41123416D01*
X13058806Y-41123414D01*
X13248799Y-41065780D01*
X13248814Y-41065774D01*
X13423924Y-40972175D01*
X13577411Y-40846211D01*
X13703375Y-40692724D01*
X13796975Y-40517612D01*
X13796976Y-40517610D01*
X13837507Y-40384000D01*
X13267689Y-40384000D01*
X13199568Y-40363998D01*
X13153075Y-40310342D01*
X13142971Y-40240068D01*
X13146499Y-40223519D01*
X13152584Y-40202131D01*
X13165095Y-40158160D01*
X13154746Y-40046479D01*
X13151901Y-40036478D01*
X13152499Y-39965484D01*
X13191385Y-39906084D01*
X13256212Y-39877136D01*
X13273092Y-39876000D01*
X13837507Y-39876000D01*
X13837507Y-39875999D01*
X15084892Y-39875999D01*
X15084893Y-39876000D01*
X15654711Y-39876000D01*
X15722832Y-39896002D01*
X15769325Y-39949658D01*
X15779429Y-40019932D01*
X15775901Y-40036481D01*
X15757305Y-40101840D01*
X15757304Y-40101841D01*
X15767653Y-40213520D01*
X15770499Y-40223522D01*
X15769901Y-40294516D01*
X15731015Y-40353916D01*
X15666188Y-40382864D01*
X15649308Y-40384000D01*
X15084893Y-40384000D01*
X15125423Y-40517610D01*
X15125424Y-40517612D01*
X15219024Y-40692724D01*
X15344988Y-40846211D01*
X15498475Y-40972175D01*
X15629567Y-41042246D01*
X15680215Y-41091998D01*
X15695925Y-41161235D01*
X15673109Y-41226029D01*
X15617826Y-41304347D01*
X15617821Y-41304356D01*
X15567146Y-41446942D01*
X15567145Y-41446948D01*
X15558332Y-41575795D01*
X15556819Y-41597921D01*
X15585380Y-41735362D01*
X15587609Y-41746088D01*
X15657228Y-41880445D01*
X15657230Y-41880448D01*
X15712175Y-41939280D01*
X15760520Y-41991044D01*
X15832441Y-42034780D01*
X15889818Y-42069672D01*
X16035533Y-42110500D01*
X16035535Y-42110500D01*
X16148858Y-42110500D01*
X16148871Y-42110499D01*
X16228893Y-42099500D01*
X18339696Y-42099500D01*
X18359657Y-42289427D01*
X18389726Y-42381970D01*
X18418673Y-42471056D01*
X18418676Y-42471061D01*
X18514158Y-42636441D01*
X18514165Y-42636451D01*
X18641944Y-42778364D01*
X18655536Y-42788239D01*
X18796448Y-42890618D01*
X18970912Y-42968294D01*
X19157713Y-43008000D01*
X19348687Y-43008000D01*
X19535488Y-42968294D01*
X19630482Y-42926000D01*
X43128455Y-42926000D01*
X43176176Y-43114449D01*
X43176179Y-43114456D01*
X43266580Y-43320548D01*
X43389674Y-43508958D01*
X43542097Y-43674534D01*
X43719698Y-43812767D01*
X43719699Y-43812768D01*
X43917628Y-43919882D01*
X43917630Y-43919883D01*
X44130483Y-43992955D01*
X44130492Y-43992957D01*
X44211000Y-44006391D01*
X44211000Y-43286033D01*
X44231002Y-43217912D01*
X44284658Y-43171419D01*
X44354926Y-43161315D01*
X44429237Y-43172000D01*
X44500763Y-43172000D01*
X44575069Y-43161316D01*
X44645341Y-43171419D01*
X44698997Y-43217911D01*
X44719000Y-43286031D01*
X44718999Y-44006390D01*
X44799507Y-43992957D01*
X44799516Y-43992955D01*
X45012369Y-43919883D01*
X45012371Y-43919882D01*
X45210300Y-43812768D01*
X45210301Y-43812767D01*
X45387902Y-43674534D01*
X45540327Y-43508955D01*
X45629217Y-43372899D01*
X45683220Y-43326810D01*
X45753568Y-43317235D01*
X45817925Y-43347212D01*
X45840183Y-43372898D01*
X45929279Y-43509270D01*
X46081762Y-43674908D01*
X46118004Y-43703116D01*
X46259424Y-43813189D01*
X46457426Y-43920342D01*
X46457427Y-43920342D01*
X46457428Y-43920343D01*
X46569227Y-43958723D01*
X46670365Y-43993444D01*
X46892431Y-44030500D01*
X46892435Y-44030500D01*
X47117565Y-44030500D01*
X47117569Y-44030500D01*
X47339635Y-43993444D01*
X47552574Y-43920342D01*
X47750576Y-43813189D01*
X47928240Y-43674906D01*
X47989245Y-43608637D01*
X48050096Y-43572067D01*
X48121061Y-43574200D01*
X48179606Y-43614362D01*
X48200000Y-43649941D01*
X48244111Y-43768204D01*
X48244112Y-43768207D01*
X48331738Y-43885261D01*
X48448792Y-43972887D01*
X48448794Y-43972888D01*
X48448796Y-43972889D01*
X48502600Y-43992957D01*
X48585795Y-44023988D01*
X48585803Y-44023990D01*
X48646350Y-44030499D01*
X48646355Y-44030499D01*
X48646362Y-44030500D01*
X48646368Y-44030500D01*
X50443632Y-44030500D01*
X50443638Y-44030500D01*
X50443645Y-44030499D01*
X50443649Y-44030499D01*
X50504196Y-44023990D01*
X50504199Y-44023989D01*
X50504201Y-44023989D01*
X50641204Y-43972889D01*
X50711399Y-43920342D01*
X50758261Y-43885261D01*
X50845887Y-43768207D01*
X50845887Y-43768206D01*
X50845889Y-43768204D01*
X50896989Y-43631201D01*
X50898578Y-43616427D01*
X50903499Y-43570649D01*
X50903500Y-43570632D01*
X50903500Y-41773367D01*
X50903499Y-41773350D01*
X50896990Y-41712803D01*
X50896988Y-41712795D01*
X50854141Y-41597921D01*
X50845889Y-41575796D01*
X50845888Y-41575794D01*
X50845887Y-41575792D01*
X50758261Y-41458738D01*
X50641207Y-41371112D01*
X50641202Y-41371110D01*
X50504204Y-41320011D01*
X50504196Y-41320009D01*
X50443649Y-41313500D01*
X50443638Y-41313500D01*
X48646362Y-41313500D01*
X48646350Y-41313500D01*
X48585803Y-41320009D01*
X48585795Y-41320011D01*
X48448797Y-41371110D01*
X48448792Y-41371112D01*
X48331738Y-41458738D01*
X48244112Y-41575792D01*
X48244111Y-41575795D01*
X48200000Y-41694058D01*
X48157453Y-41750893D01*
X48090932Y-41775703D01*
X48021558Y-41760611D01*
X47989246Y-41735363D01*
X47928240Y-41669094D01*
X47928239Y-41669093D01*
X47928237Y-41669091D01*
X47808372Y-41575796D01*
X47750576Y-41530811D01*
X47552574Y-41423658D01*
X47552572Y-41423657D01*
X47552571Y-41423656D01*
X47339639Y-41350557D01*
X47339630Y-41350555D01*
X47262029Y-41337606D01*
X47117569Y-41313500D01*
X46892431Y-41313500D01*
X46747971Y-41337606D01*
X46670369Y-41350555D01*
X46670360Y-41350557D01*
X46457428Y-41423656D01*
X46457426Y-41423658D01*
X46275560Y-41522079D01*
X46259426Y-41530810D01*
X46259424Y-41530811D01*
X46081762Y-41669091D01*
X45929279Y-41834729D01*
X45840183Y-41971101D01*
X45786179Y-42017189D01*
X45715831Y-42026764D01*
X45651474Y-41996786D01*
X45629217Y-41971100D01*
X45540327Y-41835044D01*
X45387902Y-41669465D01*
X45210301Y-41531232D01*
X45210300Y-41531231D01*
X45012371Y-41424117D01*
X45012369Y-41424116D01*
X44799512Y-41351043D01*
X44799501Y-41351040D01*
X44719000Y-41337606D01*
X44719000Y-42057966D01*
X44698998Y-42126087D01*
X44645342Y-42172580D01*
X44575069Y-42182683D01*
X44575068Y-42182683D01*
X44500768Y-42172000D01*
X44500763Y-42172000D01*
X44429237Y-42172000D01*
X44429231Y-42172000D01*
X44354932Y-42182683D01*
X44284658Y-42172580D01*
X44231002Y-42126087D01*
X44211000Y-42057966D01*
X44211000Y-41337607D01*
X44210999Y-41337606D01*
X44130498Y-41351040D01*
X44130487Y-41351043D01*
X43917630Y-41424116D01*
X43917628Y-41424117D01*
X43719699Y-41531231D01*
X43719698Y-41531232D01*
X43542097Y-41669465D01*
X43389674Y-41835041D01*
X43266580Y-42023451D01*
X43176179Y-42229543D01*
X43176176Y-42229550D01*
X43128455Y-42417999D01*
X43128456Y-42418000D01*
X43850156Y-42418000D01*
X43918277Y-42438002D01*
X43964770Y-42491658D01*
X43974874Y-42561932D01*
X43971053Y-42579496D01*
X43965000Y-42600111D01*
X43965000Y-42743888D01*
X43971053Y-42764504D01*
X43971052Y-42835500D01*
X43932667Y-42895226D01*
X43868086Y-42924718D01*
X43850156Y-42926000D01*
X43128455Y-42926000D01*
X19630482Y-42926000D01*
X19709952Y-42890618D01*
X19864453Y-42778366D01*
X19864455Y-42778364D01*
X19992234Y-42636451D01*
X19992235Y-42636449D01*
X19992240Y-42636444D01*
X20087727Y-42471056D01*
X20146742Y-42289428D01*
X20166704Y-42099500D01*
X20146742Y-41909572D01*
X20087727Y-41727944D01*
X19992240Y-41562556D01*
X19992238Y-41562554D01*
X19992234Y-41562548D01*
X19864455Y-41420635D01*
X19709952Y-41308382D01*
X19535488Y-41230706D01*
X19348687Y-41191000D01*
X19157713Y-41191000D01*
X18970911Y-41230706D01*
X18796447Y-41308382D01*
X18641944Y-41420635D01*
X18514165Y-41562548D01*
X18514158Y-41562558D01*
X18418676Y-41727938D01*
X18418673Y-41727944D01*
X18408059Y-41760611D01*
X18359657Y-41909572D01*
X18339696Y-42099500D01*
X16228893Y-42099500D01*
X16261115Y-42095071D01*
X16261116Y-42095070D01*
X16261120Y-42095070D01*
X16399920Y-42034780D01*
X16399921Y-42034778D01*
X16399923Y-42034778D01*
X16399925Y-42034776D01*
X16478193Y-41971100D01*
X16517308Y-41939278D01*
X16604577Y-41815647D01*
X16655254Y-41673056D01*
X16665581Y-41522079D01*
X16634792Y-41373915D01*
X16607876Y-41321969D01*
X16594295Y-41252283D01*
X16620545Y-41186317D01*
X16678292Y-41145016D01*
X16719749Y-41138000D01*
X17210709Y-41138000D01*
X17210726Y-41137999D01*
X17358794Y-41123416D01*
X17358806Y-41123414D01*
X17548799Y-41065780D01*
X17548814Y-41065774D01*
X17723924Y-40972175D01*
X17877411Y-40846211D01*
X18003375Y-40692724D01*
X18096975Y-40517612D01*
X18096976Y-40517610D01*
X18137507Y-40384000D01*
X17567689Y-40384000D01*
X17499568Y-40363998D01*
X17453075Y-40310342D01*
X17442971Y-40240068D01*
X17446499Y-40223519D01*
X17452584Y-40202131D01*
X17465095Y-40158160D01*
X17454746Y-40046479D01*
X17451901Y-40036478D01*
X17452499Y-39965484D01*
X17491385Y-39906084D01*
X17556212Y-39877136D01*
X17573092Y-39876000D01*
X18137507Y-39876000D01*
X18137507Y-39875999D01*
X18096976Y-39742389D01*
X18096975Y-39742387D01*
X18003375Y-39567275D01*
X17877411Y-39413788D01*
X17723924Y-39287824D01*
X17548814Y-39194225D01*
X17548799Y-39194219D01*
X17358806Y-39136585D01*
X17358794Y-39136583D01*
X17210726Y-39122000D01*
X16865200Y-39122000D01*
X16865200Y-39704000D01*
X16845198Y-39772121D01*
X16791542Y-39818614D01*
X16739200Y-39830000D01*
X16483200Y-39830000D01*
X16415079Y-39809998D01*
X16368586Y-39756342D01*
X16357200Y-39704000D01*
X16357200Y-39122000D01*
X16011673Y-39122000D01*
X15863605Y-39136583D01*
X15863593Y-39136585D01*
X15673600Y-39194219D01*
X15673585Y-39194225D01*
X15498475Y-39287824D01*
X15344988Y-39413788D01*
X15219024Y-39567275D01*
X15125424Y-39742387D01*
X15125423Y-39742389D01*
X15084892Y-39875999D01*
X13837507Y-39875999D01*
X13796976Y-39742389D01*
X13796975Y-39742387D01*
X13703375Y-39567275D01*
X13577411Y-39413788D01*
X13423924Y-39287824D01*
X13248814Y-39194225D01*
X13248799Y-39194219D01*
X13058806Y-39136585D01*
X13058794Y-39136583D01*
X12910726Y-39122000D01*
X12715200Y-39122000D01*
X12715200Y-39704000D01*
X12695198Y-39772121D01*
X12641542Y-39818614D01*
X12589200Y-39830000D01*
X12333200Y-39830000D01*
X12265079Y-39809998D01*
X12218586Y-39756342D01*
X12207200Y-39704000D01*
X12207200Y-39122000D01*
X12011673Y-39122000D01*
X11863605Y-39136583D01*
X11863593Y-39136585D01*
X11673600Y-39194219D01*
X11673585Y-39194225D01*
X11498475Y-39287824D01*
X11344988Y-39413788D01*
X11219024Y-39567275D01*
X11125424Y-39742387D01*
X11125423Y-39742389D01*
X11084892Y-39875999D01*
X9652500Y-39875999D01*
X9652500Y-37591500D01*
X9672502Y-37523379D01*
X9726158Y-37476886D01*
X9778500Y-37465500D01*
X172085500Y-37465500D01*
X172153621Y-37485502D01*
G37*
G04 #@! TD.AperFunction*
G04 #@! TD*
M02*
