G04 #@! TF.GenerationSoftware,KiCad,Pcbnew,7.0.7-7.0.7~ubuntu22.04.1*
G04 #@! TF.CreationDate,2023-09-08T18:19:24+02:00*
G04 #@! TF.ProjectId,pcb_esp32_wled_pwm_multichannel,7063625f-6573-4703-9332-5f776c65645f,rev?*
G04 #@! TF.SameCoordinates,Original*
G04 #@! TF.FileFunction,Soldermask,Top*
G04 #@! TF.FilePolarity,Negative*
%FSLAX46Y46*%
G04 Gerber Fmt 4.6, Leading zero omitted, Abs format (unit mm)*
G04 Created by KiCad (PCBNEW 7.0.7-7.0.7~ubuntu22.04.1) date 2023-09-08 18:19:24*
%MOMM*%
%LPD*%
G01*
G04 APERTURE LIST*
G04 Aperture macros list*
%AMRoundRect*
0 Rectangle with rounded corners*
0 $1 Rounding radius*
0 $2 $3 $4 $5 $6 $7 $8 $9 X,Y pos of 4 corners*
0 Add a 4 corners polygon primitive as box body*
4,1,4,$2,$3,$4,$5,$6,$7,$8,$9,$2,$3,0*
0 Add four circle primitives for the rounded corners*
1,1,$1+$1,$2,$3*
1,1,$1+$1,$4,$5*
1,1,$1+$1,$6,$7*
1,1,$1+$1,$8,$9*
0 Add four rect primitives between the rounded corners*
20,1,$1+$1,$2,$3,$4,$5,0*
20,1,$1+$1,$4,$5,$6,$7,0*
20,1,$1+$1,$6,$7,$8,$9,0*
20,1,$1+$1,$8,$9,$2,$3,0*%
G04 Aperture macros list end*
%ADD10R,0.900000X1.500000*%
%ADD11R,1.500000X0.900000*%
%ADD12C,0.600000*%
%ADD13R,3.800000X3.800000*%
%ADD14RoundRect,0.150000X0.200000X-0.150000X0.200000X0.150000X-0.200000X0.150000X-0.200000X-0.150000X0*%
%ADD15RoundRect,0.150000X-0.200000X0.150000X-0.200000X-0.150000X0.200000X-0.150000X0.200000X0.150000X0*%
%ADD16R,1.200000X2.200000*%
%ADD17R,5.800000X6.400000*%
%ADD18RoundRect,0.250000X0.300000X0.300000X-0.300000X0.300000X-0.300000X-0.300000X0.300000X-0.300000X0*%
%ADD19RoundRect,0.250000X-0.300000X-0.300000X0.300000X-0.300000X0.300000X0.300000X-0.300000X0.300000X0*%
%ADD20RoundRect,0.250000X-0.300000X0.300000X-0.300000X-0.300000X0.300000X-0.300000X0.300000X0.300000X0*%
%ADD21RoundRect,0.200000X-0.200000X-0.275000X0.200000X-0.275000X0.200000X0.275000X-0.200000X0.275000X0*%
%ADD22R,1.000000X2.750000*%
%ADD23RoundRect,0.200000X0.200000X0.275000X-0.200000X0.275000X-0.200000X-0.275000X0.200000X-0.275000X0*%
%ADD24R,1.700000X1.700000*%
%ADD25O,1.700000X1.700000*%
%ADD26C,3.200000*%
%ADD27RoundRect,0.200000X0.275000X-0.200000X0.275000X0.200000X-0.275000X0.200000X-0.275000X-0.200000X0*%
%ADD28RoundRect,0.250000X1.500000X0.550000X-1.500000X0.550000X-1.500000X-0.550000X1.500000X-0.550000X0*%
%ADD29R,2.700000X2.700000*%
%ADD30C,2.700000*%
%ADD31RoundRect,0.225000X-0.225000X-0.250000X0.225000X-0.250000X0.225000X0.250000X-0.225000X0.250000X0*%
%ADD32RoundRect,0.200000X-0.275000X0.200000X-0.275000X-0.200000X0.275000X-0.200000X0.275000X0.200000X0*%
%ADD33RoundRect,0.225000X0.225000X0.250000X-0.225000X0.250000X-0.225000X-0.250000X0.225000X-0.250000X0*%
%ADD34RoundRect,0.250000X0.650000X-0.325000X0.650000X0.325000X-0.650000X0.325000X-0.650000X-0.325000X0*%
%ADD35RoundRect,0.225000X-0.250000X0.225000X-0.250000X-0.225000X0.250000X-0.225000X0.250000X0.225000X0*%
%ADD36R,5.400000X2.900000*%
%ADD37RoundRect,0.250000X-0.250000X-0.475000X0.250000X-0.475000X0.250000X0.475000X-0.250000X0.475000X0*%
%ADD38RoundRect,0.062500X-0.062500X0.350000X-0.062500X-0.350000X0.062500X-0.350000X0.062500X0.350000X0*%
%ADD39RoundRect,0.062500X-0.350000X0.062500X-0.350000X-0.062500X0.350000X-0.062500X0.350000X0.062500X0*%
%ADD40R,2.600000X2.600000*%
%ADD41R,2.200000X2.200000*%
%ADD42O,2.200000X2.200000*%
%ADD43RoundRect,0.250000X1.100000X-0.325000X1.100000X0.325000X-1.100000X0.325000X-1.100000X-0.325000X0*%
%ADD44RoundRect,0.250000X0.325000X1.100000X-0.325000X1.100000X-0.325000X-1.100000X0.325000X-1.100000X0*%
%ADD45R,1.100000X4.600000*%
%ADD46R,10.800000X9.400000*%
%ADD47R,1.160000X0.580000*%
%ADD48R,1.160000X0.280000*%
%ADD49O,2.100000X1.000000*%
%ADD50O,1.800000X1.000000*%
%ADD51RoundRect,0.150000X-0.150000X0.587500X-0.150000X-0.587500X0.150000X-0.587500X0.150000X0.587500X0*%
%ADD52RoundRect,0.218750X-0.256250X0.218750X-0.256250X-0.218750X0.256250X-0.218750X0.256250X0.218750X0*%
G04 APERTURE END LIST*
D10*
G04 #@! TO.C,U101*
X11506200Y-78600000D03*
X12776200Y-78600000D03*
X14046200Y-78600000D03*
X15316200Y-78600000D03*
X16586200Y-78600000D03*
X17856200Y-78600000D03*
X19126200Y-78600000D03*
X20396200Y-78600000D03*
X21666200Y-78600000D03*
X22936200Y-78600000D03*
X24206200Y-78600000D03*
X25476200Y-78600000D03*
X26746200Y-78600000D03*
X28016200Y-78600000D03*
D11*
X29111200Y-75565000D03*
X29111200Y-74295000D03*
X29111200Y-73025000D03*
X29111200Y-71755000D03*
X29111200Y-70485000D03*
X29111200Y-69215000D03*
X29111200Y-67945000D03*
X29111200Y-66675000D03*
X29111200Y-65405000D03*
X29111200Y-64135000D03*
D10*
X28016200Y-61100000D03*
X26746200Y-61100000D03*
X25476200Y-61100000D03*
X24206200Y-61100000D03*
X22936200Y-61100000D03*
X21666200Y-61100000D03*
X20396200Y-61100000D03*
X19126200Y-61100000D03*
X17856200Y-61100000D03*
X16586200Y-61100000D03*
X15316200Y-61100000D03*
X14046200Y-61100000D03*
X12776200Y-61100000D03*
X11506200Y-61100000D03*
D12*
X17671200Y-70650000D03*
D13*
X19071200Y-71350000D03*
D12*
X19071200Y-70650000D03*
X19771200Y-69950000D03*
X17671200Y-72050000D03*
X19771200Y-72750000D03*
X18371200Y-72750000D03*
X19071200Y-72050000D03*
X18371200Y-71350000D03*
X19771200Y-71350000D03*
X20471200Y-70650000D03*
X18371200Y-69950000D03*
X20471200Y-72050000D03*
G04 #@! TD*
D14*
G04 #@! TO.C,D117*
X23571200Y-41210000D03*
X23571200Y-42610000D03*
G04 #@! TD*
G04 #@! TO.C,D115*
X29921200Y-43496000D03*
X29921200Y-44896000D03*
G04 #@! TD*
D15*
G04 #@! TO.C,D116*
X19761200Y-48960000D03*
X19761200Y-47560000D03*
G04 #@! TD*
D16*
G04 #@! TO.C,Q104*
X91210000Y-65795000D03*
D17*
X93490000Y-59495000D03*
D16*
X95770000Y-65795000D03*
G04 #@! TD*
G04 #@! TO.C,Q112*
X164930000Y-67700000D03*
D17*
X167210000Y-61400000D03*
D16*
X169490000Y-67700000D03*
G04 #@! TD*
G04 #@! TO.C,Q103*
X82175000Y-65795000D03*
D17*
X84455000Y-59495000D03*
D16*
X86735000Y-65795000D03*
G04 #@! TD*
G04 #@! TO.C,Q106*
X106305000Y-65160000D03*
D17*
X108585000Y-58860000D03*
D16*
X110865000Y-65160000D03*
G04 #@! TD*
G04 #@! TO.C,Q101*
X67570000Y-62180000D03*
D17*
X69850000Y-55880000D03*
D16*
X72130000Y-62180000D03*
G04 #@! TD*
G04 #@! TO.C,Q109*
X143340000Y-67700000D03*
D17*
X145620000Y-61400000D03*
D16*
X147900000Y-67700000D03*
G04 #@! TD*
G04 #@! TO.C,Q108*
X143340000Y-81915000D03*
D17*
X145620000Y-75615000D03*
D16*
X147900000Y-81915000D03*
G04 #@! TD*
G04 #@! TO.C,Q110*
X152230000Y-65160000D03*
D17*
X154510000Y-58860000D03*
D16*
X156790000Y-65160000D03*
G04 #@! TD*
G04 #@! TO.C,Q105*
X106305000Y-77860000D03*
D17*
X108585000Y-71560000D03*
D16*
X110865000Y-77860000D03*
G04 #@! TD*
G04 #@! TO.C,Q107*
X130640000Y-65160000D03*
D17*
X132920000Y-58860000D03*
D16*
X135200000Y-65160000D03*
G04 #@! TD*
G04 #@! TO.C,Q102*
X82175000Y-80010000D03*
D17*
X84455000Y-73710000D03*
D16*
X86735000Y-80010000D03*
G04 #@! TD*
G04 #@! TO.C,Q111*
X164930000Y-81670000D03*
D17*
X167210000Y-75370000D03*
D16*
X169490000Y-81670000D03*
G04 #@! TD*
D18*
G04 #@! TO.C,D111*
X162820000Y-54610000D03*
X160020000Y-54610000D03*
G04 #@! TD*
D19*
G04 #@! TO.C,D104*
X90675000Y-53340000D03*
X93475000Y-53340000D03*
G04 #@! TD*
G04 #@! TO.C,D107*
X131520000Y-53340000D03*
X134320000Y-53340000D03*
G04 #@! TD*
D18*
G04 #@! TO.C,D105*
X101240000Y-59690000D03*
X98440000Y-59690000D03*
G04 #@! TD*
D20*
G04 #@! TO.C,D102*
X75930000Y-64365000D03*
X75930000Y-67165000D03*
G04 #@! TD*
D18*
G04 #@! TO.C,D109*
X149560000Y-55880000D03*
X146760000Y-55880000D03*
G04 #@! TD*
G04 #@! TO.C,D108*
X141940000Y-55880000D03*
X139140000Y-55880000D03*
G04 #@! TD*
G04 #@! TO.C,D112*
X169170000Y-54610000D03*
X166370000Y-54610000D03*
G04 #@! TD*
D19*
G04 #@! TO.C,D110*
X150570000Y-52070000D03*
X153370000Y-52070000D03*
G04 #@! TD*
G04 #@! TO.C,D101*
X62100000Y-53340000D03*
X64900000Y-53340000D03*
G04 #@! TD*
D18*
G04 #@! TO.C,D106*
X109985000Y-53340000D03*
X107185000Y-53340000D03*
G04 #@! TD*
D20*
G04 #@! TO.C,D114*
X32461200Y-41780000D03*
X32461200Y-44580000D03*
G04 #@! TD*
D18*
G04 #@! TO.C,D103*
X83950000Y-53340000D03*
X81150000Y-53340000D03*
G04 #@! TD*
D21*
G04 #@! TO.C,R133*
X82360000Y-68580000D03*
X84010000Y-68580000D03*
G04 #@! TD*
D22*
G04 #@! TO.C,SW101*
X130080000Y-80350000D03*
X130080000Y-74590000D03*
X134080000Y-80350000D03*
X134080000Y-74590000D03*
G04 #@! TD*
D23*
G04 #@! TO.C,R126*
X14236200Y-52070000D03*
X12586200Y-52070000D03*
G04 #@! TD*
D24*
G04 #@! TO.C,J107*
X44450000Y-50392000D03*
D25*
X46990000Y-50392000D03*
X49530000Y-50392000D03*
G04 #@! TD*
D26*
G04 #@! TO.C,H103*
X95250000Y-79248000D03*
G04 #@! TD*
D24*
G04 #@! TO.C,J106*
X49545000Y-42672000D03*
D25*
X47005000Y-42672000D03*
X44465000Y-42672000D03*
G04 #@! TD*
D21*
G04 #@! TO.C,R101*
X69025000Y-67310000D03*
X70675000Y-67310000D03*
G04 #@! TD*
D27*
G04 #@! TO.C,R125*
X21285200Y-42735000D03*
X21285200Y-41085000D03*
G04 #@! TD*
D21*
G04 #@! TO.C,R142*
X164910000Y-70485000D03*
X166560000Y-70485000D03*
G04 #@! TD*
D23*
G04 #@! TO.C,R102*
X75755000Y-78740000D03*
X74105000Y-78740000D03*
G04 #@! TD*
D28*
G04 #@! TO.C,C117*
X47150000Y-64770000D03*
X41750000Y-64770000D03*
G04 #@! TD*
D21*
G04 #@! TO.C,R119*
X22035000Y-52070000D03*
X23685000Y-52070000D03*
G04 #@! TD*
D27*
G04 #@! TO.C,R111*
X161382500Y-78295000D03*
X161382500Y-76645000D03*
G04 #@! TD*
D29*
G04 #@! TO.C,J104*
X151970000Y-44450000D03*
D30*
X157050000Y-44450000D03*
X162130000Y-44450000D03*
X167210000Y-44450000D03*
G04 #@! TD*
D26*
G04 #@! TO.C,H104*
X119888000Y-56642000D03*
G04 #@! TD*
D31*
G04 #@! TO.C,C111*
X118605000Y-71120000D03*
X120155000Y-71120000D03*
G04 #@! TD*
D21*
G04 #@! TO.C,R136*
X102045000Y-67945000D03*
X103695000Y-67945000D03*
G04 #@! TD*
D27*
G04 #@! TO.C,R105*
X102870000Y-77025000D03*
X102870000Y-75375000D03*
G04 #@! TD*
D32*
G04 #@! TO.C,R137*
X127000000Y-66485000D03*
X127000000Y-68135000D03*
G04 #@! TD*
G04 #@! TO.C,R132*
X79248000Y-80455000D03*
X79248000Y-82105000D03*
G04 #@! TD*
D33*
G04 #@! TO.C,C102*
X14186200Y-53975000D03*
X12636200Y-53975000D03*
G04 #@! TD*
D27*
G04 #@! TO.C,R120*
X16510000Y-52895000D03*
X16510000Y-51245000D03*
G04 #@! TD*
D21*
G04 #@! TO.C,R134*
X93600000Y-69215000D03*
X95250000Y-69215000D03*
G04 #@! TD*
D34*
G04 #@! TO.C,C101*
X20574000Y-84279000D03*
X20574000Y-81329000D03*
G04 #@! TD*
D32*
G04 #@! TO.C,R140*
X151765000Y-68390000D03*
X151765000Y-70040000D03*
G04 #@! TD*
G04 #@! TO.C,R112*
X72390000Y-71565000D03*
X72390000Y-73215000D03*
G04 #@! TD*
G04 #@! TO.C,R104*
X95250000Y-71565000D03*
X95250000Y-73215000D03*
G04 #@! TD*
D33*
G04 #@! TO.C,C103*
X33363200Y-77470000D03*
X31813200Y-77470000D03*
G04 #@! TD*
D35*
G04 #@! TO.C,C115*
X27381200Y-44437000D03*
X27381200Y-45987000D03*
G04 #@! TD*
D33*
G04 #@! TO.C,C110*
X13043200Y-83820000D03*
X11493200Y-83820000D03*
G04 #@! TD*
D28*
G04 #@! TO.C,C116*
X62390000Y-59690000D03*
X56990000Y-59690000D03*
G04 #@! TD*
D32*
G04 #@! TO.C,R103*
X90170000Y-71565000D03*
X90170000Y-73215000D03*
G04 #@! TD*
D27*
G04 #@! TO.C,R106*
X102380000Y-65595000D03*
X102380000Y-63945000D03*
G04 #@! TD*
D29*
G04 #@! TO.C,J103*
X126570000Y-44450000D03*
D30*
X131650000Y-44450000D03*
X136730000Y-44450000D03*
X141810000Y-44450000D03*
G04 #@! TD*
D36*
G04 #@! TO.C,L101*
X48435584Y-71760660D03*
X48435584Y-81660660D03*
G04 #@! TD*
D23*
G04 #@! TO.C,R118*
X30807200Y-57785000D03*
X29157200Y-57785000D03*
G04 #@! TD*
D27*
G04 #@! TO.C,R108*
X139700000Y-80835000D03*
X139700000Y-79185000D03*
G04 #@! TD*
D31*
G04 #@! TO.C,C108*
X25463200Y-58471500D03*
X27013200Y-58471500D03*
G04 #@! TD*
D33*
G04 #@! TO.C,C105*
X12916200Y-81280000D03*
X11366200Y-81280000D03*
G04 #@! TD*
D31*
G04 #@! TO.C,C109*
X24879000Y-84328000D03*
X26429000Y-84328000D03*
G04 #@! TD*
G04 #@! TO.C,C107*
X131305000Y-71120000D03*
X132855000Y-71120000D03*
G04 #@! TD*
D21*
G04 #@! TO.C,R131*
X69405000Y-65405000D03*
X67755000Y-65405000D03*
G04 #@! TD*
D37*
G04 #@! TO.C,C104*
X15001200Y-81280000D03*
X16901200Y-81280000D03*
G04 #@! TD*
D38*
G04 #@! TO.C,U103*
X30623205Y-48862500D03*
X30123205Y-48862500D03*
X29623205Y-48862500D03*
X29123205Y-48862500D03*
X28623205Y-48862500D03*
X28123205Y-48862500D03*
D39*
X27435705Y-49550000D03*
X27435705Y-50050000D03*
X27435705Y-50550000D03*
X27435705Y-51050000D03*
X27435705Y-51550000D03*
X27435705Y-52050000D03*
D38*
X28123205Y-52737500D03*
X28623205Y-52737500D03*
X29123205Y-52737500D03*
X29623205Y-52737500D03*
X30123205Y-52737500D03*
X30623205Y-52737500D03*
D39*
X31310705Y-52050000D03*
X31310705Y-51550000D03*
X31310705Y-51050000D03*
X31310705Y-50550000D03*
X31310705Y-50050000D03*
X31310705Y-49550000D03*
D40*
X29373205Y-50800000D03*
G04 #@! TD*
D22*
G04 #@! TO.C,SW102*
X121380000Y-74590000D03*
X121380000Y-80350000D03*
X117380000Y-74590000D03*
X117380000Y-80350000D03*
G04 #@! TD*
D29*
G04 #@! TO.C,J102*
X87140000Y-44450000D03*
D30*
X92220000Y-44450000D03*
X97300000Y-44450000D03*
X102380000Y-44450000D03*
G04 #@! TD*
D26*
G04 #@! TO.C,H102*
X154940000Y-76835000D03*
G04 #@! TD*
D21*
G04 #@! TO.C,R139*
X143320000Y-70485000D03*
X144970000Y-70485000D03*
G04 #@! TD*
D41*
G04 #@! TO.C,D118*
X52070000Y-66040000D03*
D42*
X52070000Y-55880000D03*
G04 #@! TD*
D23*
G04 #@! TO.C,R107*
X127190000Y-64135000D03*
X125540000Y-64135000D03*
G04 #@! TD*
D43*
G04 #@! TO.C,C112*
X46990000Y-58625000D03*
X46990000Y-55675000D03*
G04 #@! TD*
D21*
G04 #@! TO.C,R114*
X126175000Y-71120000D03*
X127825000Y-71120000D03*
G04 #@! TD*
D23*
G04 #@! TO.C,R121*
X30198205Y-54610000D03*
X28548205Y-54610000D03*
G04 #@! TD*
D29*
G04 #@! TO.C,J101*
X61740000Y-44450000D03*
D30*
X66820000Y-44450000D03*
X71900000Y-44450000D03*
X76980000Y-44450000D03*
G04 #@! TD*
D27*
G04 #@! TO.C,R124*
X23571200Y-45720000D03*
X23571200Y-44070000D03*
G04 #@! TD*
D44*
G04 #@! TO.C,C113*
X39575000Y-52070000D03*
X36625000Y-52070000D03*
G04 #@! TD*
D24*
G04 #@! TO.C,J105*
X12781200Y-57150000D03*
D25*
X15321200Y-57150000D03*
X17861200Y-57150000D03*
X20401200Y-57150000D03*
X22941200Y-57150000D03*
G04 #@! TD*
D33*
G04 #@! TO.C,C114*
X23635000Y-48895000D03*
X22085000Y-48895000D03*
G04 #@! TD*
D27*
G04 #@! TO.C,R117*
X37465000Y-61785000D03*
X37465000Y-60135000D03*
G04 #@! TD*
D45*
G04 #@! TO.C,U102*
X65630000Y-69475000D03*
X63930000Y-69475000D03*
X62230000Y-69475000D03*
D46*
X62230000Y-78625000D03*
D45*
X60530000Y-69475000D03*
X58830000Y-69475000D03*
G04 #@! TD*
D21*
G04 #@! TO.C,R110*
X153685000Y-68580000D03*
X155335000Y-68580000D03*
G04 #@! TD*
D31*
G04 #@! TO.C,C118*
X15303200Y-83820000D03*
X16853200Y-83820000D03*
G04 #@! TD*
D32*
G04 #@! TO.C,R135*
X102870000Y-79185000D03*
X102870000Y-80835000D03*
G04 #@! TD*
G04 #@! TO.C,R113*
X35128200Y-69470000D03*
X35128200Y-71120000D03*
G04 #@! TD*
D23*
G04 #@! TO.C,R141*
X162115000Y-81280000D03*
X160465000Y-81280000D03*
G04 #@! TD*
D12*
G04 #@! TO.C,J109*
X16111200Y-41560000D03*
X16111200Y-47340000D03*
D47*
X17191200Y-41250000D03*
X17191200Y-42050000D03*
D48*
X17191200Y-43200000D03*
X17191200Y-44200000D03*
X17191200Y-44700000D03*
X17191200Y-45700000D03*
D47*
X17191200Y-46850000D03*
X17191200Y-47650000D03*
X17191200Y-47650000D03*
X17191200Y-46850000D03*
D48*
X17191200Y-46200000D03*
X17191200Y-45200000D03*
X17191200Y-43700000D03*
X17191200Y-42700000D03*
D47*
X17191200Y-42050000D03*
X17191200Y-41250000D03*
D49*
X16611200Y-40130000D03*
D50*
X12461200Y-40130000D03*
D49*
X16611200Y-48770000D03*
D50*
X12461200Y-48770000D03*
G04 #@! TD*
D23*
G04 #@! TO.C,R109*
X26936200Y-81280000D03*
X25286200Y-81280000D03*
G04 #@! TD*
D51*
G04 #@! TO.C,Q114*
X35494000Y-56212500D03*
X33594000Y-56212500D03*
X34544000Y-58087500D03*
G04 #@! TD*
D52*
G04 #@! TO.C,D113*
X32842200Y-67868700D03*
X32842200Y-69443700D03*
G04 #@! TD*
D27*
G04 #@! TO.C,R122*
X19050000Y-53530000D03*
X19050000Y-51880000D03*
G04 #@! TD*
D51*
G04 #@! TO.C,Q113*
X36190000Y-64135000D03*
X34290000Y-64135000D03*
X35240000Y-66010000D03*
G04 #@! TD*
D23*
G04 #@! TO.C,R123*
X21856200Y-45720000D03*
X20206200Y-45720000D03*
G04 #@! TD*
D29*
G04 #@! TO.C,J108*
X111736000Y-44501500D03*
D30*
X116816000Y-44501500D03*
G04 #@! TD*
D32*
G04 #@! TO.C,R138*
X139700000Y-82360000D03*
X139700000Y-84010000D03*
G04 #@! TD*
D26*
G04 #@! TO.C,H101*
X38735000Y-45085000D03*
G04 #@! TD*
M02*
