G04 #@! TF.GenerationSoftware,KiCad,Pcbnew,7.0.7-7.0.7~ubuntu22.04.1*
G04 #@! TF.CreationDate,2023-09-08T18:19:24+02:00*
G04 #@! TF.ProjectId,pcb_esp32_wled_pwm_multichannel,7063625f-6573-4703-9332-5f776c65645f,rev?*
G04 #@! TF.SameCoordinates,Original*
G04 #@! TF.FileFunction,Copper,L4,Bot*
G04 #@! TF.FilePolarity,Positive*
%FSLAX46Y46*%
G04 Gerber Fmt 4.6, Leading zero omitted, Abs format (unit mm)*
G04 Created by KiCad (PCBNEW 7.0.7-7.0.7~ubuntu22.04.1) date 2023-09-08 18:19:24*
%MOMM*%
%LPD*%
G01*
G04 APERTURE LIST*
G04 #@! TA.AperFunction,HeatsinkPad*
%ADD10C,0.600000*%
G04 #@! TD*
G04 #@! TA.AperFunction,ComponentPad*
%ADD11R,1.700000X1.700000*%
G04 #@! TD*
G04 #@! TA.AperFunction,ComponentPad*
%ADD12O,1.700000X1.700000*%
G04 #@! TD*
G04 #@! TA.AperFunction,ComponentPad*
%ADD13R,2.700000X2.700000*%
G04 #@! TD*
G04 #@! TA.AperFunction,ComponentPad*
%ADD14C,2.700000*%
G04 #@! TD*
G04 #@! TA.AperFunction,ComponentPad*
%ADD15R,2.200000X2.200000*%
G04 #@! TD*
G04 #@! TA.AperFunction,ComponentPad*
%ADD16O,2.200000X2.200000*%
G04 #@! TD*
G04 #@! TA.AperFunction,ComponentPad*
%ADD17O,2.100000X1.000000*%
G04 #@! TD*
G04 #@! TA.AperFunction,ComponentPad*
%ADD18O,1.800000X1.000000*%
G04 #@! TD*
G04 #@! TA.AperFunction,ViaPad*
%ADD19C,0.800000*%
G04 #@! TD*
G04 #@! TA.AperFunction,Conductor*
%ADD20C,0.250000*%
G04 #@! TD*
G04 #@! TA.AperFunction,Conductor*
%ADD21C,0.600000*%
G04 #@! TD*
G04 #@! TA.AperFunction,Conductor*
%ADD22C,0.200000*%
G04 #@! TD*
G04 APERTURE END LIST*
D10*
G04 #@! TO.P,U101,39,GND*
G04 #@! TO.N,GND*
X17671200Y-70650000D03*
X19071200Y-70650000D03*
X19771200Y-69950000D03*
X17671200Y-72050000D03*
X19771200Y-72750000D03*
X18371200Y-72750000D03*
X19071200Y-72050000D03*
X18371200Y-71350000D03*
X19771200Y-71350000D03*
X20471200Y-70650000D03*
X18371200Y-69950000D03*
X20471200Y-72050000D03*
G04 #@! TD*
D11*
G04 #@! TO.P,J107,1,Pin_1*
G04 #@! TO.N,GND*
X44450000Y-50392000D03*
D12*
G04 #@! TO.P,J107,2,Pin_2*
G04 #@! TO.N,/I2S_SM*
X46990000Y-50392000D03*
G04 #@! TO.P,J107,3,Pin_3*
G04 #@! TO.N,/I2S_SCK*
X49530000Y-50392000D03*
G04 #@! TD*
D11*
G04 #@! TO.P,J106,1,Pin_1*
G04 #@! TO.N,/I2S_SD*
X49545000Y-42672000D03*
D12*
G04 #@! TO.P,J106,2,Pin_2*
G04 #@! TO.N,+3V3*
X47005000Y-42672000D03*
G04 #@! TO.P,J106,3,Pin_3*
G04 #@! TO.N,GND*
X44465000Y-42672000D03*
G04 #@! TD*
D13*
G04 #@! TO.P,J104,1,Pin_1*
G04 #@! TO.N,VDD*
X151970000Y-44450000D03*
D14*
G04 #@! TO.P,J104,2,Pin_2*
G04 #@! TO.N,/LED_R4*
X157050000Y-44450000D03*
G04 #@! TO.P,J104,3,Pin_3*
G04 #@! TO.N,/LED_G4*
X162130000Y-44450000D03*
G04 #@! TO.P,J104,4,Pin_4*
G04 #@! TO.N,/LED_B4*
X167210000Y-44450000D03*
G04 #@! TD*
D13*
G04 #@! TO.P,J103,1,Pin_1*
G04 #@! TO.N,VDD*
X126570000Y-44450000D03*
D14*
G04 #@! TO.P,J103,2,Pin_2*
G04 #@! TO.N,/LED_R3*
X131650000Y-44450000D03*
G04 #@! TO.P,J103,3,Pin_3*
G04 #@! TO.N,/LED_G3*
X136730000Y-44450000D03*
G04 #@! TO.P,J103,4,Pin_4*
G04 #@! TO.N,/LED_B3*
X141810000Y-44450000D03*
G04 #@! TD*
D13*
G04 #@! TO.P,J102,1,Pin_1*
G04 #@! TO.N,VDD*
X87140000Y-44450000D03*
D14*
G04 #@! TO.P,J102,2,Pin_2*
G04 #@! TO.N,/LED_R2*
X92220000Y-44450000D03*
G04 #@! TO.P,J102,3,Pin_3*
G04 #@! TO.N,/LED_G2*
X97300000Y-44450000D03*
G04 #@! TO.P,J102,4,Pin_4*
G04 #@! TO.N,/LED_B2*
X102380000Y-44450000D03*
G04 #@! TD*
D15*
G04 #@! TO.P,D118,1,K*
G04 #@! TO.N,Net-(D118-K)*
X52070000Y-66040000D03*
D16*
G04 #@! TO.P,D118,2,A*
G04 #@! TO.N,GND*
X52070000Y-55880000D03*
G04 #@! TD*
D13*
G04 #@! TO.P,J101,1,Pin_1*
G04 #@! TO.N,VDD*
X61740000Y-44450000D03*
D14*
G04 #@! TO.P,J101,2,Pin_2*
G04 #@! TO.N,/LED_R1*
X66820000Y-44450000D03*
G04 #@! TO.P,J101,3,Pin_3*
G04 #@! TO.N,/LED_G1*
X71900000Y-44450000D03*
G04 #@! TO.P,J101,4,Pin_4*
G04 #@! TO.N,/LED_B1*
X76980000Y-44450000D03*
G04 #@! TD*
D11*
G04 #@! TO.P,J105,1,Pin_1*
G04 #@! TO.N,GND*
X12781200Y-57150000D03*
D12*
G04 #@! TO.P,J105,2,Pin_2*
G04 #@! TO.N,/RXcp21*
X15321200Y-57150000D03*
G04 #@! TO.P,J105,3,Pin_3*
G04 #@! TO.N,/RXDesp*
X17861200Y-57150000D03*
G04 #@! TO.P,J105,4,Pin_4*
G04 #@! TO.N,/IO0*
X20401200Y-57150000D03*
G04 #@! TO.P,J105,5,Pin_5*
G04 #@! TO.N,+3V3*
X22941200Y-57150000D03*
G04 #@! TD*
D17*
G04 #@! TO.P,J109,S1,SHIELD*
G04 #@! TO.N,GND*
X16611200Y-40130000D03*
D18*
X12461200Y-40130000D03*
D17*
X16611200Y-48770000D03*
D18*
X12461200Y-48770000D03*
G04 #@! TD*
D13*
G04 #@! TO.P,J108,1,Pin_1*
G04 #@! TO.N,VDD*
X111736000Y-44501500D03*
D14*
G04 #@! TO.P,J108,2,Pin_2*
G04 #@! TO.N,GND*
X116816000Y-44501500D03*
G04 #@! TD*
D19*
G04 #@! TO.N,GND*
X74930000Y-55880000D03*
X99060000Y-72390000D03*
X86995000Y-53975000D03*
X89535000Y-83820000D03*
X89535000Y-80010000D03*
X167005000Y-67310000D03*
X155575000Y-71120000D03*
X84582000Y-79883000D03*
X68961000Y-41021000D03*
X69850000Y-79375000D03*
G04 #@! TO.N,Net-(Q112-G)*
X74041000Y-73025000D03*
G04 #@! TO.N,GND*
X77470000Y-76200000D03*
X65024000Y-55880000D03*
X89662000Y-77724000D03*
G04 #@! TO.N,+3V3*
X46990000Y-60198000D03*
G04 #@! TO.N,/VBUS*
X25146000Y-50292000D03*
X17780000Y-52895000D03*
G04 #@! TO.N,+3V3*
X32766000Y-71374000D03*
X49530000Y-66040000D03*
X60452000Y-71882000D03*
X39574999Y-49325001D03*
X124460000Y-71120000D03*
X26111200Y-43180000D03*
X50546000Y-80772000D03*
X14173200Y-82550000D03*
X23114000Y-50546000D03*
X46228000Y-80772000D03*
X33401000Y-78613000D03*
X55626000Y-66040010D03*
X23163000Y-84279000D03*
X15875000Y-54610000D03*
G04 #@! TO.N,GND*
X114300000Y-70866000D03*
X34036000Y-48768000D03*
X26198205Y-53975000D03*
X88900000Y-58420000D03*
X168910000Y-70485000D03*
X140540000Y-77724000D03*
X19761200Y-50165000D03*
X18542000Y-82550000D03*
X163195000Y-84455000D03*
X121744000Y-43688000D03*
X122174000Y-50292000D03*
X11506200Y-45720000D03*
X123190000Y-67310000D03*
X58420000Y-78232000D03*
X28738205Y-50165000D03*
X114046000Y-77216000D03*
X135460000Y-68580000D03*
X96520000Y-69850000D03*
X156542000Y-52832000D03*
X170766000Y-69596000D03*
X145796000Y-67056000D03*
X19761200Y-39370000D03*
X84709000Y-64389000D03*
X37592000Y-80010000D03*
X99205000Y-78105000D03*
X148844000Y-70358000D03*
X12446000Y-74168000D03*
X59690000Y-51562000D03*
X53340000Y-46990000D03*
X132285000Y-68580000D03*
X25476200Y-39370000D03*
X167845000Y-81915000D03*
X154510000Y-64770000D03*
X38608000Y-65024000D03*
X11506200Y-43180000D03*
X130175000Y-67945000D03*
X158750000Y-81915000D03*
X30008205Y-51435000D03*
X93726000Y-64135000D03*
X147144000Y-43180000D03*
X132920000Y-64135000D03*
X88392000Y-67183000D03*
X93599000Y-67310000D03*
X108712000Y-67310000D03*
X13970000Y-71120000D03*
X157988000Y-67818000D03*
X149987000Y-60960000D03*
X39370000Y-57150000D03*
X26746200Y-56896000D03*
X82314000Y-43688000D03*
X30988000Y-83820000D03*
X114427000Y-61595000D03*
X170385000Y-56515000D03*
X66294000Y-78232000D03*
X23063200Y-70866000D03*
X169750000Y-83820000D03*
X163400000Y-56515000D03*
X11684000Y-68072000D03*
X136730000Y-77724000D03*
X149860000Y-66675000D03*
X141605000Y-83820000D03*
G04 #@! TO.N,VDD*
X101600000Y-57150000D03*
X143510000Y-53340000D03*
X74930000Y-59690000D03*
X150570000Y-49660000D03*
X128720000Y-48650000D03*
X169164000Y-52324000D03*
X162814000Y-52578000D03*
G04 #@! TO.N,/ESP_EN*
X37846000Y-73316500D03*
X36195000Y-67945000D03*
X14478000Y-75946000D03*
X129540000Y-71120000D03*
G04 #@! TO.N,/IO0*
X35047356Y-60701356D03*
X118618000Y-62865000D03*
X29718000Y-60706000D03*
G04 #@! TO.N,/UVBUS*
X19253200Y-42099500D03*
X18745200Y-46228000D03*
X31496000Y-46228000D03*
G04 #@! TO.N,/UCD+*
X14681200Y-43180000D03*
X13411200Y-44449998D03*
G04 #@! TO.N,/I2S_SD*
X26670000Y-63246000D03*
X41910000Y-63246000D03*
G04 #@! TO.N,/I2S_SM*
X26111200Y-76289500D03*
X41656000Y-76200000D03*
G04 #@! TO.N,/I2S_SCK*
X32232600Y-75209400D03*
X42926000Y-75184000D03*
G04 #@! TO.N,Net-(Q109-G)*
X31750000Y-80518000D03*
X150876000Y-79756000D03*
G04 #@! TO.N,/RTS*
X31887805Y-54051200D03*
X29464000Y-58928000D03*
G04 #@! TO.N,Net-(Q112-G)*
X163322000Y-70104000D03*
G04 #@! TO.N,/PWM_R1*
X68453000Y-69596000D03*
X26180215Y-66707499D03*
G04 #@! TO.N,/PWM_G1*
X24638000Y-72136000D03*
X70866000Y-72898000D03*
G04 #@! TO.N,/PWM_B1*
X88459103Y-70612000D03*
X22098000Y-66598800D03*
G04 #@! TO.N,/PWM_R2*
X20447000Y-66548000D03*
X97282000Y-71628000D03*
G04 #@! TO.N,/PWM_G2*
X16764000Y-63754000D03*
X89789000Y-63500000D03*
G04 #@! TO.N,/PWM_B2*
X103886000Y-62992000D03*
X14706600Y-63770802D03*
G04 #@! TO.N,/PWM_R3*
X13081000Y-66294000D03*
X123190000Y-65405000D03*
G04 #@! TO.N,/PWM_G3*
X137922000Y-83566000D03*
X23571200Y-81280000D03*
G04 #@! TO.N,/PWM_R4*
X151384000Y-82550000D03*
X29972000Y-80518000D03*
G04 #@! TO.N,/PWM_G4*
X160655000Y-74041000D03*
X21031200Y-76200000D03*
G04 #@! TO.N,/PWM_B4*
X72390000Y-74930000D03*
X24384000Y-76200000D03*
G04 #@! TD*
D20*
G04 #@! TO.N,/PWM_R3*
X37317996Y-67797996D02*
X56408004Y-67797996D01*
X58801000Y-65405000D02*
X123190000Y-65405000D01*
X34544000Y-65024000D02*
X37317996Y-67797996D01*
X13081000Y-66294000D02*
X14351000Y-65024000D01*
X56408004Y-67797996D02*
X58801000Y-65405000D01*
X14351000Y-65024000D02*
X34544000Y-65024000D01*
G04 #@! TO.N,/IO0*
X35047356Y-60701356D02*
X35560000Y-61214000D01*
X35560000Y-61214000D02*
X104267000Y-61214000D01*
X104267000Y-61214000D02*
X105918000Y-62865000D01*
X105918000Y-62865000D02*
X118618000Y-62865000D01*
G04 #@! TO.N,/PWM_R1*
X68453000Y-69596000D02*
X68199000Y-69850000D01*
X68199000Y-69850000D02*
X62710478Y-69850000D01*
X62710478Y-69850000D02*
X61557476Y-68696998D01*
X61557476Y-68696998D02*
X35548602Y-68696998D01*
X35548602Y-68696998D02*
X33559103Y-66707499D01*
X33559103Y-66707499D02*
X26180215Y-66707499D01*
G04 #@! TO.N,Net-(Q112-G)*
X77089000Y-73279000D02*
X74295000Y-73279000D01*
X74295000Y-73279000D02*
X74041000Y-73025000D01*
G04 #@! TO.N,/PWM_B2*
X102616000Y-61722000D02*
X103886000Y-62992000D01*
G04 #@! TO.N,/PWM_G2*
X88519000Y-62230000D02*
X89789000Y-63500000D01*
G04 #@! TO.N,/PWM_B2*
X14706600Y-63770802D02*
X16755402Y-61722000D01*
G04 #@! TO.N,/PWM_G2*
X16764000Y-63754000D02*
X18288000Y-62230000D01*
G04 #@! TO.N,/PWM_B2*
X16755402Y-61722000D02*
X102616000Y-61722000D01*
G04 #@! TO.N,/PWM_G2*
X18288000Y-62230000D02*
X88519000Y-62230000D01*
G04 #@! TO.N,Net-(Q112-G)*
X160147000Y-73279000D02*
X163322000Y-70104000D01*
X77089000Y-73279000D02*
X160147000Y-73279000D01*
G04 #@! TO.N,/RTS*
X29464000Y-58928000D02*
X31887805Y-56504195D01*
X31887805Y-56504195D02*
X31887805Y-54051200D01*
D21*
G04 #@! TO.N,/UVBUS*
X18745200Y-46228000D02*
X31496000Y-46228000D01*
D20*
G04 #@! TO.N,/VBUS*
X25146000Y-50292000D02*
X22543000Y-52895000D01*
X22543000Y-52895000D02*
X17780000Y-52895000D01*
G04 #@! TO.N,/ESP_EN*
X36497497Y-68247497D02*
X36195000Y-67945000D01*
X129540000Y-71120000D02*
X126667497Y-68247497D01*
X126667497Y-68247497D02*
X36497497Y-68247497D01*
X16832501Y-73591499D02*
X37571001Y-73591499D01*
X14478000Y-75946000D02*
X16832501Y-73591499D01*
X37571001Y-73591499D02*
X37846000Y-73316500D01*
G04 #@! TO.N,/IO0*
X34534712Y-61214000D02*
X30226000Y-61214000D01*
X35047356Y-60701356D02*
X34534712Y-61214000D01*
X30226000Y-61214000D02*
X29718000Y-60706000D01*
D21*
G04 #@! TO.N,/UVBUS*
X18745200Y-46228000D02*
X18745200Y-42607500D01*
X18745200Y-42607500D02*
X19253200Y-42099500D01*
D22*
G04 #@! TO.N,/UCD+*
X14681200Y-43180000D02*
X13411200Y-44449998D01*
D20*
G04 #@! TO.N,/I2S_SD*
X26670000Y-63246000D02*
X27178000Y-62738000D01*
X27178000Y-62738000D02*
X41402000Y-62738000D01*
X41402000Y-62738000D02*
X41910000Y-63246000D01*
G04 #@! TO.N,/I2S_SM*
X26200700Y-76200000D02*
X26111200Y-76289500D01*
X41656000Y-76200000D02*
X26200700Y-76200000D01*
G04 #@! TO.N,/I2S_SCK*
X42926000Y-75184000D02*
X32258000Y-75184000D01*
X32258000Y-75184000D02*
X32232600Y-75209400D01*
G04 #@! TO.N,Net-(Q109-G)*
X148727002Y-81904998D02*
X150876000Y-79756000D01*
X31750000Y-80518000D02*
X33136998Y-81904998D01*
X33136998Y-81904998D02*
X148727002Y-81904998D01*
G04 #@! TO.N,/PWM_G1*
X24892000Y-72390000D02*
X24638000Y-72136000D01*
X38608000Y-72390000D02*
X24892000Y-72390000D01*
X39116000Y-72898000D02*
X38608000Y-72390000D01*
X70866000Y-72898000D02*
X39116000Y-72898000D01*
G04 #@! TO.N,/PWM_B1*
X33395999Y-67431999D02*
X22931199Y-67431999D01*
X35110499Y-69146499D02*
X33395999Y-67431999D01*
X61371287Y-69146499D02*
X35110499Y-69146499D01*
X88459103Y-70612000D02*
X62836788Y-70612000D01*
X22931199Y-67431999D02*
X22098000Y-66598800D01*
X62836788Y-70612000D02*
X61371287Y-69146499D01*
G04 #@! TO.N,/PWM_R2*
X21780500Y-67881500D02*
X33187500Y-67881500D01*
X63038098Y-71449000D02*
X97103000Y-71449000D01*
X97103000Y-71449000D02*
X97282000Y-71628000D01*
X34902000Y-69596000D02*
X61185098Y-69596000D01*
X61185098Y-69596000D02*
X63038098Y-71449000D01*
X33187500Y-67881500D02*
X34902000Y-69596000D01*
X20447000Y-66548000D02*
X21780500Y-67881500D01*
G04 #@! TO.N,/PWM_G3*
X23571200Y-81280000D02*
X25095200Y-82804000D01*
X25095200Y-82804000D02*
X137160000Y-82804000D01*
X137160000Y-82804000D02*
X137922000Y-83566000D01*
G04 #@! TO.N,/PWM_R4*
X31808499Y-82354499D02*
X151188499Y-82354499D01*
X29972000Y-80518000D02*
X31808499Y-82354499D01*
X151188499Y-82354499D02*
X151384000Y-82550000D01*
G04 #@! TO.N,/PWM_G4*
X160655000Y-74041000D02*
X23190200Y-74041000D01*
X23190200Y-74041000D02*
X21031200Y-76200000D01*
G04 #@! TO.N,/PWM_B4*
X29083000Y-77343000D02*
X25527000Y-77343000D01*
X29501000Y-76925000D02*
X29083000Y-77343000D01*
X45339000Y-74930000D02*
X43344000Y-76925000D01*
X43344000Y-76925000D02*
X29501000Y-76925000D01*
X25527000Y-77343000D02*
X24384000Y-76200000D01*
X72390000Y-74930000D02*
X45339000Y-74930000D01*
G04 #@! TD*
G04 #@! TA.AperFunction,Conductor*
G04 #@! TO.N,GND*
G36*
X172153621Y-37485502D02*
G01*
X172200114Y-37539158D01*
X172211500Y-37591500D01*
X172211500Y-85598500D01*
X172191498Y-85666621D01*
X172137842Y-85713114D01*
X172085500Y-85724500D01*
X9778500Y-85724500D01*
X9710379Y-85704498D01*
X9663886Y-85650842D01*
X9652500Y-85598500D01*
X9652500Y-84278999D01*
X22249496Y-84278999D01*
X22269457Y-84468927D01*
X22271268Y-84474500D01*
X22328473Y-84650556D01*
X22328476Y-84650561D01*
X22423958Y-84815941D01*
X22423965Y-84815951D01*
X22551744Y-84957864D01*
X22551747Y-84957866D01*
X22706248Y-85070118D01*
X22880712Y-85147794D01*
X23067513Y-85187500D01*
X23258487Y-85187500D01*
X23445288Y-85147794D01*
X23619752Y-85070118D01*
X23774253Y-84957866D01*
X23902040Y-84815944D01*
X23997527Y-84650556D01*
X24056542Y-84468928D01*
X24076504Y-84279000D01*
X24056542Y-84089072D01*
X23997527Y-83907444D01*
X23902040Y-83742056D01*
X23902038Y-83742054D01*
X23902034Y-83742048D01*
X23774255Y-83600135D01*
X23619752Y-83487882D01*
X23445288Y-83410206D01*
X23258487Y-83370500D01*
X23067513Y-83370500D01*
X22880711Y-83410206D01*
X22706247Y-83487882D01*
X22551744Y-83600135D01*
X22423965Y-83742048D01*
X22423958Y-83742058D01*
X22328476Y-83907438D01*
X22328473Y-83907445D01*
X22269457Y-84089072D01*
X22249496Y-84278999D01*
X9652500Y-84278999D01*
X9652500Y-82550000D01*
X13259696Y-82550000D01*
X13279657Y-82739927D01*
X13309726Y-82832470D01*
X13338673Y-82921556D01*
X13338676Y-82921561D01*
X13434158Y-83086941D01*
X13434165Y-83086951D01*
X13561944Y-83228864D01*
X13561947Y-83228866D01*
X13716448Y-83341118D01*
X13890912Y-83418794D01*
X14077713Y-83458500D01*
X14268687Y-83458500D01*
X14455488Y-83418794D01*
X14629952Y-83341118D01*
X14784453Y-83228866D01*
X14784455Y-83228864D01*
X14912234Y-83086951D01*
X14912235Y-83086949D01*
X14912240Y-83086944D01*
X15007727Y-82921556D01*
X15066742Y-82739928D01*
X15086704Y-82550000D01*
X15066742Y-82360072D01*
X15007727Y-82178444D01*
X14912240Y-82013056D01*
X14912238Y-82013054D01*
X14912234Y-82013048D01*
X14784455Y-81871135D01*
X14629952Y-81758882D01*
X14455488Y-81681206D01*
X14268687Y-81641500D01*
X14077713Y-81641500D01*
X13890911Y-81681206D01*
X13716447Y-81758882D01*
X13561944Y-81871135D01*
X13434165Y-82013048D01*
X13434158Y-82013058D01*
X13343259Y-82170500D01*
X13338673Y-82178444D01*
X13324199Y-82222986D01*
X13279657Y-82360072D01*
X13259696Y-82550000D01*
X9652500Y-82550000D01*
X9652500Y-81280000D01*
X22657696Y-81280000D01*
X22677657Y-81469927D01*
X22689347Y-81505903D01*
X22736673Y-81651556D01*
X22765041Y-81700691D01*
X22832158Y-81816941D01*
X22832165Y-81816951D01*
X22959944Y-81958864D01*
X22959947Y-81958866D01*
X23114448Y-82071118D01*
X23288912Y-82148794D01*
X23475713Y-82188500D01*
X23531606Y-82188500D01*
X23599727Y-82208502D01*
X23620701Y-82225405D01*
X24587953Y-83192657D01*
X24597920Y-83205097D01*
X24598147Y-83204910D01*
X24603199Y-83211017D01*
X24654295Y-83258999D01*
X24675425Y-83280130D01*
X24680968Y-83284430D01*
X24685481Y-83288285D01*
X24719879Y-83320586D01*
X24719880Y-83320586D01*
X24719882Y-83320588D01*
X24737629Y-83330344D01*
X24754159Y-83341202D01*
X24770159Y-83353613D01*
X24801336Y-83367104D01*
X24813451Y-83372347D01*
X24818785Y-83374959D01*
X24860140Y-83397695D01*
X24879762Y-83402733D01*
X24898463Y-83409135D01*
X24917055Y-83417181D01*
X24963670Y-83424563D01*
X24969442Y-83425758D01*
X25015170Y-83437500D01*
X25035431Y-83437500D01*
X25055139Y-83439050D01*
X25075143Y-83442219D01*
X25108659Y-83439051D01*
X25122110Y-83437780D01*
X25128042Y-83437500D01*
X136845405Y-83437500D01*
X136913526Y-83457502D01*
X136934502Y-83474406D01*
X136974879Y-83514784D01*
X137008903Y-83577096D01*
X137011092Y-83590707D01*
X137028457Y-83755927D01*
X137058526Y-83848470D01*
X137087473Y-83937556D01*
X137087476Y-83937561D01*
X137182958Y-84102941D01*
X137182965Y-84102951D01*
X137310744Y-84244864D01*
X137310747Y-84244866D01*
X137465248Y-84357118D01*
X137639712Y-84434794D01*
X137826513Y-84474500D01*
X138017487Y-84474500D01*
X138204288Y-84434794D01*
X138378752Y-84357118D01*
X138533253Y-84244866D01*
X138661040Y-84102944D01*
X138756527Y-83937556D01*
X138815542Y-83755928D01*
X138835504Y-83566000D01*
X138815542Y-83376072D01*
X138756527Y-83194444D01*
X138746454Y-83176997D01*
X138729717Y-83108005D01*
X138752937Y-83040913D01*
X138808744Y-82997025D01*
X138855574Y-82987999D01*
X150515088Y-82987999D01*
X150583209Y-83008001D01*
X150624205Y-83050996D01*
X150644960Y-83086944D01*
X150644962Y-83086947D01*
X150644965Y-83086951D01*
X150772744Y-83228864D01*
X150772747Y-83228866D01*
X150927248Y-83341118D01*
X151101712Y-83418794D01*
X151288513Y-83458500D01*
X151479487Y-83458500D01*
X151666288Y-83418794D01*
X151840752Y-83341118D01*
X151995253Y-83228866D01*
X151995255Y-83228864D01*
X152123034Y-83086951D01*
X152123035Y-83086949D01*
X152123040Y-83086944D01*
X152218527Y-82921556D01*
X152277542Y-82739928D01*
X152297504Y-82550000D01*
X152277542Y-82360072D01*
X152218527Y-82178444D01*
X152123040Y-82013056D01*
X152123038Y-82013054D01*
X152123034Y-82013048D01*
X151995255Y-81871135D01*
X151840752Y-81758882D01*
X151666288Y-81681206D01*
X151479487Y-81641500D01*
X151288513Y-81641500D01*
X151101709Y-81681206D01*
X151036800Y-81710106D01*
X150985552Y-81720999D01*
X150111095Y-81720999D01*
X150042974Y-81700997D01*
X149996481Y-81647341D01*
X149986377Y-81577067D01*
X150015871Y-81512487D01*
X150021983Y-81505920D01*
X150826502Y-80701402D01*
X150888812Y-80667379D01*
X150915595Y-80664500D01*
X150971487Y-80664500D01*
X151158288Y-80624794D01*
X151332752Y-80547118D01*
X151487253Y-80434866D01*
X151583827Y-80327610D01*
X151615034Y-80292951D01*
X151615035Y-80292949D01*
X151615040Y-80292944D01*
X151710527Y-80127556D01*
X151769542Y-79945928D01*
X151789504Y-79756000D01*
X151769542Y-79566072D01*
X151710527Y-79384444D01*
X151615040Y-79219056D01*
X151615038Y-79219054D01*
X151615034Y-79219048D01*
X151487255Y-79077135D01*
X151332752Y-78964882D01*
X151158288Y-78887206D01*
X150971487Y-78847500D01*
X150780513Y-78847500D01*
X150593711Y-78887206D01*
X150419247Y-78964882D01*
X150264744Y-79077135D01*
X150136965Y-79219048D01*
X150136958Y-79219058D01*
X150041476Y-79384438D01*
X150041473Y-79384444D01*
X150026999Y-79428986D01*
X149982457Y-79566072D01*
X149965092Y-79731292D01*
X149938079Y-79796949D01*
X149928877Y-79807216D01*
X148501500Y-81234594D01*
X148439190Y-81268618D01*
X148412407Y-81271498D01*
X95820652Y-81271498D01*
X95752531Y-81251496D01*
X95706038Y-81197840D01*
X95695934Y-81127566D01*
X95725428Y-81062986D01*
X95780580Y-81027283D01*
X95780252Y-81026425D01*
X95784296Y-81024878D01*
X95784357Y-81024839D01*
X95784549Y-81024780D01*
X95784553Y-81024780D01*
X96037558Y-80928014D01*
X96273777Y-80795441D01*
X96488177Y-80629888D01*
X96676186Y-80434881D01*
X96833799Y-80214579D01*
X96885396Y-80114223D01*
X96957656Y-79973675D01*
X96957657Y-79973672D01*
X97040346Y-79731292D01*
X97045118Y-79717305D01*
X97094319Y-79450933D01*
X97104212Y-79180235D01*
X97082682Y-78984561D01*
X97074587Y-78910985D01*
X97006071Y-78648909D01*
X96900130Y-78399610D01*
X96841525Y-78303583D01*
X96759018Y-78168390D01*
X96585745Y-77960180D01*
X96585741Y-77960177D01*
X96585740Y-77960175D01*
X96384012Y-77779427D01*
X96384002Y-77779418D01*
X96158090Y-77629956D01*
X95912824Y-77514980D01*
X95713699Y-77455072D01*
X95653425Y-77436938D01*
X95385442Y-77397500D01*
X95385439Y-77397500D01*
X95182369Y-77397500D01*
X95182367Y-77397500D01*
X94979839Y-77412323D01*
X94979838Y-77412323D01*
X94715456Y-77471217D01*
X94715441Y-77471222D01*
X94462441Y-77567986D01*
X94226229Y-77700555D01*
X94226225Y-77700557D01*
X94072661Y-77819135D01*
X94035874Y-77847541D01*
X94011818Y-77866116D01*
X93823815Y-78061117D01*
X93823810Y-78061123D01*
X93666203Y-78281417D01*
X93666196Y-78281427D01*
X93542343Y-78522324D01*
X93542342Y-78522327D01*
X93454883Y-78778689D01*
X93454880Y-78778702D01*
X93405681Y-79045058D01*
X93405680Y-79045069D01*
X93395788Y-79315765D01*
X93425412Y-79585014D01*
X93493928Y-79847090D01*
X93599869Y-80096389D01*
X93630418Y-80146445D01*
X93740982Y-80327610D01*
X93914255Y-80535820D01*
X94115998Y-80716582D01*
X94341910Y-80866044D01*
X94587176Y-80981020D01*
X94732830Y-81024841D01*
X94792298Y-81063620D01*
X94821362Y-81128395D01*
X94810791Y-81198600D01*
X94763943Y-81251946D01*
X94696528Y-81271498D01*
X51512380Y-81271498D01*
X51444259Y-81251496D01*
X51397766Y-81197840D01*
X51387662Y-81127566D01*
X51392545Y-81106566D01*
X51439542Y-80961928D01*
X51459504Y-80772000D01*
X51439542Y-80582072D01*
X51380527Y-80400444D01*
X51285040Y-80235056D01*
X51285038Y-80235054D01*
X51285034Y-80235048D01*
X51157255Y-80093135D01*
X51002752Y-79980882D01*
X50828288Y-79903206D01*
X50641487Y-79863500D01*
X50450513Y-79863500D01*
X50263711Y-79903206D01*
X50089247Y-79980882D01*
X49934744Y-80093135D01*
X49806965Y-80235048D01*
X49806958Y-80235058D01*
X49711476Y-80400438D01*
X49711473Y-80400445D01*
X49652457Y-80582072D01*
X49632496Y-80772000D01*
X49652457Y-80961927D01*
X49673693Y-81027283D01*
X49699453Y-81106562D01*
X49701481Y-81177529D01*
X49664819Y-81238327D01*
X49601107Y-81269652D01*
X49579620Y-81271498D01*
X47194380Y-81271498D01*
X47126259Y-81251496D01*
X47079766Y-81197840D01*
X47069662Y-81127566D01*
X47074545Y-81106566D01*
X47121542Y-80961928D01*
X47141504Y-80772000D01*
X47121542Y-80582072D01*
X47062527Y-80400444D01*
X46967040Y-80235056D01*
X46967038Y-80235054D01*
X46967034Y-80235048D01*
X46839255Y-80093135D01*
X46684752Y-79980882D01*
X46510288Y-79903206D01*
X46323487Y-79863500D01*
X46132513Y-79863500D01*
X45945711Y-79903206D01*
X45771247Y-79980882D01*
X45616744Y-80093135D01*
X45488965Y-80235048D01*
X45488958Y-80235058D01*
X45393476Y-80400438D01*
X45393473Y-80400445D01*
X45334457Y-80582072D01*
X45314496Y-80771999D01*
X45334457Y-80961927D01*
X45355693Y-81027283D01*
X45381453Y-81106562D01*
X45383481Y-81177529D01*
X45346819Y-81238327D01*
X45283107Y-81269652D01*
X45261620Y-81271498D01*
X33451593Y-81271498D01*
X33383472Y-81251496D01*
X33362498Y-81234593D01*
X32697121Y-80569216D01*
X32663095Y-80506904D01*
X32660908Y-80493306D01*
X32643542Y-80328072D01*
X32584527Y-80146444D01*
X32489040Y-79981056D01*
X32489038Y-79981054D01*
X32489034Y-79981048D01*
X32361255Y-79839135D01*
X32206752Y-79726882D01*
X32032288Y-79649206D01*
X31845487Y-79609500D01*
X31654513Y-79609500D01*
X31467711Y-79649206D01*
X31293247Y-79726882D01*
X31138744Y-79839135D01*
X31010965Y-79981048D01*
X31010961Y-79981055D01*
X30970119Y-80051795D01*
X30918736Y-80100788D01*
X30849022Y-80114223D01*
X30783111Y-80087836D01*
X30751881Y-80051795D01*
X30711040Y-79981056D01*
X30711036Y-79981051D01*
X30711034Y-79981048D01*
X30583255Y-79839135D01*
X30428752Y-79726882D01*
X30254288Y-79649206D01*
X30067487Y-79609500D01*
X29876513Y-79609500D01*
X29689711Y-79649206D01*
X29515247Y-79726882D01*
X29360744Y-79839135D01*
X29232965Y-79981048D01*
X29232958Y-79981058D01*
X29137476Y-80146438D01*
X29137473Y-80146445D01*
X29078457Y-80328072D01*
X29058496Y-80518000D01*
X29078457Y-80707927D01*
X29099276Y-80771999D01*
X29137473Y-80889556D01*
X29137476Y-80889561D01*
X29232958Y-81054941D01*
X29232965Y-81054951D01*
X29360744Y-81196864D01*
X29412674Y-81234593D01*
X29515248Y-81309118D01*
X29689712Y-81386794D01*
X29876513Y-81426500D01*
X29932405Y-81426500D01*
X30000526Y-81446502D01*
X30021501Y-81463405D01*
X30513500Y-81955405D01*
X30547525Y-82017717D01*
X30542460Y-82088533D01*
X30499913Y-82145368D01*
X30433393Y-82170179D01*
X30424404Y-82170500D01*
X25409795Y-82170500D01*
X25341674Y-82150498D01*
X25320700Y-82133595D01*
X24518321Y-81331216D01*
X24484295Y-81268904D01*
X24482108Y-81255306D01*
X24464742Y-81090072D01*
X24405727Y-80908444D01*
X24310240Y-80743056D01*
X24310238Y-80743054D01*
X24310234Y-80743048D01*
X24182455Y-80601135D01*
X24027952Y-80488882D01*
X23853488Y-80411206D01*
X23666687Y-80371500D01*
X23475713Y-80371500D01*
X23288911Y-80411206D01*
X23114447Y-80488882D01*
X22959944Y-80601135D01*
X22832165Y-80743048D01*
X22832158Y-80743058D01*
X22736676Y-80908438D01*
X22736673Y-80908445D01*
X22677657Y-81090072D01*
X22657696Y-81280000D01*
X9652500Y-81280000D01*
X9652500Y-72050000D01*
X16858087Y-72050000D01*
X16878472Y-72230929D01*
X16878473Y-72230936D01*
X16938611Y-72402797D01*
X16946552Y-72415435D01*
X17279495Y-72082492D01*
X17571200Y-72082492D01*
X17595908Y-72116500D01*
X17609397Y-72135065D01*
X17655362Y-72150000D01*
X17655363Y-72150000D01*
X17687037Y-72150000D01*
X17687038Y-72150000D01*
X17733003Y-72135065D01*
X17771200Y-72082492D01*
X17771200Y-72050000D01*
X18030410Y-72050000D01*
X18062903Y-72082492D01*
X18371199Y-72390789D01*
X18371200Y-72390789D01*
X18679496Y-72082492D01*
X18971200Y-72082492D01*
X18995908Y-72116500D01*
X19009397Y-72135065D01*
X19055362Y-72150000D01*
X19055363Y-72150000D01*
X19087037Y-72150000D01*
X19087038Y-72150000D01*
X19133003Y-72135065D01*
X19171200Y-72082492D01*
X19171200Y-72050000D01*
X19430410Y-72050000D01*
X19462903Y-72082492D01*
X19771199Y-72390788D01*
X20079497Y-72082492D01*
X20371200Y-72082492D01*
X20395908Y-72116500D01*
X20409397Y-72135065D01*
X20455362Y-72150000D01*
X20455363Y-72150000D01*
X20487037Y-72150000D01*
X20487038Y-72150000D01*
X20533003Y-72135065D01*
X20571200Y-72082492D01*
X20571200Y-72049999D01*
X20830410Y-72049999D01*
X21195846Y-72415436D01*
X21195847Y-72415435D01*
X21203788Y-72402799D01*
X21263926Y-72230937D01*
X21263927Y-72230929D01*
X21284312Y-72050000D01*
X21263927Y-71869070D01*
X21263926Y-71869062D01*
X21203788Y-71697201D01*
X21203787Y-71697200D01*
X21195847Y-71684563D01*
X21195845Y-71684563D01*
X20830410Y-72049999D01*
X20571200Y-72049999D01*
X20571200Y-72017508D01*
X20533003Y-71964935D01*
X20487038Y-71950000D01*
X20455362Y-71950000D01*
X20432379Y-71957467D01*
X20409396Y-71964935D01*
X20371200Y-72017507D01*
X20371200Y-72082492D01*
X20079497Y-72082492D01*
X20111988Y-72050000D01*
X20111989Y-72049999D01*
X19807545Y-71745556D01*
X19771200Y-71709210D01*
X19734855Y-71745556D01*
X19430410Y-72050000D01*
X19171200Y-72050000D01*
X19171200Y-72017508D01*
X19133003Y-71964935D01*
X19087038Y-71950000D01*
X19055362Y-71950000D01*
X19032379Y-71957467D01*
X19009396Y-71964935D01*
X18971200Y-72017507D01*
X18971200Y-72082492D01*
X18679496Y-72082492D01*
X18679497Y-72082491D01*
X18711988Y-72049999D01*
X18407544Y-71745556D01*
X18371198Y-71709210D01*
X18334855Y-71745556D01*
X18030410Y-72050000D01*
X17771200Y-72050000D01*
X17771200Y-72017508D01*
X17733003Y-71964935D01*
X17687038Y-71950000D01*
X17655362Y-71950000D01*
X17632379Y-71957467D01*
X17609396Y-71964935D01*
X17571200Y-72017507D01*
X17571200Y-72082492D01*
X17279495Y-72082492D01*
X17311988Y-72049999D01*
X16946551Y-71684563D01*
X16938610Y-71697203D01*
X16878473Y-71869062D01*
X16878472Y-71869070D01*
X16858087Y-72050000D01*
X9652500Y-72050000D01*
X9652500Y-71350001D01*
X17330410Y-71350001D01*
X17671198Y-71690789D01*
X17671199Y-71690789D01*
X17979497Y-71382492D01*
X18271200Y-71382492D01*
X18309397Y-71435065D01*
X18355362Y-71450000D01*
X18355363Y-71450000D01*
X18387037Y-71450000D01*
X18387038Y-71450000D01*
X18433003Y-71435065D01*
X18471200Y-71382492D01*
X18471200Y-71350000D01*
X18730410Y-71350000D01*
X18762903Y-71382492D01*
X19071199Y-71690789D01*
X19071200Y-71690789D01*
X19379496Y-71382492D01*
X19671200Y-71382492D01*
X19709397Y-71435065D01*
X19755362Y-71450000D01*
X19755363Y-71450000D01*
X19787037Y-71450000D01*
X19787038Y-71450000D01*
X19833003Y-71435065D01*
X19871200Y-71382492D01*
X19871200Y-71350000D01*
X20130410Y-71350000D01*
X20162903Y-71382492D01*
X20471199Y-71690789D01*
X20471201Y-71690789D01*
X20811989Y-71350001D01*
X20811989Y-71349999D01*
X20471200Y-71009210D01*
X20410390Y-71070021D01*
X20130410Y-71350000D01*
X19871200Y-71350000D01*
X19871200Y-71317508D01*
X19833003Y-71264935D01*
X19787038Y-71250000D01*
X19755362Y-71250000D01*
X19732379Y-71257467D01*
X19709396Y-71264935D01*
X19671200Y-71317507D01*
X19671200Y-71317508D01*
X19671200Y-71382492D01*
X19379496Y-71382492D01*
X19379497Y-71382491D01*
X19411989Y-71349999D01*
X19132010Y-71070021D01*
X19071200Y-71009210D01*
X19010390Y-71070021D01*
X18730410Y-71350000D01*
X18471200Y-71350000D01*
X18471200Y-71317508D01*
X18433003Y-71264935D01*
X18387038Y-71250000D01*
X18355362Y-71250000D01*
X18332379Y-71257467D01*
X18309396Y-71264935D01*
X18271200Y-71317507D01*
X18271200Y-71317508D01*
X18271200Y-71382492D01*
X17979497Y-71382492D01*
X18011989Y-71350000D01*
X17732009Y-71070021D01*
X17671199Y-71009210D01*
X17330410Y-71349999D01*
X17330410Y-71350001D01*
X9652500Y-71350001D01*
X9652500Y-70650000D01*
X16858087Y-70650000D01*
X16878472Y-70830929D01*
X16878473Y-70830936D01*
X16938611Y-71002797D01*
X16946552Y-71015435D01*
X17279495Y-70682492D01*
X17571200Y-70682492D01*
X17609397Y-70735065D01*
X17655362Y-70750000D01*
X17655363Y-70750000D01*
X17687037Y-70750000D01*
X17687038Y-70750000D01*
X17733003Y-70735065D01*
X17771200Y-70682492D01*
X17771200Y-70649998D01*
X18030410Y-70649998D01*
X18371200Y-70990788D01*
X18679496Y-70682492D01*
X18971200Y-70682492D01*
X19009397Y-70735065D01*
X19055362Y-70750000D01*
X19055363Y-70750000D01*
X19087037Y-70750000D01*
X19087038Y-70750000D01*
X19133003Y-70735065D01*
X19171200Y-70682492D01*
X19171200Y-70649999D01*
X19430410Y-70649999D01*
X19771199Y-70990788D01*
X20079497Y-70682492D01*
X20371200Y-70682492D01*
X20409397Y-70735065D01*
X20455362Y-70750000D01*
X20455363Y-70750000D01*
X20487037Y-70750000D01*
X20487038Y-70750000D01*
X20533003Y-70735065D01*
X20571200Y-70682492D01*
X20571200Y-70650000D01*
X20830410Y-70650000D01*
X21195846Y-71015436D01*
X21195847Y-71015435D01*
X21203788Y-71002799D01*
X21263926Y-70830937D01*
X21263927Y-70830929D01*
X21284312Y-70650000D01*
X21263927Y-70469070D01*
X21263926Y-70469062D01*
X21203788Y-70297201D01*
X21203787Y-70297200D01*
X21195847Y-70284563D01*
X21195846Y-70284563D01*
X20830410Y-70649999D01*
X20830410Y-70650000D01*
X20571200Y-70650000D01*
X20571200Y-70617508D01*
X20533003Y-70564935D01*
X20487038Y-70550000D01*
X20455362Y-70550000D01*
X20432379Y-70557467D01*
X20409396Y-70564935D01*
X20371200Y-70617507D01*
X20371200Y-70617508D01*
X20371200Y-70682492D01*
X20079497Y-70682492D01*
X20111988Y-70650000D01*
X20111989Y-70649999D01*
X19832010Y-70370021D01*
X19771200Y-70309210D01*
X19710390Y-70370021D01*
X19430410Y-70649999D01*
X19171200Y-70649999D01*
X19171200Y-70617508D01*
X19133003Y-70564935D01*
X19087038Y-70550000D01*
X19055362Y-70550000D01*
X19032379Y-70557467D01*
X19009396Y-70564935D01*
X18971200Y-70617507D01*
X18971200Y-70617508D01*
X18971200Y-70682492D01*
X18679496Y-70682492D01*
X18679497Y-70682491D01*
X18711988Y-70649999D01*
X18432010Y-70370022D01*
X18371199Y-70309210D01*
X18310390Y-70370021D01*
X18030410Y-70649998D01*
X17771200Y-70649998D01*
X17771200Y-70617508D01*
X17733003Y-70564935D01*
X17687038Y-70550000D01*
X17655362Y-70550000D01*
X17632379Y-70557467D01*
X17609396Y-70564935D01*
X17571200Y-70617507D01*
X17571200Y-70617508D01*
X17571200Y-70682492D01*
X17279495Y-70682492D01*
X17311988Y-70649999D01*
X16946551Y-70284563D01*
X16938610Y-70297203D01*
X16878473Y-70469062D01*
X16878472Y-70469070D01*
X16858087Y-70650000D01*
X9652500Y-70650000D01*
X9652500Y-69925352D01*
X17305763Y-69925352D01*
X17671199Y-70290789D01*
X17979497Y-69982492D01*
X18271200Y-69982492D01*
X18309397Y-70035065D01*
X18355362Y-70050000D01*
X18355363Y-70050000D01*
X18387037Y-70050000D01*
X18387038Y-70050000D01*
X18433003Y-70035065D01*
X18471200Y-69982492D01*
X18471200Y-69949998D01*
X18730410Y-69949998D01*
X18762903Y-69982491D01*
X19071200Y-70290789D01*
X19071201Y-70290789D01*
X19379497Y-69982493D01*
X19379498Y-69982492D01*
X19671200Y-69982492D01*
X19709397Y-70035065D01*
X19755362Y-70050000D01*
X19755363Y-70050000D01*
X19787037Y-70050000D01*
X19787038Y-70050000D01*
X19833003Y-70035065D01*
X19871200Y-69982492D01*
X19871200Y-69949998D01*
X20130410Y-69949998D01*
X20471200Y-70290788D01*
X20836635Y-69925352D01*
X20823997Y-69917411D01*
X20645456Y-69854936D01*
X20646382Y-69852289D01*
X20595499Y-69823795D01*
X20568793Y-69774859D01*
X20566264Y-69775744D01*
X20503788Y-69597201D01*
X20503787Y-69597200D01*
X20495847Y-69584563D01*
X20495846Y-69584563D01*
X20130410Y-69949998D01*
X19871200Y-69949998D01*
X19871200Y-69917508D01*
X19833003Y-69864935D01*
X19787038Y-69850000D01*
X19755362Y-69850000D01*
X19740171Y-69854936D01*
X19709396Y-69864935D01*
X19671200Y-69917507D01*
X19671200Y-69917508D01*
X19671200Y-69982492D01*
X19379498Y-69982492D01*
X19411989Y-69949999D01*
X19411989Y-69949998D01*
X19071201Y-69609210D01*
X19071200Y-69609210D01*
X18730410Y-69949998D01*
X18471200Y-69949998D01*
X18471200Y-69917508D01*
X18433003Y-69864935D01*
X18387038Y-69850000D01*
X18355362Y-69850000D01*
X18340171Y-69854936D01*
X18309396Y-69864935D01*
X18271200Y-69917507D01*
X18271200Y-69917508D01*
X18271200Y-69982492D01*
X17979497Y-69982492D01*
X18011988Y-69949998D01*
X17646552Y-69584563D01*
X17638610Y-69597203D01*
X17576136Y-69775744D01*
X17573491Y-69774818D01*
X17544982Y-69825712D01*
X17496064Y-69852422D01*
X17496944Y-69854936D01*
X17318403Y-69917410D01*
X17305763Y-69925352D01*
X9652500Y-69925352D01*
X9652500Y-69225351D01*
X18005763Y-69225351D01*
X18371199Y-69590788D01*
X18736635Y-69225352D01*
X19405763Y-69225352D01*
X19771199Y-69590789D01*
X19771200Y-69590789D01*
X20136636Y-69225352D01*
X20123997Y-69217411D01*
X19952136Y-69157273D01*
X19952129Y-69157272D01*
X19771200Y-69136887D01*
X19590270Y-69157272D01*
X19590262Y-69157273D01*
X19418403Y-69217410D01*
X19405763Y-69225352D01*
X18736635Y-69225352D01*
X18723997Y-69217411D01*
X18552136Y-69157273D01*
X18552129Y-69157272D01*
X18371200Y-69136887D01*
X18190270Y-69157272D01*
X18190262Y-69157273D01*
X18018403Y-69217410D01*
X18005763Y-69225351D01*
X9652500Y-69225351D01*
X9652500Y-66294000D01*
X12167496Y-66294000D01*
X12187457Y-66483927D01*
X12198389Y-66517571D01*
X12246473Y-66665556D01*
X12246476Y-66665561D01*
X12341958Y-66830941D01*
X12341965Y-66830951D01*
X12469744Y-66972864D01*
X12469747Y-66972866D01*
X12624248Y-67085118D01*
X12798712Y-67162794D01*
X12985513Y-67202500D01*
X13176487Y-67202500D01*
X13363288Y-67162794D01*
X13537752Y-67085118D01*
X13692253Y-66972866D01*
X13740249Y-66919561D01*
X13820034Y-66830951D01*
X13820035Y-66830949D01*
X13820040Y-66830944D01*
X13915527Y-66665556D01*
X13974542Y-66483928D01*
X13991907Y-66318704D01*
X14018920Y-66253049D01*
X14028112Y-66242790D01*
X14576499Y-65694404D01*
X14638812Y-65660379D01*
X14665595Y-65657500D01*
X19743302Y-65657500D01*
X19811423Y-65677502D01*
X19857916Y-65731158D01*
X19868020Y-65801432D01*
X19838526Y-65866012D01*
X19836938Y-65867810D01*
X19707965Y-66011048D01*
X19707958Y-66011058D01*
X19612511Y-66176378D01*
X19612473Y-66176444D01*
X19597999Y-66220986D01*
X19553457Y-66358072D01*
X19533496Y-66548000D01*
X19553457Y-66737927D01*
X19571013Y-66791956D01*
X19612473Y-66919556D01*
X19612476Y-66919561D01*
X19707958Y-67084941D01*
X19707965Y-67084951D01*
X19835744Y-67226864D01*
X19835747Y-67226866D01*
X19990248Y-67339118D01*
X20164712Y-67416794D01*
X20351513Y-67456500D01*
X20407405Y-67456500D01*
X20475526Y-67476502D01*
X20496501Y-67493405D01*
X21273258Y-68270163D01*
X21283220Y-68282597D01*
X21283447Y-68282410D01*
X21288499Y-68288517D01*
X21339579Y-68336484D01*
X21360723Y-68357629D01*
X21360727Y-68357632D01*
X21360730Y-68357635D01*
X21366282Y-68361942D01*
X21370769Y-68365773D01*
X21393459Y-68387081D01*
X21405177Y-68398085D01*
X21405179Y-68398086D01*
X21422928Y-68407843D01*
X21439453Y-68418698D01*
X21455459Y-68431114D01*
X21497186Y-68449170D01*
X21498762Y-68449852D01*
X21504083Y-68452458D01*
X21545440Y-68475195D01*
X21545448Y-68475197D01*
X21565058Y-68480232D01*
X21583767Y-68486637D01*
X21602355Y-68494681D01*
X21648977Y-68502064D01*
X21654762Y-68503263D01*
X21700470Y-68515000D01*
X21720724Y-68515000D01*
X21740434Y-68516551D01*
X21742641Y-68516900D01*
X21760443Y-68519720D01*
X21794370Y-68516512D01*
X21807417Y-68515280D01*
X21813350Y-68515000D01*
X32872906Y-68515000D01*
X32941027Y-68535002D01*
X32962001Y-68551905D01*
X34394753Y-69984657D01*
X34404720Y-69997097D01*
X34404947Y-69996910D01*
X34409999Y-70003017D01*
X34461095Y-70050999D01*
X34482225Y-70072130D01*
X34487768Y-70076430D01*
X34492281Y-70080285D01*
X34526679Y-70112586D01*
X34526680Y-70112586D01*
X34526682Y-70112588D01*
X34544429Y-70122344D01*
X34560959Y-70133202D01*
X34576959Y-70145613D01*
X34599151Y-70155216D01*
X34620251Y-70164347D01*
X34625585Y-70166959D01*
X34666940Y-70189695D01*
X34686562Y-70194733D01*
X34705263Y-70201135D01*
X34717814Y-70206567D01*
X34723852Y-70209180D01*
X34723853Y-70209180D01*
X34723855Y-70209181D01*
X34770477Y-70216564D01*
X34776262Y-70217763D01*
X34821970Y-70229500D01*
X34842224Y-70229500D01*
X34861934Y-70231051D01*
X34864141Y-70231400D01*
X34881943Y-70234220D01*
X34915870Y-70231012D01*
X34928917Y-70229780D01*
X34934850Y-70229500D01*
X60870504Y-70229500D01*
X60938625Y-70249502D01*
X60959598Y-70266404D01*
X61761974Y-71068781D01*
X62530853Y-71837660D01*
X62540818Y-71850097D01*
X62541045Y-71849910D01*
X62546097Y-71856017D01*
X62597177Y-71903984D01*
X62618321Y-71925129D01*
X62618325Y-71925132D01*
X62618328Y-71925135D01*
X62623880Y-71929442D01*
X62628367Y-71933273D01*
X62646179Y-71950000D01*
X62662775Y-71965585D01*
X62662777Y-71965586D01*
X62680526Y-71975343D01*
X62697051Y-71986198D01*
X62713057Y-71998614D01*
X62756368Y-72017355D01*
X62761681Y-72019958D01*
X62771746Y-72025491D01*
X62776468Y-72028088D01*
X62826525Y-72078435D01*
X62841415Y-72147852D01*
X62816412Y-72214300D01*
X62759454Y-72256683D01*
X62715763Y-72264500D01*
X61456396Y-72264500D01*
X61388275Y-72244498D01*
X61341782Y-72190842D01*
X61331678Y-72120568D01*
X61336563Y-72099564D01*
X61345542Y-72071928D01*
X61350106Y-72028500D01*
X61365504Y-71882000D01*
X61345542Y-71692072D01*
X61286527Y-71510444D01*
X61191040Y-71345056D01*
X61191038Y-71345054D01*
X61191034Y-71345048D01*
X61063255Y-71203135D01*
X60908752Y-71090882D01*
X60734288Y-71013206D01*
X60547487Y-70973500D01*
X60356513Y-70973500D01*
X60169711Y-71013206D01*
X59995247Y-71090882D01*
X59840744Y-71203135D01*
X59712965Y-71345048D01*
X59712958Y-71345058D01*
X59617476Y-71510438D01*
X59617473Y-71510445D01*
X59558457Y-71692072D01*
X59538496Y-71882000D01*
X59558457Y-72071928D01*
X59567437Y-72099564D01*
X59569465Y-72170531D01*
X59532802Y-72231329D01*
X59469090Y-72262655D01*
X59447604Y-72264500D01*
X39430595Y-72264500D01*
X39362474Y-72244498D01*
X39341500Y-72227595D01*
X39115244Y-72001339D01*
X39105279Y-71988901D01*
X39105052Y-71989090D01*
X39100001Y-71982984D01*
X39100000Y-71982982D01*
X39064877Y-71950000D01*
X39048921Y-71935016D01*
X39027777Y-71913871D01*
X39027772Y-71913866D01*
X39022225Y-71909563D01*
X39017717Y-71905712D01*
X38983325Y-71873417D01*
X38983319Y-71873413D01*
X38965563Y-71863651D01*
X38949047Y-71852802D01*
X38933041Y-71840386D01*
X38902289Y-71827078D01*
X38889740Y-71821648D01*
X38884408Y-71819036D01*
X38843061Y-71796305D01*
X38823436Y-71791266D01*
X38804736Y-71784864D01*
X38786145Y-71776819D01*
X38786143Y-71776818D01*
X38786142Y-71776818D01*
X38739542Y-71769437D01*
X38733729Y-71768233D01*
X38688030Y-71756500D01*
X38667776Y-71756500D01*
X38648066Y-71754949D01*
X38628057Y-71751780D01*
X38628056Y-71751780D01*
X38581083Y-71756220D01*
X38575150Y-71756500D01*
X33770396Y-71756500D01*
X33702275Y-71736498D01*
X33655782Y-71682842D01*
X33645678Y-71612568D01*
X33650563Y-71591564D01*
X33659542Y-71563928D01*
X33667148Y-71491561D01*
X33679504Y-71374000D01*
X33659542Y-71184072D01*
X33600527Y-71002444D01*
X33505040Y-70837056D01*
X33505038Y-70837054D01*
X33505034Y-70837048D01*
X33377255Y-70695135D01*
X33222752Y-70582882D01*
X33048288Y-70505206D01*
X32861487Y-70465500D01*
X32670513Y-70465500D01*
X32483711Y-70505206D01*
X32309247Y-70582882D01*
X32154744Y-70695135D01*
X32026965Y-70837048D01*
X32026958Y-70837058D01*
X31931476Y-71002438D01*
X31931473Y-71002444D01*
X31931358Y-71002799D01*
X31872457Y-71184072D01*
X31852496Y-71374000D01*
X31872457Y-71563928D01*
X31881437Y-71591564D01*
X31883465Y-71662531D01*
X31846802Y-71723329D01*
X31783090Y-71754655D01*
X31761604Y-71756500D01*
X25540687Y-71756500D01*
X25472566Y-71736498D01*
X25431568Y-71693501D01*
X25430002Y-71690789D01*
X25377040Y-71599056D01*
X25377036Y-71599051D01*
X25377034Y-71599048D01*
X25249255Y-71457135D01*
X25094752Y-71344882D01*
X24920288Y-71267206D01*
X24733487Y-71227500D01*
X24542513Y-71227500D01*
X24355711Y-71267206D01*
X24181247Y-71344882D01*
X24026744Y-71457135D01*
X23898965Y-71599048D01*
X23898958Y-71599058D01*
X23808221Y-71756220D01*
X23803473Y-71764444D01*
X23799452Y-71776819D01*
X23744457Y-71946072D01*
X23724496Y-72136000D01*
X23744457Y-72325927D01*
X23765532Y-72390788D01*
X23803473Y-72507556D01*
X23803476Y-72507561D01*
X23898958Y-72672941D01*
X23898965Y-72672951D01*
X23966260Y-72747689D01*
X23996977Y-72811696D01*
X23988213Y-72882150D01*
X23942750Y-72936681D01*
X23875023Y-72957976D01*
X23872624Y-72957999D01*
X20956972Y-72957999D01*
X20888851Y-72937997D01*
X20842358Y-72884341D01*
X20831764Y-72817893D01*
X20836636Y-72774646D01*
X20471200Y-72409210D01*
X20410390Y-72470021D01*
X20088086Y-72792326D01*
X20088077Y-72792330D01*
X20086295Y-72794113D01*
X20023983Y-72828139D01*
X20015072Y-72827501D01*
X19998990Y-72829231D01*
X19998987Y-72829231D01*
X19998987Y-72826351D01*
X19953168Y-72823074D01*
X19896332Y-72780527D01*
X19879631Y-72735752D01*
X19877367Y-72736488D01*
X19871200Y-72717510D01*
X19871200Y-72717508D01*
X19833003Y-72664935D01*
X19787038Y-72650000D01*
X19755362Y-72650000D01*
X19732379Y-72657467D01*
X19709396Y-72664935D01*
X19671200Y-72717507D01*
X19665033Y-72736488D01*
X19662227Y-72735576D01*
X19651198Y-72773140D01*
X19597542Y-72819633D01*
X19527268Y-72829737D01*
X19462688Y-72800243D01*
X19456105Y-72794114D01*
X19431702Y-72769711D01*
X19431687Y-72769699D01*
X19132010Y-72470021D01*
X19071200Y-72409210D01*
X19010390Y-72470021D01*
X18688086Y-72792326D01*
X18688077Y-72792330D01*
X18686295Y-72794113D01*
X18623983Y-72828139D01*
X18615072Y-72827501D01*
X18598990Y-72829231D01*
X18598987Y-72829231D01*
X18598987Y-72826351D01*
X18553168Y-72823074D01*
X18496332Y-72780527D01*
X18479631Y-72735752D01*
X18477367Y-72736488D01*
X18471200Y-72717510D01*
X18471200Y-72717508D01*
X18433003Y-72664935D01*
X18387038Y-72650000D01*
X18355362Y-72650000D01*
X18332379Y-72657467D01*
X18309396Y-72664935D01*
X18271200Y-72717507D01*
X18265033Y-72736488D01*
X18262227Y-72735576D01*
X18251198Y-72773140D01*
X18197542Y-72819633D01*
X18127268Y-72829737D01*
X18062688Y-72800243D01*
X18056105Y-72794114D01*
X18031698Y-72769707D01*
X18031688Y-72769699D01*
X17732009Y-72470021D01*
X17671199Y-72409210D01*
X17305763Y-72774646D01*
X17310636Y-72817891D01*
X17298387Y-72887823D01*
X17250275Y-72940031D01*
X17185428Y-72957999D01*
X16916354Y-72957999D01*
X16900512Y-72956249D01*
X16900485Y-72956543D01*
X16892593Y-72955797D01*
X16892592Y-72955797D01*
X16822543Y-72957999D01*
X16792645Y-72957999D01*
X16792641Y-72957999D01*
X16792631Y-72958000D01*
X16785680Y-72958878D01*
X16779768Y-72959343D01*
X16732613Y-72960825D01*
X16732611Y-72960826D01*
X16713156Y-72966477D01*
X16693803Y-72970485D01*
X16673711Y-72973023D01*
X16673703Y-72973025D01*
X16629837Y-72990392D01*
X16624222Y-72992315D01*
X16578908Y-73005481D01*
X16578903Y-73005483D01*
X16561464Y-73015796D01*
X16543719Y-73024489D01*
X16524881Y-73031948D01*
X16502779Y-73048006D01*
X16486713Y-73059679D01*
X16481762Y-73062932D01*
X16441141Y-73086954D01*
X16426808Y-73101286D01*
X16411782Y-73114119D01*
X16395396Y-73126025D01*
X16395395Y-73126025D01*
X16365319Y-73162379D01*
X16361323Y-73166770D01*
X14527498Y-75000596D01*
X14465188Y-75034620D01*
X14438405Y-75037500D01*
X14382513Y-75037500D01*
X14195711Y-75077206D01*
X14021247Y-75154882D01*
X13866744Y-75267135D01*
X13738965Y-75409048D01*
X13738958Y-75409058D01*
X13643476Y-75574438D01*
X13643473Y-75574445D01*
X13584457Y-75756072D01*
X13564496Y-75946000D01*
X13584457Y-76135927D01*
X13605276Y-76199999D01*
X13643473Y-76317556D01*
X13643476Y-76317561D01*
X13738958Y-76482941D01*
X13738965Y-76482951D01*
X13866744Y-76624864D01*
X13866747Y-76624866D01*
X14021248Y-76737118D01*
X14195712Y-76814794D01*
X14382513Y-76854500D01*
X14573487Y-76854500D01*
X14760288Y-76814794D01*
X14934752Y-76737118D01*
X15089253Y-76624866D01*
X15137249Y-76571561D01*
X15217034Y-76482951D01*
X15217035Y-76482949D01*
X15217040Y-76482944D01*
X15312527Y-76317556D01*
X15371542Y-76135928D01*
X15388907Y-75970703D01*
X15415920Y-75905048D01*
X15425104Y-75894798D01*
X17058002Y-74261901D01*
X17120312Y-74227878D01*
X17147095Y-74224999D01*
X21806107Y-74224999D01*
X21874228Y-74245001D01*
X21920721Y-74298657D01*
X21930825Y-74368931D01*
X21901331Y-74433511D01*
X21895218Y-74440077D01*
X21080697Y-75254597D01*
X21018388Y-75288621D01*
X20991605Y-75291500D01*
X20935713Y-75291500D01*
X20748911Y-75331206D01*
X20574447Y-75408882D01*
X20419944Y-75521135D01*
X20292165Y-75663048D01*
X20292158Y-75663058D01*
X20196676Y-75828438D01*
X20196673Y-75828445D01*
X20137657Y-76010072D01*
X20117696Y-76200000D01*
X20137657Y-76389927D01*
X20167726Y-76482470D01*
X20196673Y-76571556D01*
X20196676Y-76571561D01*
X20292158Y-76736941D01*
X20292165Y-76736951D01*
X20419944Y-76878864D01*
X20419947Y-76878866D01*
X20574448Y-76991118D01*
X20748912Y-77068794D01*
X20935713Y-77108500D01*
X21126687Y-77108500D01*
X21313488Y-77068794D01*
X21487952Y-76991118D01*
X21642453Y-76878866D01*
X21742966Y-76767235D01*
X21770234Y-76736951D01*
X21770235Y-76736949D01*
X21770240Y-76736944D01*
X21865727Y-76571556D01*
X21924742Y-76389928D01*
X21942107Y-76224704D01*
X21969120Y-76159049D01*
X21978304Y-76148799D01*
X23415702Y-74711402D01*
X23478012Y-74677379D01*
X23504795Y-74674500D01*
X31277723Y-74674500D01*
X31345844Y-74694502D01*
X31392337Y-74748158D01*
X31402441Y-74818432D01*
X31397557Y-74839430D01*
X31383397Y-74883012D01*
X31339057Y-75019472D01*
X31319096Y-75209400D01*
X31339057Y-75399328D01*
X31339784Y-75401564D01*
X31339823Y-75402929D01*
X31340430Y-75405785D01*
X31339907Y-75405896D01*
X31341811Y-75472532D01*
X31305149Y-75533330D01*
X31241437Y-75564655D01*
X31219951Y-75566500D01*
X26702648Y-75566500D01*
X26634527Y-75546498D01*
X26628587Y-75542436D01*
X26567952Y-75498382D01*
X26393488Y-75420706D01*
X26206687Y-75381000D01*
X26015713Y-75381000D01*
X25828911Y-75420706D01*
X25654447Y-75498382D01*
X25499944Y-75610635D01*
X25367897Y-75757289D01*
X25307451Y-75794529D01*
X25236467Y-75793177D01*
X25177483Y-75753664D01*
X25165142Y-75735979D01*
X25156561Y-75721117D01*
X25123040Y-75663056D01*
X25123038Y-75663054D01*
X25123034Y-75663048D01*
X24995255Y-75521135D01*
X24840752Y-75408882D01*
X24666288Y-75331206D01*
X24479487Y-75291500D01*
X24288513Y-75291500D01*
X24101711Y-75331206D01*
X23927247Y-75408882D01*
X23772744Y-75521135D01*
X23644965Y-75663048D01*
X23644958Y-75663058D01*
X23549476Y-75828438D01*
X23549473Y-75828445D01*
X23490457Y-76010072D01*
X23470496Y-76199999D01*
X23490457Y-76389927D01*
X23520526Y-76482470D01*
X23549473Y-76571556D01*
X23549476Y-76571561D01*
X23644958Y-76736941D01*
X23644965Y-76736951D01*
X23772744Y-76878864D01*
X23772747Y-76878866D01*
X23927248Y-76991118D01*
X24101712Y-77068794D01*
X24288513Y-77108500D01*
X24344405Y-77108500D01*
X24412526Y-77128502D01*
X24433500Y-77145404D01*
X24741652Y-77453557D01*
X25019758Y-77731663D01*
X25029720Y-77744097D01*
X25029947Y-77743910D01*
X25034999Y-77750017D01*
X25086079Y-77797984D01*
X25107223Y-77819129D01*
X25107227Y-77819132D01*
X25107230Y-77819135D01*
X25112782Y-77823442D01*
X25117269Y-77827273D01*
X25138852Y-77847541D01*
X25151677Y-77859585D01*
X25151679Y-77859586D01*
X25169428Y-77869343D01*
X25185953Y-77880198D01*
X25201959Y-77892614D01*
X25242149Y-77910005D01*
X25245262Y-77911352D01*
X25250583Y-77913958D01*
X25291940Y-77936695D01*
X25291948Y-77936697D01*
X25311558Y-77941732D01*
X25330267Y-77948137D01*
X25348855Y-77956181D01*
X25395477Y-77963564D01*
X25401262Y-77964763D01*
X25446970Y-77976500D01*
X25467224Y-77976500D01*
X25486934Y-77978051D01*
X25489141Y-77978400D01*
X25506943Y-77981220D01*
X25541472Y-77977956D01*
X25553917Y-77976780D01*
X25559850Y-77976500D01*
X28999147Y-77976500D01*
X29014988Y-77978249D01*
X29015016Y-77977956D01*
X29022902Y-77978700D01*
X29022909Y-77978702D01*
X29092958Y-77976500D01*
X29122856Y-77976500D01*
X29129818Y-77975619D01*
X29135719Y-77975154D01*
X29182889Y-77973673D01*
X29202347Y-77968019D01*
X29221694Y-77964013D01*
X29241797Y-77961474D01*
X29285679Y-77944099D01*
X29291274Y-77942183D01*
X29319816Y-77933891D01*
X29336591Y-77929019D01*
X29336595Y-77929017D01*
X29354026Y-77918708D01*
X29371780Y-77910009D01*
X29390617Y-77902552D01*
X29428786Y-77874818D01*
X29433744Y-77871562D01*
X29474362Y-77847542D01*
X29488685Y-77833218D01*
X29503724Y-77820374D01*
X29520107Y-77808472D01*
X29550188Y-77772108D01*
X29554167Y-77767735D01*
X29726499Y-77595404D01*
X29788812Y-77561379D01*
X29815595Y-77558500D01*
X32943030Y-77558500D01*
X33011151Y-77578502D01*
X33057644Y-77632158D01*
X33067748Y-77702432D01*
X33038254Y-77767012D01*
X32994279Y-77799607D01*
X32944247Y-77821882D01*
X32789744Y-77934135D01*
X32661965Y-78076048D01*
X32661958Y-78076058D01*
X32566476Y-78241438D01*
X32566473Y-78241445D01*
X32507457Y-78423072D01*
X32487496Y-78613000D01*
X32507457Y-78802927D01*
X32521940Y-78847500D01*
X32566473Y-78984556D01*
X32566476Y-78984561D01*
X32661958Y-79149941D01*
X32661965Y-79149951D01*
X32789744Y-79291864D01*
X32789747Y-79291866D01*
X32944248Y-79404118D01*
X33118712Y-79481794D01*
X33305513Y-79521500D01*
X33496487Y-79521500D01*
X33683288Y-79481794D01*
X33857752Y-79404118D01*
X34012253Y-79291866D01*
X34077810Y-79219058D01*
X34140034Y-79149951D01*
X34140035Y-79149949D01*
X34140040Y-79149944D01*
X34235527Y-78984556D01*
X34294542Y-78802928D01*
X34314504Y-78613000D01*
X34294542Y-78423072D01*
X34235527Y-78241444D01*
X34140040Y-78076056D01*
X34140038Y-78076054D01*
X34140034Y-78076048D01*
X34012255Y-77934135D01*
X33857752Y-77821882D01*
X33827639Y-77808475D01*
X33807720Y-77799606D01*
X33753625Y-77753627D01*
X33732976Y-77685699D01*
X33752329Y-77617391D01*
X33805539Y-77570390D01*
X33858970Y-77558500D01*
X43260147Y-77558500D01*
X43275988Y-77560249D01*
X43276016Y-77559956D01*
X43283902Y-77560700D01*
X43283909Y-77560702D01*
X43353958Y-77558500D01*
X43383856Y-77558500D01*
X43390818Y-77557619D01*
X43396719Y-77557154D01*
X43443889Y-77555673D01*
X43463347Y-77550019D01*
X43482694Y-77546013D01*
X43502797Y-77543474D01*
X43546679Y-77526099D01*
X43552274Y-77524183D01*
X43583955Y-77514980D01*
X43597591Y-77511019D01*
X43597595Y-77511017D01*
X43615026Y-77500708D01*
X43632780Y-77492009D01*
X43651617Y-77484552D01*
X43689786Y-77456818D01*
X43694744Y-77453562D01*
X43735362Y-77429542D01*
X43749685Y-77415218D01*
X43764724Y-77402374D01*
X43771433Y-77397500D01*
X43781107Y-77390472D01*
X43811188Y-77354108D01*
X43815166Y-77349736D01*
X44262138Y-76902765D01*
X153085788Y-76902765D01*
X153115412Y-77172014D01*
X153183928Y-77434090D01*
X153289869Y-77683389D01*
X153300347Y-77700557D01*
X153430982Y-77914610D01*
X153604255Y-78122820D01*
X153604257Y-78122822D01*
X153604259Y-78122824D01*
X153709236Y-78216883D01*
X153805998Y-78303582D01*
X154031910Y-78453044D01*
X154277176Y-78568020D01*
X154536569Y-78646060D01*
X154536572Y-78646060D01*
X154536574Y-78646061D01*
X154804557Y-78685500D01*
X154804561Y-78685500D01*
X155007633Y-78685500D01*
X155042363Y-78682957D01*
X155210156Y-78670677D01*
X155210160Y-78670676D01*
X155210161Y-78670676D01*
X155320665Y-78646060D01*
X155474553Y-78611780D01*
X155727558Y-78515014D01*
X155963777Y-78382441D01*
X156178177Y-78216888D01*
X156366186Y-78021881D01*
X156523799Y-77801579D01*
X156525648Y-77797984D01*
X156647656Y-77560675D01*
X156647657Y-77560672D01*
X156668114Y-77500708D01*
X156735118Y-77304305D01*
X156784319Y-77037933D01*
X156794212Y-76767235D01*
X156772682Y-76571561D01*
X156764587Y-76497985D01*
X156717418Y-76317561D01*
X156696072Y-76235912D01*
X156653583Y-76135928D01*
X156590130Y-75986610D01*
X156590130Y-75986609D01*
X156449018Y-75755390D01*
X156275745Y-75547180D01*
X156275741Y-75547177D01*
X156275740Y-75547175D01*
X156074012Y-75366427D01*
X156074002Y-75366418D01*
X155848090Y-75216956D01*
X155602824Y-75101980D01*
X155445392Y-75054615D01*
X155343425Y-75023938D01*
X155075442Y-74984500D01*
X155075439Y-74984500D01*
X154872369Y-74984500D01*
X154872367Y-74984500D01*
X154669839Y-74999323D01*
X154669838Y-74999323D01*
X154405456Y-75058217D01*
X154405441Y-75058222D01*
X154152441Y-75154986D01*
X153916229Y-75287555D01*
X153916225Y-75287557D01*
X153701818Y-75453116D01*
X153513815Y-75648117D01*
X153513810Y-75648123D01*
X153356203Y-75868417D01*
X153356196Y-75868427D01*
X153232343Y-76109324D01*
X153232342Y-76109327D01*
X153144883Y-76365689D01*
X153144880Y-76365702D01*
X153095681Y-76632058D01*
X153095680Y-76632069D01*
X153085788Y-76902765D01*
X44262138Y-76902765D01*
X45564500Y-75600404D01*
X45626813Y-75566379D01*
X45653596Y-75563500D01*
X71681800Y-75563500D01*
X71749921Y-75583502D01*
X71775437Y-75605190D01*
X71778747Y-75608866D01*
X71933248Y-75721118D01*
X72107712Y-75798794D01*
X72294513Y-75838500D01*
X72485487Y-75838500D01*
X72672288Y-75798794D01*
X72846752Y-75721118D01*
X73001253Y-75608866D01*
X73032252Y-75574438D01*
X73129034Y-75466951D01*
X73129035Y-75466949D01*
X73129040Y-75466944D01*
X73224527Y-75301556D01*
X73283542Y-75119928D01*
X73303504Y-74930000D01*
X73291277Y-74813669D01*
X73304049Y-74743832D01*
X73352551Y-74691985D01*
X73416587Y-74674500D01*
X159946800Y-74674500D01*
X160014921Y-74694502D01*
X160040437Y-74716190D01*
X160043747Y-74719866D01*
X160198248Y-74832118D01*
X160372712Y-74909794D01*
X160559513Y-74949500D01*
X160750487Y-74949500D01*
X160937288Y-74909794D01*
X161111752Y-74832118D01*
X161266253Y-74719866D01*
X161273872Y-74711404D01*
X161394034Y-74577951D01*
X161394035Y-74577949D01*
X161394040Y-74577944D01*
X161489527Y-74412556D01*
X161548542Y-74230928D01*
X161568504Y-74041000D01*
X161548542Y-73851072D01*
X161489527Y-73669444D01*
X161394040Y-73504056D01*
X161394038Y-73504054D01*
X161394034Y-73504048D01*
X161266257Y-73362137D01*
X161227312Y-73333842D01*
X161208089Y-73319875D01*
X161164737Y-73263653D01*
X161158662Y-73192917D01*
X161191794Y-73130125D01*
X161192909Y-73128993D01*
X163272502Y-71049402D01*
X163334812Y-71015379D01*
X163361595Y-71012500D01*
X163417487Y-71012500D01*
X163604288Y-70972794D01*
X163778752Y-70895118D01*
X163933253Y-70782866D01*
X163990308Y-70719500D01*
X164061034Y-70640951D01*
X164061035Y-70640949D01*
X164061040Y-70640944D01*
X164156527Y-70475556D01*
X164215542Y-70293928D01*
X164235504Y-70104000D01*
X164215542Y-69914072D01*
X164156527Y-69732444D01*
X164061040Y-69567056D01*
X164061038Y-69567054D01*
X164061034Y-69567048D01*
X163933255Y-69425135D01*
X163778752Y-69312882D01*
X163604288Y-69235206D01*
X163417487Y-69195500D01*
X163226513Y-69195500D01*
X163039711Y-69235206D01*
X162865247Y-69312882D01*
X162710744Y-69425135D01*
X162582965Y-69567048D01*
X162582958Y-69567058D01*
X162487476Y-69732438D01*
X162487473Y-69732445D01*
X162428457Y-69914072D01*
X162411092Y-70079292D01*
X162384079Y-70144949D01*
X162374877Y-70155216D01*
X159921500Y-72608595D01*
X159859188Y-72642620D01*
X159832405Y-72645500D01*
X97814952Y-72645500D01*
X97746831Y-72625498D01*
X97700338Y-72571842D01*
X97690234Y-72501568D01*
X97719728Y-72436988D01*
X97740891Y-72417564D01*
X97839205Y-72346134D01*
X97893253Y-72306866D01*
X97907528Y-72291012D01*
X98021034Y-72164951D01*
X98021035Y-72164949D01*
X98021040Y-72164944D01*
X98116527Y-71999556D01*
X98175542Y-71817928D01*
X98195504Y-71628000D01*
X98175542Y-71438072D01*
X98116527Y-71256444D01*
X98037751Y-71120000D01*
X123546496Y-71120000D01*
X123566457Y-71309927D01*
X123587276Y-71374000D01*
X123625473Y-71491556D01*
X123625476Y-71491561D01*
X123720958Y-71656941D01*
X123720965Y-71656951D01*
X123848744Y-71798864D01*
X123902142Y-71837660D01*
X124003248Y-71911118D01*
X124177712Y-71988794D01*
X124364513Y-72028500D01*
X124555487Y-72028500D01*
X124742288Y-71988794D01*
X124916752Y-71911118D01*
X125071253Y-71798866D01*
X125080316Y-71788801D01*
X125199034Y-71656951D01*
X125199035Y-71656949D01*
X125199040Y-71656944D01*
X125294527Y-71491556D01*
X125353542Y-71309928D01*
X125373504Y-71120000D01*
X125353542Y-70930072D01*
X125294527Y-70748444D01*
X125199040Y-70583056D01*
X125199038Y-70583054D01*
X125199034Y-70583048D01*
X125071255Y-70441135D01*
X124916752Y-70328882D01*
X124742288Y-70251206D01*
X124555487Y-70211500D01*
X124364513Y-70211500D01*
X124177711Y-70251206D01*
X124003247Y-70328882D01*
X123848744Y-70441135D01*
X123720965Y-70583048D01*
X123720958Y-70583058D01*
X123625476Y-70748438D01*
X123625473Y-70748444D01*
X123621976Y-70759206D01*
X123566457Y-70930072D01*
X123546496Y-71120000D01*
X98037751Y-71120000D01*
X98021040Y-71091056D01*
X98021038Y-71091054D01*
X98021034Y-71091048D01*
X97893255Y-70949135D01*
X97738752Y-70836882D01*
X97564288Y-70759206D01*
X97377487Y-70719500D01*
X97186513Y-70719500D01*
X96999709Y-70759206D01*
X96897738Y-70804607D01*
X96846490Y-70815500D01*
X89491155Y-70815500D01*
X89423034Y-70795498D01*
X89376541Y-70741842D01*
X89365845Y-70676332D01*
X89372607Y-70612000D01*
X89352645Y-70422072D01*
X89293630Y-70240444D01*
X89198143Y-70075056D01*
X89198141Y-70075054D01*
X89198137Y-70075048D01*
X89070358Y-69933135D01*
X88915855Y-69820882D01*
X88741391Y-69743206D01*
X88554590Y-69703500D01*
X88363616Y-69703500D01*
X88176814Y-69743206D01*
X88002350Y-69820882D01*
X87847850Y-69933133D01*
X87844540Y-69936810D01*
X87784094Y-69974050D01*
X87750903Y-69978500D01*
X69457396Y-69978500D01*
X69389275Y-69958498D01*
X69342782Y-69904842D01*
X69332678Y-69834568D01*
X69337563Y-69813564D01*
X69346542Y-69785928D01*
X69355205Y-69703500D01*
X69366504Y-69596000D01*
X69346542Y-69406072D01*
X69287527Y-69224444D01*
X69213423Y-69096092D01*
X69198357Y-69069997D01*
X69181619Y-69001002D01*
X69204839Y-68933910D01*
X69260646Y-68890023D01*
X69307476Y-68880997D01*
X126352903Y-68880997D01*
X126421024Y-68900999D01*
X126441998Y-68917902D01*
X128592877Y-71068781D01*
X128626903Y-71131093D01*
X128629092Y-71144705D01*
X128646457Y-71309927D01*
X128667276Y-71374000D01*
X128705473Y-71491556D01*
X128705476Y-71491561D01*
X128800958Y-71656941D01*
X128800965Y-71656951D01*
X128928744Y-71798864D01*
X128982142Y-71837660D01*
X129083248Y-71911118D01*
X129257712Y-71988794D01*
X129444513Y-72028500D01*
X129635487Y-72028500D01*
X129822288Y-71988794D01*
X129996752Y-71911118D01*
X130151253Y-71798866D01*
X130160316Y-71788801D01*
X130279034Y-71656951D01*
X130279035Y-71656949D01*
X130279040Y-71656944D01*
X130374527Y-71491556D01*
X130433542Y-71309928D01*
X130453504Y-71120000D01*
X130433542Y-70930072D01*
X130374527Y-70748444D01*
X130279040Y-70583056D01*
X130279038Y-70583054D01*
X130279034Y-70583048D01*
X130151255Y-70441135D01*
X129996752Y-70328882D01*
X129822288Y-70251206D01*
X129635487Y-70211500D01*
X129579594Y-70211500D01*
X129511473Y-70191498D01*
X129490499Y-70174595D01*
X128340833Y-69024929D01*
X127174741Y-67858836D01*
X127164776Y-67846398D01*
X127164549Y-67846587D01*
X127159498Y-67840481D01*
X127159497Y-67840479D01*
X127108418Y-67792513D01*
X127087274Y-67771368D01*
X127087269Y-67771363D01*
X127081722Y-67767060D01*
X127077214Y-67763209D01*
X127042822Y-67730914D01*
X127042816Y-67730910D01*
X127025060Y-67721148D01*
X127008544Y-67710299D01*
X126992538Y-67697883D01*
X126961786Y-67684575D01*
X126949237Y-67679145D01*
X126943905Y-67676533D01*
X126902558Y-67653802D01*
X126882933Y-67648763D01*
X126864233Y-67642361D01*
X126845642Y-67634316D01*
X126845640Y-67634315D01*
X126845639Y-67634315D01*
X126799039Y-67626934D01*
X126793226Y-67625730D01*
X126747527Y-67613997D01*
X126727273Y-67613997D01*
X126707563Y-67612446D01*
X126687554Y-67609277D01*
X126687553Y-67609277D01*
X126640580Y-67613717D01*
X126634647Y-67613997D01*
X57792097Y-67613997D01*
X57723976Y-67593995D01*
X57677483Y-67540339D01*
X57667379Y-67470065D01*
X57696873Y-67405485D01*
X57703002Y-67398902D01*
X59026499Y-66075405D01*
X59088811Y-66041379D01*
X59115594Y-66038500D01*
X122481800Y-66038500D01*
X122549921Y-66058502D01*
X122575437Y-66080190D01*
X122578747Y-66083866D01*
X122733248Y-66196118D01*
X122907712Y-66273794D01*
X123094513Y-66313500D01*
X123285487Y-66313500D01*
X123472288Y-66273794D01*
X123646752Y-66196118D01*
X123801253Y-66083866D01*
X123804563Y-66080190D01*
X123929034Y-65941951D01*
X123929035Y-65941949D01*
X123929040Y-65941944D01*
X124024527Y-65776556D01*
X124083542Y-65594928D01*
X124103504Y-65405000D01*
X124083542Y-65215072D01*
X124024527Y-65033444D01*
X123929040Y-64868056D01*
X123929038Y-64868054D01*
X123929034Y-64868048D01*
X123801255Y-64726135D01*
X123646752Y-64613882D01*
X123472288Y-64536206D01*
X123285487Y-64496500D01*
X123094513Y-64496500D01*
X122907711Y-64536206D01*
X122733247Y-64613882D01*
X122578747Y-64726133D01*
X122575437Y-64729810D01*
X122514991Y-64767050D01*
X122481800Y-64771500D01*
X58884849Y-64771500D01*
X58869010Y-64769751D01*
X58868983Y-64770045D01*
X58861091Y-64769299D01*
X58791060Y-64771500D01*
X58761144Y-64771500D01*
X58754172Y-64772379D01*
X58748265Y-64772844D01*
X58701110Y-64774326D01*
X58701105Y-64774327D01*
X58681660Y-64779977D01*
X58662302Y-64783986D01*
X58642207Y-64786524D01*
X58642205Y-64786525D01*
X58598324Y-64803897D01*
X58592709Y-64805819D01*
X58547410Y-64818980D01*
X58547404Y-64818982D01*
X58529966Y-64829295D01*
X58512220Y-64837989D01*
X58493381Y-64845448D01*
X58493380Y-64845449D01*
X58455213Y-64873178D01*
X58450252Y-64876437D01*
X58409637Y-64900458D01*
X58395307Y-64914787D01*
X58380281Y-64927620D01*
X58363895Y-64939526D01*
X58363894Y-64939526D01*
X58333818Y-64975880D01*
X58329823Y-64980271D01*
X56439614Y-66870480D01*
X56416141Y-66883297D01*
X56410284Y-66898341D01*
X56399600Y-66910494D01*
X56182502Y-67127592D01*
X56120193Y-67161616D01*
X56093409Y-67164496D01*
X55904164Y-67164496D01*
X55836043Y-67144494D01*
X55789550Y-67090838D01*
X55779446Y-67020564D01*
X55808940Y-66955984D01*
X55868666Y-66917600D01*
X55877967Y-66915250D01*
X55908283Y-66908805D01*
X55908282Y-66908805D01*
X55908288Y-66908804D01*
X56082752Y-66831128D01*
X56236444Y-66719463D01*
X56242567Y-66717278D01*
X56256880Y-66697077D01*
X56365040Y-66576954D01*
X56460527Y-66411566D01*
X56519542Y-66229938D01*
X56539504Y-66040010D01*
X56519542Y-65850082D01*
X56460527Y-65668454D01*
X56365040Y-65503066D01*
X56365038Y-65503064D01*
X56365034Y-65503058D01*
X56237255Y-65361145D01*
X56082752Y-65248892D01*
X55908288Y-65171216D01*
X55721487Y-65131510D01*
X55530513Y-65131510D01*
X55343711Y-65171216D01*
X55169247Y-65248892D01*
X55014744Y-65361145D01*
X54886965Y-65503058D01*
X54886958Y-65503068D01*
X54791478Y-65668445D01*
X54791473Y-65668454D01*
X54784375Y-65690300D01*
X54732457Y-65850082D01*
X54712496Y-66040010D01*
X54732457Y-66229937D01*
X54748098Y-66278073D01*
X54791473Y-66411566D01*
X54791476Y-66411571D01*
X54886958Y-66576951D01*
X54886965Y-66576961D01*
X55014744Y-66718874D01*
X55014747Y-66718876D01*
X55169248Y-66831128D01*
X55343712Y-66908804D01*
X55343715Y-66908804D01*
X55343716Y-66908805D01*
X55374033Y-66915250D01*
X55436507Y-66948978D01*
X55470828Y-67011128D01*
X55466100Y-67081967D01*
X55423824Y-67139004D01*
X55357422Y-67164131D01*
X55347836Y-67164496D01*
X53804500Y-67164496D01*
X53736379Y-67144494D01*
X53689886Y-67090838D01*
X53678500Y-67038496D01*
X53678500Y-64891367D01*
X53678499Y-64891350D01*
X53671990Y-64830803D01*
X53671988Y-64830795D01*
X53632951Y-64726135D01*
X53620889Y-64693796D01*
X53620888Y-64693794D01*
X53620887Y-64693792D01*
X53533261Y-64576738D01*
X53416207Y-64489112D01*
X53416202Y-64489110D01*
X53279204Y-64438011D01*
X53279196Y-64438009D01*
X53218649Y-64431500D01*
X53218638Y-64431500D01*
X50921362Y-64431500D01*
X50921350Y-64431500D01*
X50860803Y-64438009D01*
X50860795Y-64438011D01*
X50723797Y-64489110D01*
X50723792Y-64489112D01*
X50606738Y-64576738D01*
X50519112Y-64693792D01*
X50519110Y-64693797D01*
X50468011Y-64830795D01*
X50468009Y-64830803D01*
X50461500Y-64891350D01*
X50461500Y-65388563D01*
X50441498Y-65456684D01*
X50387842Y-65503177D01*
X50317568Y-65513281D01*
X50252988Y-65483787D01*
X50241864Y-65472873D01*
X50141255Y-65361135D01*
X49986752Y-65248882D01*
X49812288Y-65171206D01*
X49625487Y-65131500D01*
X49434513Y-65131500D01*
X49247711Y-65171206D01*
X49073247Y-65248882D01*
X48918744Y-65361135D01*
X48790965Y-65503048D01*
X48790958Y-65503058D01*
X48701778Y-65657523D01*
X48695473Y-65668444D01*
X48680999Y-65712986D01*
X48636457Y-65850072D01*
X48616496Y-66040000D01*
X48636457Y-66229927D01*
X48650711Y-66273794D01*
X48695473Y-66411556D01*
X48695476Y-66411561D01*
X48790958Y-66576941D01*
X48790965Y-66576951D01*
X48918744Y-66718864D01*
X48918747Y-66718866D01*
X49073248Y-66831118D01*
X49247712Y-66908794D01*
X49247715Y-66908794D01*
X49247716Y-66908795D01*
X49278080Y-66915250D01*
X49340554Y-66948978D01*
X49374875Y-67011128D01*
X49370147Y-67081967D01*
X49327871Y-67139004D01*
X49261469Y-67164131D01*
X49251883Y-67164496D01*
X37632590Y-67164496D01*
X37564469Y-67144494D01*
X37543495Y-67127591D01*
X36301340Y-65885436D01*
X35051244Y-64635339D01*
X35041279Y-64622901D01*
X35041052Y-64623090D01*
X35036001Y-64616984D01*
X35036000Y-64616982D01*
X34984921Y-64569016D01*
X34974431Y-64558526D01*
X34963777Y-64547871D01*
X34963772Y-64547866D01*
X34958225Y-64543563D01*
X34953717Y-64539712D01*
X34919325Y-64507417D01*
X34919319Y-64507413D01*
X34901563Y-64497651D01*
X34885047Y-64486802D01*
X34869041Y-64474386D01*
X34838289Y-64461078D01*
X34825740Y-64455648D01*
X34820408Y-64453036D01*
X34779061Y-64430305D01*
X34759436Y-64425266D01*
X34740736Y-64418864D01*
X34722145Y-64410819D01*
X34722143Y-64410818D01*
X34722142Y-64410818D01*
X34675542Y-64403437D01*
X34669729Y-64402233D01*
X34624030Y-64390500D01*
X34603776Y-64390500D01*
X34584066Y-64388949D01*
X34564057Y-64385780D01*
X34564056Y-64385780D01*
X34517083Y-64390220D01*
X34511150Y-64390500D01*
X26854006Y-64390500D01*
X26785885Y-64370498D01*
X26739392Y-64316842D01*
X26729288Y-64246568D01*
X26758782Y-64181988D01*
X26818508Y-64143604D01*
X26827809Y-64141253D01*
X26830727Y-64140632D01*
X26952288Y-64114794D01*
X27126752Y-64037118D01*
X27281253Y-63924866D01*
X27329249Y-63871561D01*
X27409034Y-63782951D01*
X27409035Y-63782949D01*
X27409040Y-63782944D01*
X27504527Y-63617556D01*
X27556187Y-63458561D01*
X27596261Y-63399958D01*
X27661657Y-63372321D01*
X27676020Y-63371500D01*
X40903980Y-63371500D01*
X40972101Y-63391502D01*
X41018594Y-63445158D01*
X41023810Y-63458557D01*
X41075473Y-63617556D01*
X41075476Y-63617561D01*
X41170958Y-63782941D01*
X41170965Y-63782951D01*
X41298744Y-63924864D01*
X41298747Y-63924866D01*
X41453248Y-64037118D01*
X41627712Y-64114794D01*
X41814513Y-64154500D01*
X42005487Y-64154500D01*
X42192288Y-64114794D01*
X42366752Y-64037118D01*
X42521253Y-63924866D01*
X42569249Y-63871561D01*
X42649034Y-63782951D01*
X42649035Y-63782949D01*
X42649040Y-63782944D01*
X42744527Y-63617556D01*
X42803542Y-63435928D01*
X42823504Y-63246000D01*
X42803542Y-63056072D01*
X42803542Y-63056071D01*
X42794563Y-63028436D01*
X42792535Y-62957469D01*
X42829198Y-62896671D01*
X42892910Y-62865345D01*
X42914396Y-62863500D01*
X88204406Y-62863500D01*
X88272527Y-62883502D01*
X88293501Y-62900405D01*
X88841877Y-63448781D01*
X88875903Y-63511093D01*
X88878092Y-63524705D01*
X88895457Y-63689927D01*
X88909711Y-63733794D01*
X88954473Y-63871556D01*
X88954476Y-63871561D01*
X89049958Y-64036941D01*
X89049965Y-64036951D01*
X89177744Y-64178864D01*
X89208900Y-64201500D01*
X89332248Y-64291118D01*
X89506712Y-64368794D01*
X89693513Y-64408500D01*
X89884487Y-64408500D01*
X90071288Y-64368794D01*
X90245752Y-64291118D01*
X90400253Y-64178866D01*
X90432003Y-64143604D01*
X90528034Y-64036951D01*
X90528035Y-64036949D01*
X90528040Y-64036944D01*
X90623527Y-63871556D01*
X90682542Y-63689928D01*
X90702504Y-63500000D01*
X90682542Y-63310072D01*
X90623527Y-63128444D01*
X90528040Y-62963056D01*
X90528038Y-62963054D01*
X90528034Y-62963048D01*
X90400255Y-62821135D01*
X90245752Y-62708882D01*
X90071288Y-62631206D01*
X89946809Y-62604747D01*
X89884335Y-62571018D01*
X89850014Y-62508869D01*
X89854742Y-62438030D01*
X89897018Y-62380992D01*
X89963419Y-62355865D01*
X89973006Y-62355500D01*
X102301406Y-62355500D01*
X102369527Y-62375502D01*
X102390501Y-62392405D01*
X102938877Y-62940781D01*
X102972903Y-63003093D01*
X102975092Y-63016705D01*
X102992457Y-63181927D01*
X103009331Y-63233858D01*
X103051473Y-63363556D01*
X103061882Y-63381585D01*
X103146958Y-63528941D01*
X103146965Y-63528951D01*
X103274744Y-63670864D01*
X103274747Y-63670866D01*
X103429248Y-63783118D01*
X103603712Y-63860794D01*
X103790513Y-63900500D01*
X103981487Y-63900500D01*
X104168288Y-63860794D01*
X104342752Y-63783118D01*
X104497253Y-63670866D01*
X104545249Y-63617561D01*
X104625034Y-63528951D01*
X104625035Y-63528949D01*
X104625040Y-63528944D01*
X104720527Y-63363556D01*
X104779542Y-63181928D01*
X104799504Y-62992000D01*
X104795637Y-62955210D01*
X104808409Y-62885373D01*
X104856911Y-62833527D01*
X104925744Y-62816132D01*
X104993054Y-62838713D01*
X105010042Y-62852946D01*
X105410753Y-63253657D01*
X105420720Y-63266097D01*
X105420947Y-63265910D01*
X105425999Y-63272017D01*
X105426000Y-63272018D01*
X105477095Y-63319999D01*
X105498231Y-63341135D01*
X105503770Y-63345431D01*
X105508282Y-63349285D01*
X105542678Y-63381585D01*
X105542682Y-63381588D01*
X105560430Y-63391345D01*
X105576957Y-63402201D01*
X105592960Y-63414614D01*
X105636259Y-63433351D01*
X105641585Y-63435960D01*
X105682935Y-63458693D01*
X105682938Y-63458694D01*
X105682940Y-63458695D01*
X105702562Y-63463733D01*
X105721263Y-63470135D01*
X105733814Y-63475567D01*
X105739852Y-63478180D01*
X105739853Y-63478180D01*
X105739855Y-63478181D01*
X105786477Y-63485564D01*
X105792262Y-63486763D01*
X105837970Y-63498500D01*
X105858224Y-63498500D01*
X105877934Y-63500051D01*
X105880141Y-63500400D01*
X105897943Y-63503220D01*
X105932017Y-63499999D01*
X105944917Y-63498780D01*
X105950850Y-63498500D01*
X117909800Y-63498500D01*
X117977921Y-63518502D01*
X118003437Y-63540190D01*
X118006747Y-63543866D01*
X118161248Y-63656118D01*
X118335712Y-63733794D01*
X118522513Y-63773500D01*
X118713487Y-63773500D01*
X118900288Y-63733794D01*
X119074752Y-63656118D01*
X119229253Y-63543866D01*
X119270101Y-63498500D01*
X119357034Y-63401951D01*
X119357035Y-63401949D01*
X119357040Y-63401944D01*
X119452527Y-63236556D01*
X119511542Y-63054928D01*
X119531504Y-62865000D01*
X119511542Y-62675072D01*
X119452527Y-62493444D01*
X119357040Y-62328056D01*
X119357038Y-62328054D01*
X119357034Y-62328048D01*
X119229255Y-62186135D01*
X119074752Y-62073882D01*
X118900288Y-61996206D01*
X118713487Y-61956500D01*
X118522513Y-61956500D01*
X118335711Y-61996206D01*
X118161247Y-62073882D01*
X118006747Y-62186133D01*
X118003437Y-62189810D01*
X117942991Y-62227050D01*
X117909800Y-62231500D01*
X106232594Y-62231500D01*
X106164473Y-62211498D01*
X106143499Y-62194595D01*
X104774244Y-60825339D01*
X104764279Y-60812901D01*
X104764052Y-60813090D01*
X104759001Y-60806984D01*
X104759000Y-60806982D01*
X104707920Y-60759015D01*
X104707920Y-60759014D01*
X104686777Y-60737871D01*
X104686772Y-60737866D01*
X104681225Y-60733563D01*
X104676717Y-60729712D01*
X104642325Y-60697417D01*
X104642319Y-60697413D01*
X104624563Y-60687651D01*
X104608047Y-60676802D01*
X104592041Y-60664386D01*
X104561289Y-60651078D01*
X104548740Y-60645648D01*
X104543408Y-60643036D01*
X104502061Y-60620305D01*
X104482436Y-60615266D01*
X104463736Y-60608864D01*
X104445145Y-60600819D01*
X104445143Y-60600818D01*
X104445142Y-60600818D01*
X104398542Y-60593437D01*
X104392729Y-60592233D01*
X104347030Y-60580500D01*
X104326776Y-60580500D01*
X104307066Y-60578949D01*
X104287057Y-60575780D01*
X104287056Y-60575780D01*
X104240083Y-60580220D01*
X104234150Y-60580500D01*
X75633698Y-60580500D01*
X75565577Y-60560498D01*
X75519084Y-60506842D01*
X75508980Y-60436568D01*
X75538474Y-60371988D01*
X75540062Y-60370190D01*
X75669034Y-60226951D01*
X75669035Y-60226949D01*
X75669040Y-60226944D01*
X75764527Y-60061556D01*
X75823542Y-59879928D01*
X75843504Y-59690000D01*
X75823542Y-59500072D01*
X75764527Y-59318444D01*
X75669040Y-59153056D01*
X75669038Y-59153054D01*
X75669034Y-59153048D01*
X75541255Y-59011135D01*
X75386752Y-58898882D01*
X75212288Y-58821206D01*
X75025487Y-58781500D01*
X74834513Y-58781500D01*
X74647711Y-58821206D01*
X74473247Y-58898882D01*
X74318744Y-59011135D01*
X74190965Y-59153048D01*
X74190958Y-59153058D01*
X74095476Y-59318438D01*
X74095473Y-59318445D01*
X74036457Y-59500072D01*
X74016496Y-59689999D01*
X74036457Y-59879927D01*
X74046306Y-59910238D01*
X74095473Y-60061556D01*
X74095476Y-60061561D01*
X74190958Y-60226941D01*
X74190965Y-60226951D01*
X74319938Y-60370190D01*
X74350656Y-60434197D01*
X74341891Y-60504651D01*
X74296428Y-60559182D01*
X74228701Y-60580477D01*
X74226302Y-60580500D01*
X47994396Y-60580500D01*
X47926275Y-60560498D01*
X47879782Y-60506842D01*
X47869678Y-60436568D01*
X47874563Y-60415564D01*
X47883542Y-60387928D01*
X47889652Y-60329794D01*
X47903504Y-60198000D01*
X47883542Y-60008072D01*
X47824527Y-59826444D01*
X47729040Y-59661056D01*
X47729038Y-59661054D01*
X47729034Y-59661048D01*
X47601255Y-59519135D01*
X47446752Y-59406882D01*
X47272288Y-59329206D01*
X47085487Y-59289500D01*
X46894513Y-59289500D01*
X46707711Y-59329206D01*
X46533247Y-59406882D01*
X46378744Y-59519135D01*
X46250965Y-59661048D01*
X46250958Y-59661058D01*
X46155476Y-59826438D01*
X46155473Y-59826445D01*
X46096457Y-60008072D01*
X46076496Y-60197999D01*
X46096457Y-60387928D01*
X46105437Y-60415564D01*
X46107465Y-60486531D01*
X46070802Y-60547329D01*
X46007090Y-60578655D01*
X45985604Y-60580500D01*
X36054885Y-60580500D01*
X35986764Y-60560498D01*
X35940271Y-60506842D01*
X35935052Y-60493437D01*
X35932808Y-60486531D01*
X35881883Y-60329800D01*
X35786396Y-60164412D01*
X35786394Y-60164410D01*
X35786390Y-60164404D01*
X35658611Y-60022491D01*
X35504108Y-59910238D01*
X35329644Y-59832562D01*
X35142843Y-59792856D01*
X34951869Y-59792856D01*
X34765067Y-59832562D01*
X34590603Y-59910238D01*
X34436100Y-60022491D01*
X34308321Y-60164404D01*
X34308314Y-60164414D01*
X34212832Y-60329794D01*
X34212829Y-60329800D01*
X34161904Y-60486531D01*
X34159660Y-60493437D01*
X34119586Y-60552042D01*
X34054190Y-60579679D01*
X34039827Y-60580500D01*
X30724020Y-60580500D01*
X30655899Y-60560498D01*
X30609406Y-60506842D01*
X30604187Y-60493437D01*
X30601943Y-60486531D01*
X30552527Y-60334444D01*
X30457040Y-60169056D01*
X30457038Y-60169054D01*
X30457034Y-60169048D01*
X30329255Y-60027135D01*
X30174752Y-59914882D01*
X30049565Y-59859145D01*
X29995469Y-59813164D01*
X29974820Y-59745237D01*
X29994173Y-59676929D01*
X30026752Y-59642104D01*
X30075253Y-59606866D01*
X30075255Y-59606864D01*
X30203034Y-59464951D01*
X30203035Y-59464949D01*
X30203040Y-59464944D01*
X30298527Y-59299556D01*
X30357542Y-59117928D01*
X30374907Y-58952704D01*
X30401920Y-58887049D01*
X30411113Y-58876790D01*
X32276465Y-57011438D01*
X32288903Y-57001475D01*
X32288715Y-57001248D01*
X32294818Y-56996197D01*
X32294823Y-56996195D01*
X32342788Y-56945116D01*
X32363940Y-56923965D01*
X32368250Y-56918407D01*
X32372079Y-56913924D01*
X32404391Y-56879516D01*
X32414151Y-56861760D01*
X32425000Y-56845245D01*
X32437419Y-56829236D01*
X32456168Y-56785905D01*
X32458758Y-56780618D01*
X32481500Y-56739255D01*
X32486538Y-56719629D01*
X32492942Y-56700927D01*
X32500985Y-56682342D01*
X32500984Y-56682342D01*
X32500986Y-56682340D01*
X32508366Y-56635742D01*
X32509567Y-56629935D01*
X32521305Y-56584225D01*
X32521305Y-56563969D01*
X32522856Y-56544259D01*
X32526025Y-56524252D01*
X32521586Y-56477299D01*
X32521584Y-56477274D01*
X32521304Y-56471341D01*
X32521304Y-56134000D01*
X50477289Y-56134000D01*
X50535971Y-56378434D01*
X50632830Y-56612272D01*
X50765077Y-56828079D01*
X50929457Y-57020542D01*
X51121920Y-57184922D01*
X51337727Y-57317169D01*
X51571565Y-57414028D01*
X51816000Y-57472710D01*
X51816000Y-56546169D01*
X51836002Y-56478048D01*
X51889658Y-56431555D01*
X51959932Y-56421451D01*
X51975991Y-56424841D01*
X51994404Y-56430000D01*
X52107622Y-56430000D01*
X52107632Y-56429999D01*
X52151071Y-56424028D01*
X52180842Y-56419936D01*
X52251052Y-56430475D01*
X52304418Y-56477299D01*
X52324000Y-56544762D01*
X52324000Y-57472709D01*
X52568434Y-57414028D01*
X52802272Y-57317169D01*
X53018079Y-57184922D01*
X53058968Y-57149999D01*
X100686496Y-57149999D01*
X100706457Y-57339927D01*
X100726860Y-57402718D01*
X100765473Y-57521556D01*
X100765476Y-57521561D01*
X100860958Y-57686941D01*
X100860965Y-57686951D01*
X100988744Y-57828864D01*
X100988769Y-57828882D01*
X101143248Y-57941118D01*
X101317712Y-58018794D01*
X101504513Y-58058500D01*
X101695487Y-58058500D01*
X101882288Y-58018794D01*
X102056752Y-57941118D01*
X102211253Y-57828866D01*
X102307827Y-57721610D01*
X102339034Y-57686951D01*
X102339035Y-57686949D01*
X102339040Y-57686944D01*
X102434527Y-57521556D01*
X102493542Y-57339928D01*
X102513504Y-57150000D01*
X102493542Y-56960072D01*
X102434527Y-56778444D01*
X102394875Y-56709765D01*
X118033788Y-56709765D01*
X118063412Y-56979014D01*
X118131928Y-57241090D01*
X118237869Y-57490389D01*
X118237870Y-57490390D01*
X118378982Y-57721610D01*
X118552255Y-57929820D01*
X118552257Y-57929822D01*
X118552259Y-57929824D01*
X118616371Y-57987268D01*
X118753998Y-58110582D01*
X118979910Y-58260044D01*
X119225176Y-58375020D01*
X119484569Y-58453060D01*
X119484572Y-58453060D01*
X119484574Y-58453061D01*
X119752557Y-58492500D01*
X119752561Y-58492500D01*
X119955633Y-58492500D01*
X119990363Y-58489957D01*
X120158156Y-58477677D01*
X120158160Y-58477676D01*
X120158161Y-58477676D01*
X120280409Y-58450444D01*
X120422553Y-58418780D01*
X120675558Y-58322014D01*
X120911777Y-58189441D01*
X121126177Y-58023888D01*
X121314186Y-57828881D01*
X121471799Y-57608579D01*
X121480009Y-57592612D01*
X121595656Y-57367675D01*
X121595657Y-57367672D01*
X121638842Y-57241088D01*
X121683118Y-57111305D01*
X121711052Y-56960072D01*
X121732318Y-56844941D01*
X121732319Y-56844930D01*
X121742212Y-56574235D01*
X121725401Y-56421451D01*
X121712587Y-56304985D01*
X121646980Y-56054035D01*
X121644072Y-56042912D01*
X121584045Y-55901658D01*
X121538130Y-55793610D01*
X121536842Y-55791500D01*
X121397018Y-55562390D01*
X121223745Y-55354180D01*
X121223741Y-55354177D01*
X121223740Y-55354175D01*
X121022012Y-55173427D01*
X121022002Y-55173418D01*
X120796090Y-55023956D01*
X120550824Y-54908980D01*
X120393392Y-54861615D01*
X120291425Y-54830938D01*
X120023442Y-54791500D01*
X120023439Y-54791500D01*
X119820369Y-54791500D01*
X119820367Y-54791500D01*
X119617839Y-54806323D01*
X119617838Y-54806323D01*
X119353456Y-54865217D01*
X119353441Y-54865222D01*
X119100441Y-54961986D01*
X118864229Y-55094555D01*
X118864225Y-55094557D01*
X118649818Y-55260116D01*
X118461815Y-55455117D01*
X118461810Y-55455123D01*
X118304203Y-55675417D01*
X118304196Y-55675427D01*
X118180343Y-55916324D01*
X118180342Y-55916327D01*
X118092883Y-56172689D01*
X118092880Y-56172702D01*
X118043681Y-56439058D01*
X118043680Y-56439069D01*
X118033788Y-56709765D01*
X102394875Y-56709765D01*
X102339040Y-56613056D01*
X102339038Y-56613054D01*
X102339034Y-56613048D01*
X102211255Y-56471135D01*
X102056752Y-56358882D01*
X101882288Y-56281206D01*
X101695487Y-56241500D01*
X101504513Y-56241500D01*
X101317711Y-56281206D01*
X101143247Y-56358882D01*
X100988744Y-56471135D01*
X100860965Y-56613048D01*
X100860958Y-56613058D01*
X100765476Y-56778438D01*
X100765473Y-56778444D01*
X100763926Y-56783205D01*
X100706457Y-56960072D01*
X100686496Y-57149999D01*
X53058968Y-57149999D01*
X53210542Y-57020542D01*
X53374922Y-56828079D01*
X53507169Y-56612272D01*
X53604028Y-56378434D01*
X53662711Y-56134000D01*
X52738824Y-56134000D01*
X52670703Y-56113998D01*
X52624210Y-56060342D01*
X52613118Y-55999401D01*
X52617380Y-55937095D01*
X52623877Y-55842114D01*
X52610478Y-55777634D01*
X52616203Y-55706869D01*
X52659277Y-55650433D01*
X52726026Y-55626243D01*
X52733843Y-55626000D01*
X53662711Y-55626000D01*
X53604028Y-55381565D01*
X53507169Y-55147727D01*
X53374922Y-54931920D01*
X53210542Y-54739457D01*
X53018079Y-54575077D01*
X52802272Y-54442830D01*
X52568434Y-54345971D01*
X52324000Y-54287288D01*
X52324000Y-55213830D01*
X52303998Y-55281951D01*
X52250342Y-55328444D01*
X52180068Y-55338548D01*
X52164008Y-55335158D01*
X52145598Y-55330000D01*
X52145596Y-55330000D01*
X52032378Y-55330000D01*
X52032364Y-55330000D01*
X51959156Y-55340063D01*
X51888946Y-55329523D01*
X51835580Y-55282698D01*
X51815999Y-55215237D01*
X51815999Y-54287288D01*
X51571566Y-54345971D01*
X51337727Y-54442830D01*
X51121920Y-54575077D01*
X50929457Y-54739457D01*
X50765077Y-54931920D01*
X50632830Y-55147727D01*
X50535971Y-55381565D01*
X50477289Y-55626000D01*
X51401176Y-55626000D01*
X51469297Y-55646002D01*
X51515790Y-55699658D01*
X51526882Y-55760599D01*
X51516123Y-55917885D01*
X51529522Y-55982365D01*
X51523797Y-56053131D01*
X51480723Y-56109567D01*
X51413974Y-56133757D01*
X51406157Y-56134000D01*
X50477289Y-56134000D01*
X32521304Y-56134000D01*
X32521304Y-55624585D01*
X32521304Y-54753720D01*
X32541306Y-54685603D01*
X32553658Y-54669426D01*
X32626845Y-54588144D01*
X32722332Y-54422756D01*
X32781347Y-54241128D01*
X32801309Y-54051200D01*
X32781347Y-53861272D01*
X32722332Y-53679644D01*
X32626845Y-53514256D01*
X32626843Y-53514254D01*
X32626839Y-53514248D01*
X32499060Y-53372335D01*
X32454553Y-53339999D01*
X142596496Y-53339999D01*
X142616457Y-53529927D01*
X142630734Y-53573866D01*
X142675473Y-53711556D01*
X142703841Y-53760691D01*
X142770958Y-53876941D01*
X142770965Y-53876951D01*
X142898744Y-54018864D01*
X142898747Y-54018866D01*
X143053248Y-54131118D01*
X143227712Y-54208794D01*
X143414513Y-54248500D01*
X143605487Y-54248500D01*
X143792288Y-54208794D01*
X143966752Y-54131118D01*
X144121253Y-54018866D01*
X144121255Y-54018864D01*
X144249034Y-53876951D01*
X144249035Y-53876949D01*
X144249040Y-53876944D01*
X144344527Y-53711556D01*
X144403542Y-53529928D01*
X144423504Y-53340000D01*
X144403542Y-53150072D01*
X144344527Y-52968444D01*
X144249040Y-52803056D01*
X144249038Y-52803054D01*
X144249034Y-52803048D01*
X144121255Y-52661135D01*
X144006828Y-52577999D01*
X161900496Y-52577999D01*
X161920457Y-52767927D01*
X161950526Y-52860470D01*
X161979473Y-52949556D01*
X161979476Y-52949561D01*
X162074958Y-53114941D01*
X162074965Y-53114951D01*
X162202744Y-53256864D01*
X162202747Y-53256866D01*
X162357248Y-53369118D01*
X162531712Y-53446794D01*
X162718513Y-53486500D01*
X162909487Y-53486500D01*
X163096288Y-53446794D01*
X163270752Y-53369118D01*
X163425253Y-53256866D01*
X163521411Y-53150072D01*
X163553034Y-53114951D01*
X163553035Y-53114949D01*
X163553040Y-53114944D01*
X163648527Y-52949556D01*
X163707542Y-52767928D01*
X163727504Y-52578000D01*
X163707542Y-52388072D01*
X163686724Y-52324000D01*
X168250496Y-52324000D01*
X168270457Y-52513927D01*
X168273550Y-52523445D01*
X168329473Y-52695556D01*
X168329476Y-52695561D01*
X168424958Y-52860941D01*
X168424965Y-52860951D01*
X168552744Y-53002864D01*
X168552747Y-53002866D01*
X168707248Y-53115118D01*
X168881712Y-53192794D01*
X169068513Y-53232500D01*
X169259487Y-53232500D01*
X169446288Y-53192794D01*
X169620752Y-53115118D01*
X169775253Y-53002866D01*
X169823249Y-52949561D01*
X169903034Y-52860951D01*
X169903035Y-52860949D01*
X169903040Y-52860944D01*
X169998527Y-52695556D01*
X170057542Y-52513928D01*
X170077504Y-52324000D01*
X170057542Y-52134072D01*
X169998527Y-51952444D01*
X169903040Y-51787056D01*
X169903038Y-51787054D01*
X169903034Y-51787048D01*
X169775255Y-51645135D01*
X169620752Y-51532882D01*
X169446288Y-51455206D01*
X169259487Y-51415500D01*
X169068513Y-51415500D01*
X168881711Y-51455206D01*
X168707247Y-51532882D01*
X168552744Y-51645135D01*
X168424965Y-51787048D01*
X168424958Y-51787058D01*
X168329476Y-51952438D01*
X168329473Y-51952444D01*
X168314999Y-51996986D01*
X168270457Y-52134072D01*
X168250496Y-52324000D01*
X163686724Y-52324000D01*
X163648527Y-52206444D01*
X163553040Y-52041056D01*
X163553038Y-52041054D01*
X163553034Y-52041048D01*
X163425255Y-51899135D01*
X163270752Y-51786882D01*
X163096288Y-51709206D01*
X162909487Y-51669500D01*
X162718513Y-51669500D01*
X162531711Y-51709206D01*
X162357247Y-51786882D01*
X162202744Y-51899135D01*
X162074965Y-52041048D01*
X162074958Y-52041058D01*
X161979476Y-52206438D01*
X161979473Y-52206444D01*
X161968083Y-52241498D01*
X161920457Y-52388072D01*
X161900496Y-52577999D01*
X144006828Y-52577999D01*
X143966752Y-52548882D01*
X143792288Y-52471206D01*
X143605487Y-52431500D01*
X143414513Y-52431500D01*
X143227711Y-52471206D01*
X143053247Y-52548882D01*
X142898744Y-52661135D01*
X142770965Y-52803048D01*
X142770958Y-52803058D01*
X142675476Y-52968438D01*
X142675473Y-52968445D01*
X142616457Y-53150072D01*
X142596496Y-53339999D01*
X32454553Y-53339999D01*
X32344557Y-53260082D01*
X32170093Y-53182406D01*
X31983292Y-53142700D01*
X31792318Y-53142700D01*
X31605516Y-53182406D01*
X31431052Y-53260082D01*
X31276549Y-53372335D01*
X31148770Y-53514248D01*
X31148763Y-53514258D01*
X31053281Y-53679638D01*
X31053278Y-53679644D01*
X31038804Y-53724186D01*
X30994262Y-53861272D01*
X30974301Y-54051200D01*
X30994262Y-54241127D01*
X30996658Y-54248500D01*
X31053278Y-54422756D01*
X31148765Y-54588144D01*
X31221942Y-54669415D01*
X31252658Y-54733420D01*
X31254305Y-54753724D01*
X31254305Y-56189599D01*
X31234303Y-56257720D01*
X31217400Y-56278694D01*
X29513500Y-57982595D01*
X29451188Y-58016620D01*
X29424405Y-58019500D01*
X29368513Y-58019500D01*
X29181711Y-58059206D01*
X29007247Y-58136882D01*
X28852744Y-58249135D01*
X28724965Y-58391048D01*
X28724958Y-58391058D01*
X28629476Y-58556438D01*
X28629473Y-58556445D01*
X28570457Y-58738072D01*
X28550496Y-58928000D01*
X28570457Y-59117927D01*
X28600526Y-59210470D01*
X28629473Y-59299556D01*
X28657841Y-59348691D01*
X28724958Y-59464941D01*
X28724965Y-59464951D01*
X28852744Y-59606864D01*
X28852747Y-59606866D01*
X29007248Y-59719118D01*
X29065913Y-59745237D01*
X29132434Y-59774854D01*
X29186530Y-59820834D01*
X29207179Y-59888761D01*
X29187827Y-59957070D01*
X29155246Y-59991897D01*
X29106744Y-60027135D01*
X28978965Y-60169048D01*
X28978958Y-60169058D01*
X28883476Y-60334438D01*
X28883473Y-60334445D01*
X28824457Y-60516072D01*
X28804496Y-60705999D01*
X28824457Y-60895928D01*
X28833437Y-60923564D01*
X28835465Y-60994531D01*
X28798802Y-61055329D01*
X28735090Y-61086655D01*
X28713604Y-61088500D01*
X16839256Y-61088500D01*
X16823414Y-61086750D01*
X16823387Y-61087044D01*
X16815494Y-61086297D01*
X16745431Y-61088500D01*
X16715546Y-61088500D01*
X16715542Y-61088500D01*
X16715531Y-61088501D01*
X16708592Y-61089377D01*
X16702679Y-61089843D01*
X16655513Y-61091325D01*
X16636052Y-61096979D01*
X16616706Y-61100985D01*
X16596606Y-61103525D01*
X16596605Y-61103525D01*
X16552737Y-61120893D01*
X16547122Y-61122815D01*
X16501815Y-61135978D01*
X16501806Y-61135982D01*
X16484364Y-61146297D01*
X16466617Y-61154991D01*
X16447785Y-61162447D01*
X16447783Y-61162448D01*
X16409616Y-61190178D01*
X16404656Y-61193436D01*
X16364038Y-61217459D01*
X16364035Y-61217461D01*
X16349714Y-61231783D01*
X16334685Y-61244619D01*
X16318295Y-61256527D01*
X16288210Y-61292892D01*
X16284214Y-61297283D01*
X14756100Y-62825397D01*
X14693788Y-62859422D01*
X14667005Y-62862302D01*
X14611113Y-62862302D01*
X14424311Y-62902008D01*
X14249847Y-62979684D01*
X14095344Y-63091937D01*
X13967565Y-63233850D01*
X13967558Y-63233860D01*
X13872076Y-63399240D01*
X13872073Y-63399246D01*
X13871194Y-63401951D01*
X13813057Y-63580874D01*
X13793096Y-63770802D01*
X13813057Y-63960729D01*
X13837821Y-64036941D01*
X13872073Y-64142358D01*
X13872076Y-64142363D01*
X13946053Y-64270496D01*
X13967560Y-64307746D01*
X13986188Y-64328435D01*
X14016905Y-64392441D01*
X14008142Y-64462895D01*
X13965487Y-64514057D01*
X13965905Y-64514595D01*
X13963454Y-64516496D01*
X13962679Y-64517426D01*
X13960423Y-64518847D01*
X13959641Y-64519453D01*
X13945307Y-64533787D01*
X13930281Y-64546620D01*
X13913895Y-64558526D01*
X13913894Y-64558526D01*
X13883822Y-64594875D01*
X13879827Y-64599266D01*
X13130500Y-65348595D01*
X13068187Y-65382620D01*
X13041404Y-65385500D01*
X12985513Y-65385500D01*
X12798711Y-65425206D01*
X12624247Y-65502882D01*
X12469744Y-65615135D01*
X12341965Y-65757048D01*
X12341958Y-65757058D01*
X12246476Y-65922438D01*
X12246473Y-65922445D01*
X12187457Y-66104072D01*
X12167496Y-66294000D01*
X9652500Y-66294000D01*
X9652500Y-58048597D01*
X11423200Y-58048597D01*
X11429705Y-58109093D01*
X11480755Y-58245964D01*
X11480755Y-58245965D01*
X11568295Y-58362904D01*
X11685234Y-58450444D01*
X11822106Y-58501494D01*
X11882602Y-58507999D01*
X11882615Y-58508000D01*
X12527200Y-58508000D01*
X12527200Y-57764033D01*
X12547202Y-57695912D01*
X12600858Y-57649419D01*
X12671126Y-57639315D01*
X12745437Y-57650000D01*
X12816963Y-57650000D01*
X12891269Y-57639316D01*
X12961541Y-57649419D01*
X13015197Y-57695911D01*
X13035200Y-57764031D01*
X13035200Y-58508000D01*
X13679785Y-58508000D01*
X13679797Y-58507999D01*
X13740293Y-58501494D01*
X13877164Y-58450444D01*
X13877165Y-58450444D01*
X13994104Y-58362904D01*
X14081644Y-58245965D01*
X14125818Y-58127530D01*
X14168365Y-58070694D01*
X14234885Y-58045883D01*
X14304259Y-58060974D01*
X14336572Y-58086222D01*
X14358998Y-58110582D01*
X14397962Y-58152908D01*
X14444900Y-58189441D01*
X14575624Y-58291189D01*
X14773626Y-58398342D01*
X14773627Y-58398342D01*
X14773628Y-58398343D01*
X14885427Y-58436723D01*
X14986565Y-58471444D01*
X15208631Y-58508500D01*
X15208635Y-58508500D01*
X15433765Y-58508500D01*
X15433769Y-58508500D01*
X15655835Y-58471444D01*
X15868774Y-58398342D01*
X16066776Y-58291189D01*
X16244440Y-58152906D01*
X16396922Y-57987268D01*
X16485718Y-57851354D01*
X16539720Y-57805268D01*
X16610068Y-57795692D01*
X16674425Y-57825669D01*
X16696680Y-57851353D01*
X16729807Y-57902058D01*
X16785475Y-57987265D01*
X16785479Y-57987270D01*
X16937962Y-58152908D01*
X16984900Y-58189441D01*
X17115624Y-58291189D01*
X17313626Y-58398342D01*
X17313627Y-58398342D01*
X17313628Y-58398343D01*
X17425427Y-58436723D01*
X17526565Y-58471444D01*
X17748631Y-58508500D01*
X17748635Y-58508500D01*
X17973765Y-58508500D01*
X17973769Y-58508500D01*
X18195835Y-58471444D01*
X18408774Y-58398342D01*
X18606776Y-58291189D01*
X18784440Y-58152906D01*
X18936922Y-57987268D01*
X19025718Y-57851354D01*
X19079720Y-57805268D01*
X19150068Y-57795692D01*
X19214425Y-57825669D01*
X19236680Y-57851353D01*
X19269807Y-57902058D01*
X19325475Y-57987265D01*
X19325479Y-57987270D01*
X19477962Y-58152908D01*
X19524900Y-58189441D01*
X19655624Y-58291189D01*
X19853626Y-58398342D01*
X19853627Y-58398342D01*
X19853628Y-58398343D01*
X19965427Y-58436723D01*
X20066565Y-58471444D01*
X20288631Y-58508500D01*
X20288635Y-58508500D01*
X20513765Y-58508500D01*
X20513769Y-58508500D01*
X20735835Y-58471444D01*
X20948774Y-58398342D01*
X21146776Y-58291189D01*
X21324440Y-58152906D01*
X21476922Y-57987268D01*
X21565718Y-57851354D01*
X21619720Y-57805268D01*
X21690068Y-57795692D01*
X21754425Y-57825669D01*
X21776680Y-57851353D01*
X21809807Y-57902058D01*
X21865475Y-57987265D01*
X21865479Y-57987270D01*
X22017962Y-58152908D01*
X22064900Y-58189441D01*
X22195624Y-58291189D01*
X22393626Y-58398342D01*
X22393627Y-58398342D01*
X22393628Y-58398343D01*
X22505427Y-58436723D01*
X22606565Y-58471444D01*
X22828631Y-58508500D01*
X22828635Y-58508500D01*
X23053765Y-58508500D01*
X23053769Y-58508500D01*
X23275835Y-58471444D01*
X23488774Y-58398342D01*
X23686776Y-58291189D01*
X23864440Y-58152906D01*
X24016922Y-57987268D01*
X24140060Y-57798791D01*
X24230496Y-57592616D01*
X24285764Y-57374368D01*
X24304356Y-57150000D01*
X24285764Y-56925632D01*
X24274086Y-56879515D01*
X24230497Y-56707387D01*
X24230496Y-56707386D01*
X24230496Y-56707384D01*
X24140060Y-56501209D01*
X24124423Y-56477274D01*
X24016924Y-56312734D01*
X24016920Y-56312729D01*
X23864437Y-56147091D01*
X23744879Y-56054035D01*
X23686776Y-56008811D01*
X23488774Y-55901658D01*
X23488772Y-55901657D01*
X23488771Y-55901656D01*
X23275839Y-55828557D01*
X23275830Y-55828555D01*
X23231676Y-55821187D01*
X23053769Y-55791500D01*
X22828631Y-55791500D01*
X22680411Y-55816233D01*
X22606569Y-55828555D01*
X22606560Y-55828557D01*
X22393628Y-55901656D01*
X22393626Y-55901658D01*
X22195626Y-56008810D01*
X22195624Y-56008811D01*
X22017962Y-56147091D01*
X21865479Y-56312729D01*
X21865479Y-56312730D01*
X21776682Y-56448643D01*
X21722678Y-56494731D01*
X21652330Y-56504306D01*
X21587973Y-56474328D01*
X21565716Y-56448642D01*
X21559460Y-56439067D01*
X21519847Y-56378434D01*
X21476924Y-56312734D01*
X21476920Y-56312729D01*
X21324437Y-56147091D01*
X21204879Y-56054035D01*
X21146776Y-56008811D01*
X20948774Y-55901658D01*
X20948772Y-55901657D01*
X20948771Y-55901656D01*
X20735839Y-55828557D01*
X20735830Y-55828555D01*
X20691676Y-55821187D01*
X20513769Y-55791500D01*
X20288631Y-55791500D01*
X20140411Y-55816233D01*
X20066569Y-55828555D01*
X20066560Y-55828557D01*
X19853628Y-55901656D01*
X19853626Y-55901658D01*
X19655626Y-56008810D01*
X19655624Y-56008811D01*
X19477962Y-56147091D01*
X19325479Y-56312729D01*
X19236683Y-56448643D01*
X19182679Y-56494731D01*
X19112331Y-56504306D01*
X19047974Y-56474329D01*
X19025717Y-56448643D01*
X18936920Y-56312729D01*
X18784437Y-56147091D01*
X18664879Y-56054035D01*
X18606776Y-56008811D01*
X18408774Y-55901658D01*
X18408772Y-55901657D01*
X18408771Y-55901656D01*
X18195839Y-55828557D01*
X18195830Y-55828555D01*
X18151676Y-55821187D01*
X17973769Y-55791500D01*
X17748631Y-55791500D01*
X17600410Y-55816233D01*
X17526569Y-55828555D01*
X17526560Y-55828557D01*
X17313628Y-55901656D01*
X17313626Y-55901658D01*
X17115626Y-56008810D01*
X17115624Y-56008811D01*
X16937962Y-56147091D01*
X16785479Y-56312729D01*
X16785479Y-56312730D01*
X16696682Y-56448643D01*
X16642678Y-56494731D01*
X16572330Y-56504306D01*
X16507973Y-56474328D01*
X16485716Y-56448642D01*
X16479460Y-56439067D01*
X16439847Y-56378434D01*
X16396924Y-56312734D01*
X16396920Y-56312729D01*
X16244437Y-56147091D01*
X16124879Y-56054035D01*
X16066776Y-56008811D01*
X15868774Y-55901658D01*
X15868772Y-55901657D01*
X15868771Y-55901656D01*
X15655839Y-55828557D01*
X15655830Y-55828555D01*
X15611676Y-55821187D01*
X15433769Y-55791500D01*
X15208631Y-55791500D01*
X15060410Y-55816233D01*
X14986569Y-55828555D01*
X14986560Y-55828557D01*
X14773628Y-55901656D01*
X14773626Y-55901658D01*
X14575626Y-56008810D01*
X14575624Y-56008811D01*
X14397959Y-56147094D01*
X14336574Y-56213775D01*
X14275721Y-56250346D01*
X14204757Y-56248211D01*
X14146212Y-56208049D01*
X14125818Y-56172470D01*
X14081643Y-56054033D01*
X13994104Y-55937095D01*
X13877165Y-55849555D01*
X13740293Y-55798505D01*
X13679797Y-55792000D01*
X13035200Y-55792000D01*
X13035200Y-56535966D01*
X13015198Y-56604087D01*
X12961542Y-56650580D01*
X12891269Y-56660683D01*
X12891268Y-56660683D01*
X12816968Y-56650000D01*
X12816963Y-56650000D01*
X12745437Y-56650000D01*
X12745431Y-56650000D01*
X12671132Y-56660683D01*
X12600858Y-56650580D01*
X12547202Y-56604087D01*
X12527200Y-56535966D01*
X12527200Y-55792000D01*
X11882602Y-55792000D01*
X11822106Y-55798505D01*
X11685235Y-55849555D01*
X11685234Y-55849555D01*
X11568295Y-55937095D01*
X11480755Y-56054034D01*
X11480755Y-56054035D01*
X11429705Y-56190906D01*
X11423200Y-56251402D01*
X11423200Y-56896000D01*
X12166356Y-56896000D01*
X12234477Y-56916002D01*
X12280970Y-56969658D01*
X12291074Y-57039932D01*
X12287253Y-57057496D01*
X12281200Y-57078111D01*
X12281200Y-57221888D01*
X12287253Y-57242504D01*
X12287252Y-57313500D01*
X12248867Y-57373226D01*
X12184286Y-57402718D01*
X12166356Y-57404000D01*
X11423200Y-57404000D01*
X11423200Y-58048597D01*
X9652500Y-58048597D01*
X9652500Y-54610000D01*
X14961496Y-54610000D01*
X14981457Y-54799927D01*
X14991534Y-54830940D01*
X15040473Y-54981556D01*
X15040476Y-54981561D01*
X15135958Y-55146941D01*
X15135965Y-55146951D01*
X15263744Y-55288864D01*
X15263747Y-55288866D01*
X15418248Y-55401118D01*
X15592712Y-55478794D01*
X15779513Y-55518500D01*
X15970487Y-55518500D01*
X16157288Y-55478794D01*
X16331752Y-55401118D01*
X16486253Y-55288866D01*
X16614040Y-55146944D01*
X16709527Y-54981556D01*
X16768542Y-54799928D01*
X16788504Y-54610000D01*
X16768542Y-54420072D01*
X16709527Y-54238444D01*
X16614040Y-54073056D01*
X16614038Y-54073054D01*
X16614034Y-54073048D01*
X16486255Y-53931135D01*
X16331752Y-53818882D01*
X16157288Y-53741206D01*
X15970487Y-53701500D01*
X15779513Y-53701500D01*
X15592711Y-53741206D01*
X15418247Y-53818882D01*
X15263744Y-53931135D01*
X15135965Y-54073048D01*
X15135958Y-54073058D01*
X15057592Y-54208793D01*
X15040473Y-54238444D01*
X15039601Y-54241128D01*
X14981457Y-54420072D01*
X14961496Y-54610000D01*
X9652500Y-54610000D01*
X9652500Y-52895000D01*
X16866496Y-52895000D01*
X16886457Y-53084927D01*
X16896213Y-53114951D01*
X16945473Y-53266556D01*
X16945476Y-53266561D01*
X17040958Y-53431941D01*
X17040965Y-53431951D01*
X17168744Y-53573864D01*
X17168747Y-53573866D01*
X17323248Y-53686118D01*
X17497712Y-53763794D01*
X17684513Y-53803500D01*
X17875487Y-53803500D01*
X18062288Y-53763794D01*
X18236752Y-53686118D01*
X18391253Y-53573866D01*
X18394562Y-53570190D01*
X18455009Y-53532950D01*
X18488200Y-53528500D01*
X22459147Y-53528500D01*
X22474988Y-53530249D01*
X22475016Y-53529956D01*
X22482902Y-53530700D01*
X22482909Y-53530702D01*
X22552958Y-53528500D01*
X22582856Y-53528500D01*
X22589818Y-53527619D01*
X22595719Y-53527154D01*
X22642889Y-53525673D01*
X22662347Y-53520019D01*
X22681694Y-53516013D01*
X22701797Y-53513474D01*
X22745679Y-53496099D01*
X22751274Y-53494183D01*
X22779816Y-53485891D01*
X22796591Y-53481019D01*
X22796595Y-53481017D01*
X22814026Y-53470708D01*
X22831780Y-53462009D01*
X22850617Y-53454552D01*
X22888786Y-53426818D01*
X22893744Y-53423562D01*
X22934362Y-53399542D01*
X22948685Y-53385218D01*
X22963724Y-53372374D01*
X22963778Y-53372335D01*
X22980107Y-53360472D01*
X23010193Y-53324103D01*
X23014161Y-53319741D01*
X25043307Y-51290597D01*
X43092000Y-51290597D01*
X43098505Y-51351093D01*
X43149555Y-51487964D01*
X43149555Y-51487965D01*
X43237095Y-51604904D01*
X43354034Y-51692444D01*
X43490906Y-51743494D01*
X43551402Y-51749999D01*
X43551415Y-51750000D01*
X44196000Y-51750000D01*
X44195999Y-51006033D01*
X44216001Y-50937912D01*
X44269657Y-50891419D01*
X44339926Y-50881315D01*
X44414237Y-50892000D01*
X44485763Y-50892000D01*
X44560069Y-50881316D01*
X44630341Y-50891419D01*
X44683997Y-50937911D01*
X44704000Y-51006031D01*
X44704000Y-51750000D01*
X45348585Y-51750000D01*
X45348597Y-51749999D01*
X45409093Y-51743494D01*
X45545964Y-51692444D01*
X45545965Y-51692444D01*
X45662904Y-51604904D01*
X45750444Y-51487965D01*
X45794618Y-51369530D01*
X45837165Y-51312694D01*
X45903685Y-51287883D01*
X45973059Y-51302974D01*
X46005372Y-51328222D01*
X46026427Y-51351093D01*
X46066762Y-51394908D01*
X46092312Y-51414794D01*
X46244424Y-51533189D01*
X46442426Y-51640342D01*
X46442427Y-51640342D01*
X46442428Y-51640343D01*
X46527360Y-51669500D01*
X46655365Y-51713444D01*
X46877431Y-51750500D01*
X46877435Y-51750500D01*
X47102565Y-51750500D01*
X47102569Y-51750500D01*
X47324635Y-51713444D01*
X47537574Y-51640342D01*
X47735576Y-51533189D01*
X47913240Y-51394906D01*
X48065722Y-51229268D01*
X48154518Y-51093354D01*
X48208520Y-51047268D01*
X48278868Y-51037692D01*
X48343225Y-51067669D01*
X48365480Y-51093353D01*
X48398607Y-51144058D01*
X48454275Y-51229265D01*
X48454279Y-51229270D01*
X48606762Y-51394908D01*
X48632312Y-51414794D01*
X48784424Y-51533189D01*
X48982426Y-51640342D01*
X48982427Y-51640342D01*
X48982428Y-51640343D01*
X49067360Y-51669500D01*
X49195365Y-51713444D01*
X49417431Y-51750500D01*
X49417435Y-51750500D01*
X49642565Y-51750500D01*
X49642569Y-51750500D01*
X49864635Y-51713444D01*
X50077574Y-51640342D01*
X50275576Y-51533189D01*
X50453240Y-51394906D01*
X50605722Y-51229268D01*
X50728860Y-51040791D01*
X50819296Y-50834616D01*
X50874564Y-50616368D01*
X50893156Y-50392000D01*
X50874564Y-50167632D01*
X50833093Y-50003867D01*
X50819297Y-49949387D01*
X50819296Y-49949386D01*
X50819296Y-49949384D01*
X50728860Y-49743209D01*
X50722140Y-49732924D01*
X50674496Y-49659999D01*
X149656496Y-49659999D01*
X149676457Y-49849927D01*
X149706526Y-49942470D01*
X149735473Y-50031556D01*
X149735476Y-50031561D01*
X149830958Y-50196941D01*
X149830965Y-50196951D01*
X149958744Y-50338864D01*
X149958747Y-50338866D01*
X150113248Y-50451118D01*
X150287712Y-50528794D01*
X150474513Y-50568500D01*
X150665487Y-50568500D01*
X150852288Y-50528794D01*
X151026752Y-50451118D01*
X151181253Y-50338866D01*
X151198140Y-50320111D01*
X151309034Y-50196951D01*
X151309035Y-50196949D01*
X151309040Y-50196944D01*
X151404527Y-50031556D01*
X151463542Y-49849928D01*
X151483504Y-49660000D01*
X151463542Y-49470072D01*
X151404527Y-49288444D01*
X151309040Y-49123056D01*
X151309038Y-49123054D01*
X151309034Y-49123048D01*
X151181255Y-48981135D01*
X151026752Y-48868882D01*
X150852288Y-48791206D01*
X150665487Y-48751500D01*
X150474513Y-48751500D01*
X150287711Y-48791206D01*
X150113247Y-48868882D01*
X149958744Y-48981135D01*
X149830965Y-49123048D01*
X149830958Y-49123058D01*
X149735476Y-49288438D01*
X149735473Y-49288445D01*
X149676457Y-49470072D01*
X149656496Y-49659999D01*
X50674496Y-49659999D01*
X50605724Y-49554734D01*
X50605720Y-49554729D01*
X50453237Y-49389091D01*
X50333679Y-49296035D01*
X50275576Y-49250811D01*
X50077574Y-49143658D01*
X50077572Y-49143657D01*
X50077571Y-49143656D01*
X49864639Y-49070557D01*
X49864630Y-49070555D01*
X49820476Y-49063187D01*
X49642569Y-49033500D01*
X49417431Y-49033500D01*
X49291057Y-49054588D01*
X49195369Y-49070555D01*
X49195360Y-49070557D01*
X48982428Y-49143656D01*
X48982426Y-49143658D01*
X48784426Y-49250810D01*
X48784424Y-49250811D01*
X48606762Y-49389091D01*
X48454279Y-49554729D01*
X48365483Y-49690643D01*
X48311479Y-49736731D01*
X48241131Y-49746306D01*
X48176774Y-49716329D01*
X48154517Y-49690643D01*
X48065720Y-49554729D01*
X47913237Y-49389091D01*
X47793679Y-49296035D01*
X47735576Y-49250811D01*
X47537574Y-49143658D01*
X47537572Y-49143657D01*
X47537571Y-49143656D01*
X47324639Y-49070557D01*
X47324630Y-49070555D01*
X47280476Y-49063187D01*
X47102569Y-49033500D01*
X46877431Y-49033500D01*
X46751057Y-49054588D01*
X46655369Y-49070555D01*
X46655360Y-49070557D01*
X46442428Y-49143656D01*
X46442426Y-49143658D01*
X46244426Y-49250810D01*
X46244424Y-49250811D01*
X46066759Y-49389094D01*
X46005374Y-49455775D01*
X45944521Y-49492346D01*
X45873557Y-49490211D01*
X45815012Y-49450049D01*
X45794618Y-49414470D01*
X45750443Y-49296033D01*
X45662904Y-49179095D01*
X45545965Y-49091555D01*
X45409093Y-49040505D01*
X45348597Y-49034000D01*
X44704000Y-49034000D01*
X44704000Y-49777966D01*
X44683998Y-49846087D01*
X44630342Y-49892580D01*
X44560069Y-49902683D01*
X44560068Y-49902683D01*
X44485768Y-49892000D01*
X44485763Y-49892000D01*
X44414237Y-49892000D01*
X44339929Y-49902683D01*
X44269657Y-49892580D01*
X44216001Y-49846087D01*
X44195999Y-49777966D01*
X44196000Y-49034000D01*
X43551402Y-49034000D01*
X43490906Y-49040505D01*
X43354035Y-49091555D01*
X43354034Y-49091555D01*
X43237095Y-49179095D01*
X43149555Y-49296034D01*
X43149555Y-49296035D01*
X43098505Y-49432906D01*
X43092000Y-49493402D01*
X43092000Y-50138000D01*
X43835156Y-50138000D01*
X43903277Y-50158002D01*
X43949770Y-50211658D01*
X43959874Y-50281932D01*
X43956053Y-50299496D01*
X43950000Y-50320111D01*
X43950000Y-50463888D01*
X43956053Y-50484504D01*
X43956052Y-50555500D01*
X43917667Y-50615226D01*
X43853086Y-50644718D01*
X43835156Y-50646000D01*
X43092000Y-50646000D01*
X43092000Y-51290597D01*
X25043307Y-51290597D01*
X25096502Y-51237402D01*
X25158812Y-51203379D01*
X25185595Y-51200500D01*
X25241487Y-51200500D01*
X25428288Y-51160794D01*
X25602752Y-51083118D01*
X25757253Y-50970866D01*
X25805249Y-50917561D01*
X25885034Y-50828951D01*
X25885035Y-50828949D01*
X25885040Y-50828944D01*
X25980527Y-50663556D01*
X26039542Y-50481928D01*
X26059504Y-50292000D01*
X26039542Y-50102072D01*
X25980527Y-49920444D01*
X25885040Y-49755056D01*
X25885038Y-49755054D01*
X25885034Y-49755048D01*
X25757255Y-49613135D01*
X25602752Y-49500882D01*
X25428288Y-49423206D01*
X25241487Y-49383500D01*
X25050513Y-49383500D01*
X24863711Y-49423206D01*
X24689247Y-49500882D01*
X24534744Y-49613135D01*
X24406965Y-49755048D01*
X24406958Y-49755058D01*
X24311476Y-49920438D01*
X24311473Y-49920445D01*
X24252457Y-50102072D01*
X24235092Y-50267292D01*
X24208079Y-50332949D01*
X24198877Y-50343216D01*
X24196702Y-50345391D01*
X24134390Y-50379417D01*
X24063575Y-50374352D01*
X24006739Y-50331805D01*
X23987774Y-50295233D01*
X23948527Y-50174444D01*
X23853040Y-50009056D01*
X23853038Y-50009054D01*
X23853034Y-50009048D01*
X23725255Y-49867135D01*
X23570752Y-49754882D01*
X23396288Y-49677206D01*
X23209487Y-49637500D01*
X23018513Y-49637500D01*
X22831711Y-49677206D01*
X22657247Y-49754882D01*
X22502744Y-49867135D01*
X22374965Y-50009048D01*
X22374958Y-50009058D01*
X22279476Y-50174438D01*
X22279473Y-50174444D01*
X22272163Y-50196941D01*
X22220457Y-50356072D01*
X22202304Y-50528794D01*
X22200496Y-50546000D01*
X22202593Y-50565960D01*
X22220457Y-50735927D01*
X22250526Y-50828470D01*
X22279473Y-50917556D01*
X22279476Y-50917561D01*
X22374958Y-51082941D01*
X22374965Y-51082951D01*
X22502744Y-51224864D01*
X22520004Y-51237404D01*
X22657248Y-51337118D01*
X22831712Y-51414794D01*
X22831713Y-51414794D01*
X22831715Y-51414795D01*
X22848494Y-51418362D01*
X22910967Y-51452090D01*
X22945288Y-51514240D01*
X22940560Y-51585079D01*
X22911392Y-51630702D01*
X22317498Y-52224596D01*
X22255188Y-52258620D01*
X22228405Y-52261500D01*
X18488200Y-52261500D01*
X18420079Y-52241498D01*
X18394563Y-52219810D01*
X18391252Y-52216133D01*
X18236752Y-52103882D01*
X18062288Y-52026206D01*
X17875487Y-51986500D01*
X17684513Y-51986500D01*
X17497711Y-52026206D01*
X17323247Y-52103882D01*
X17168744Y-52216135D01*
X17040965Y-52358048D01*
X17040958Y-52358058D01*
X16945476Y-52523438D01*
X16945473Y-52523445D01*
X16886457Y-52705072D01*
X16866496Y-52895000D01*
X9652500Y-52895000D01*
X9652500Y-48515999D01*
X11084892Y-48515999D01*
X11084893Y-48516000D01*
X11654711Y-48516000D01*
X11722832Y-48536002D01*
X11769325Y-48589658D01*
X11779429Y-48659932D01*
X11775901Y-48676481D01*
X11757305Y-48741840D01*
X11757304Y-48741841D01*
X11767653Y-48853520D01*
X11770499Y-48863522D01*
X11769901Y-48934516D01*
X11731015Y-48993916D01*
X11666188Y-49022864D01*
X11649308Y-49024000D01*
X11084893Y-49024000D01*
X11125423Y-49157610D01*
X11125424Y-49157612D01*
X11219024Y-49332724D01*
X11344988Y-49486211D01*
X11498475Y-49612175D01*
X11673585Y-49705774D01*
X11673600Y-49705780D01*
X11863593Y-49763414D01*
X11863605Y-49763416D01*
X12011673Y-49777999D01*
X12011691Y-49778000D01*
X12207200Y-49778000D01*
X12207200Y-49196000D01*
X12227202Y-49127879D01*
X12280858Y-49081386D01*
X12333200Y-49070000D01*
X12589200Y-49070000D01*
X12657321Y-49090002D01*
X12703814Y-49143658D01*
X12715200Y-49196000D01*
X12715200Y-49778000D01*
X12910709Y-49778000D01*
X12910726Y-49777999D01*
X13058794Y-49763416D01*
X13058806Y-49763414D01*
X13248799Y-49705780D01*
X13248814Y-49705774D01*
X13423924Y-49612175D01*
X13577411Y-49486211D01*
X13703375Y-49332724D01*
X13796975Y-49157612D01*
X13796976Y-49157610D01*
X13837507Y-49024000D01*
X13267689Y-49024000D01*
X13199568Y-49003998D01*
X13153075Y-48950342D01*
X13142971Y-48880068D01*
X13146499Y-48863519D01*
X13153211Y-48839927D01*
X13165095Y-48798160D01*
X13154746Y-48686479D01*
X13151901Y-48676478D01*
X13152499Y-48605484D01*
X13191385Y-48546084D01*
X13256212Y-48517136D01*
X13273092Y-48516000D01*
X13837507Y-48516000D01*
X13837507Y-48515999D01*
X15084892Y-48515999D01*
X15084893Y-48516000D01*
X15654711Y-48516000D01*
X15722832Y-48536002D01*
X15769325Y-48589658D01*
X15779429Y-48659932D01*
X15775901Y-48676481D01*
X15757305Y-48741840D01*
X15757304Y-48741841D01*
X15767653Y-48853520D01*
X15770499Y-48863522D01*
X15769901Y-48934516D01*
X15731015Y-48993916D01*
X15666188Y-49022864D01*
X15649308Y-49024000D01*
X15084893Y-49024000D01*
X15125423Y-49157610D01*
X15125424Y-49157612D01*
X15219024Y-49332724D01*
X15344988Y-49486211D01*
X15498475Y-49612175D01*
X15673585Y-49705774D01*
X15673600Y-49705780D01*
X15863593Y-49763414D01*
X15863605Y-49763416D01*
X16011673Y-49777999D01*
X16011691Y-49778000D01*
X16357200Y-49778000D01*
X16357200Y-49196000D01*
X16377202Y-49127879D01*
X16430858Y-49081386D01*
X16483200Y-49070000D01*
X16739200Y-49070000D01*
X16807321Y-49090002D01*
X16853814Y-49143658D01*
X16865200Y-49196000D01*
X16865200Y-49778000D01*
X17210709Y-49778000D01*
X17210726Y-49777999D01*
X17358794Y-49763416D01*
X17358806Y-49763414D01*
X17548799Y-49705780D01*
X17548814Y-49705774D01*
X17723924Y-49612175D01*
X17877411Y-49486211D01*
X18003375Y-49332724D01*
X18007503Y-49325001D01*
X38661495Y-49325001D01*
X38681456Y-49514928D01*
X38695614Y-49558500D01*
X38740472Y-49696557D01*
X38745797Y-49705780D01*
X38835957Y-49861942D01*
X38835964Y-49861952D01*
X38963743Y-50003865D01*
X38963746Y-50003867D01*
X39118247Y-50116119D01*
X39292711Y-50193795D01*
X39479512Y-50233501D01*
X39670486Y-50233501D01*
X39857287Y-50193795D01*
X40031751Y-50116119D01*
X40186252Y-50003867D01*
X40235309Y-49949384D01*
X40314033Y-49861952D01*
X40314034Y-49861950D01*
X40314039Y-49861945D01*
X40409526Y-49696557D01*
X40468541Y-49514929D01*
X40488503Y-49325001D01*
X40468541Y-49135073D01*
X40409526Y-48953445D01*
X40314039Y-48788057D01*
X40314037Y-48788055D01*
X40314033Y-48788049D01*
X40189732Y-48649999D01*
X127806496Y-48649999D01*
X127826457Y-48839927D01*
X127856526Y-48932470D01*
X127885473Y-49021556D01*
X127885476Y-49021561D01*
X127980958Y-49186941D01*
X127980965Y-49186951D01*
X128108744Y-49328864D01*
X128108747Y-49328866D01*
X128263248Y-49441118D01*
X128437712Y-49518794D01*
X128624513Y-49558500D01*
X128815487Y-49558500D01*
X129002288Y-49518794D01*
X129176752Y-49441118D01*
X129331253Y-49328866D01*
X129367649Y-49288444D01*
X129459034Y-49186951D01*
X129459035Y-49186949D01*
X129459040Y-49186944D01*
X129554527Y-49021556D01*
X129613542Y-48839928D01*
X129633504Y-48650000D01*
X129613542Y-48460072D01*
X129554527Y-48278444D01*
X129459040Y-48113056D01*
X129459038Y-48113054D01*
X129459034Y-48113048D01*
X129331255Y-47971135D01*
X129176752Y-47858882D01*
X129002288Y-47781206D01*
X128815487Y-47741500D01*
X128624513Y-47741500D01*
X128437711Y-47781206D01*
X128263247Y-47858882D01*
X128108744Y-47971135D01*
X127980965Y-48113048D01*
X127980958Y-48113058D01*
X127885476Y-48278438D01*
X127885473Y-48278445D01*
X127826457Y-48460072D01*
X127806496Y-48649999D01*
X40189732Y-48649999D01*
X40186254Y-48646136D01*
X40031751Y-48533883D01*
X39857287Y-48456207D01*
X39670486Y-48416501D01*
X39479512Y-48416501D01*
X39292710Y-48456207D01*
X39118246Y-48533883D01*
X38963743Y-48646136D01*
X38835964Y-48788049D01*
X38835957Y-48788059D01*
X38740475Y-48953439D01*
X38740472Y-48953446D01*
X38681456Y-49135073D01*
X38661495Y-49325001D01*
X18007503Y-49325001D01*
X18096975Y-49157612D01*
X18096976Y-49157610D01*
X18137507Y-49024000D01*
X17567689Y-49024000D01*
X17499568Y-49003998D01*
X17453075Y-48950342D01*
X17442971Y-48880068D01*
X17446499Y-48863519D01*
X17453211Y-48839927D01*
X17465095Y-48798160D01*
X17454746Y-48686479D01*
X17451901Y-48676478D01*
X17452499Y-48605484D01*
X17491385Y-48546084D01*
X17556212Y-48517136D01*
X17573092Y-48516000D01*
X18137507Y-48516000D01*
X18137507Y-48515999D01*
X18096976Y-48382389D01*
X18096975Y-48382387D01*
X18003375Y-48207275D01*
X17877411Y-48053788D01*
X17723924Y-47927824D01*
X17548814Y-47834225D01*
X17548799Y-47834219D01*
X17358806Y-47776585D01*
X17358794Y-47776583D01*
X17210726Y-47762000D01*
X16723957Y-47762000D01*
X16655836Y-47741998D01*
X16609343Y-47688342D01*
X16599239Y-47618068D01*
X16605232Y-47593805D01*
X16629299Y-47526085D01*
X16655254Y-47453056D01*
X16665581Y-47302079D01*
X16634792Y-47153915D01*
X16565171Y-47019553D01*
X16461880Y-46908956D01*
X16440675Y-46896061D01*
X16332581Y-46830327D01*
X16186867Y-46789500D01*
X16186865Y-46789500D01*
X16073542Y-46789500D01*
X16073528Y-46789500D01*
X15961284Y-46804928D01*
X15822476Y-46865221D01*
X15822474Y-46865223D01*
X15705094Y-46960719D01*
X15705091Y-46960722D01*
X15617823Y-47084351D01*
X15617821Y-47084356D01*
X15567146Y-47226942D01*
X15567145Y-47226948D01*
X15556819Y-47377919D01*
X15556819Y-47377921D01*
X15572433Y-47453057D01*
X15587609Y-47526088D01*
X15657228Y-47660445D01*
X15657231Y-47660449D01*
X15659019Y-47662364D01*
X15660097Y-47664510D01*
X15662200Y-47667489D01*
X15661752Y-47667804D01*
X15690895Y-47725802D01*
X15683413Y-47796403D01*
X15638949Y-47851752D01*
X15626328Y-47859485D01*
X15498473Y-47927825D01*
X15344988Y-48053788D01*
X15219024Y-48207275D01*
X15125424Y-48382387D01*
X15125423Y-48382389D01*
X15084892Y-48515999D01*
X13837507Y-48515999D01*
X13796976Y-48382389D01*
X13796975Y-48382387D01*
X13703375Y-48207275D01*
X13577411Y-48053788D01*
X13423924Y-47927824D01*
X13248814Y-47834225D01*
X13248799Y-47834219D01*
X13058806Y-47776585D01*
X13058794Y-47776583D01*
X12910726Y-47762000D01*
X12715200Y-47762000D01*
X12715200Y-48344000D01*
X12695198Y-48412121D01*
X12641542Y-48458614D01*
X12589200Y-48470000D01*
X12333200Y-48470000D01*
X12265079Y-48449998D01*
X12218586Y-48396342D01*
X12207200Y-48344000D01*
X12207200Y-47762000D01*
X12011673Y-47762000D01*
X11863605Y-47776583D01*
X11863593Y-47776585D01*
X11673600Y-47834219D01*
X11673585Y-47834225D01*
X11498475Y-47927824D01*
X11344988Y-48053788D01*
X11219024Y-48207275D01*
X11125424Y-48382387D01*
X11125423Y-48382389D01*
X11084892Y-48515999D01*
X9652500Y-48515999D01*
X9652500Y-46228000D01*
X17831696Y-46228000D01*
X17851657Y-46417927D01*
X17867566Y-46466888D01*
X17910673Y-46599556D01*
X17910676Y-46599561D01*
X18006158Y-46764941D01*
X18006165Y-46764951D01*
X18133944Y-46906864D01*
X18136825Y-46908957D01*
X18288448Y-47019118D01*
X18462912Y-47096794D01*
X18649713Y-47136500D01*
X18840687Y-47136500D01*
X19027488Y-47096794D01*
X19138444Y-47047393D01*
X19189694Y-47036500D01*
X31051506Y-47036500D01*
X31102755Y-47047393D01*
X31213712Y-47096794D01*
X31400513Y-47136500D01*
X31591487Y-47136500D01*
X31778288Y-47096794D01*
X31952752Y-47019118D01*
X32107253Y-46906866D01*
X32116983Y-46896060D01*
X32235034Y-46764951D01*
X32235035Y-46764949D01*
X32235040Y-46764944D01*
X32330527Y-46599556D01*
X32389542Y-46417928D01*
X32409504Y-46228000D01*
X32389542Y-46038072D01*
X32330527Y-45856444D01*
X32235040Y-45691056D01*
X32235038Y-45691054D01*
X32235034Y-45691048D01*
X32107255Y-45549135D01*
X31952752Y-45436882D01*
X31778288Y-45359206D01*
X31591487Y-45319500D01*
X31400513Y-45319500D01*
X31213711Y-45359206D01*
X31102755Y-45408607D01*
X31051506Y-45419500D01*
X19679700Y-45419500D01*
X19611579Y-45399498D01*
X19565086Y-45345842D01*
X19553700Y-45293500D01*
X19553700Y-45152765D01*
X36880788Y-45152765D01*
X36910412Y-45422014D01*
X36978928Y-45684090D01*
X37084869Y-45933389D01*
X37114899Y-45982595D01*
X37225982Y-46164610D01*
X37399255Y-46372820D01*
X37399257Y-46372822D01*
X37399259Y-46372824D01*
X37504236Y-46466883D01*
X37600998Y-46553582D01*
X37826910Y-46703044D01*
X38072176Y-46818020D01*
X38331569Y-46896060D01*
X38331572Y-46896060D01*
X38331574Y-46896061D01*
X38599557Y-46935500D01*
X38599561Y-46935500D01*
X38802633Y-46935500D01*
X38837363Y-46932957D01*
X39005156Y-46920677D01*
X39005160Y-46920676D01*
X39005161Y-46920676D01*
X39115665Y-46896060D01*
X39269553Y-46861780D01*
X39522558Y-46765014D01*
X39758777Y-46632441D01*
X39973177Y-46466888D01*
X40161186Y-46271881D01*
X40318799Y-46051579D01*
X40321563Y-46046204D01*
X40423132Y-45848649D01*
X59881500Y-45848649D01*
X59888009Y-45909196D01*
X59888011Y-45909204D01*
X59939110Y-46046202D01*
X59939112Y-46046207D01*
X60026738Y-46163261D01*
X60143792Y-46250887D01*
X60143794Y-46250888D01*
X60143796Y-46250889D01*
X60200064Y-46271876D01*
X60280795Y-46301988D01*
X60280803Y-46301990D01*
X60341350Y-46308499D01*
X60341355Y-46308499D01*
X60341362Y-46308500D01*
X60341368Y-46308500D01*
X63138632Y-46308500D01*
X63138638Y-46308500D01*
X63138645Y-46308499D01*
X63138649Y-46308499D01*
X63199196Y-46301990D01*
X63199199Y-46301989D01*
X63199201Y-46301989D01*
X63336204Y-46250889D01*
X63409645Y-46195912D01*
X63453261Y-46163261D01*
X63540887Y-46046207D01*
X63540887Y-46046206D01*
X63540889Y-46046204D01*
X63591989Y-45909201D01*
X63592963Y-45900149D01*
X63598499Y-45848649D01*
X63598500Y-45848632D01*
X63598500Y-44449999D01*
X64956753Y-44449999D01*
X64975718Y-44715171D01*
X65032225Y-44974928D01*
X65032225Y-44974929D01*
X65125130Y-45224020D01*
X65167438Y-45301500D01*
X65252537Y-45457347D01*
X65290887Y-45508576D01*
X65411853Y-45670168D01*
X65411861Y-45670177D01*
X65599822Y-45858138D01*
X65599831Y-45858146D01*
X65599833Y-45858148D01*
X65812653Y-46017463D01*
X66045979Y-46144869D01*
X66295063Y-46237772D01*
X66295066Y-46237772D01*
X66295070Y-46237774D01*
X66445400Y-46270476D01*
X66554832Y-46294282D01*
X66820000Y-46313247D01*
X67085168Y-46294282D01*
X67344928Y-46237774D01*
X67344929Y-46237774D01*
X67344930Y-46237773D01*
X67344937Y-46237772D01*
X67594021Y-46144869D01*
X67827347Y-46017463D01*
X68040167Y-45858148D01*
X68228148Y-45670167D01*
X68387463Y-45457347D01*
X68514869Y-45224021D01*
X68607772Y-44974937D01*
X68664282Y-44715168D01*
X68683247Y-44450000D01*
X68683247Y-44449999D01*
X70036753Y-44449999D01*
X70055718Y-44715171D01*
X70112225Y-44974928D01*
X70112225Y-44974929D01*
X70205130Y-45224020D01*
X70247438Y-45301500D01*
X70332537Y-45457347D01*
X70370887Y-45508576D01*
X70491853Y-45670168D01*
X70491861Y-45670177D01*
X70679822Y-45858138D01*
X70679831Y-45858146D01*
X70679833Y-45858148D01*
X70892653Y-46017463D01*
X71125979Y-46144869D01*
X71375063Y-46237772D01*
X71375066Y-46237772D01*
X71375070Y-46237774D01*
X71525400Y-46270476D01*
X71634832Y-46294282D01*
X71900000Y-46313247D01*
X72165168Y-46294282D01*
X72424928Y-46237774D01*
X72424929Y-46237774D01*
X72424930Y-46237773D01*
X72424937Y-46237772D01*
X72674021Y-46144869D01*
X72907347Y-46017463D01*
X73120167Y-45858148D01*
X73308148Y-45670167D01*
X73467463Y-45457347D01*
X73594869Y-45224021D01*
X73687772Y-44974937D01*
X73744282Y-44715168D01*
X73763247Y-44450000D01*
X75116753Y-44450000D01*
X75135718Y-44715171D01*
X75192225Y-44974928D01*
X75192225Y-44974929D01*
X75285130Y-45224020D01*
X75327438Y-45301500D01*
X75412537Y-45457347D01*
X75450887Y-45508576D01*
X75571853Y-45670168D01*
X75571861Y-45670177D01*
X75759822Y-45858138D01*
X75759831Y-45858146D01*
X75759833Y-45858148D01*
X75972653Y-46017463D01*
X76205979Y-46144869D01*
X76455063Y-46237772D01*
X76455066Y-46237772D01*
X76455070Y-46237774D01*
X76605400Y-46270476D01*
X76714832Y-46294282D01*
X76980000Y-46313247D01*
X77245168Y-46294282D01*
X77504928Y-46237774D01*
X77504929Y-46237774D01*
X77504930Y-46237773D01*
X77504937Y-46237772D01*
X77754021Y-46144869D01*
X77987347Y-46017463D01*
X78200167Y-45858148D01*
X78209666Y-45848649D01*
X85281500Y-45848649D01*
X85288009Y-45909196D01*
X85288011Y-45909204D01*
X85339110Y-46046202D01*
X85339112Y-46046207D01*
X85426738Y-46163261D01*
X85543792Y-46250887D01*
X85543794Y-46250888D01*
X85543796Y-46250889D01*
X85600064Y-46271876D01*
X85680795Y-46301988D01*
X85680803Y-46301990D01*
X85741350Y-46308499D01*
X85741355Y-46308499D01*
X85741362Y-46308500D01*
X85741368Y-46308500D01*
X88538632Y-46308500D01*
X88538638Y-46308500D01*
X88538645Y-46308499D01*
X88538649Y-46308499D01*
X88599196Y-46301990D01*
X88599199Y-46301989D01*
X88599201Y-46301989D01*
X88736204Y-46250889D01*
X88809645Y-46195912D01*
X88853261Y-46163261D01*
X88940887Y-46046207D01*
X88940887Y-46046206D01*
X88940889Y-46046204D01*
X88991989Y-45909201D01*
X88992963Y-45900149D01*
X88998499Y-45848649D01*
X88998500Y-45848632D01*
X88998500Y-44450000D01*
X90356753Y-44450000D01*
X90375718Y-44715171D01*
X90432225Y-44974928D01*
X90432225Y-44974929D01*
X90525130Y-45224020D01*
X90567438Y-45301500D01*
X90652537Y-45457347D01*
X90690887Y-45508576D01*
X90811853Y-45670168D01*
X90811861Y-45670177D01*
X90999822Y-45858138D01*
X90999831Y-45858146D01*
X90999833Y-45858148D01*
X91212653Y-46017463D01*
X91445979Y-46144869D01*
X91695063Y-46237772D01*
X91695066Y-46237772D01*
X91695070Y-46237774D01*
X91845400Y-46270476D01*
X91954832Y-46294282D01*
X92220000Y-46313247D01*
X92485168Y-46294282D01*
X92744928Y-46237774D01*
X92744929Y-46237774D01*
X92744930Y-46237773D01*
X92744937Y-46237772D01*
X92994021Y-46144869D01*
X93227347Y-46017463D01*
X93440167Y-45858148D01*
X93628148Y-45670167D01*
X93787463Y-45457347D01*
X93914869Y-45224021D01*
X94007772Y-44974937D01*
X94064282Y-44715168D01*
X94083247Y-44450000D01*
X95436753Y-44450000D01*
X95455718Y-44715171D01*
X95512225Y-44974928D01*
X95512225Y-44974929D01*
X95605130Y-45224020D01*
X95647438Y-45301500D01*
X95732537Y-45457347D01*
X95770887Y-45508576D01*
X95891853Y-45670168D01*
X95891861Y-45670177D01*
X96079822Y-45858138D01*
X96079831Y-45858146D01*
X96079833Y-45858148D01*
X96292653Y-46017463D01*
X96525979Y-46144869D01*
X96775063Y-46237772D01*
X96775066Y-46237772D01*
X96775070Y-46237774D01*
X96925400Y-46270476D01*
X97034832Y-46294282D01*
X97300000Y-46313247D01*
X97565168Y-46294282D01*
X97824928Y-46237774D01*
X97824929Y-46237774D01*
X97824930Y-46237773D01*
X97824937Y-46237772D01*
X98074021Y-46144869D01*
X98307347Y-46017463D01*
X98520167Y-45858148D01*
X98708148Y-45670167D01*
X98867463Y-45457347D01*
X98994869Y-45224021D01*
X99087772Y-44974937D01*
X99144282Y-44715168D01*
X99163247Y-44450000D01*
X99163247Y-44449999D01*
X100516753Y-44449999D01*
X100535718Y-44715171D01*
X100592225Y-44974928D01*
X100592225Y-44974929D01*
X100685130Y-45224020D01*
X100727438Y-45301500D01*
X100812537Y-45457347D01*
X100850887Y-45508576D01*
X100971853Y-45670168D01*
X100971861Y-45670177D01*
X101159822Y-45858138D01*
X101159831Y-45858146D01*
X101159833Y-45858148D01*
X101372653Y-46017463D01*
X101605979Y-46144869D01*
X101855063Y-46237772D01*
X101855066Y-46237772D01*
X101855070Y-46237774D01*
X102005400Y-46270476D01*
X102114832Y-46294282D01*
X102380000Y-46313247D01*
X102645168Y-46294282D01*
X102904928Y-46237774D01*
X102904929Y-46237774D01*
X102904930Y-46237773D01*
X102904937Y-46237772D01*
X103154021Y-46144869D01*
X103387347Y-46017463D01*
X103544060Y-45900149D01*
X109877500Y-45900149D01*
X109884009Y-45960696D01*
X109884011Y-45960704D01*
X109935110Y-46097702D01*
X109935112Y-46097707D01*
X110022738Y-46214761D01*
X110139792Y-46302387D01*
X110139794Y-46302388D01*
X110139796Y-46302389D01*
X110198875Y-46324424D01*
X110276795Y-46353488D01*
X110276803Y-46353490D01*
X110337350Y-46359999D01*
X110337355Y-46359999D01*
X110337362Y-46360000D01*
X110337368Y-46360000D01*
X113134632Y-46360000D01*
X113134638Y-46360000D01*
X113134645Y-46359999D01*
X113134649Y-46359999D01*
X113195196Y-46353490D01*
X113195199Y-46353489D01*
X113195201Y-46353489D01*
X113332204Y-46302389D01*
X113332739Y-46301989D01*
X113449261Y-46214761D01*
X113536887Y-46097707D01*
X113536887Y-46097706D01*
X113536889Y-46097704D01*
X113587989Y-45960701D01*
X113590926Y-45933389D01*
X113594499Y-45900149D01*
X113594500Y-45900132D01*
X113594500Y-44501499D01*
X114953254Y-44501499D01*
X114972213Y-44766592D01*
X115028707Y-45026293D01*
X115121587Y-45275314D01*
X115248958Y-45508576D01*
X115334902Y-45623384D01*
X115985431Y-44972856D01*
X116047744Y-44938831D01*
X116118559Y-44943895D01*
X116175395Y-44986442D01*
X116181213Y-44994913D01*
X116186575Y-45003447D01*
X116314048Y-45130920D01*
X116314050Y-45130921D01*
X116314052Y-45130923D01*
X116322569Y-45136274D01*
X116322584Y-45136284D01*
X116369621Y-45189464D01*
X116380441Y-45259631D01*
X116351607Y-45324509D01*
X116344642Y-45332066D01*
X115694112Y-45982595D01*
X115694113Y-45982596D01*
X115808919Y-46068539D01*
X116042185Y-46195912D01*
X116291206Y-46288792D01*
X116550907Y-46345286D01*
X116816000Y-46364245D01*
X117081092Y-46345286D01*
X117340793Y-46288792D01*
X117589814Y-46195912D01*
X117823076Y-46068542D01*
X117937885Y-45982595D01*
X117803939Y-45848649D01*
X124711500Y-45848649D01*
X124718009Y-45909196D01*
X124718011Y-45909204D01*
X124769110Y-46046202D01*
X124769112Y-46046207D01*
X124856738Y-46163261D01*
X124973792Y-46250887D01*
X124973794Y-46250888D01*
X124973796Y-46250889D01*
X125030064Y-46271876D01*
X125110795Y-46301988D01*
X125110803Y-46301990D01*
X125171350Y-46308499D01*
X125171355Y-46308499D01*
X125171362Y-46308500D01*
X125171368Y-46308500D01*
X127968632Y-46308500D01*
X127968638Y-46308500D01*
X127968645Y-46308499D01*
X127968649Y-46308499D01*
X128029196Y-46301990D01*
X128029199Y-46301989D01*
X128029201Y-46301989D01*
X128166204Y-46250889D01*
X128239645Y-46195912D01*
X128283261Y-46163261D01*
X128370887Y-46046207D01*
X128370887Y-46046206D01*
X128370889Y-46046204D01*
X128421989Y-45909201D01*
X128422963Y-45900149D01*
X128428499Y-45848649D01*
X128428500Y-45848632D01*
X128428500Y-44449999D01*
X129786753Y-44449999D01*
X129805718Y-44715171D01*
X129862225Y-44974928D01*
X129862225Y-44974929D01*
X129955130Y-45224020D01*
X129997438Y-45301500D01*
X130082537Y-45457347D01*
X130120887Y-45508576D01*
X130241853Y-45670168D01*
X130241861Y-45670177D01*
X130429822Y-45858138D01*
X130429831Y-45858146D01*
X130429833Y-45858148D01*
X130642653Y-46017463D01*
X130875979Y-46144869D01*
X131125063Y-46237772D01*
X131125066Y-46237772D01*
X131125070Y-46237774D01*
X131275400Y-46270476D01*
X131384832Y-46294282D01*
X131650000Y-46313247D01*
X131915168Y-46294282D01*
X132174928Y-46237774D01*
X132174929Y-46237774D01*
X132174930Y-46237773D01*
X132174937Y-46237772D01*
X132424021Y-46144869D01*
X132657347Y-46017463D01*
X132870167Y-45858148D01*
X133058148Y-45670167D01*
X133217463Y-45457347D01*
X133344869Y-45224021D01*
X133437772Y-44974937D01*
X133494282Y-44715168D01*
X133513247Y-44450000D01*
X133513247Y-44449999D01*
X134866753Y-44449999D01*
X134885718Y-44715171D01*
X134942225Y-44974928D01*
X134942225Y-44974929D01*
X135035130Y-45224020D01*
X135077438Y-45301500D01*
X135162537Y-45457347D01*
X135200887Y-45508576D01*
X135321853Y-45670168D01*
X135321861Y-45670177D01*
X135509822Y-45858138D01*
X135509831Y-45858146D01*
X135509833Y-45858148D01*
X135722653Y-46017463D01*
X135955979Y-46144869D01*
X136205063Y-46237772D01*
X136205066Y-46237772D01*
X136205070Y-46237774D01*
X136355400Y-46270476D01*
X136464832Y-46294282D01*
X136730000Y-46313247D01*
X136995168Y-46294282D01*
X137254928Y-46237774D01*
X137254929Y-46237774D01*
X137254930Y-46237773D01*
X137254937Y-46237772D01*
X137504021Y-46144869D01*
X137737347Y-46017463D01*
X137950167Y-45858148D01*
X138138148Y-45670167D01*
X138297463Y-45457347D01*
X138424869Y-45224021D01*
X138517772Y-44974937D01*
X138574282Y-44715168D01*
X138593247Y-44450000D01*
X138593247Y-44449999D01*
X139946753Y-44449999D01*
X139965718Y-44715171D01*
X140022225Y-44974928D01*
X140022225Y-44974929D01*
X140115130Y-45224020D01*
X140157438Y-45301500D01*
X140242537Y-45457347D01*
X140280887Y-45508576D01*
X140401853Y-45670168D01*
X140401861Y-45670177D01*
X140589822Y-45858138D01*
X140589831Y-45858146D01*
X140589833Y-45858148D01*
X140802653Y-46017463D01*
X141035979Y-46144869D01*
X141285063Y-46237772D01*
X141285066Y-46237772D01*
X141285070Y-46237774D01*
X141435400Y-46270476D01*
X141544832Y-46294282D01*
X141810000Y-46313247D01*
X142075168Y-46294282D01*
X142334928Y-46237774D01*
X142334929Y-46237774D01*
X142334930Y-46237773D01*
X142334937Y-46237772D01*
X142584021Y-46144869D01*
X142817347Y-46017463D01*
X143030167Y-45858148D01*
X143039666Y-45848649D01*
X150111500Y-45848649D01*
X150118009Y-45909196D01*
X150118011Y-45909204D01*
X150169110Y-46046202D01*
X150169112Y-46046207D01*
X150256738Y-46163261D01*
X150373792Y-46250887D01*
X150373794Y-46250888D01*
X150373796Y-46250889D01*
X150430064Y-46271876D01*
X150510795Y-46301988D01*
X150510803Y-46301990D01*
X150571350Y-46308499D01*
X150571355Y-46308499D01*
X150571362Y-46308500D01*
X150571368Y-46308500D01*
X153368632Y-46308500D01*
X153368638Y-46308500D01*
X153368645Y-46308499D01*
X153368649Y-46308499D01*
X153429196Y-46301990D01*
X153429199Y-46301989D01*
X153429201Y-46301989D01*
X153566204Y-46250889D01*
X153639645Y-46195912D01*
X153683261Y-46163261D01*
X153770887Y-46046207D01*
X153770887Y-46046206D01*
X153770889Y-46046204D01*
X153821989Y-45909201D01*
X153822963Y-45900149D01*
X153828499Y-45848649D01*
X153828500Y-45848632D01*
X153828500Y-44450000D01*
X155186753Y-44450000D01*
X155205718Y-44715171D01*
X155262225Y-44974928D01*
X155262225Y-44974929D01*
X155355130Y-45224020D01*
X155397438Y-45301500D01*
X155482537Y-45457347D01*
X155520887Y-45508576D01*
X155641853Y-45670168D01*
X155641861Y-45670177D01*
X155829822Y-45858138D01*
X155829831Y-45858146D01*
X155829833Y-45858148D01*
X156042653Y-46017463D01*
X156275979Y-46144869D01*
X156525063Y-46237772D01*
X156525066Y-46237772D01*
X156525070Y-46237774D01*
X156675400Y-46270476D01*
X156784832Y-46294282D01*
X157050000Y-46313247D01*
X157315168Y-46294282D01*
X157574928Y-46237774D01*
X157574929Y-46237774D01*
X157574930Y-46237773D01*
X157574937Y-46237772D01*
X157824021Y-46144869D01*
X158057347Y-46017463D01*
X158270167Y-45858148D01*
X158458148Y-45670167D01*
X158617463Y-45457347D01*
X158744869Y-45224021D01*
X158837772Y-44974937D01*
X158894282Y-44715168D01*
X158913247Y-44450000D01*
X158913247Y-44449999D01*
X160266753Y-44449999D01*
X160285718Y-44715171D01*
X160342225Y-44974928D01*
X160342225Y-44974929D01*
X160435130Y-45224020D01*
X160477438Y-45301500D01*
X160562537Y-45457347D01*
X160600887Y-45508576D01*
X160721853Y-45670168D01*
X160721861Y-45670177D01*
X160909822Y-45858138D01*
X160909831Y-45858146D01*
X160909833Y-45858148D01*
X161122653Y-46017463D01*
X161355979Y-46144869D01*
X161605063Y-46237772D01*
X161605066Y-46237772D01*
X161605070Y-46237774D01*
X161755400Y-46270476D01*
X161864832Y-46294282D01*
X162130000Y-46313247D01*
X162395168Y-46294282D01*
X162654928Y-46237774D01*
X162654929Y-46237774D01*
X162654930Y-46237773D01*
X162654937Y-46237772D01*
X162904021Y-46144869D01*
X163137347Y-46017463D01*
X163350167Y-45858148D01*
X163538148Y-45670167D01*
X163697463Y-45457347D01*
X163824869Y-45224021D01*
X163917772Y-44974937D01*
X163974282Y-44715168D01*
X163993247Y-44450000D01*
X165346753Y-44450000D01*
X165365718Y-44715171D01*
X165422225Y-44974928D01*
X165422225Y-44974929D01*
X165515130Y-45224020D01*
X165557438Y-45301500D01*
X165642537Y-45457347D01*
X165680887Y-45508576D01*
X165801853Y-45670168D01*
X165801861Y-45670177D01*
X165989822Y-45858138D01*
X165989831Y-45858146D01*
X165989833Y-45858148D01*
X166202653Y-46017463D01*
X166435979Y-46144869D01*
X166685063Y-46237772D01*
X166685066Y-46237772D01*
X166685070Y-46237774D01*
X166835400Y-46270476D01*
X166944832Y-46294282D01*
X167210000Y-46313247D01*
X167475168Y-46294282D01*
X167734928Y-46237774D01*
X167734929Y-46237774D01*
X167734930Y-46237773D01*
X167734937Y-46237772D01*
X167984021Y-46144869D01*
X168217347Y-46017463D01*
X168430167Y-45858148D01*
X168618148Y-45670167D01*
X168777463Y-45457347D01*
X168904869Y-45224021D01*
X168997772Y-44974937D01*
X169054282Y-44715168D01*
X169073247Y-44450000D01*
X169054282Y-44184832D01*
X169020709Y-44030500D01*
X168997774Y-43925071D01*
X168997774Y-43925070D01*
X168997772Y-43925066D01*
X168997772Y-43925063D01*
X168904869Y-43675979D01*
X168777463Y-43442653D01*
X168618148Y-43229833D01*
X168618146Y-43229831D01*
X168618138Y-43229822D01*
X168430177Y-43041861D01*
X168430168Y-43041853D01*
X168401513Y-43020402D01*
X168217347Y-42882537D01*
X168026569Y-42778364D01*
X167984020Y-42755130D01*
X167734929Y-42662225D01*
X167475170Y-42605718D01*
X167475172Y-42605718D01*
X167210000Y-42586753D01*
X166944828Y-42605718D01*
X166685071Y-42662225D01*
X166685070Y-42662225D01*
X166435979Y-42755130D01*
X166202653Y-42882537D01*
X165989831Y-43041853D01*
X165989822Y-43041861D01*
X165801861Y-43229822D01*
X165801853Y-43229831D01*
X165642537Y-43442653D01*
X165515130Y-43675979D01*
X165422225Y-43925070D01*
X165422225Y-43925071D01*
X165365718Y-44184828D01*
X165346753Y-44450000D01*
X163993247Y-44450000D01*
X163974282Y-44184832D01*
X163940709Y-44030500D01*
X163917774Y-43925071D01*
X163917774Y-43925070D01*
X163917772Y-43925066D01*
X163917772Y-43925063D01*
X163824869Y-43675979D01*
X163697463Y-43442653D01*
X163538148Y-43229833D01*
X163538146Y-43229831D01*
X163538138Y-43229822D01*
X163350177Y-43041861D01*
X163350168Y-43041853D01*
X163321513Y-43020402D01*
X163137347Y-42882537D01*
X162946569Y-42778364D01*
X162904020Y-42755130D01*
X162654929Y-42662225D01*
X162395170Y-42605718D01*
X162395172Y-42605718D01*
X162130000Y-42586753D01*
X161864828Y-42605718D01*
X161605071Y-42662225D01*
X161605070Y-42662225D01*
X161355979Y-42755130D01*
X161122653Y-42882537D01*
X160909831Y-43041853D01*
X160909822Y-43041861D01*
X160721861Y-43229822D01*
X160721853Y-43229831D01*
X160562537Y-43442653D01*
X160435130Y-43675979D01*
X160342225Y-43925070D01*
X160342225Y-43925071D01*
X160285718Y-44184828D01*
X160266753Y-44449999D01*
X158913247Y-44449999D01*
X158894282Y-44184832D01*
X158860709Y-44030500D01*
X158837774Y-43925071D01*
X158837774Y-43925070D01*
X158837772Y-43925066D01*
X158837772Y-43925063D01*
X158744869Y-43675979D01*
X158617463Y-43442653D01*
X158458148Y-43229833D01*
X158458146Y-43229831D01*
X158458138Y-43229822D01*
X158270177Y-43041861D01*
X158270168Y-43041853D01*
X158241513Y-43020402D01*
X158057347Y-42882537D01*
X157866569Y-42778364D01*
X157824020Y-42755130D01*
X157574929Y-42662225D01*
X157315170Y-42605718D01*
X157315172Y-42605718D01*
X157050000Y-42586753D01*
X156784828Y-42605718D01*
X156525071Y-42662225D01*
X156525070Y-42662225D01*
X156275979Y-42755130D01*
X156042653Y-42882537D01*
X155829831Y-43041853D01*
X155829822Y-43041861D01*
X155641861Y-43229822D01*
X155641853Y-43229831D01*
X155482537Y-43442653D01*
X155355130Y-43675979D01*
X155262225Y-43925070D01*
X155262225Y-43925071D01*
X155205718Y-44184828D01*
X155186753Y-44450000D01*
X153828500Y-44450000D01*
X153828500Y-43051367D01*
X153828499Y-43051350D01*
X153821990Y-42990803D01*
X153821988Y-42990795D01*
X153770889Y-42853797D01*
X153770887Y-42853792D01*
X153683261Y-42736738D01*
X153566207Y-42649112D01*
X153566202Y-42649110D01*
X153429204Y-42598011D01*
X153429196Y-42598009D01*
X153368649Y-42591500D01*
X153368638Y-42591500D01*
X150571362Y-42591500D01*
X150571350Y-42591500D01*
X150510803Y-42598009D01*
X150510795Y-42598011D01*
X150373797Y-42649110D01*
X150373792Y-42649112D01*
X150256738Y-42736738D01*
X150169112Y-42853792D01*
X150169110Y-42853797D01*
X150118011Y-42990795D01*
X150118009Y-42990803D01*
X150111500Y-43051350D01*
X150111500Y-45848649D01*
X143039666Y-45848649D01*
X143218148Y-45670167D01*
X143377463Y-45457347D01*
X143504869Y-45224021D01*
X143597772Y-44974937D01*
X143654282Y-44715168D01*
X143673247Y-44450000D01*
X143654282Y-44184832D01*
X143620709Y-44030500D01*
X143597774Y-43925071D01*
X143597774Y-43925070D01*
X143597772Y-43925066D01*
X143597772Y-43925063D01*
X143504869Y-43675979D01*
X143377463Y-43442653D01*
X143218148Y-43229833D01*
X143218146Y-43229831D01*
X143218138Y-43229822D01*
X143030177Y-43041861D01*
X143030168Y-43041853D01*
X143001513Y-43020402D01*
X142817347Y-42882537D01*
X142626569Y-42778364D01*
X142584020Y-42755130D01*
X142334929Y-42662225D01*
X142075170Y-42605718D01*
X142075172Y-42605718D01*
X141810000Y-42586753D01*
X141544828Y-42605718D01*
X141285071Y-42662225D01*
X141285070Y-42662225D01*
X141035979Y-42755130D01*
X140802653Y-42882537D01*
X140589831Y-43041853D01*
X140589822Y-43041861D01*
X140401861Y-43229822D01*
X140401853Y-43229831D01*
X140242537Y-43442653D01*
X140115130Y-43675979D01*
X140022225Y-43925070D01*
X140022225Y-43925071D01*
X139965718Y-44184828D01*
X139946753Y-44449999D01*
X138593247Y-44449999D01*
X138574282Y-44184832D01*
X138540709Y-44030500D01*
X138517774Y-43925071D01*
X138517774Y-43925070D01*
X138517772Y-43925066D01*
X138517772Y-43925063D01*
X138424869Y-43675979D01*
X138297463Y-43442653D01*
X138138148Y-43229833D01*
X138138146Y-43229831D01*
X138138138Y-43229822D01*
X137950177Y-43041861D01*
X137950168Y-43041853D01*
X137921513Y-43020402D01*
X137737347Y-42882537D01*
X137546569Y-42778364D01*
X137504020Y-42755130D01*
X137254929Y-42662225D01*
X136995170Y-42605718D01*
X136995172Y-42605718D01*
X136730000Y-42586753D01*
X136464828Y-42605718D01*
X136205071Y-42662225D01*
X136205070Y-42662225D01*
X135955979Y-42755130D01*
X135722653Y-42882537D01*
X135509831Y-43041853D01*
X135509822Y-43041861D01*
X135321861Y-43229822D01*
X135321853Y-43229831D01*
X135162537Y-43442653D01*
X135035130Y-43675979D01*
X134942225Y-43925070D01*
X134942225Y-43925071D01*
X134885718Y-44184828D01*
X134866753Y-44449999D01*
X133513247Y-44449999D01*
X133494282Y-44184832D01*
X133460709Y-44030500D01*
X133437774Y-43925071D01*
X133437774Y-43925070D01*
X133437772Y-43925066D01*
X133437772Y-43925063D01*
X133344869Y-43675979D01*
X133217463Y-43442653D01*
X133058148Y-43229833D01*
X133058146Y-43229831D01*
X133058138Y-43229822D01*
X132870177Y-43041861D01*
X132870168Y-43041853D01*
X132841513Y-43020402D01*
X132657347Y-42882537D01*
X132466569Y-42778364D01*
X132424020Y-42755130D01*
X132174929Y-42662225D01*
X131915170Y-42605718D01*
X131915172Y-42605718D01*
X131650000Y-42586753D01*
X131384828Y-42605718D01*
X131125071Y-42662225D01*
X131125070Y-42662225D01*
X130875979Y-42755130D01*
X130642653Y-42882537D01*
X130429831Y-43041853D01*
X130429822Y-43041861D01*
X130241861Y-43229822D01*
X130241853Y-43229831D01*
X130082537Y-43442653D01*
X129955130Y-43675979D01*
X129862225Y-43925070D01*
X129862225Y-43925071D01*
X129805718Y-44184828D01*
X129786753Y-44449999D01*
X128428500Y-44449999D01*
X128428500Y-43051367D01*
X128428499Y-43051350D01*
X128421990Y-42990803D01*
X128421988Y-42990795D01*
X128370889Y-42853797D01*
X128370887Y-42853792D01*
X128283261Y-42736738D01*
X128166207Y-42649112D01*
X128166202Y-42649110D01*
X128029204Y-42598011D01*
X128029196Y-42598009D01*
X127968649Y-42591500D01*
X127968638Y-42591500D01*
X125171362Y-42591500D01*
X125171350Y-42591500D01*
X125110803Y-42598009D01*
X125110795Y-42598011D01*
X124973797Y-42649110D01*
X124973792Y-42649112D01*
X124856738Y-42736738D01*
X124769112Y-42853792D01*
X124769110Y-42853797D01*
X124718011Y-42990795D01*
X124718009Y-42990803D01*
X124711500Y-43051350D01*
X124711500Y-45848649D01*
X117803939Y-45848649D01*
X117287356Y-45332067D01*
X117253331Y-45269754D01*
X117258395Y-45198939D01*
X117300942Y-45142103D01*
X117309394Y-45136297D01*
X117317948Y-45130923D01*
X117445423Y-45003448D01*
X117450783Y-44994917D01*
X117503957Y-44947880D01*
X117574123Y-44937056D01*
X117639003Y-44965886D01*
X117646567Y-44972856D01*
X118297095Y-45623384D01*
X118383042Y-45508576D01*
X118510412Y-45275314D01*
X118603292Y-45026293D01*
X118659786Y-44766592D01*
X118678745Y-44501499D01*
X118659786Y-44236407D01*
X118603292Y-43976706D01*
X118510412Y-43727685D01*
X118383039Y-43494419D01*
X118297096Y-43379613D01*
X118297095Y-43379612D01*
X117646566Y-44030142D01*
X117584254Y-44064168D01*
X117513439Y-44059103D01*
X117456603Y-44016556D01*
X117450784Y-44008084D01*
X117449720Y-44006391D01*
X117445423Y-43999552D01*
X117445421Y-43999550D01*
X117445420Y-43999548D01*
X117317947Y-43872075D01*
X117309413Y-43866713D01*
X117262376Y-43813534D01*
X117251557Y-43743366D01*
X117280391Y-43678489D01*
X117287356Y-43670931D01*
X117937885Y-43020403D01*
X117823076Y-42934458D01*
X117589814Y-42807087D01*
X117340793Y-42714207D01*
X117081092Y-42657713D01*
X116816000Y-42638754D01*
X116550907Y-42657713D01*
X116291206Y-42714207D01*
X116042185Y-42807087D01*
X115808924Y-42934457D01*
X115694113Y-43020402D01*
X116344643Y-43670932D01*
X116378668Y-43733245D01*
X116373604Y-43804060D01*
X116331057Y-43860896D01*
X116322589Y-43866712D01*
X116314053Y-43872076D01*
X116314047Y-43872080D01*
X116186580Y-43999547D01*
X116186576Y-43999553D01*
X116181212Y-44008089D01*
X116128031Y-44055124D01*
X116057863Y-44065941D01*
X115992987Y-44037105D01*
X115985432Y-44030143D01*
X115334902Y-43379613D01*
X115248957Y-43494424D01*
X115121587Y-43727685D01*
X115028707Y-43976706D01*
X114972213Y-44236407D01*
X114953254Y-44501499D01*
X113594500Y-44501499D01*
X113594500Y-43102867D01*
X113594499Y-43102850D01*
X113587990Y-43042303D01*
X113587988Y-43042295D01*
X113547766Y-42934458D01*
X113536889Y-42905296D01*
X113536888Y-42905294D01*
X113536887Y-42905292D01*
X113449261Y-42788238D01*
X113332207Y-42700612D01*
X113332202Y-42700610D01*
X113195204Y-42649511D01*
X113195196Y-42649509D01*
X113134649Y-42643000D01*
X113134638Y-42643000D01*
X110337362Y-42643000D01*
X110337350Y-42643000D01*
X110276803Y-42649509D01*
X110276795Y-42649511D01*
X110139797Y-42700610D01*
X110139792Y-42700612D01*
X110022738Y-42788238D01*
X109935112Y-42905292D01*
X109935110Y-42905297D01*
X109884011Y-43042295D01*
X109884009Y-43042303D01*
X109877500Y-43102850D01*
X109877500Y-45900149D01*
X103544060Y-45900149D01*
X103600167Y-45858148D01*
X103788148Y-45670167D01*
X103947463Y-45457347D01*
X104074869Y-45224021D01*
X104167772Y-44974937D01*
X104224282Y-44715168D01*
X104243247Y-44450000D01*
X104224282Y-44184832D01*
X104190709Y-44030500D01*
X104167774Y-43925071D01*
X104167774Y-43925070D01*
X104167772Y-43925066D01*
X104167772Y-43925063D01*
X104074869Y-43675979D01*
X103947463Y-43442653D01*
X103788148Y-43229833D01*
X103788146Y-43229831D01*
X103788138Y-43229822D01*
X103600177Y-43041861D01*
X103600168Y-43041853D01*
X103571513Y-43020402D01*
X103387347Y-42882537D01*
X103196569Y-42778364D01*
X103154020Y-42755130D01*
X102904929Y-42662225D01*
X102645170Y-42605718D01*
X102645172Y-42605718D01*
X102380000Y-42586753D01*
X102114828Y-42605718D01*
X101855071Y-42662225D01*
X101855070Y-42662225D01*
X101605979Y-42755130D01*
X101372653Y-42882537D01*
X101159831Y-43041853D01*
X101159822Y-43041861D01*
X100971861Y-43229822D01*
X100971853Y-43229831D01*
X100812537Y-43442653D01*
X100685130Y-43675979D01*
X100592225Y-43925070D01*
X100592225Y-43925071D01*
X100535718Y-44184828D01*
X100516753Y-44449999D01*
X99163247Y-44449999D01*
X99144282Y-44184832D01*
X99110709Y-44030500D01*
X99087774Y-43925071D01*
X99087774Y-43925070D01*
X99087772Y-43925066D01*
X99087772Y-43925063D01*
X98994869Y-43675979D01*
X98867463Y-43442653D01*
X98708148Y-43229833D01*
X98708146Y-43229831D01*
X98708138Y-43229822D01*
X98520177Y-43041861D01*
X98520168Y-43041853D01*
X98491513Y-43020402D01*
X98307347Y-42882537D01*
X98116569Y-42778364D01*
X98074020Y-42755130D01*
X97824929Y-42662225D01*
X97565170Y-42605718D01*
X97565172Y-42605718D01*
X97300000Y-42586753D01*
X97034828Y-42605718D01*
X96775071Y-42662225D01*
X96775070Y-42662225D01*
X96525979Y-42755130D01*
X96292653Y-42882537D01*
X96079831Y-43041853D01*
X96079822Y-43041861D01*
X95891861Y-43229822D01*
X95891853Y-43229831D01*
X95732537Y-43442653D01*
X95605130Y-43675979D01*
X95512225Y-43925070D01*
X95512225Y-43925071D01*
X95455718Y-44184828D01*
X95436753Y-44450000D01*
X94083247Y-44450000D01*
X94064282Y-44184832D01*
X94030709Y-44030500D01*
X94007774Y-43925071D01*
X94007774Y-43925070D01*
X94007772Y-43925066D01*
X94007772Y-43925063D01*
X93914869Y-43675979D01*
X93787463Y-43442653D01*
X93628148Y-43229833D01*
X93628146Y-43229831D01*
X93628138Y-43229822D01*
X93440177Y-43041861D01*
X93440168Y-43041853D01*
X93411513Y-43020402D01*
X93227347Y-42882537D01*
X93036569Y-42778364D01*
X92994020Y-42755130D01*
X92744929Y-42662225D01*
X92485170Y-42605718D01*
X92485172Y-42605718D01*
X92273033Y-42590545D01*
X92220000Y-42586753D01*
X92219999Y-42586753D01*
X91954828Y-42605718D01*
X91695071Y-42662225D01*
X91695070Y-42662225D01*
X91445979Y-42755130D01*
X91212653Y-42882537D01*
X90999831Y-43041853D01*
X90999822Y-43041861D01*
X90811861Y-43229822D01*
X90811853Y-43229831D01*
X90652537Y-43442653D01*
X90525130Y-43675979D01*
X90432225Y-43925070D01*
X90432225Y-43925071D01*
X90375718Y-44184828D01*
X90356753Y-44450000D01*
X88998500Y-44450000D01*
X88998500Y-43051367D01*
X88998499Y-43051350D01*
X88991990Y-42990803D01*
X88991988Y-42990795D01*
X88940889Y-42853797D01*
X88940887Y-42853792D01*
X88853261Y-42736738D01*
X88736207Y-42649112D01*
X88736202Y-42649110D01*
X88599204Y-42598011D01*
X88599196Y-42598009D01*
X88538649Y-42591500D01*
X88538638Y-42591500D01*
X85741362Y-42591500D01*
X85741350Y-42591500D01*
X85680803Y-42598009D01*
X85680795Y-42598011D01*
X85543797Y-42649110D01*
X85543792Y-42649112D01*
X85426738Y-42736738D01*
X85339112Y-42853792D01*
X85339110Y-42853797D01*
X85288011Y-42990795D01*
X85288009Y-42990803D01*
X85281500Y-43051350D01*
X85281500Y-45848649D01*
X78209666Y-45848649D01*
X78388148Y-45670167D01*
X78547463Y-45457347D01*
X78674869Y-45224021D01*
X78767772Y-44974937D01*
X78824282Y-44715168D01*
X78843247Y-44450000D01*
X78824282Y-44184832D01*
X78790709Y-44030500D01*
X78767774Y-43925071D01*
X78767774Y-43925070D01*
X78767772Y-43925066D01*
X78767772Y-43925063D01*
X78674869Y-43675979D01*
X78547463Y-43442653D01*
X78388148Y-43229833D01*
X78388146Y-43229831D01*
X78388138Y-43229822D01*
X78200177Y-43041861D01*
X78200168Y-43041853D01*
X78171513Y-43020402D01*
X77987347Y-42882537D01*
X77796569Y-42778364D01*
X77754020Y-42755130D01*
X77504929Y-42662225D01*
X77245170Y-42605718D01*
X77245172Y-42605718D01*
X76980000Y-42586753D01*
X76714828Y-42605718D01*
X76455071Y-42662225D01*
X76455070Y-42662225D01*
X76205979Y-42755130D01*
X75972653Y-42882537D01*
X75759831Y-43041853D01*
X75759822Y-43041861D01*
X75571861Y-43229822D01*
X75571853Y-43229831D01*
X75412537Y-43442653D01*
X75285130Y-43675979D01*
X75192225Y-43925070D01*
X75192225Y-43925071D01*
X75135718Y-44184828D01*
X75116753Y-44450000D01*
X73763247Y-44450000D01*
X73744282Y-44184832D01*
X73710709Y-44030500D01*
X73687774Y-43925071D01*
X73687774Y-43925070D01*
X73687772Y-43925066D01*
X73687772Y-43925063D01*
X73594869Y-43675979D01*
X73467463Y-43442653D01*
X73308148Y-43229833D01*
X73308146Y-43229831D01*
X73308138Y-43229822D01*
X73120177Y-43041861D01*
X73120168Y-43041853D01*
X73091513Y-43020402D01*
X72907347Y-42882537D01*
X72716569Y-42778364D01*
X72674020Y-42755130D01*
X72424929Y-42662225D01*
X72165170Y-42605718D01*
X72165172Y-42605718D01*
X71900000Y-42586753D01*
X71634828Y-42605718D01*
X71375071Y-42662225D01*
X71375070Y-42662225D01*
X71125979Y-42755130D01*
X70892653Y-42882537D01*
X70679831Y-43041853D01*
X70679822Y-43041861D01*
X70491861Y-43229822D01*
X70491853Y-43229831D01*
X70332537Y-43442653D01*
X70205130Y-43675979D01*
X70112225Y-43925070D01*
X70112225Y-43925071D01*
X70055718Y-44184828D01*
X70036753Y-44449999D01*
X68683247Y-44449999D01*
X68664282Y-44184832D01*
X68630709Y-44030500D01*
X68607774Y-43925071D01*
X68607774Y-43925070D01*
X68607772Y-43925066D01*
X68607772Y-43925063D01*
X68514869Y-43675979D01*
X68387463Y-43442653D01*
X68228148Y-43229833D01*
X68228146Y-43229831D01*
X68228138Y-43229822D01*
X68040177Y-43041861D01*
X68040168Y-43041853D01*
X68011513Y-43020402D01*
X67827347Y-42882537D01*
X67636569Y-42778364D01*
X67594020Y-42755130D01*
X67344929Y-42662225D01*
X67085170Y-42605718D01*
X67085172Y-42605718D01*
X66820000Y-42586753D01*
X66554828Y-42605718D01*
X66295071Y-42662225D01*
X66295070Y-42662225D01*
X66045979Y-42755130D01*
X65812653Y-42882537D01*
X65599831Y-43041853D01*
X65599822Y-43041861D01*
X65411861Y-43229822D01*
X65411853Y-43229831D01*
X65252537Y-43442653D01*
X65125130Y-43675979D01*
X65032225Y-43925070D01*
X65032225Y-43925071D01*
X64975718Y-44184828D01*
X64956753Y-44449999D01*
X63598500Y-44449999D01*
X63598500Y-43051367D01*
X63598499Y-43051350D01*
X63591990Y-42990803D01*
X63591988Y-42990795D01*
X63540889Y-42853797D01*
X63540887Y-42853792D01*
X63453261Y-42736738D01*
X63336207Y-42649112D01*
X63336202Y-42649110D01*
X63199204Y-42598011D01*
X63199196Y-42598009D01*
X63138649Y-42591500D01*
X63138638Y-42591500D01*
X60341362Y-42591500D01*
X60341350Y-42591500D01*
X60280803Y-42598009D01*
X60280795Y-42598011D01*
X60143797Y-42649110D01*
X60143792Y-42649112D01*
X60026738Y-42736738D01*
X59939112Y-42853792D01*
X59939110Y-42853797D01*
X59888011Y-42990795D01*
X59888009Y-42990803D01*
X59881500Y-43051350D01*
X59881500Y-45848649D01*
X40423132Y-45848649D01*
X40442656Y-45810675D01*
X40442657Y-45810672D01*
X40485842Y-45684088D01*
X40530118Y-45554305D01*
X40558712Y-45399498D01*
X40579318Y-45287941D01*
X40579319Y-45287930D01*
X40581552Y-45226836D01*
X40589212Y-45017235D01*
X40574338Y-44882058D01*
X40559587Y-44747985D01*
X40491071Y-44485909D01*
X40385130Y-44236610D01*
X40333613Y-44152197D01*
X40244018Y-44005390D01*
X40070745Y-43797180D01*
X40070741Y-43797177D01*
X40070740Y-43797175D01*
X39869012Y-43616427D01*
X39869002Y-43616418D01*
X39643090Y-43466956D01*
X39397824Y-43351980D01*
X39240392Y-43304615D01*
X39138425Y-43273938D01*
X38870442Y-43234500D01*
X38870439Y-43234500D01*
X38667369Y-43234500D01*
X38667367Y-43234500D01*
X38464839Y-43249323D01*
X38464838Y-43249323D01*
X38200456Y-43308217D01*
X38200441Y-43308222D01*
X37947441Y-43404986D01*
X37711229Y-43537555D01*
X37711225Y-43537557D01*
X37496818Y-43703116D01*
X37308815Y-43898117D01*
X37308810Y-43898123D01*
X37151203Y-44118417D01*
X37151196Y-44118427D01*
X37027343Y-44359324D01*
X37027342Y-44359327D01*
X36939883Y-44615689D01*
X36939880Y-44615702D01*
X36890681Y-44882058D01*
X36890680Y-44882069D01*
X36880788Y-45152765D01*
X19553700Y-45152765D01*
X19553700Y-43180000D01*
X25197696Y-43180000D01*
X25217657Y-43369927D01*
X25229049Y-43404986D01*
X25276673Y-43551556D01*
X25276676Y-43551561D01*
X25372158Y-43716941D01*
X25372165Y-43716951D01*
X25499944Y-43858864D01*
X25518129Y-43872076D01*
X25654448Y-43971118D01*
X25828912Y-44048794D01*
X26015713Y-44088500D01*
X26206687Y-44088500D01*
X26393488Y-44048794D01*
X26567952Y-43971118D01*
X26722453Y-43858866D01*
X26763961Y-43812767D01*
X26850234Y-43716951D01*
X26850235Y-43716949D01*
X26850240Y-43716944D01*
X26945727Y-43551556D01*
X27004742Y-43369928D01*
X27024704Y-43180000D01*
X27004742Y-42990072D01*
X26983924Y-42926000D01*
X43128455Y-42926000D01*
X43176176Y-43114449D01*
X43176179Y-43114456D01*
X43266580Y-43320548D01*
X43389674Y-43508958D01*
X43542097Y-43674534D01*
X43719698Y-43812767D01*
X43719699Y-43812768D01*
X43917628Y-43919882D01*
X43917630Y-43919883D01*
X44130483Y-43992955D01*
X44130492Y-43992957D01*
X44211000Y-44006391D01*
X44211000Y-43286033D01*
X44231002Y-43217912D01*
X44284658Y-43171419D01*
X44354926Y-43161315D01*
X44429237Y-43172000D01*
X44500763Y-43172000D01*
X44575069Y-43161316D01*
X44645341Y-43171419D01*
X44698997Y-43217911D01*
X44719000Y-43286031D01*
X44718999Y-44006390D01*
X44799507Y-43992957D01*
X44799516Y-43992955D01*
X45012369Y-43919883D01*
X45012371Y-43919882D01*
X45210300Y-43812768D01*
X45210301Y-43812767D01*
X45387902Y-43674534D01*
X45540327Y-43508955D01*
X45629217Y-43372899D01*
X45683220Y-43326810D01*
X45753568Y-43317235D01*
X45817925Y-43347212D01*
X45840183Y-43372898D01*
X45929279Y-43509270D01*
X46081762Y-43674908D01*
X46118004Y-43703116D01*
X46259424Y-43813189D01*
X46457426Y-43920342D01*
X46457427Y-43920342D01*
X46457428Y-43920343D01*
X46569227Y-43958723D01*
X46670365Y-43993444D01*
X46892431Y-44030500D01*
X46892435Y-44030500D01*
X47117565Y-44030500D01*
X47117569Y-44030500D01*
X47339635Y-43993444D01*
X47552574Y-43920342D01*
X47750576Y-43813189D01*
X47928240Y-43674906D01*
X47989245Y-43608637D01*
X48050096Y-43572067D01*
X48121061Y-43574200D01*
X48179606Y-43614362D01*
X48200000Y-43649941D01*
X48244111Y-43768204D01*
X48244112Y-43768207D01*
X48331738Y-43885261D01*
X48448792Y-43972887D01*
X48448794Y-43972888D01*
X48448796Y-43972889D01*
X48502600Y-43992957D01*
X48585795Y-44023988D01*
X48585803Y-44023990D01*
X48646350Y-44030499D01*
X48646355Y-44030499D01*
X48646362Y-44030500D01*
X48646368Y-44030500D01*
X50443632Y-44030500D01*
X50443638Y-44030500D01*
X50443645Y-44030499D01*
X50443649Y-44030499D01*
X50504196Y-44023990D01*
X50504199Y-44023989D01*
X50504201Y-44023989D01*
X50641204Y-43972889D01*
X50711399Y-43920342D01*
X50758261Y-43885261D01*
X50845887Y-43768207D01*
X50845887Y-43768206D01*
X50845889Y-43768204D01*
X50896989Y-43631201D01*
X50898578Y-43616427D01*
X50903499Y-43570649D01*
X50903500Y-43570632D01*
X50903500Y-41773367D01*
X50903499Y-41773350D01*
X50896990Y-41712803D01*
X50896988Y-41712795D01*
X50854141Y-41597921D01*
X50845889Y-41575796D01*
X50845888Y-41575794D01*
X50845887Y-41575792D01*
X50758261Y-41458738D01*
X50641207Y-41371112D01*
X50641202Y-41371110D01*
X50504204Y-41320011D01*
X50504196Y-41320009D01*
X50443649Y-41313500D01*
X50443638Y-41313500D01*
X48646362Y-41313500D01*
X48646350Y-41313500D01*
X48585803Y-41320009D01*
X48585795Y-41320011D01*
X48448797Y-41371110D01*
X48448792Y-41371112D01*
X48331738Y-41458738D01*
X48244112Y-41575792D01*
X48244111Y-41575795D01*
X48200000Y-41694058D01*
X48157453Y-41750893D01*
X48090932Y-41775703D01*
X48021558Y-41760611D01*
X47989246Y-41735363D01*
X47928240Y-41669094D01*
X47928239Y-41669093D01*
X47928237Y-41669091D01*
X47808372Y-41575796D01*
X47750576Y-41530811D01*
X47552574Y-41423658D01*
X47552572Y-41423657D01*
X47552571Y-41423656D01*
X47339639Y-41350557D01*
X47339630Y-41350555D01*
X47262029Y-41337606D01*
X47117569Y-41313500D01*
X46892431Y-41313500D01*
X46747971Y-41337606D01*
X46670369Y-41350555D01*
X46670360Y-41350557D01*
X46457428Y-41423656D01*
X46457426Y-41423658D01*
X46275560Y-41522079D01*
X46259426Y-41530810D01*
X46259424Y-41530811D01*
X46081762Y-41669091D01*
X45929279Y-41834729D01*
X45840183Y-41971101D01*
X45786179Y-42017189D01*
X45715831Y-42026764D01*
X45651474Y-41996786D01*
X45629217Y-41971100D01*
X45540327Y-41835044D01*
X45387902Y-41669465D01*
X45210301Y-41531232D01*
X45210300Y-41531231D01*
X45012371Y-41424117D01*
X45012369Y-41424116D01*
X44799512Y-41351043D01*
X44799501Y-41351040D01*
X44719000Y-41337606D01*
X44719000Y-42057966D01*
X44698998Y-42126087D01*
X44645342Y-42172580D01*
X44575069Y-42182683D01*
X44575068Y-42182683D01*
X44500768Y-42172000D01*
X44500763Y-42172000D01*
X44429237Y-42172000D01*
X44429231Y-42172000D01*
X44354932Y-42182683D01*
X44284658Y-42172580D01*
X44231002Y-42126087D01*
X44211000Y-42057966D01*
X44211000Y-41337607D01*
X44210999Y-41337606D01*
X44130498Y-41351040D01*
X44130487Y-41351043D01*
X43917630Y-41424116D01*
X43917628Y-41424117D01*
X43719699Y-41531231D01*
X43719698Y-41531232D01*
X43542097Y-41669465D01*
X43389674Y-41835041D01*
X43266580Y-42023451D01*
X43176179Y-42229543D01*
X43176176Y-42229550D01*
X43128455Y-42417999D01*
X43128456Y-42418000D01*
X43850156Y-42418000D01*
X43918277Y-42438002D01*
X43964770Y-42491658D01*
X43974874Y-42561932D01*
X43971053Y-42579496D01*
X43965000Y-42600111D01*
X43965000Y-42743888D01*
X43971053Y-42764504D01*
X43971052Y-42835500D01*
X43932667Y-42895226D01*
X43868086Y-42924718D01*
X43850156Y-42926000D01*
X43128455Y-42926000D01*
X26983924Y-42926000D01*
X26945727Y-42808444D01*
X26850240Y-42643056D01*
X26850238Y-42643054D01*
X26850234Y-42643048D01*
X26722455Y-42501135D01*
X26567952Y-42388882D01*
X26393488Y-42311206D01*
X26206687Y-42271500D01*
X26015713Y-42271500D01*
X25828911Y-42311206D01*
X25654447Y-42388882D01*
X25499944Y-42501135D01*
X25372165Y-42643048D01*
X25372158Y-42643058D01*
X25276676Y-42808438D01*
X25276673Y-42808445D01*
X25217657Y-42990072D01*
X25197696Y-43180000D01*
X19553700Y-43180000D01*
X19553700Y-43042010D01*
X19573702Y-42973889D01*
X19627358Y-42927396D01*
X19628405Y-42926924D01*
X19709952Y-42890618D01*
X19864453Y-42778366D01*
X19864455Y-42778364D01*
X19992234Y-42636451D01*
X19992235Y-42636449D01*
X19992240Y-42636444D01*
X20087727Y-42471056D01*
X20146742Y-42289428D01*
X20166704Y-42099500D01*
X20146742Y-41909572D01*
X20087727Y-41727944D01*
X19992240Y-41562556D01*
X19992238Y-41562554D01*
X19992234Y-41562548D01*
X19864455Y-41420635D01*
X19709952Y-41308382D01*
X19535488Y-41230706D01*
X19348687Y-41191000D01*
X19157713Y-41191000D01*
X18970911Y-41230706D01*
X18796447Y-41308382D01*
X18641944Y-41420635D01*
X18514165Y-41562548D01*
X18514158Y-41562558D01*
X18418673Y-41727941D01*
X18397844Y-41792043D01*
X18367107Y-41842199D01*
X18220196Y-41989110D01*
X18220194Y-41989113D01*
X18109092Y-42100214D01*
X18109089Y-42100217D01*
X18086666Y-42135904D01*
X18082576Y-42141669D01*
X18056290Y-42174629D01*
X18038002Y-42212605D01*
X18034583Y-42218792D01*
X18012157Y-42254483D01*
X17998235Y-42294269D01*
X17995531Y-42300798D01*
X17977240Y-42338782D01*
X17977239Y-42338783D01*
X17967860Y-42379875D01*
X17965904Y-42386665D01*
X17951982Y-42426453D01*
X17947263Y-42468342D01*
X17946078Y-42475311D01*
X17936700Y-42516401D01*
X17936700Y-45777602D01*
X17919820Y-45840601D01*
X17910674Y-45856441D01*
X17910673Y-45856443D01*
X17910673Y-45856444D01*
X17896478Y-45900132D01*
X17851657Y-46038072D01*
X17831696Y-46228000D01*
X9652500Y-46228000D01*
X9652500Y-44449997D01*
X12497696Y-44449997D01*
X12517657Y-44639925D01*
X12542106Y-44715168D01*
X12576673Y-44821554D01*
X12576676Y-44821559D01*
X12672158Y-44986939D01*
X12672165Y-44986949D01*
X12799944Y-45128862D01*
X12799947Y-45128864D01*
X12954448Y-45241116D01*
X13128912Y-45318792D01*
X13315713Y-45358498D01*
X13506687Y-45358498D01*
X13693488Y-45318792D01*
X13867952Y-45241116D01*
X14022453Y-45128864D01*
X14022455Y-45128862D01*
X14150234Y-44986949D01*
X14150235Y-44986947D01*
X14150240Y-44986942D01*
X14245727Y-44821554D01*
X14304742Y-44639926D01*
X14324704Y-44449998D01*
X14324704Y-44449996D01*
X14324704Y-44449234D01*
X14324828Y-44448809D01*
X14325394Y-44443431D01*
X14326377Y-44443534D01*
X14344706Y-44381113D01*
X14361609Y-44360138D01*
X14596344Y-44125404D01*
X14658656Y-44091379D01*
X14685439Y-44088500D01*
X14776687Y-44088500D01*
X14963488Y-44048794D01*
X15137952Y-43971118D01*
X15292453Y-43858866D01*
X15333961Y-43812767D01*
X15420234Y-43716951D01*
X15420235Y-43716949D01*
X15420240Y-43716944D01*
X15515727Y-43551556D01*
X15574742Y-43369928D01*
X15594704Y-43180000D01*
X15574742Y-42990072D01*
X15515727Y-42808444D01*
X15420240Y-42643056D01*
X15420238Y-42643054D01*
X15420234Y-42643048D01*
X15292455Y-42501135D01*
X15137952Y-42388882D01*
X14963488Y-42311206D01*
X14776687Y-42271500D01*
X14585713Y-42271500D01*
X14398911Y-42311206D01*
X14224447Y-42388882D01*
X14069944Y-42501135D01*
X13942165Y-42643048D01*
X13942158Y-42643058D01*
X13846676Y-42808438D01*
X13846673Y-42808445D01*
X13787657Y-42990072D01*
X13767696Y-43180001D01*
X13767696Y-43180762D01*
X13767571Y-43181185D01*
X13767006Y-43186567D01*
X13766021Y-43186463D01*
X13747694Y-43248883D01*
X13730792Y-43269857D01*
X13496057Y-43504593D01*
X13433744Y-43538618D01*
X13406961Y-43541498D01*
X13315713Y-43541498D01*
X13128911Y-43581204D01*
X12954447Y-43658880D01*
X12799944Y-43771133D01*
X12672165Y-43913046D01*
X12672158Y-43913056D01*
X12587838Y-44059103D01*
X12576673Y-44078442D01*
X12563684Y-44118417D01*
X12517657Y-44260070D01*
X12497696Y-44449997D01*
X9652500Y-44449997D01*
X9652500Y-39875999D01*
X11084892Y-39875999D01*
X11084893Y-39876000D01*
X11654711Y-39876000D01*
X11722832Y-39896002D01*
X11769325Y-39949658D01*
X11779429Y-40019932D01*
X11775901Y-40036481D01*
X11757305Y-40101840D01*
X11757304Y-40101841D01*
X11767653Y-40213520D01*
X11770499Y-40223522D01*
X11769901Y-40294516D01*
X11731015Y-40353916D01*
X11666188Y-40382864D01*
X11649308Y-40384000D01*
X11084893Y-40384000D01*
X11125423Y-40517610D01*
X11125424Y-40517612D01*
X11219024Y-40692724D01*
X11344988Y-40846211D01*
X11498475Y-40972175D01*
X11673585Y-41065774D01*
X11673600Y-41065780D01*
X11863593Y-41123414D01*
X11863605Y-41123416D01*
X12011673Y-41137999D01*
X12011691Y-41138000D01*
X12207200Y-41138000D01*
X12207200Y-40556000D01*
X12227202Y-40487879D01*
X12280858Y-40441386D01*
X12333200Y-40430000D01*
X12589200Y-40430000D01*
X12657321Y-40450002D01*
X12703814Y-40503658D01*
X12715200Y-40556000D01*
X12715200Y-41138000D01*
X12910709Y-41138000D01*
X12910726Y-41137999D01*
X13058794Y-41123416D01*
X13058806Y-41123414D01*
X13248799Y-41065780D01*
X13248814Y-41065774D01*
X13423924Y-40972175D01*
X13577411Y-40846211D01*
X13703375Y-40692724D01*
X13796975Y-40517612D01*
X13796976Y-40517610D01*
X13837507Y-40384000D01*
X13267689Y-40384000D01*
X13199568Y-40363998D01*
X13153075Y-40310342D01*
X13142971Y-40240068D01*
X13146499Y-40223519D01*
X13152584Y-40202131D01*
X13165095Y-40158160D01*
X13154746Y-40046479D01*
X13151901Y-40036478D01*
X13152499Y-39965484D01*
X13191385Y-39906084D01*
X13256212Y-39877136D01*
X13273092Y-39876000D01*
X13837507Y-39876000D01*
X13837507Y-39875999D01*
X15084892Y-39875999D01*
X15084893Y-39876000D01*
X15654711Y-39876000D01*
X15722832Y-39896002D01*
X15769325Y-39949658D01*
X15779429Y-40019932D01*
X15775901Y-40036481D01*
X15757305Y-40101840D01*
X15757304Y-40101841D01*
X15767653Y-40213520D01*
X15770499Y-40223522D01*
X15769901Y-40294516D01*
X15731015Y-40353916D01*
X15666188Y-40382864D01*
X15649308Y-40384000D01*
X15084893Y-40384000D01*
X15125423Y-40517610D01*
X15125424Y-40517612D01*
X15219024Y-40692724D01*
X15344988Y-40846211D01*
X15498475Y-40972175D01*
X15629567Y-41042246D01*
X15680215Y-41091998D01*
X15695925Y-41161235D01*
X15673109Y-41226029D01*
X15617826Y-41304347D01*
X15617821Y-41304356D01*
X15567146Y-41446942D01*
X15567145Y-41446948D01*
X15558332Y-41575795D01*
X15556819Y-41597921D01*
X15585380Y-41735362D01*
X15587609Y-41746088D01*
X15657228Y-41880445D01*
X15657230Y-41880448D01*
X15758716Y-41989113D01*
X15760520Y-41991044D01*
X15832441Y-42034780D01*
X15889818Y-42069672D01*
X16035533Y-42110500D01*
X16035535Y-42110500D01*
X16148858Y-42110500D01*
X16148871Y-42110499D01*
X16261115Y-42095071D01*
X16261116Y-42095070D01*
X16261120Y-42095070D01*
X16399920Y-42034780D01*
X16399921Y-42034778D01*
X16399923Y-42034778D01*
X16399925Y-42034776D01*
X16478193Y-41971100D01*
X16517308Y-41939278D01*
X16604577Y-41815647D01*
X16655254Y-41673056D01*
X16665581Y-41522079D01*
X16634792Y-41373915D01*
X16607876Y-41321969D01*
X16594295Y-41252283D01*
X16620545Y-41186317D01*
X16678292Y-41145016D01*
X16719749Y-41138000D01*
X17210709Y-41138000D01*
X17210726Y-41137999D01*
X17358794Y-41123416D01*
X17358806Y-41123414D01*
X17548799Y-41065780D01*
X17548814Y-41065774D01*
X17723924Y-40972175D01*
X17877411Y-40846211D01*
X18003375Y-40692724D01*
X18096975Y-40517612D01*
X18096976Y-40517610D01*
X18137507Y-40384000D01*
X17567689Y-40384000D01*
X17499568Y-40363998D01*
X17453075Y-40310342D01*
X17442971Y-40240068D01*
X17446499Y-40223519D01*
X17452584Y-40202131D01*
X17465095Y-40158160D01*
X17454746Y-40046479D01*
X17451901Y-40036478D01*
X17452499Y-39965484D01*
X17491385Y-39906084D01*
X17556212Y-39877136D01*
X17573092Y-39876000D01*
X18137507Y-39876000D01*
X18137507Y-39875999D01*
X18096976Y-39742389D01*
X18096975Y-39742387D01*
X18003375Y-39567275D01*
X17877411Y-39413788D01*
X17723924Y-39287824D01*
X17548814Y-39194225D01*
X17548799Y-39194219D01*
X17358806Y-39136585D01*
X17358794Y-39136583D01*
X17210726Y-39122000D01*
X16865200Y-39122000D01*
X16865200Y-39704000D01*
X16845198Y-39772121D01*
X16791542Y-39818614D01*
X16739200Y-39830000D01*
X16483200Y-39830000D01*
X16415079Y-39809998D01*
X16368586Y-39756342D01*
X16357200Y-39704000D01*
X16357200Y-39122000D01*
X16011673Y-39122000D01*
X15863605Y-39136583D01*
X15863593Y-39136585D01*
X15673600Y-39194219D01*
X15673585Y-39194225D01*
X15498475Y-39287824D01*
X15344988Y-39413788D01*
X15219024Y-39567275D01*
X15125424Y-39742387D01*
X15125423Y-39742389D01*
X15084892Y-39875999D01*
X13837507Y-39875999D01*
X13796976Y-39742389D01*
X13796975Y-39742387D01*
X13703375Y-39567275D01*
X13577411Y-39413788D01*
X13423924Y-39287824D01*
X13248814Y-39194225D01*
X13248799Y-39194219D01*
X13058806Y-39136585D01*
X13058794Y-39136583D01*
X12910726Y-39122000D01*
X12715200Y-39122000D01*
X12715200Y-39704000D01*
X12695198Y-39772121D01*
X12641542Y-39818614D01*
X12589200Y-39830000D01*
X12333200Y-39830000D01*
X12265079Y-39809998D01*
X12218586Y-39756342D01*
X12207200Y-39704000D01*
X12207200Y-39122000D01*
X12011673Y-39122000D01*
X11863605Y-39136583D01*
X11863593Y-39136585D01*
X11673600Y-39194219D01*
X11673585Y-39194225D01*
X11498475Y-39287824D01*
X11344988Y-39413788D01*
X11219024Y-39567275D01*
X11125424Y-39742387D01*
X11125423Y-39742389D01*
X11084892Y-39875999D01*
X9652500Y-39875999D01*
X9652500Y-37591500D01*
X9672502Y-37523379D01*
X9726158Y-37476886D01*
X9778500Y-37465500D01*
X172085500Y-37465500D01*
X172153621Y-37485502D01*
G37*
G04 #@! TD.AperFunction*
G04 #@! TD*
M02*
