G04 #@! TF.GenerationSoftware,KiCad,Pcbnew,7.0.7-7.0.7~ubuntu22.04.1*
G04 #@! TF.CreationDate,2023-09-08T18:19:24+02:00*
G04 #@! TF.ProjectId,pcb_esp32_wled_pwm_multichannel,7063625f-6573-4703-9332-5f776c65645f,rev?*
G04 #@! TF.SameCoordinates,Original*
G04 #@! TF.FileFunction,Legend,Bot*
G04 #@! TF.FilePolarity,Positive*
%FSLAX46Y46*%
G04 Gerber Fmt 4.6, Leading zero omitted, Abs format (unit mm)*
G04 Created by KiCad (PCBNEW 7.0.7-7.0.7~ubuntu22.04.1) date 2023-09-08 18:19:24*
%MOMM*%
%LPD*%
G01*
G04 APERTURE LIST*
%ADD10C,0.150000*%
G04 APERTURE END LIST*
D10*
X125858094Y-39214466D02*
X127381904Y-39214466D01*
X126619999Y-38452561D02*
X126619999Y-39976371D01*
X129762856Y-40262085D02*
X129858094Y-40357323D01*
X129858094Y-40357323D02*
X130048570Y-40452561D01*
X130048570Y-40452561D02*
X130524761Y-40452561D01*
X130524761Y-40452561D02*
X130715237Y-40357323D01*
X130715237Y-40357323D02*
X130810475Y-40262085D01*
X130810475Y-40262085D02*
X130905713Y-40071609D01*
X130905713Y-40071609D02*
X130905713Y-39881133D01*
X130905713Y-39881133D02*
X130810475Y-39595419D01*
X130810475Y-39595419D02*
X129667618Y-38452561D01*
X129667618Y-38452561D02*
X130905713Y-38452561D01*
X131572380Y-40452561D02*
X132810475Y-40452561D01*
X132810475Y-40452561D02*
X132143808Y-39690657D01*
X132143808Y-39690657D02*
X132429523Y-39690657D01*
X132429523Y-39690657D02*
X132619999Y-39595419D01*
X132619999Y-39595419D02*
X132715237Y-39500180D01*
X132715237Y-39500180D02*
X132810475Y-39309704D01*
X132810475Y-39309704D02*
X132810475Y-38833514D01*
X132810475Y-38833514D02*
X132715237Y-38643038D01*
X132715237Y-38643038D02*
X132619999Y-38547800D01*
X132619999Y-38547800D02*
X132429523Y-38452561D01*
X132429523Y-38452561D02*
X131858094Y-38452561D01*
X131858094Y-38452561D02*
X131667618Y-38547800D01*
X131667618Y-38547800D02*
X131572380Y-38643038D01*
X135096190Y-40262085D02*
X135191428Y-40357323D01*
X135191428Y-40357323D02*
X135381904Y-40452561D01*
X135381904Y-40452561D02*
X135858095Y-40452561D01*
X135858095Y-40452561D02*
X136048571Y-40357323D01*
X136048571Y-40357323D02*
X136143809Y-40262085D01*
X136143809Y-40262085D02*
X136239047Y-40071609D01*
X136239047Y-40071609D02*
X136239047Y-39881133D01*
X136239047Y-39881133D02*
X136143809Y-39595419D01*
X136143809Y-39595419D02*
X135000952Y-38452561D01*
X135000952Y-38452561D02*
X136239047Y-38452561D01*
X138048571Y-40452561D02*
X137096190Y-40452561D01*
X137096190Y-40452561D02*
X137000952Y-39500180D01*
X137000952Y-39500180D02*
X137096190Y-39595419D01*
X137096190Y-39595419D02*
X137286666Y-39690657D01*
X137286666Y-39690657D02*
X137762857Y-39690657D01*
X137762857Y-39690657D02*
X137953333Y-39595419D01*
X137953333Y-39595419D02*
X138048571Y-39500180D01*
X138048571Y-39500180D02*
X138143809Y-39309704D01*
X138143809Y-39309704D02*
X138143809Y-38833514D01*
X138143809Y-38833514D02*
X138048571Y-38643038D01*
X138048571Y-38643038D02*
X137953333Y-38547800D01*
X137953333Y-38547800D02*
X137762857Y-38452561D01*
X137762857Y-38452561D02*
X137286666Y-38452561D01*
X137286666Y-38452561D02*
X137096190Y-38547800D01*
X137096190Y-38547800D02*
X137000952Y-38643038D01*
X140429524Y-40262085D02*
X140524762Y-40357323D01*
X140524762Y-40357323D02*
X140715238Y-40452561D01*
X140715238Y-40452561D02*
X141191429Y-40452561D01*
X141191429Y-40452561D02*
X141381905Y-40357323D01*
X141381905Y-40357323D02*
X141477143Y-40262085D01*
X141477143Y-40262085D02*
X141572381Y-40071609D01*
X141572381Y-40071609D02*
X141572381Y-39881133D01*
X141572381Y-39881133D02*
X141477143Y-39595419D01*
X141477143Y-39595419D02*
X140334286Y-38452561D01*
X140334286Y-38452561D02*
X141572381Y-38452561D01*
X143286667Y-40452561D02*
X142905714Y-40452561D01*
X142905714Y-40452561D02*
X142715238Y-40357323D01*
X142715238Y-40357323D02*
X142620000Y-40262085D01*
X142620000Y-40262085D02*
X142429524Y-39976371D01*
X142429524Y-39976371D02*
X142334286Y-39595419D01*
X142334286Y-39595419D02*
X142334286Y-38833514D01*
X142334286Y-38833514D02*
X142429524Y-38643038D01*
X142429524Y-38643038D02*
X142524762Y-38547800D01*
X142524762Y-38547800D02*
X142715238Y-38452561D01*
X142715238Y-38452561D02*
X143096191Y-38452561D01*
X143096191Y-38452561D02*
X143286667Y-38547800D01*
X143286667Y-38547800D02*
X143381905Y-38643038D01*
X143381905Y-38643038D02*
X143477143Y-38833514D01*
X143477143Y-38833514D02*
X143477143Y-39309704D01*
X143477143Y-39309704D02*
X143381905Y-39500180D01*
X143381905Y-39500180D02*
X143286667Y-39595419D01*
X143286667Y-39595419D02*
X143096191Y-39690657D01*
X143096191Y-39690657D02*
X142715238Y-39690657D01*
X142715238Y-39690657D02*
X142524762Y-39595419D01*
X142524762Y-39595419D02*
X142429524Y-39500180D01*
X142429524Y-39500180D02*
X142334286Y-39309704D01*
X110014285Y-42094466D02*
X111538095Y-42094466D01*
X110776190Y-41332561D02*
X110776190Y-42856371D01*
X117061905Y-42094466D02*
X118585715Y-42094466D01*
X110680952Y-39445895D02*
X110680952Y-38112561D01*
X110204761Y-40207800D02*
X109728571Y-38779228D01*
X109728571Y-38779228D02*
X110966666Y-38779228D01*
X111728571Y-38874466D02*
X113252381Y-38874466D01*
X114109523Y-39922085D02*
X114204761Y-40017323D01*
X114204761Y-40017323D02*
X114395237Y-40112561D01*
X114395237Y-40112561D02*
X114871428Y-40112561D01*
X114871428Y-40112561D02*
X115061904Y-40017323D01*
X115061904Y-40017323D02*
X115157142Y-39922085D01*
X115157142Y-39922085D02*
X115252380Y-39731609D01*
X115252380Y-39731609D02*
X115252380Y-39541133D01*
X115252380Y-39541133D02*
X115157142Y-39255419D01*
X115157142Y-39255419D02*
X114014285Y-38112561D01*
X114014285Y-38112561D02*
X115252380Y-38112561D01*
X116395237Y-39255419D02*
X116204761Y-39350657D01*
X116204761Y-39350657D02*
X116109523Y-39445895D01*
X116109523Y-39445895D02*
X116014285Y-39636371D01*
X116014285Y-39636371D02*
X116014285Y-39731609D01*
X116014285Y-39731609D02*
X116109523Y-39922085D01*
X116109523Y-39922085D02*
X116204761Y-40017323D01*
X116204761Y-40017323D02*
X116395237Y-40112561D01*
X116395237Y-40112561D02*
X116776190Y-40112561D01*
X116776190Y-40112561D02*
X116966666Y-40017323D01*
X116966666Y-40017323D02*
X117061904Y-39922085D01*
X117061904Y-39922085D02*
X117157142Y-39731609D01*
X117157142Y-39731609D02*
X117157142Y-39636371D01*
X117157142Y-39636371D02*
X117061904Y-39445895D01*
X117061904Y-39445895D02*
X116966666Y-39350657D01*
X116966666Y-39350657D02*
X116776190Y-39255419D01*
X116776190Y-39255419D02*
X116395237Y-39255419D01*
X116395237Y-39255419D02*
X116204761Y-39160180D01*
X116204761Y-39160180D02*
X116109523Y-39064942D01*
X116109523Y-39064942D02*
X116014285Y-38874466D01*
X116014285Y-38874466D02*
X116014285Y-38493514D01*
X116014285Y-38493514D02*
X116109523Y-38303038D01*
X116109523Y-38303038D02*
X116204761Y-38207800D01*
X116204761Y-38207800D02*
X116395237Y-38112561D01*
X116395237Y-38112561D02*
X116776190Y-38112561D01*
X116776190Y-38112561D02*
X116966666Y-38207800D01*
X116966666Y-38207800D02*
X117061904Y-38303038D01*
X117061904Y-38303038D02*
X117157142Y-38493514D01*
X117157142Y-38493514D02*
X117157142Y-38874466D01*
X117157142Y-38874466D02*
X117061904Y-39064942D01*
X117061904Y-39064942D02*
X116966666Y-39160180D01*
X116966666Y-39160180D02*
X116776190Y-39255419D01*
X117728571Y-40112561D02*
X118395237Y-38112561D01*
X118395237Y-38112561D02*
X119061904Y-40112561D01*
X83948094Y-39214466D02*
X85471904Y-39214466D01*
X84709999Y-38452561D02*
X84709999Y-39976371D01*
X88995713Y-38452561D02*
X87852856Y-38452561D01*
X88424284Y-38452561D02*
X88424284Y-40452561D01*
X88424284Y-40452561D02*
X88233808Y-40166847D01*
X88233808Y-40166847D02*
X88043332Y-39976371D01*
X88043332Y-39976371D02*
X87852856Y-39881133D01*
X89948094Y-38452561D02*
X90329046Y-38452561D01*
X90329046Y-38452561D02*
X90519523Y-38547800D01*
X90519523Y-38547800D02*
X90614761Y-38643038D01*
X90614761Y-38643038D02*
X90805237Y-38928752D01*
X90805237Y-38928752D02*
X90900475Y-39309704D01*
X90900475Y-39309704D02*
X90900475Y-40071609D01*
X90900475Y-40071609D02*
X90805237Y-40262085D01*
X90805237Y-40262085D02*
X90709999Y-40357323D01*
X90709999Y-40357323D02*
X90519523Y-40452561D01*
X90519523Y-40452561D02*
X90138570Y-40452561D01*
X90138570Y-40452561D02*
X89948094Y-40357323D01*
X89948094Y-40357323D02*
X89852856Y-40262085D01*
X89852856Y-40262085D02*
X89757618Y-40071609D01*
X89757618Y-40071609D02*
X89757618Y-39595419D01*
X89757618Y-39595419D02*
X89852856Y-39404942D01*
X89852856Y-39404942D02*
X89948094Y-39309704D01*
X89948094Y-39309704D02*
X90138570Y-39214466D01*
X90138570Y-39214466D02*
X90519523Y-39214466D01*
X90519523Y-39214466D02*
X90709999Y-39309704D01*
X90709999Y-39309704D02*
X90805237Y-39404942D01*
X90805237Y-39404942D02*
X90900475Y-39595419D01*
X93186190Y-40262085D02*
X93281428Y-40357323D01*
X93281428Y-40357323D02*
X93471904Y-40452561D01*
X93471904Y-40452561D02*
X93948095Y-40452561D01*
X93948095Y-40452561D02*
X94138571Y-40357323D01*
X94138571Y-40357323D02*
X94233809Y-40262085D01*
X94233809Y-40262085D02*
X94329047Y-40071609D01*
X94329047Y-40071609D02*
X94329047Y-39881133D01*
X94329047Y-39881133D02*
X94233809Y-39595419D01*
X94233809Y-39595419D02*
X93090952Y-38452561D01*
X93090952Y-38452561D02*
X94329047Y-38452561D01*
X96233809Y-38452561D02*
X95090952Y-38452561D01*
X95662380Y-38452561D02*
X95662380Y-40452561D01*
X95662380Y-40452561D02*
X95471904Y-40166847D01*
X95471904Y-40166847D02*
X95281428Y-39976371D01*
X95281428Y-39976371D02*
X95090952Y-39881133D01*
X98519524Y-40262085D02*
X98614762Y-40357323D01*
X98614762Y-40357323D02*
X98805238Y-40452561D01*
X98805238Y-40452561D02*
X99281429Y-40452561D01*
X99281429Y-40452561D02*
X99471905Y-40357323D01*
X99471905Y-40357323D02*
X99567143Y-40262085D01*
X99567143Y-40262085D02*
X99662381Y-40071609D01*
X99662381Y-40071609D02*
X99662381Y-39881133D01*
X99662381Y-39881133D02*
X99567143Y-39595419D01*
X99567143Y-39595419D02*
X98424286Y-38452561D01*
X98424286Y-38452561D02*
X99662381Y-38452561D01*
X100424286Y-40262085D02*
X100519524Y-40357323D01*
X100519524Y-40357323D02*
X100710000Y-40452561D01*
X100710000Y-40452561D02*
X101186191Y-40452561D01*
X101186191Y-40452561D02*
X101376667Y-40357323D01*
X101376667Y-40357323D02*
X101471905Y-40262085D01*
X101471905Y-40262085D02*
X101567143Y-40071609D01*
X101567143Y-40071609D02*
X101567143Y-39881133D01*
X101567143Y-39881133D02*
X101471905Y-39595419D01*
X101471905Y-39595419D02*
X100329048Y-38452561D01*
X100329048Y-38452561D02*
X101567143Y-38452561D01*
X149988094Y-39214466D02*
X151511904Y-39214466D01*
X150749999Y-38452561D02*
X150749999Y-39976371D01*
X153892856Y-40262085D02*
X153988094Y-40357323D01*
X153988094Y-40357323D02*
X154178570Y-40452561D01*
X154178570Y-40452561D02*
X154654761Y-40452561D01*
X154654761Y-40452561D02*
X154845237Y-40357323D01*
X154845237Y-40357323D02*
X154940475Y-40262085D01*
X154940475Y-40262085D02*
X155035713Y-40071609D01*
X155035713Y-40071609D02*
X155035713Y-39881133D01*
X155035713Y-39881133D02*
X154940475Y-39595419D01*
X154940475Y-39595419D02*
X153797618Y-38452561D01*
X153797618Y-38452561D02*
X155035713Y-38452561D01*
X155702380Y-40452561D02*
X157035713Y-40452561D01*
X157035713Y-40452561D02*
X156178570Y-38452561D01*
X159130952Y-40452561D02*
X160369047Y-40452561D01*
X160369047Y-40452561D02*
X159702380Y-39690657D01*
X159702380Y-39690657D02*
X159988095Y-39690657D01*
X159988095Y-39690657D02*
X160178571Y-39595419D01*
X160178571Y-39595419D02*
X160273809Y-39500180D01*
X160273809Y-39500180D02*
X160369047Y-39309704D01*
X160369047Y-39309704D02*
X160369047Y-38833514D01*
X160369047Y-38833514D02*
X160273809Y-38643038D01*
X160273809Y-38643038D02*
X160178571Y-38547800D01*
X160178571Y-38547800D02*
X159988095Y-38452561D01*
X159988095Y-38452561D02*
X159416666Y-38452561D01*
X159416666Y-38452561D02*
X159226190Y-38547800D01*
X159226190Y-38547800D02*
X159130952Y-38643038D01*
X161130952Y-40262085D02*
X161226190Y-40357323D01*
X161226190Y-40357323D02*
X161416666Y-40452561D01*
X161416666Y-40452561D02*
X161892857Y-40452561D01*
X161892857Y-40452561D02*
X162083333Y-40357323D01*
X162083333Y-40357323D02*
X162178571Y-40262085D01*
X162178571Y-40262085D02*
X162273809Y-40071609D01*
X162273809Y-40071609D02*
X162273809Y-39881133D01*
X162273809Y-39881133D02*
X162178571Y-39595419D01*
X162178571Y-39595419D02*
X161035714Y-38452561D01*
X161035714Y-38452561D02*
X162273809Y-38452561D01*
X164464286Y-40452561D02*
X165702381Y-40452561D01*
X165702381Y-40452561D02*
X165035714Y-39690657D01*
X165035714Y-39690657D02*
X165321429Y-39690657D01*
X165321429Y-39690657D02*
X165511905Y-39595419D01*
X165511905Y-39595419D02*
X165607143Y-39500180D01*
X165607143Y-39500180D02*
X165702381Y-39309704D01*
X165702381Y-39309704D02*
X165702381Y-38833514D01*
X165702381Y-38833514D02*
X165607143Y-38643038D01*
X165607143Y-38643038D02*
X165511905Y-38547800D01*
X165511905Y-38547800D02*
X165321429Y-38452561D01*
X165321429Y-38452561D02*
X164750000Y-38452561D01*
X164750000Y-38452561D02*
X164559524Y-38547800D01*
X164559524Y-38547800D02*
X164464286Y-38643038D01*
X166369048Y-40452561D02*
X167607143Y-40452561D01*
X167607143Y-40452561D02*
X166940476Y-39690657D01*
X166940476Y-39690657D02*
X167226191Y-39690657D01*
X167226191Y-39690657D02*
X167416667Y-39595419D01*
X167416667Y-39595419D02*
X167511905Y-39500180D01*
X167511905Y-39500180D02*
X167607143Y-39309704D01*
X167607143Y-39309704D02*
X167607143Y-38833514D01*
X167607143Y-38833514D02*
X167511905Y-38643038D01*
X167511905Y-38643038D02*
X167416667Y-38547800D01*
X167416667Y-38547800D02*
X167226191Y-38452561D01*
X167226191Y-38452561D02*
X166654762Y-38452561D01*
X166654762Y-38452561D02*
X166464286Y-38547800D01*
X166464286Y-38547800D02*
X166369048Y-38643038D01*
X59818094Y-39214466D02*
X61341904Y-39214466D01*
X60579999Y-38452561D02*
X60579999Y-39976371D01*
X64865713Y-38452561D02*
X63722856Y-38452561D01*
X64294284Y-38452561D02*
X64294284Y-40452561D01*
X64294284Y-40452561D02*
X64103808Y-40166847D01*
X64103808Y-40166847D02*
X63913332Y-39976371D01*
X63913332Y-39976371D02*
X63722856Y-39881133D01*
X66579999Y-40452561D02*
X66199046Y-40452561D01*
X66199046Y-40452561D02*
X66008570Y-40357323D01*
X66008570Y-40357323D02*
X65913332Y-40262085D01*
X65913332Y-40262085D02*
X65722856Y-39976371D01*
X65722856Y-39976371D02*
X65627618Y-39595419D01*
X65627618Y-39595419D02*
X65627618Y-38833514D01*
X65627618Y-38833514D02*
X65722856Y-38643038D01*
X65722856Y-38643038D02*
X65818094Y-38547800D01*
X65818094Y-38547800D02*
X66008570Y-38452561D01*
X66008570Y-38452561D02*
X66389523Y-38452561D01*
X66389523Y-38452561D02*
X66579999Y-38547800D01*
X66579999Y-38547800D02*
X66675237Y-38643038D01*
X66675237Y-38643038D02*
X66770475Y-38833514D01*
X66770475Y-38833514D02*
X66770475Y-39309704D01*
X66770475Y-39309704D02*
X66675237Y-39500180D01*
X66675237Y-39500180D02*
X66579999Y-39595419D01*
X66579999Y-39595419D02*
X66389523Y-39690657D01*
X66389523Y-39690657D02*
X66008570Y-39690657D01*
X66008570Y-39690657D02*
X65818094Y-39595419D01*
X65818094Y-39595419D02*
X65722856Y-39500180D01*
X65722856Y-39500180D02*
X65627618Y-39309704D01*
X70199047Y-38452561D02*
X69056190Y-38452561D01*
X69627618Y-38452561D02*
X69627618Y-40452561D01*
X69627618Y-40452561D02*
X69437142Y-40166847D01*
X69437142Y-40166847D02*
X69246666Y-39976371D01*
X69246666Y-39976371D02*
X69056190Y-39881133D01*
X70865714Y-40452561D02*
X72199047Y-40452561D01*
X72199047Y-40452561D02*
X71341904Y-38452561D01*
X75532381Y-38452561D02*
X74389524Y-38452561D01*
X74960952Y-38452561D02*
X74960952Y-40452561D01*
X74960952Y-40452561D02*
X74770476Y-40166847D01*
X74770476Y-40166847D02*
X74580000Y-39976371D01*
X74580000Y-39976371D02*
X74389524Y-39881133D01*
X76675238Y-39595419D02*
X76484762Y-39690657D01*
X76484762Y-39690657D02*
X76389524Y-39785895D01*
X76389524Y-39785895D02*
X76294286Y-39976371D01*
X76294286Y-39976371D02*
X76294286Y-40071609D01*
X76294286Y-40071609D02*
X76389524Y-40262085D01*
X76389524Y-40262085D02*
X76484762Y-40357323D01*
X76484762Y-40357323D02*
X76675238Y-40452561D01*
X76675238Y-40452561D02*
X77056191Y-40452561D01*
X77056191Y-40452561D02*
X77246667Y-40357323D01*
X77246667Y-40357323D02*
X77341905Y-40262085D01*
X77341905Y-40262085D02*
X77437143Y-40071609D01*
X77437143Y-40071609D02*
X77437143Y-39976371D01*
X77437143Y-39976371D02*
X77341905Y-39785895D01*
X77341905Y-39785895D02*
X77246667Y-39690657D01*
X77246667Y-39690657D02*
X77056191Y-39595419D01*
X77056191Y-39595419D02*
X76675238Y-39595419D01*
X76675238Y-39595419D02*
X76484762Y-39500180D01*
X76484762Y-39500180D02*
X76389524Y-39404942D01*
X76389524Y-39404942D02*
X76294286Y-39214466D01*
X76294286Y-39214466D02*
X76294286Y-38833514D01*
X76294286Y-38833514D02*
X76389524Y-38643038D01*
X76389524Y-38643038D02*
X76484762Y-38547800D01*
X76484762Y-38547800D02*
X76675238Y-38452561D01*
X76675238Y-38452561D02*
X77056191Y-38452561D01*
X77056191Y-38452561D02*
X77246667Y-38547800D01*
X77246667Y-38547800D02*
X77341905Y-38643038D01*
X77341905Y-38643038D02*
X77437143Y-38833514D01*
X77437143Y-38833514D02*
X77437143Y-39214466D01*
X77437143Y-39214466D02*
X77341905Y-39404942D01*
X77341905Y-39404942D02*
X77246667Y-39500180D01*
X77246667Y-39500180D02*
X77056191Y-39595419D01*
M02*
