G04 #@! TF.GenerationSoftware,KiCad,Pcbnew,7.0.7-7.0.7~ubuntu22.04.1*
G04 #@! TF.CreationDate,2023-08-27T11:43:30+02:00*
G04 #@! TF.ProjectId,pcb_esp32_wled_pwm_multichannel,7063625f-6573-4703-9332-5f776c65645f,rev?*
G04 #@! TF.SameCoordinates,Original*
G04 #@! TF.FileFunction,Paste,Top*
G04 #@! TF.FilePolarity,Positive*
%FSLAX46Y46*%
G04 Gerber Fmt 4.6, Leading zero omitted, Abs format (unit mm)*
G04 Created by KiCad (PCBNEW 7.0.7-7.0.7~ubuntu22.04.1) date 2023-08-27 11:43:30*
%MOMM*%
%LPD*%
G01*
G04 APERTURE LIST*
G04 Aperture macros list*
%AMRoundRect*
0 Rectangle with rounded corners*
0 $1 Rounding radius*
0 $2 $3 $4 $5 $6 $7 $8 $9 X,Y pos of 4 corners*
0 Add a 4 corners polygon primitive as box body*
4,1,4,$2,$3,$4,$5,$6,$7,$8,$9,$2,$3,0*
0 Add four circle primitives for the rounded corners*
1,1,$1+$1,$2,$3*
1,1,$1+$1,$4,$5*
1,1,$1+$1,$6,$7*
1,1,$1+$1,$8,$9*
0 Add four rect primitives between the rounded corners*
20,1,$1+$1,$2,$3,$4,$5,0*
20,1,$1+$1,$4,$5,$6,$7,0*
20,1,$1+$1,$6,$7,$8,$9,0*
20,1,$1+$1,$8,$9,$2,$3,0*%
G04 Aperture macros list end*
%ADD10R,1.100000X1.100000*%
%ADD11R,1.000000X2.750000*%
%ADD12R,2.750000X3.050000*%
%ADD13R,1.200000X2.200000*%
%ADD14RoundRect,0.200000X0.200000X0.275000X-0.200000X0.275000X-0.200000X-0.275000X0.200000X-0.275000X0*%
%ADD15RoundRect,0.200000X-0.275000X0.200000X-0.275000X-0.200000X0.275000X-0.200000X0.275000X0.200000X0*%
%ADD16RoundRect,0.200000X0.275000X-0.200000X0.275000X0.200000X-0.275000X0.200000X-0.275000X-0.200000X0*%
%ADD17R,0.700000X0.600000*%
%ADD18RoundRect,0.250000X1.500000X0.550000X-1.500000X0.550000X-1.500000X-0.550000X1.500000X-0.550000X0*%
%ADD19RoundRect,0.200000X-0.200000X-0.275000X0.200000X-0.275000X0.200000X0.275000X-0.200000X0.275000X0*%
%ADD20RoundRect,0.225000X-0.225000X-0.250000X0.225000X-0.250000X0.225000X0.250000X-0.225000X0.250000X0*%
%ADD21RoundRect,0.225000X0.225000X0.250000X-0.225000X0.250000X-0.225000X-0.250000X0.225000X-0.250000X0*%
%ADD22RoundRect,0.250000X0.650000X-0.325000X0.650000X0.325000X-0.650000X0.325000X-0.650000X-0.325000X0*%
%ADD23RoundRect,0.225000X-0.250000X0.225000X-0.250000X-0.225000X0.250000X-0.225000X0.250000X0.225000X0*%
%ADD24R,5.400000X2.900000*%
%ADD25RoundRect,0.250000X-0.250000X-0.475000X0.250000X-0.475000X0.250000X0.475000X-0.250000X0.475000X0*%
%ADD26RoundRect,0.250000X-0.275000X0.275000X-0.275000X-0.275000X0.275000X-0.275000X0.275000X0.275000X0*%
%ADD27RoundRect,0.062500X-0.062500X0.350000X-0.062500X-0.350000X0.062500X-0.350000X0.062500X0.350000X0*%
%ADD28RoundRect,0.062500X-0.350000X0.062500X-0.350000X-0.062500X0.350000X-0.062500X0.350000X0.062500X0*%
%ADD29R,0.900000X1.500000*%
%ADD30R,1.500000X0.900000*%
%ADD31R,0.900000X0.900000*%
%ADD32RoundRect,0.250000X1.100000X-0.325000X1.100000X0.325000X-1.100000X0.325000X-1.100000X-0.325000X0*%
%ADD33RoundRect,0.250000X0.325000X1.100000X-0.325000X1.100000X-0.325000X-1.100000X0.325000X-1.100000X0*%
%ADD34RoundRect,0.225000X0.250000X-0.225000X0.250000X0.225000X-0.250000X0.225000X-0.250000X-0.225000X0*%
%ADD35R,5.250000X4.550000*%
%ADD36R,1.100000X4.600000*%
%ADD37R,1.160000X0.580000*%
%ADD38R,1.160000X0.280000*%
%ADD39RoundRect,0.150000X0.150000X-0.587500X0.150000X0.587500X-0.150000X0.587500X-0.150000X-0.587500X0*%
%ADD40RoundRect,0.218750X-0.256250X0.218750X-0.256250X-0.218750X0.256250X-0.218750X0.256250X0.218750X0*%
%ADD41RoundRect,0.150000X-0.150000X0.587500X-0.150000X-0.587500X0.150000X-0.587500X0.150000X0.587500X0*%
G04 APERTURE END LIST*
D10*
G04 #@! TO.C,D111*
X162820000Y-54610000D03*
X160020000Y-54610000D03*
G04 #@! TD*
D11*
G04 #@! TO.C,SW101*
X130080000Y-80350000D03*
X130080000Y-74590000D03*
X134080000Y-80350000D03*
X134080000Y-74590000D03*
G04 #@! TD*
D12*
G04 #@! TO.C,Q111*
X165685000Y-75775000D03*
X168735000Y-75775000D03*
X165685000Y-72425000D03*
X168735000Y-72425000D03*
D13*
X164930000Y-80400000D03*
X169490000Y-80400000D03*
G04 #@! TD*
D14*
G04 #@! TO.C,R126*
X14236200Y-52070000D03*
X12586200Y-52070000D03*
G04 #@! TD*
D12*
G04 #@! TO.C,Q102*
X82930000Y-74505000D03*
X85980000Y-74505000D03*
X82930000Y-71155000D03*
X85980000Y-71155000D03*
D13*
X82175000Y-79130000D03*
X86735000Y-79130000D03*
G04 #@! TD*
D15*
G04 #@! TO.C,R101*
X69850000Y-66485000D03*
X69850000Y-68135000D03*
G04 #@! TD*
D16*
G04 #@! TO.C,R125*
X21285200Y-42735000D03*
X21285200Y-41085000D03*
G04 #@! TD*
D17*
G04 #@! TO.C,D117*
X23571200Y-41210000D03*
X23571200Y-42610000D03*
G04 #@! TD*
D10*
G04 #@! TO.C,D104*
X90675000Y-53340000D03*
X93475000Y-53340000D03*
G04 #@! TD*
D12*
G04 #@! TO.C,Q107*
X131395000Y-60535000D03*
X134445000Y-60535000D03*
X131395000Y-57185000D03*
X134445000Y-57185000D03*
D13*
X130640000Y-65160000D03*
X135200000Y-65160000D03*
G04 #@! TD*
D14*
G04 #@! TO.C,R102*
X75755000Y-78740000D03*
X74105000Y-78740000D03*
G04 #@! TD*
D18*
G04 #@! TO.C,C117*
X47150000Y-64770000D03*
X41750000Y-64770000D03*
G04 #@! TD*
D19*
G04 #@! TO.C,R119*
X16396200Y-53340000D03*
X18046200Y-53340000D03*
G04 #@! TD*
D16*
G04 #@! TO.C,R111*
X161382500Y-78295000D03*
X161382500Y-76645000D03*
G04 #@! TD*
D20*
G04 #@! TO.C,C111*
X118605000Y-71120000D03*
X120155000Y-71120000D03*
G04 #@! TD*
D12*
G04 #@! TO.C,Q105*
X107060000Y-73235000D03*
X110110000Y-73235000D03*
X107060000Y-69885000D03*
X110110000Y-69885000D03*
D13*
X106305000Y-77860000D03*
X110865000Y-77860000D03*
G04 #@! TD*
D16*
G04 #@! TO.C,R105*
X102870000Y-77025000D03*
X102870000Y-75375000D03*
G04 #@! TD*
D10*
G04 #@! TO.C,D107*
X131520000Y-53340000D03*
X134320000Y-53340000D03*
G04 #@! TD*
D12*
G04 #@! TO.C,Q110*
X152985000Y-60535000D03*
X156035000Y-60535000D03*
X152985000Y-57185000D03*
X156035000Y-57185000D03*
D13*
X152230000Y-65160000D03*
X156790000Y-65160000D03*
G04 #@! TD*
D17*
G04 #@! TO.C,D115*
X29921200Y-45020000D03*
X29921200Y-46420000D03*
G04 #@! TD*
D21*
G04 #@! TO.C,C102*
X14186200Y-53975000D03*
X12636200Y-53975000D03*
G04 #@! TD*
D14*
G04 #@! TO.C,R120*
X23126200Y-49530000D03*
X21476200Y-49530000D03*
G04 #@! TD*
D22*
G04 #@! TO.C,C101*
X20574000Y-84279000D03*
X20574000Y-81329000D03*
G04 #@! TD*
D10*
G04 #@! TO.C,D105*
X101240000Y-59690000D03*
X98440000Y-59690000D03*
G04 #@! TD*
G04 #@! TO.C,D102*
X75930000Y-64365000D03*
X75930000Y-67165000D03*
G04 #@! TD*
D14*
G04 #@! TO.C,R112*
X75755000Y-73660000D03*
X74105000Y-73660000D03*
G04 #@! TD*
D15*
G04 #@! TO.C,R104*
X95250000Y-71565000D03*
X95250000Y-73215000D03*
G04 #@! TD*
D12*
G04 #@! TO.C,Q108*
X144095000Y-75775000D03*
X147145000Y-75775000D03*
X144095000Y-72425000D03*
X147145000Y-72425000D03*
D13*
X143340000Y-80400000D03*
X147900000Y-80400000D03*
G04 #@! TD*
D21*
G04 #@! TO.C,C103*
X33363200Y-77470000D03*
X31813200Y-77470000D03*
G04 #@! TD*
D23*
G04 #@! TO.C,C115*
X27381200Y-44945000D03*
X27381200Y-46495000D03*
G04 #@! TD*
D21*
G04 #@! TO.C,C110*
X13043200Y-83820000D03*
X11493200Y-83820000D03*
G04 #@! TD*
D18*
G04 #@! TO.C,C116*
X62390000Y-59690000D03*
X56990000Y-59690000D03*
G04 #@! TD*
D10*
G04 #@! TO.C,D109*
X149560000Y-55880000D03*
X146760000Y-55880000D03*
G04 #@! TD*
D15*
G04 #@! TO.C,R103*
X90170000Y-71565000D03*
X90170000Y-73215000D03*
G04 #@! TD*
D16*
G04 #@! TO.C,R106*
X102380000Y-65595000D03*
X102380000Y-63945000D03*
G04 #@! TD*
D12*
G04 #@! TO.C,Q109*
X144095000Y-63075000D03*
X147145000Y-63075000D03*
X144095000Y-59725000D03*
X147145000Y-59725000D03*
D13*
X143340000Y-67700000D03*
X147900000Y-67700000D03*
G04 #@! TD*
D12*
G04 #@! TO.C,Q101*
X68325000Y-57555000D03*
X71375000Y-57555000D03*
X68325000Y-54205000D03*
X71375000Y-54205000D03*
D13*
X67570000Y-62180000D03*
X72130000Y-62180000D03*
G04 #@! TD*
D17*
G04 #@! TO.C,D116*
X19761200Y-48960000D03*
X19761200Y-47560000D03*
G04 #@! TD*
D24*
G04 #@! TO.C,L101*
X48435584Y-71760660D03*
X48435584Y-81660660D03*
G04 #@! TD*
D14*
G04 #@! TO.C,R118*
X30299200Y-57785000D03*
X28649200Y-57785000D03*
G04 #@! TD*
D16*
G04 #@! TO.C,R108*
X139270000Y-80835000D03*
X139270000Y-79185000D03*
G04 #@! TD*
D20*
G04 #@! TO.C,C108*
X25463200Y-58471500D03*
X27013200Y-58471500D03*
G04 #@! TD*
D21*
G04 #@! TO.C,C105*
X12916200Y-81280000D03*
X11366200Y-81280000D03*
G04 #@! TD*
D12*
G04 #@! TO.C,Q106*
X107060000Y-60535000D03*
X110110000Y-60535000D03*
X107060000Y-57185000D03*
X110110000Y-57185000D03*
D13*
X106305000Y-65160000D03*
X110865000Y-65160000D03*
G04 #@! TD*
D20*
G04 #@! TO.C,C109*
X24879000Y-84328000D03*
X26429000Y-84328000D03*
G04 #@! TD*
G04 #@! TO.C,C107*
X131305000Y-71120000D03*
X132855000Y-71120000D03*
G04 #@! TD*
D12*
G04 #@! TO.C,Q103*
X82930000Y-61170000D03*
X85980000Y-61170000D03*
X82930000Y-57820000D03*
X85980000Y-57820000D03*
D13*
X82175000Y-65795000D03*
X86735000Y-65795000D03*
G04 #@! TD*
D25*
G04 #@! TO.C,C104*
X15001200Y-81280000D03*
X16901200Y-81280000D03*
G04 #@! TD*
D26*
G04 #@! TO.C,U103*
X28031200Y-50150000D03*
X26731200Y-50150000D03*
X28031200Y-51450000D03*
X26731200Y-51450000D03*
D27*
X28631200Y-48862500D03*
X28131200Y-48862500D03*
X27631200Y-48862500D03*
X27131200Y-48862500D03*
X26631200Y-48862500D03*
X26131200Y-48862500D03*
D28*
X25443700Y-49550000D03*
X25443700Y-50050000D03*
X25443700Y-50550000D03*
X25443700Y-51050000D03*
X25443700Y-51550000D03*
X25443700Y-52050000D03*
D27*
X26131200Y-52737500D03*
X26631200Y-52737500D03*
X27131200Y-52737500D03*
X27631200Y-52737500D03*
X28131200Y-52737500D03*
X28631200Y-52737500D03*
D28*
X29318700Y-52050000D03*
X29318700Y-51550000D03*
X29318700Y-51050000D03*
X29318700Y-50550000D03*
X29318700Y-50050000D03*
X29318700Y-49550000D03*
G04 #@! TD*
D10*
G04 #@! TO.C,D108*
X141940000Y-55880000D03*
X139140000Y-55880000D03*
G04 #@! TD*
D11*
G04 #@! TO.C,SW102*
X121380000Y-74590000D03*
X121380000Y-80350000D03*
X117380000Y-74590000D03*
X117380000Y-80350000D03*
G04 #@! TD*
D29*
G04 #@! TO.C,U101*
X11506200Y-78600000D03*
X12776200Y-78600000D03*
X14046200Y-78600000D03*
X15316200Y-78600000D03*
X16586200Y-78600000D03*
X17856200Y-78600000D03*
X19126200Y-78600000D03*
X20396200Y-78600000D03*
X21666200Y-78600000D03*
X22936200Y-78600000D03*
X24206200Y-78600000D03*
X25476200Y-78600000D03*
X26746200Y-78600000D03*
X28016200Y-78600000D03*
D30*
X29111200Y-75565000D03*
X29111200Y-74295000D03*
X29111200Y-73025000D03*
X29111200Y-71755000D03*
X29111200Y-70485000D03*
X29111200Y-69215000D03*
X29111200Y-67945000D03*
X29111200Y-66675000D03*
X29111200Y-65405000D03*
X29111200Y-64135000D03*
D29*
X28016200Y-61100000D03*
X26746200Y-61100000D03*
X25476200Y-61100000D03*
X24206200Y-61100000D03*
X22936200Y-61100000D03*
X21666200Y-61100000D03*
X20396200Y-61100000D03*
X19126200Y-61100000D03*
X17856200Y-61100000D03*
X16586200Y-61100000D03*
X15316200Y-61100000D03*
X14046200Y-61100000D03*
X12776200Y-61100000D03*
X11506200Y-61100000D03*
D31*
X17671200Y-72750000D03*
X19071200Y-72750000D03*
X20471200Y-72750000D03*
X17671200Y-71350000D03*
X19071200Y-71350000D03*
X20471200Y-71350000D03*
X17671200Y-69950000D03*
X19071200Y-69950000D03*
X20471200Y-69950000D03*
G04 #@! TD*
D12*
G04 #@! TO.C,Q112*
X165685000Y-63075000D03*
X168735000Y-63075000D03*
X165685000Y-59725000D03*
X168735000Y-59725000D03*
D13*
X164930000Y-67700000D03*
X169490000Y-67700000D03*
G04 #@! TD*
D14*
G04 #@! TO.C,R107*
X127395000Y-53340000D03*
X125745000Y-53340000D03*
G04 #@! TD*
D32*
G04 #@! TO.C,C112*
X46990000Y-58625000D03*
X46990000Y-55675000D03*
G04 #@! TD*
D19*
G04 #@! TO.C,R114*
X126175000Y-71120000D03*
X127825000Y-71120000D03*
G04 #@! TD*
D14*
G04 #@! TO.C,R121*
X28206200Y-54610000D03*
X26556200Y-54610000D03*
G04 #@! TD*
D10*
G04 #@! TO.C,D112*
X169170000Y-54610000D03*
X166370000Y-54610000D03*
G04 #@! TD*
D16*
G04 #@! TO.C,R124*
X23571200Y-45720000D03*
X23571200Y-44070000D03*
G04 #@! TD*
D33*
G04 #@! TO.C,C113*
X39575000Y-52070000D03*
X36625000Y-52070000D03*
G04 #@! TD*
D34*
G04 #@! TO.C,C114*
X27381200Y-42685000D03*
X27381200Y-41135000D03*
G04 #@! TD*
D14*
G04 #@! TO.C,R117*
X33921200Y-59690000D03*
X32271200Y-59690000D03*
G04 #@! TD*
D10*
G04 #@! TO.C,D110*
X150570000Y-52070000D03*
X153370000Y-52070000D03*
G04 #@! TD*
D35*
G04 #@! TO.C,U102*
X65005000Y-76200000D03*
X59455000Y-76200000D03*
X65005000Y-81050000D03*
X59455000Y-81050000D03*
D36*
X65630000Y-69475000D03*
X63930000Y-69475000D03*
X62230000Y-69475000D03*
X60530000Y-69475000D03*
X58830000Y-69475000D03*
G04 #@! TD*
D19*
G04 #@! TO.C,R110*
X153685000Y-68580000D03*
X155335000Y-68580000D03*
G04 #@! TD*
D10*
G04 #@! TO.C,D101*
X62100000Y-53340000D03*
X64900000Y-53340000D03*
G04 #@! TD*
D12*
G04 #@! TO.C,Q104*
X91965000Y-61170000D03*
X95015000Y-61170000D03*
X91965000Y-57820000D03*
X95015000Y-57820000D03*
D13*
X91210000Y-65795000D03*
X95770000Y-65795000D03*
G04 #@! TD*
D20*
G04 #@! TO.C,C118*
X15303200Y-83820000D03*
X16853200Y-83820000D03*
G04 #@! TD*
D15*
G04 #@! TO.C,R113*
X35128200Y-69470000D03*
X35128200Y-71120000D03*
G04 #@! TD*
D10*
G04 #@! TO.C,D106*
X109985000Y-53340000D03*
X107185000Y-53340000D03*
G04 #@! TD*
D37*
G04 #@! TO.C,J109*
X17191200Y-41250000D03*
X17191200Y-42050000D03*
D38*
X17191200Y-43200000D03*
X17191200Y-44200000D03*
X17191200Y-44700000D03*
X17191200Y-45700000D03*
D37*
X17191200Y-46850000D03*
X17191200Y-47650000D03*
X17191200Y-47650000D03*
X17191200Y-46850000D03*
D38*
X17191200Y-46200000D03*
X17191200Y-45200000D03*
X17191200Y-43700000D03*
X17191200Y-42700000D03*
D37*
X17191200Y-42050000D03*
X17191200Y-41250000D03*
G04 #@! TD*
D14*
G04 #@! TO.C,R109*
X26936200Y-81280000D03*
X25286200Y-81280000D03*
G04 #@! TD*
D39*
G04 #@! TO.C,Q114*
X32334200Y-56817500D03*
X34234200Y-56817500D03*
X33284200Y-54942500D03*
G04 #@! TD*
D10*
G04 #@! TO.C,D114*
X32461200Y-41780000D03*
X32461200Y-44580000D03*
G04 #@! TD*
D40*
G04 #@! TO.C,D113*
X32842200Y-67868700D03*
X32842200Y-69443700D03*
G04 #@! TD*
D14*
G04 #@! TO.C,R122*
X21856200Y-52070000D03*
X20206200Y-52070000D03*
G04 #@! TD*
D41*
G04 #@! TO.C,Q113*
X34173200Y-63197500D03*
X32273200Y-63197500D03*
X33223200Y-65072500D03*
G04 #@! TD*
D14*
G04 #@! TO.C,R123*
X21856200Y-45720000D03*
X20206200Y-45720000D03*
G04 #@! TD*
D10*
G04 #@! TO.C,D103*
X83950000Y-53340000D03*
X81150000Y-53340000D03*
G04 #@! TD*
M02*
