G04 #@! TF.GenerationSoftware,KiCad,Pcbnew,7.0.0-da2b9df05c~171~ubuntu22.04.1*
G04 #@! TF.CreationDate,2023-04-03T14:13:22+02:00*
G04 #@! TF.ProjectId,pcb_esp32_wled_pwm_multichannel,7063625f-6573-4703-9332-5f776c65645f,rev?*
G04 #@! TF.SameCoordinates,Original*
G04 #@! TF.FileFunction,Soldermask,Top*
G04 #@! TF.FilePolarity,Negative*
%FSLAX46Y46*%
G04 Gerber Fmt 4.6, Leading zero omitted, Abs format (unit mm)*
G04 Created by KiCad (PCBNEW 7.0.0-da2b9df05c~171~ubuntu22.04.1) date 2023-04-03 14:13:22*
%MOMM*%
%LPD*%
G01*
G04 APERTURE LIST*
G04 Aperture macros list*
%AMRoundRect*
0 Rectangle with rounded corners*
0 $1 Rounding radius*
0 $2 $3 $4 $5 $6 $7 $8 $9 X,Y pos of 4 corners*
0 Add a 4 corners polygon primitive as box body*
4,1,4,$2,$3,$4,$5,$6,$7,$8,$9,$2,$3,0*
0 Add four circle primitives for the rounded corners*
1,1,$1+$1,$2,$3*
1,1,$1+$1,$4,$5*
1,1,$1+$1,$6,$7*
1,1,$1+$1,$8,$9*
0 Add four rect primitives between the rounded corners*
20,1,$1+$1,$2,$3,$4,$5,0*
20,1,$1+$1,$4,$5,$6,$7,0*
20,1,$1+$1,$6,$7,$8,$9,0*
20,1,$1+$1,$8,$9,$2,$3,0*%
G04 Aperture macros list end*
%ADD10R,0.900000X1.500000*%
%ADD11R,1.500000X0.900000*%
%ADD12C,0.475000*%
%ADD13R,3.800000X3.800000*%
%ADD14R,1.100000X1.100000*%
%ADD15R,1.000000X2.750000*%
%ADD16R,1.200000X2.200000*%
%ADD17R,5.800000X6.400000*%
%ADD18RoundRect,0.200000X0.200000X0.275000X-0.200000X0.275000X-0.200000X-0.275000X0.200000X-0.275000X0*%
%ADD19R,1.700000X1.700000*%
%ADD20O,1.700000X1.700000*%
%ADD21C,3.200000*%
%ADD22RoundRect,0.200000X-0.275000X0.200000X-0.275000X-0.200000X0.275000X-0.200000X0.275000X0.200000X0*%
%ADD23RoundRect,0.200000X0.275000X-0.200000X0.275000X0.200000X-0.275000X0.200000X-0.275000X-0.200000X0*%
%ADD24R,0.700000X0.600000*%
%ADD25RoundRect,0.250000X1.500000X0.550000X-1.500000X0.550000X-1.500000X-0.550000X1.500000X-0.550000X0*%
%ADD26RoundRect,0.200000X-0.200000X-0.275000X0.200000X-0.275000X0.200000X0.275000X-0.200000X0.275000X0*%
%ADD27R,2.700000X2.700000*%
%ADD28C,2.700000*%
%ADD29RoundRect,0.225000X-0.225000X-0.250000X0.225000X-0.250000X0.225000X0.250000X-0.225000X0.250000X0*%
%ADD30RoundRect,0.225000X0.225000X0.250000X-0.225000X0.250000X-0.225000X-0.250000X0.225000X-0.250000X0*%
%ADD31RoundRect,0.250000X0.650000X-0.325000X0.650000X0.325000X-0.650000X0.325000X-0.650000X-0.325000X0*%
%ADD32RoundRect,0.225000X-0.250000X0.225000X-0.250000X-0.225000X0.250000X-0.225000X0.250000X0.225000X0*%
%ADD33R,5.400000X2.900000*%
%ADD34RoundRect,0.250000X-0.250000X-0.475000X0.250000X-0.475000X0.250000X0.475000X-0.250000X0.475000X0*%
%ADD35RoundRect,0.062500X-0.062500X0.350000X-0.062500X-0.350000X0.062500X-0.350000X0.062500X0.350000X0*%
%ADD36RoundRect,0.062500X-0.350000X0.062500X-0.350000X-0.062500X0.350000X-0.062500X0.350000X0.062500X0*%
%ADD37R,2.600000X2.600000*%
%ADD38R,2.200000X2.200000*%
%ADD39O,2.200000X2.200000*%
%ADD40RoundRect,0.250000X1.100000X-0.325000X1.100000X0.325000X-1.100000X0.325000X-1.100000X-0.325000X0*%
%ADD41RoundRect,0.250000X0.325000X1.100000X-0.325000X1.100000X-0.325000X-1.100000X0.325000X-1.100000X0*%
%ADD42RoundRect,0.225000X0.250000X-0.225000X0.250000X0.225000X-0.250000X0.225000X-0.250000X-0.225000X0*%
%ADD43R,1.100000X4.600000*%
%ADD44R,10.800000X9.400000*%
%ADD45C,0.600000*%
%ADD46R,1.160000X0.580000*%
%ADD47R,1.160000X0.280000*%
%ADD48O,1.800000X1.000000*%
%ADD49O,2.100000X1.000000*%
%ADD50RoundRect,0.150000X0.150000X-0.587500X0.150000X0.587500X-0.150000X0.587500X-0.150000X-0.587500X0*%
%ADD51RoundRect,0.218750X-0.256250X0.218750X-0.256250X-0.218750X0.256250X-0.218750X0.256250X0.218750X0*%
%ADD52RoundRect,0.150000X-0.150000X0.587500X-0.150000X-0.587500X0.150000X-0.587500X0.150000X0.587500X0*%
G04 APERTURE END LIST*
D10*
G04 #@! TO.C,U101*
X11506199Y-78599999D03*
X12776199Y-78599999D03*
X14046199Y-78599999D03*
X15316199Y-78599999D03*
X16586199Y-78599999D03*
X17856199Y-78599999D03*
X19126199Y-78599999D03*
X20396199Y-78599999D03*
X21666199Y-78599999D03*
X22936199Y-78599999D03*
X24206199Y-78599999D03*
X25476199Y-78599999D03*
X26746199Y-78599999D03*
X28016199Y-78599999D03*
D11*
X29111199Y-75564999D03*
X29111199Y-74294999D03*
X29111199Y-73024999D03*
X29111199Y-71754999D03*
X29111199Y-70484999D03*
X29111199Y-69214999D03*
X29111199Y-67944999D03*
X29111199Y-66674999D03*
X29111199Y-65404999D03*
X29111199Y-64134999D03*
D10*
X28016199Y-61099999D03*
X26746199Y-61099999D03*
X25476199Y-61099999D03*
X24206199Y-61099999D03*
X22936199Y-61099999D03*
X21666199Y-61099999D03*
X20396199Y-61099999D03*
X19126199Y-61099999D03*
X17856199Y-61099999D03*
X16586199Y-61099999D03*
X15316199Y-61099999D03*
X14046199Y-61099999D03*
X12776199Y-61099999D03*
X11506199Y-61099999D03*
D12*
X17671200Y-70650000D03*
D13*
X19071199Y-71349999D03*
D12*
X19071200Y-70650000D03*
X19771200Y-69950000D03*
X17671200Y-72050000D03*
X19771200Y-72750000D03*
X18371200Y-72750000D03*
X19071200Y-72050000D03*
X18371200Y-71350000D03*
X19771200Y-71350000D03*
X20471200Y-70650000D03*
X18371200Y-69950000D03*
X20471200Y-72050000D03*
G04 #@! TD*
D14*
G04 #@! TO.C,D111*
X162819999Y-54609999D03*
X160019999Y-54609999D03*
G04 #@! TD*
D15*
G04 #@! TO.C,SW101*
X130079999Y-74589999D03*
X130079999Y-80349999D03*
X134079999Y-74589999D03*
X134079999Y-80349999D03*
G04 #@! TD*
D16*
G04 #@! TO.C,Q111*
X164929999Y-80399999D03*
D17*
X167209999Y-74099999D03*
D16*
X169489999Y-80399999D03*
G04 #@! TD*
D18*
G04 #@! TO.C,R126*
X14236200Y-52070000D03*
X12586200Y-52070000D03*
G04 #@! TD*
D16*
G04 #@! TO.C,Q102*
X82174999Y-79129999D03*
D17*
X84454999Y-72829999D03*
D16*
X86734999Y-79129999D03*
G04 #@! TD*
D19*
G04 #@! TO.C,J107*
X44449999Y-50391999D03*
D20*
X46989999Y-50391999D03*
X49529999Y-50391999D03*
G04 #@! TD*
D21*
G04 #@! TO.C,H103*
X95250000Y-79248000D03*
G04 #@! TD*
D20*
G04 #@! TO.C,J106*
X44464999Y-42671999D03*
X47004999Y-42671999D03*
D19*
X49544999Y-42671999D03*
G04 #@! TD*
D22*
G04 #@! TO.C,R101*
X69850000Y-66485000D03*
X69850000Y-68135000D03*
G04 #@! TD*
D23*
G04 #@! TO.C,R125*
X21285200Y-42735000D03*
X21285200Y-41085000D03*
G04 #@! TD*
D24*
G04 #@! TO.C,D117*
X23571199Y-41209999D03*
X23571199Y-42609999D03*
G04 #@! TD*
D14*
G04 #@! TO.C,D104*
X90674999Y-53339999D03*
X93474999Y-53339999D03*
G04 #@! TD*
D16*
G04 #@! TO.C,Q107*
X130639999Y-65159999D03*
D17*
X132919999Y-58859999D03*
D16*
X135199999Y-65159999D03*
G04 #@! TD*
D18*
G04 #@! TO.C,R102*
X75755000Y-78740000D03*
X74105000Y-78740000D03*
G04 #@! TD*
D25*
G04 #@! TO.C,C117*
X47150000Y-64770000D03*
X41750000Y-64770000D03*
G04 #@! TD*
D26*
G04 #@! TO.C,R119*
X16396200Y-53340000D03*
X18046200Y-53340000D03*
G04 #@! TD*
D23*
G04 #@! TO.C,R111*
X161382500Y-78295000D03*
X161382500Y-76645000D03*
G04 #@! TD*
D27*
G04 #@! TO.C,J104*
X151969999Y-44449999D03*
D28*
X157050000Y-44450000D03*
X162130000Y-44450000D03*
X167210000Y-44450000D03*
G04 #@! TD*
D21*
G04 #@! TO.C,H104*
X119888000Y-56642000D03*
G04 #@! TD*
D29*
G04 #@! TO.C,C111*
X118605000Y-71120000D03*
X120155000Y-71120000D03*
G04 #@! TD*
D16*
G04 #@! TO.C,Q105*
X106304999Y-77859999D03*
D17*
X108584999Y-71559999D03*
D16*
X110864999Y-77859999D03*
G04 #@! TD*
D23*
G04 #@! TO.C,R105*
X102870000Y-77025000D03*
X102870000Y-75375000D03*
G04 #@! TD*
D14*
G04 #@! TO.C,D107*
X131519999Y-53339999D03*
X134319999Y-53339999D03*
G04 #@! TD*
D16*
G04 #@! TO.C,Q110*
X152229999Y-65159999D03*
D17*
X154509999Y-58859999D03*
D16*
X156789999Y-65159999D03*
G04 #@! TD*
D24*
G04 #@! TO.C,D115*
X29921199Y-45019999D03*
X29921199Y-46419999D03*
G04 #@! TD*
D30*
G04 #@! TO.C,C102*
X14186200Y-53975000D03*
X12636200Y-53975000D03*
G04 #@! TD*
D18*
G04 #@! TO.C,R120*
X23126200Y-49530000D03*
X21476200Y-49530000D03*
G04 #@! TD*
D31*
G04 #@! TO.C,C101*
X20574000Y-84279000D03*
X20574000Y-81329000D03*
G04 #@! TD*
D14*
G04 #@! TO.C,D105*
X101239999Y-59689999D03*
X98439999Y-59689999D03*
G04 #@! TD*
G04 #@! TO.C,D102*
X75929999Y-64364999D03*
X75929999Y-67164999D03*
G04 #@! TD*
D18*
G04 #@! TO.C,R112*
X75755000Y-73660000D03*
X74105000Y-73660000D03*
G04 #@! TD*
D22*
G04 #@! TO.C,R104*
X95250000Y-71565000D03*
X95250000Y-73215000D03*
G04 #@! TD*
D16*
G04 #@! TO.C,Q108*
X143339999Y-80399999D03*
D17*
X145619999Y-74099999D03*
D16*
X147899999Y-80399999D03*
G04 #@! TD*
D30*
G04 #@! TO.C,C103*
X33363200Y-77470000D03*
X31813200Y-77470000D03*
G04 #@! TD*
D32*
G04 #@! TO.C,C115*
X27381200Y-44945000D03*
X27381200Y-46495000D03*
G04 #@! TD*
D30*
G04 #@! TO.C,C110*
X13043200Y-83820000D03*
X11493200Y-83820000D03*
G04 #@! TD*
D25*
G04 #@! TO.C,C116*
X62390000Y-59690000D03*
X56990000Y-59690000D03*
G04 #@! TD*
D14*
G04 #@! TO.C,D109*
X149559999Y-55879999D03*
X146759999Y-55879999D03*
G04 #@! TD*
D22*
G04 #@! TO.C,R103*
X90170000Y-71565000D03*
X90170000Y-73215000D03*
G04 #@! TD*
D23*
G04 #@! TO.C,R106*
X102380000Y-65595000D03*
X102380000Y-63945000D03*
G04 #@! TD*
D16*
G04 #@! TO.C,Q109*
X143339999Y-67699999D03*
D17*
X145619999Y-61399999D03*
D16*
X147899999Y-67699999D03*
G04 #@! TD*
G04 #@! TO.C,Q101*
X67569999Y-62179999D03*
D17*
X69849999Y-55879999D03*
D16*
X72129999Y-62179999D03*
G04 #@! TD*
D27*
G04 #@! TO.C,J103*
X126569999Y-44449999D03*
D28*
X131650000Y-44450000D03*
X136730000Y-44450000D03*
X141810000Y-44450000D03*
G04 #@! TD*
D24*
G04 #@! TO.C,D116*
X19761199Y-48959999D03*
X19761199Y-47559999D03*
G04 #@! TD*
D33*
G04 #@! TO.C,L101*
X48435583Y-71760659D03*
X48435583Y-81660659D03*
G04 #@! TD*
D18*
G04 #@! TO.C,R118*
X30299200Y-57785000D03*
X28649200Y-57785000D03*
G04 #@! TD*
D23*
G04 #@! TO.C,R108*
X139270000Y-80835000D03*
X139270000Y-79185000D03*
G04 #@! TD*
D29*
G04 #@! TO.C,C108*
X25463200Y-58471500D03*
X27013200Y-58471500D03*
G04 #@! TD*
D30*
G04 #@! TO.C,C105*
X12916200Y-81280000D03*
X11366200Y-81280000D03*
G04 #@! TD*
D16*
G04 #@! TO.C,Q106*
X106304999Y-65159999D03*
D17*
X108584999Y-58859999D03*
D16*
X110864999Y-65159999D03*
G04 #@! TD*
D29*
G04 #@! TO.C,C109*
X24879000Y-84328000D03*
X26429000Y-84328000D03*
G04 #@! TD*
G04 #@! TO.C,C107*
X131305000Y-71120000D03*
X132855000Y-71120000D03*
G04 #@! TD*
D16*
G04 #@! TO.C,Q103*
X82174999Y-65794999D03*
D17*
X84454999Y-59494999D03*
D16*
X86734999Y-65794999D03*
G04 #@! TD*
D34*
G04 #@! TO.C,C104*
X15001200Y-81280000D03*
X16901200Y-81280000D03*
G04 #@! TD*
D35*
G04 #@! TO.C,U103*
X28631200Y-48862500D03*
X28131200Y-48862500D03*
X27631200Y-48862500D03*
X27131200Y-48862500D03*
X26631200Y-48862500D03*
X26131200Y-48862500D03*
D36*
X25443700Y-49550000D03*
X25443700Y-50050000D03*
X25443700Y-50550000D03*
X25443700Y-51050000D03*
X25443700Y-51550000D03*
X25443700Y-52050000D03*
D35*
X26131200Y-52737500D03*
X26631200Y-52737500D03*
X27131200Y-52737500D03*
X27631200Y-52737500D03*
X28131200Y-52737500D03*
X28631200Y-52737500D03*
D36*
X29318700Y-52050000D03*
X29318700Y-51550000D03*
X29318700Y-51050000D03*
X29318700Y-50550000D03*
X29318700Y-50050000D03*
X29318700Y-49550000D03*
D37*
X27381199Y-50799999D03*
G04 #@! TD*
D14*
G04 #@! TO.C,D108*
X141939999Y-55879999D03*
X139139999Y-55879999D03*
G04 #@! TD*
D15*
G04 #@! TO.C,SW102*
X121379999Y-74589999D03*
X121379999Y-80349999D03*
X117379999Y-80349999D03*
X117379999Y-74589999D03*
G04 #@! TD*
D27*
G04 #@! TO.C,J102*
X87139999Y-44449999D03*
D28*
X92220000Y-44450000D03*
X97300000Y-44450000D03*
X102380000Y-44450000D03*
G04 #@! TD*
D21*
G04 #@! TO.C,H102*
X154940000Y-76835000D03*
G04 #@! TD*
D38*
G04 #@! TO.C,D118*
X52069999Y-66039999D03*
D39*
X52069999Y-55879999D03*
G04 #@! TD*
D16*
G04 #@! TO.C,Q112*
X164929999Y-67699999D03*
D17*
X167209999Y-61399999D03*
D16*
X169489999Y-67699999D03*
G04 #@! TD*
D18*
G04 #@! TO.C,R107*
X127395000Y-53340000D03*
X125745000Y-53340000D03*
G04 #@! TD*
D40*
G04 #@! TO.C,C112*
X46990000Y-58625000D03*
X46990000Y-55675000D03*
G04 #@! TD*
D26*
G04 #@! TO.C,R114*
X126175000Y-71120000D03*
X127825000Y-71120000D03*
G04 #@! TD*
D18*
G04 #@! TO.C,R121*
X28206200Y-54610000D03*
X26556200Y-54610000D03*
G04 #@! TD*
D27*
G04 #@! TO.C,J101*
X61739999Y-44449999D03*
D28*
X66820000Y-44450000D03*
X71900000Y-44450000D03*
X76980000Y-44450000D03*
G04 #@! TD*
D14*
G04 #@! TO.C,D112*
X169169999Y-54609999D03*
X166369999Y-54609999D03*
G04 #@! TD*
D23*
G04 #@! TO.C,R124*
X23571200Y-45720000D03*
X23571200Y-44070000D03*
G04 #@! TD*
D41*
G04 #@! TO.C,C113*
X39575000Y-52070000D03*
X36625000Y-52070000D03*
G04 #@! TD*
D19*
G04 #@! TO.C,J105*
X12781199Y-57149999D03*
D20*
X15321199Y-57149999D03*
X17861199Y-57149999D03*
X20401199Y-57149999D03*
X22941199Y-57149999D03*
G04 #@! TD*
D42*
G04 #@! TO.C,C114*
X27381200Y-42685000D03*
X27381200Y-41135000D03*
G04 #@! TD*
D18*
G04 #@! TO.C,R117*
X33921200Y-59690000D03*
X32271200Y-59690000D03*
G04 #@! TD*
D14*
G04 #@! TO.C,D110*
X150569999Y-52069999D03*
X153369999Y-52069999D03*
G04 #@! TD*
D43*
G04 #@! TO.C,U102*
X65629999Y-69474999D03*
X63929999Y-69474999D03*
X62229999Y-69474999D03*
D44*
X62229999Y-78624999D03*
D43*
X60529999Y-69474999D03*
X58829999Y-69474999D03*
G04 #@! TD*
D26*
G04 #@! TO.C,R110*
X153685000Y-68580000D03*
X155335000Y-68580000D03*
G04 #@! TD*
D14*
G04 #@! TO.C,D101*
X62099999Y-53339999D03*
X64899999Y-53339999D03*
G04 #@! TD*
D16*
G04 #@! TO.C,Q104*
X91209999Y-65794999D03*
D17*
X93489999Y-59494999D03*
D16*
X95769999Y-65794999D03*
G04 #@! TD*
D29*
G04 #@! TO.C,C118*
X15303200Y-83820000D03*
X16853200Y-83820000D03*
G04 #@! TD*
D22*
G04 #@! TO.C,R113*
X35128200Y-69470000D03*
X35128200Y-71120000D03*
G04 #@! TD*
D14*
G04 #@! TO.C,D106*
X109984999Y-53339999D03*
X107184999Y-53339999D03*
G04 #@! TD*
D45*
G04 #@! TO.C,J109*
X16111200Y-47340000D03*
X16111200Y-41560000D03*
D46*
X17191199Y-41249999D03*
X17191199Y-42049999D03*
D47*
X17191199Y-43199999D03*
X17191199Y-44199999D03*
X17191199Y-44699999D03*
X17191199Y-45699999D03*
D46*
X17191199Y-46849999D03*
X17191199Y-47649999D03*
X17191199Y-47649999D03*
X17191199Y-46849999D03*
D47*
X17191199Y-46199999D03*
X17191199Y-45199999D03*
X17191199Y-43699999D03*
X17191199Y-42699999D03*
D46*
X17191199Y-42049999D03*
X17191199Y-41249999D03*
D48*
X12461199Y-48769999D03*
X12461199Y-40129999D03*
D49*
X16611199Y-48769999D03*
X16611199Y-40129999D03*
G04 #@! TD*
D18*
G04 #@! TO.C,R109*
X26936200Y-81280000D03*
X25286200Y-81280000D03*
G04 #@! TD*
D50*
G04 #@! TO.C,Q114*
X32334200Y-56817500D03*
X34234200Y-56817500D03*
X33284200Y-54942500D03*
G04 #@! TD*
D14*
G04 #@! TO.C,D114*
X32461199Y-41779999D03*
X32461199Y-44579999D03*
G04 #@! TD*
D51*
G04 #@! TO.C,D113*
X32842200Y-67868700D03*
X32842200Y-69443700D03*
G04 #@! TD*
D18*
G04 #@! TO.C,R122*
X21856200Y-52070000D03*
X20206200Y-52070000D03*
G04 #@! TD*
D52*
G04 #@! TO.C,Q113*
X34173200Y-63197500D03*
X32273200Y-63197500D03*
X33223200Y-65072500D03*
G04 #@! TD*
D18*
G04 #@! TO.C,R123*
X21856200Y-45720000D03*
X20206200Y-45720000D03*
G04 #@! TD*
D14*
G04 #@! TO.C,D103*
X83949999Y-53339999D03*
X81149999Y-53339999D03*
G04 #@! TD*
D27*
G04 #@! TO.C,J108*
X111735999Y-44501499D03*
D28*
X116816000Y-44501500D03*
G04 #@! TD*
D21*
G04 #@! TO.C,H101*
X38735000Y-45085000D03*
G04 #@! TD*
M02*
