G04 #@! TF.GenerationSoftware,KiCad,Pcbnew,8.0.8-8.0.8-0~ubuntu24.04.1*
G04 #@! TF.CreationDate,2025-01-25T22:14:15+01:00*
G04 #@! TF.ProjectId,pcb_esp32_wled_pwm_multichannel,7063625f-6573-4703-9332-5f776c65645f,rev?*
G04 #@! TF.SameCoordinates,Original*
G04 #@! TF.FileFunction,Copper,L2,Inr*
G04 #@! TF.FilePolarity,Positive*
%FSLAX46Y46*%
G04 Gerber Fmt 4.6, Leading zero omitted, Abs format (unit mm)*
G04 Created by KiCad (PCBNEW 8.0.8-8.0.8-0~ubuntu24.04.1) date 2025-01-25 22:14:15*
%MOMM*%
%LPD*%
G01*
G04 APERTURE LIST*
G04 #@! TA.AperFunction,ComponentPad*
%ADD10R,1.700000X1.700000*%
G04 #@! TD*
G04 #@! TA.AperFunction,ComponentPad*
%ADD11O,1.700000X1.700000*%
G04 #@! TD*
G04 #@! TA.AperFunction,ComponentPad*
%ADD12R,2.700000X2.700000*%
G04 #@! TD*
G04 #@! TA.AperFunction,ComponentPad*
%ADD13C,2.700000*%
G04 #@! TD*
G04 #@! TA.AperFunction,HeatsinkPad*
%ADD14C,0.600000*%
G04 #@! TD*
G04 #@! TA.AperFunction,ComponentPad*
%ADD15R,2.200000X2.200000*%
G04 #@! TD*
G04 #@! TA.AperFunction,ComponentPad*
%ADD16O,2.200000X2.200000*%
G04 #@! TD*
G04 #@! TA.AperFunction,ComponentPad*
%ADD17O,2.100000X1.000000*%
G04 #@! TD*
G04 #@! TA.AperFunction,ComponentPad*
%ADD18O,1.800000X1.000000*%
G04 #@! TD*
G04 #@! TA.AperFunction,ViaPad*
%ADD19C,0.800000*%
G04 #@! TD*
G04 APERTURE END LIST*
D10*
G04 #@! TO.N,GND*
G04 #@! TO.C,J107*
X44450000Y-50392000D03*
D11*
G04 #@! TO.N,/I2S_SM*
X46990000Y-50392000D03*
G04 #@! TO.N,/I2S_SCK*
X49530000Y-50392000D03*
G04 #@! TD*
D10*
G04 #@! TO.N,/I2S_SD*
G04 #@! TO.C,J106*
X49545000Y-42672000D03*
D11*
G04 #@! TO.N,+3V3*
X47005000Y-42672000D03*
G04 #@! TO.N,GND*
X44465000Y-42672000D03*
G04 #@! TD*
D12*
G04 #@! TO.N,VDD*
G04 #@! TO.C,J104*
X151970000Y-44450000D03*
D13*
G04 #@! TO.N,/LED_R4*
X157050000Y-44450000D03*
G04 #@! TO.N,/LED_G4*
X162130000Y-44450000D03*
G04 #@! TO.N,/LED_B4*
X167210000Y-44450000D03*
G04 #@! TD*
D12*
G04 #@! TO.N,VDD*
G04 #@! TO.C,J103*
X126570000Y-44450000D03*
D13*
G04 #@! TO.N,/LED_R3*
X131650000Y-44450000D03*
G04 #@! TO.N,/LED_G3*
X136730000Y-44450000D03*
G04 #@! TO.N,/LED_B3*
X141810000Y-44450000D03*
G04 #@! TD*
D12*
G04 #@! TO.N,VDD*
G04 #@! TO.C,J102*
X87140000Y-44450000D03*
D13*
G04 #@! TO.N,/LED_R2*
X92220000Y-44450000D03*
G04 #@! TO.N,/LED_G2*
X97300000Y-44450000D03*
G04 #@! TO.N,/LED_B2*
X102380000Y-44450000D03*
G04 #@! TD*
D14*
G04 #@! TO.N,GND*
G04 #@! TO.C,U101*
X18371200Y-72750000D03*
X19771200Y-72750000D03*
X17671200Y-72050000D03*
X19071200Y-72050000D03*
X20471200Y-72050000D03*
X18371200Y-71350000D03*
X19771200Y-71350000D03*
X17671200Y-70650000D03*
X19071200Y-70650000D03*
X20471200Y-70650000D03*
X18371200Y-69950000D03*
X19771200Y-69950000D03*
G04 #@! TD*
D15*
G04 #@! TO.N,Net-(D118-K)*
G04 #@! TO.C,D118*
X52070000Y-66040000D03*
D16*
G04 #@! TO.N,GND*
X52070000Y-55880000D03*
G04 #@! TD*
D12*
G04 #@! TO.N,VDD*
G04 #@! TO.C,J101*
X61740000Y-44450000D03*
D13*
G04 #@! TO.N,/LED_R1*
X66820000Y-44450000D03*
G04 #@! TO.N,/LED_G1*
X71900000Y-44450000D03*
G04 #@! TO.N,/LED_B1*
X76980000Y-44450000D03*
G04 #@! TD*
D11*
G04 #@! TO.N,+3V3*
G04 #@! TO.C,J105*
X24384000Y-56642000D03*
G04 #@! TO.N,/IO0*
X21844000Y-56642000D03*
G04 #@! TO.N,/RXDesp*
X19304000Y-56642000D03*
G04 #@! TO.N,/RXcp21*
X16764000Y-56642000D03*
D10*
G04 #@! TO.N,GND*
X14224000Y-56642000D03*
G04 #@! TD*
D17*
G04 #@! TO.N,GND*
G04 #@! TO.C,J109*
X16611200Y-40130000D03*
D18*
X12461200Y-40130000D03*
D17*
X16611200Y-48770000D03*
D18*
X12461200Y-48770000D03*
G04 #@! TD*
D12*
G04 #@! TO.N,VDD*
G04 #@! TO.C,J108*
X111736000Y-44501500D03*
D13*
G04 #@! TO.N,GND*
X116816000Y-44501500D03*
G04 #@! TD*
D19*
G04 #@! TO.N,+3V3*
X33782000Y-77724000D03*
X12446000Y-81534000D03*
X13970000Y-59182000D03*
X33020000Y-47244000D03*
X32766000Y-71374000D03*
X49530000Y-66040000D03*
X60452000Y-71882000D03*
X39574999Y-49325001D03*
X124460000Y-71120000D03*
X50546000Y-80772000D03*
X23114000Y-50546000D03*
X46990000Y-60198000D03*
X46228000Y-80772000D03*
X55626000Y-66040010D03*
G04 #@! TO.N,GND*
X114300000Y-70866000D03*
X34036000Y-48768000D03*
X26670000Y-53594000D03*
X88900000Y-58420000D03*
X68961000Y-41021000D03*
X168910000Y-70485000D03*
X140540000Y-77724000D03*
X19761200Y-50165000D03*
X74930000Y-55880000D03*
X89535000Y-80010000D03*
X84582000Y-79883000D03*
X17780000Y-83058000D03*
X163195000Y-84455000D03*
X121744000Y-43688000D03*
X122174000Y-50292000D03*
X77470000Y-76200000D03*
X11506200Y-45720000D03*
X123190000Y-67310000D03*
X89662000Y-77724000D03*
X58420000Y-78232000D03*
X28738205Y-50165000D03*
X114046000Y-77216000D03*
X135460000Y-68580000D03*
X96520000Y-69850000D03*
X156542000Y-52832000D03*
X170766000Y-69596000D03*
X145796000Y-67056000D03*
X19761200Y-39370000D03*
X84709000Y-64389000D03*
X37592000Y-80010000D03*
X99205000Y-78105000D03*
X148844000Y-70358000D03*
X12446000Y-74168000D03*
X99060000Y-72390000D03*
X59690000Y-51562000D03*
X53340000Y-46990000D03*
X132285000Y-68580000D03*
X25476200Y-39370000D03*
X167845000Y-81915000D03*
X155575000Y-71120000D03*
X154510000Y-64770000D03*
X38608000Y-65024000D03*
X11506200Y-43180000D03*
X130175000Y-67945000D03*
X158750000Y-81915000D03*
X30008205Y-51435000D03*
X93726000Y-64135000D03*
X147144000Y-43180000D03*
X132920000Y-64135000D03*
X88392000Y-67183000D03*
X93599000Y-67310000D03*
X69850000Y-79375000D03*
X108712000Y-67310000D03*
X13970000Y-71120000D03*
X157988000Y-67818000D03*
X149987000Y-60960000D03*
X39370000Y-57150000D03*
X65024000Y-55880000D03*
X89535000Y-83820000D03*
X86995000Y-53975000D03*
X82314000Y-43688000D03*
X30988000Y-83820000D03*
X114427000Y-61595000D03*
X170385000Y-56515000D03*
X66294000Y-78232000D03*
X23063200Y-70866000D03*
X167005000Y-67310000D03*
X169750000Y-83820000D03*
X163400000Y-56515000D03*
X11684000Y-68072000D03*
X136730000Y-77724000D03*
X149860000Y-66675000D03*
X141605000Y-83820000D03*
G04 #@! TO.N,VDD*
X101600000Y-57150000D03*
X143510000Y-53340000D03*
X74930000Y-59690000D03*
X150570000Y-49660000D03*
X128720000Y-48650000D03*
X169164000Y-52324000D03*
X162814000Y-52578000D03*
G04 #@! TO.N,/ESP_EN*
X37846000Y-73316500D03*
X36195000Y-67945000D03*
X14478000Y-75946000D03*
X129540000Y-71120000D03*
G04 #@! TO.N,/IO0*
X35047356Y-60701356D03*
X118618000Y-62865000D03*
X29718000Y-60706000D03*
G04 #@! TO.N,/UVBUS*
X19253200Y-42099500D03*
X18745200Y-46228000D03*
X31496000Y-46228000D03*
G04 #@! TO.N,/UCD+*
X14681200Y-43180000D03*
X13411200Y-44449998D03*
G04 #@! TO.N,/I2S_SD*
X26670000Y-63246000D03*
X41910000Y-63246000D03*
G04 #@! TO.N,/I2S_SM*
X26111200Y-76289500D03*
X41656000Y-76200000D03*
G04 #@! TO.N,/I2S_SCK*
X32232600Y-75209400D03*
X42926000Y-75184000D03*
G04 #@! TO.N,Net-(Q109-G)*
X31750000Y-80518000D03*
X150876000Y-79756000D03*
G04 #@! TO.N,/RTS*
X31826243Y-54040637D03*
X29464000Y-58928000D03*
G04 #@! TO.N,Net-(Q112-G)*
X74041000Y-73025000D03*
X163322000Y-70104000D03*
G04 #@! TO.N,/PWM_R1*
X68453000Y-69596000D03*
X26180215Y-66707499D03*
G04 #@! TO.N,/PWM_G1*
X24638000Y-72136000D03*
X70866000Y-72898000D03*
G04 #@! TO.N,/PWM_B1*
X88459103Y-70612000D03*
X22098000Y-66598800D03*
G04 #@! TO.N,/PWM_R2*
X20447000Y-66548000D03*
X97282000Y-71628000D03*
G04 #@! TO.N,/PWM_G2*
X16764000Y-63754000D03*
X89789000Y-63500000D03*
G04 #@! TO.N,/PWM_B2*
X103886000Y-62992000D03*
X14706600Y-63770802D03*
G04 #@! TO.N,/PWM_R3*
X13081000Y-66294000D03*
X123190000Y-65405000D03*
G04 #@! TO.N,/PWM_G3*
X137922000Y-83566000D03*
X23571200Y-81280000D03*
G04 #@! TO.N,/PWM_R4*
X151384000Y-82550000D03*
X29972000Y-80518000D03*
G04 #@! TO.N,/PWM_G4*
X160655000Y-74041000D03*
X21031200Y-76200000D03*
G04 #@! TO.N,/PWM_B4*
X72390000Y-74930000D03*
X24384000Y-76200000D03*
G04 #@! TO.N,/VBUS*
X17780000Y-52895000D03*
X25146000Y-50292000D03*
G04 #@! TD*
G04 #@! TA.AperFunction,Conductor*
G04 #@! TO.N,GND*
G36*
X172154121Y-37485002D02*
G01*
X172200614Y-37538658D01*
X172212000Y-37591000D01*
X172212000Y-85599000D01*
X172191998Y-85667121D01*
X172138342Y-85713614D01*
X172086000Y-85725000D01*
X9778000Y-85725000D01*
X9709879Y-85704998D01*
X9663386Y-85651342D01*
X9652000Y-85599000D01*
X9652000Y-83566000D01*
X137008496Y-83566000D01*
X137028457Y-83755927D01*
X137058526Y-83848470D01*
X137087473Y-83937556D01*
X137087476Y-83937561D01*
X137182958Y-84102941D01*
X137182965Y-84102951D01*
X137310744Y-84244864D01*
X137310747Y-84244866D01*
X137465248Y-84357118D01*
X137639712Y-84434794D01*
X137826513Y-84474500D01*
X138017487Y-84474500D01*
X138204288Y-84434794D01*
X138378752Y-84357118D01*
X138533253Y-84244866D01*
X138661040Y-84102944D01*
X138756527Y-83937556D01*
X138815542Y-83755928D01*
X138835504Y-83566000D01*
X138815542Y-83376072D01*
X138756527Y-83194444D01*
X138661040Y-83029056D01*
X138661038Y-83029054D01*
X138661034Y-83029048D01*
X138533255Y-82887135D01*
X138378752Y-82774882D01*
X138204288Y-82697206D01*
X138017487Y-82657500D01*
X137826513Y-82657500D01*
X137639711Y-82697206D01*
X137465247Y-82774882D01*
X137310744Y-82887135D01*
X137182965Y-83029048D01*
X137182958Y-83029058D01*
X137087476Y-83194438D01*
X137087473Y-83194445D01*
X137028457Y-83376072D01*
X137008496Y-83566000D01*
X9652000Y-83566000D01*
X9652000Y-82550000D01*
X150470496Y-82550000D01*
X150490457Y-82739927D01*
X150501815Y-82774882D01*
X150549473Y-82921556D01*
X150549476Y-82921561D01*
X150644958Y-83086941D01*
X150644965Y-83086951D01*
X150772744Y-83228864D01*
X150772747Y-83228866D01*
X150927248Y-83341118D01*
X151101712Y-83418794D01*
X151288513Y-83458500D01*
X151479487Y-83458500D01*
X151666288Y-83418794D01*
X151840752Y-83341118D01*
X151995253Y-83228866D01*
X152123040Y-83086944D01*
X152218527Y-82921556D01*
X152277542Y-82739928D01*
X152297504Y-82550000D01*
X152277542Y-82360072D01*
X152218527Y-82178444D01*
X152123040Y-82013056D01*
X152123038Y-82013054D01*
X152123034Y-82013048D01*
X151995255Y-81871135D01*
X151840752Y-81758882D01*
X151666288Y-81681206D01*
X151479487Y-81641500D01*
X151288513Y-81641500D01*
X151101711Y-81681206D01*
X150927247Y-81758882D01*
X150772744Y-81871135D01*
X150644965Y-82013048D01*
X150644958Y-82013058D01*
X150549476Y-82178438D01*
X150549473Y-82178445D01*
X150490457Y-82360072D01*
X150470496Y-82550000D01*
X9652000Y-82550000D01*
X9652000Y-81534000D01*
X11532496Y-81534000D01*
X11552457Y-81723927D01*
X11563815Y-81758882D01*
X11611473Y-81905556D01*
X11611476Y-81905561D01*
X11706958Y-82070941D01*
X11706965Y-82070951D01*
X11834744Y-82212864D01*
X11834747Y-82212866D01*
X11989248Y-82325118D01*
X12163712Y-82402794D01*
X12350513Y-82442500D01*
X12541487Y-82442500D01*
X12728288Y-82402794D01*
X12902752Y-82325118D01*
X13057253Y-82212866D01*
X13114945Y-82148793D01*
X13185034Y-82070951D01*
X13185035Y-82070949D01*
X13185040Y-82070944D01*
X13280527Y-81905556D01*
X13339542Y-81723928D01*
X13359504Y-81534000D01*
X13339542Y-81344072D01*
X13318724Y-81280000D01*
X22657696Y-81280000D01*
X22677657Y-81469927D01*
X22698476Y-81534000D01*
X22736673Y-81651556D01*
X22765041Y-81700691D01*
X22832158Y-81816941D01*
X22832165Y-81816951D01*
X22959944Y-81958864D01*
X22959947Y-81958866D01*
X23114448Y-82071118D01*
X23288912Y-82148794D01*
X23475713Y-82188500D01*
X23666687Y-82188500D01*
X23853488Y-82148794D01*
X24027952Y-82071118D01*
X24182453Y-81958866D01*
X24230449Y-81905561D01*
X24310234Y-81816951D01*
X24310235Y-81816949D01*
X24310240Y-81816944D01*
X24405727Y-81651556D01*
X24464742Y-81469928D01*
X24484704Y-81280000D01*
X24464742Y-81090072D01*
X24405727Y-80908444D01*
X24310240Y-80743056D01*
X24310238Y-80743054D01*
X24310234Y-80743048D01*
X24182455Y-80601135D01*
X24068029Y-80518000D01*
X29058496Y-80518000D01*
X29078457Y-80707927D01*
X29099276Y-80772000D01*
X29137473Y-80889556D01*
X29137476Y-80889561D01*
X29232958Y-81054941D01*
X29232965Y-81054951D01*
X29360744Y-81196864D01*
X29360747Y-81196866D01*
X29515248Y-81309118D01*
X29689712Y-81386794D01*
X29876513Y-81426500D01*
X30067487Y-81426500D01*
X30254288Y-81386794D01*
X30428752Y-81309118D01*
X30583253Y-81196866D01*
X30631249Y-81143561D01*
X30711034Y-81054951D01*
X30711035Y-81054949D01*
X30711040Y-81054944D01*
X30751881Y-80984204D01*
X30803263Y-80935212D01*
X30872977Y-80921776D01*
X30938888Y-80948162D01*
X30970118Y-80984204D01*
X30981578Y-81004053D01*
X31010958Y-81054941D01*
X31010965Y-81054951D01*
X31138744Y-81196864D01*
X31138747Y-81196866D01*
X31293248Y-81309118D01*
X31467712Y-81386794D01*
X31654513Y-81426500D01*
X31845487Y-81426500D01*
X32032288Y-81386794D01*
X32206752Y-81309118D01*
X32361253Y-81196866D01*
X32409249Y-81143561D01*
X32489034Y-81054951D01*
X32489035Y-81054949D01*
X32489040Y-81054944D01*
X32584527Y-80889556D01*
X32622724Y-80772000D01*
X45314496Y-80772000D01*
X45334457Y-80961927D01*
X45348146Y-81004055D01*
X45393473Y-81143556D01*
X45393476Y-81143561D01*
X45488958Y-81308941D01*
X45488965Y-81308951D01*
X45616744Y-81450864D01*
X45616747Y-81450866D01*
X45771248Y-81563118D01*
X45945712Y-81640794D01*
X46132513Y-81680500D01*
X46323487Y-81680500D01*
X46510288Y-81640794D01*
X46684752Y-81563118D01*
X46839253Y-81450866D01*
X46935411Y-81344072D01*
X46967034Y-81308951D01*
X46967035Y-81308949D01*
X46967040Y-81308944D01*
X47062527Y-81143556D01*
X47121542Y-80961928D01*
X47141504Y-80772000D01*
X49632496Y-80772000D01*
X49652457Y-80961927D01*
X49666146Y-81004055D01*
X49711473Y-81143556D01*
X49711476Y-81143561D01*
X49806958Y-81308941D01*
X49806965Y-81308951D01*
X49934744Y-81450864D01*
X49934747Y-81450866D01*
X50089248Y-81563118D01*
X50263712Y-81640794D01*
X50450513Y-81680500D01*
X50641487Y-81680500D01*
X50828288Y-81640794D01*
X51002752Y-81563118D01*
X51157253Y-81450866D01*
X51253411Y-81344072D01*
X51285034Y-81308951D01*
X51285035Y-81308949D01*
X51285040Y-81308944D01*
X51380527Y-81143556D01*
X51439542Y-80961928D01*
X51459504Y-80772000D01*
X51439542Y-80582072D01*
X51380527Y-80400444D01*
X51285040Y-80235056D01*
X51285038Y-80235054D01*
X51285034Y-80235048D01*
X51157255Y-80093135D01*
X51002752Y-79980882D01*
X50828288Y-79903206D01*
X50641487Y-79863500D01*
X50450513Y-79863500D01*
X50263711Y-79903206D01*
X50089247Y-79980882D01*
X49934744Y-80093135D01*
X49806965Y-80235048D01*
X49806958Y-80235058D01*
X49711476Y-80400438D01*
X49711473Y-80400445D01*
X49652457Y-80582072D01*
X49632496Y-80772000D01*
X47141504Y-80772000D01*
X47121542Y-80582072D01*
X47062527Y-80400444D01*
X46967040Y-80235056D01*
X46967038Y-80235054D01*
X46967034Y-80235048D01*
X46839255Y-80093135D01*
X46684752Y-79980882D01*
X46510288Y-79903206D01*
X46323487Y-79863500D01*
X46132513Y-79863500D01*
X45945711Y-79903206D01*
X45771247Y-79980882D01*
X45616744Y-80093135D01*
X45488965Y-80235048D01*
X45488958Y-80235058D01*
X45393476Y-80400438D01*
X45393473Y-80400445D01*
X45334457Y-80582072D01*
X45314496Y-80772000D01*
X32622724Y-80772000D01*
X32643542Y-80707928D01*
X32663504Y-80518000D01*
X32643542Y-80328072D01*
X32584527Y-80146444D01*
X32489040Y-79981056D01*
X32489038Y-79981054D01*
X32489034Y-79981048D01*
X32361255Y-79839135D01*
X32206752Y-79726882D01*
X32032288Y-79649206D01*
X31845487Y-79609500D01*
X31654513Y-79609500D01*
X31467711Y-79649206D01*
X31293247Y-79726882D01*
X31138744Y-79839135D01*
X31010965Y-79981048D01*
X31010961Y-79981055D01*
X30970119Y-80051795D01*
X30918736Y-80100788D01*
X30849022Y-80114223D01*
X30783111Y-80087836D01*
X30751881Y-80051795D01*
X30711040Y-79981056D01*
X30711036Y-79981051D01*
X30711034Y-79981048D01*
X30583255Y-79839135D01*
X30428752Y-79726882D01*
X30254288Y-79649206D01*
X30067487Y-79609500D01*
X29876513Y-79609500D01*
X29689711Y-79649206D01*
X29515247Y-79726882D01*
X29360744Y-79839135D01*
X29232965Y-79981048D01*
X29232958Y-79981058D01*
X29137476Y-80146438D01*
X29137473Y-80146445D01*
X29078457Y-80328072D01*
X29058496Y-80518000D01*
X24068029Y-80518000D01*
X24027952Y-80488882D01*
X23853488Y-80411206D01*
X23666687Y-80371500D01*
X23475713Y-80371500D01*
X23288911Y-80411206D01*
X23114447Y-80488882D01*
X22959944Y-80601135D01*
X22832165Y-80743048D01*
X22832158Y-80743058D01*
X22747579Y-80889554D01*
X22736673Y-80908444D01*
X22723768Y-80948162D01*
X22677657Y-81090072D01*
X22657696Y-81280000D01*
X13318724Y-81280000D01*
X13280527Y-81162444D01*
X13185040Y-80997056D01*
X13185038Y-80997054D01*
X13185034Y-80997048D01*
X13057255Y-80855135D01*
X12902752Y-80742882D01*
X12728288Y-80665206D01*
X12541487Y-80625500D01*
X12350513Y-80625500D01*
X12163711Y-80665206D01*
X11989247Y-80742882D01*
X11834744Y-80855135D01*
X11706965Y-80997048D01*
X11706958Y-80997058D01*
X11611476Y-81162438D01*
X11611473Y-81162445D01*
X11552457Y-81344072D01*
X11532496Y-81534000D01*
X9652000Y-81534000D01*
X9652000Y-79126709D01*
X93399500Y-79126709D01*
X93399500Y-79369290D01*
X93431160Y-79609782D01*
X93493944Y-79844095D01*
X93493945Y-79844097D01*
X93493946Y-79844100D01*
X93586776Y-80068212D01*
X93586777Y-80068213D01*
X93586782Y-80068224D01*
X93708061Y-80278285D01*
X93708063Y-80278288D01*
X93708064Y-80278289D01*
X93855735Y-80470738D01*
X93855739Y-80470742D01*
X93855744Y-80470748D01*
X94027251Y-80642255D01*
X94027256Y-80642259D01*
X94027262Y-80642265D01*
X94219711Y-80789936D01*
X94219714Y-80789938D01*
X94429775Y-80911217D01*
X94429779Y-80911218D01*
X94429788Y-80911224D01*
X94653900Y-81004054D01*
X94888211Y-81066838D01*
X94888215Y-81066838D01*
X94888217Y-81066839D01*
X94950202Y-81074999D01*
X95128712Y-81098500D01*
X95128719Y-81098500D01*
X95371281Y-81098500D01*
X95371288Y-81098500D01*
X95588637Y-81069885D01*
X95611782Y-81066839D01*
X95611782Y-81066838D01*
X95611789Y-81066838D01*
X95846100Y-81004054D01*
X96070212Y-80911224D01*
X96280289Y-80789936D01*
X96472738Y-80642265D01*
X96644265Y-80470738D01*
X96791936Y-80278289D01*
X96913224Y-80068212D01*
X97006054Y-79844100D01*
X97029661Y-79756000D01*
X149962496Y-79756000D01*
X149982457Y-79945927D01*
X150012526Y-80038470D01*
X150041473Y-80127556D01*
X150041476Y-80127561D01*
X150136958Y-80292941D01*
X150136965Y-80292951D01*
X150264744Y-80434864D01*
X150264747Y-80434866D01*
X150419248Y-80547118D01*
X150593712Y-80624794D01*
X150780513Y-80664500D01*
X150971487Y-80664500D01*
X151158288Y-80624794D01*
X151332752Y-80547118D01*
X151487253Y-80434866D01*
X151583411Y-80328072D01*
X151615034Y-80292951D01*
X151615035Y-80292949D01*
X151615040Y-80292944D01*
X151710527Y-80127556D01*
X151769542Y-79945928D01*
X151789504Y-79756000D01*
X151769542Y-79566072D01*
X151710527Y-79384444D01*
X151615040Y-79219056D01*
X151615038Y-79219054D01*
X151615034Y-79219048D01*
X151487255Y-79077135D01*
X151332752Y-78964882D01*
X151158288Y-78887206D01*
X150971487Y-78847500D01*
X150780513Y-78847500D01*
X150593711Y-78887206D01*
X150419247Y-78964882D01*
X150264744Y-79077135D01*
X150136965Y-79219048D01*
X150136958Y-79219058D01*
X150041476Y-79384438D01*
X150041473Y-79384445D01*
X149982457Y-79566072D01*
X149962496Y-79756000D01*
X97029661Y-79756000D01*
X97068838Y-79609789D01*
X97100500Y-79369288D01*
X97100500Y-79126712D01*
X97068838Y-78886211D01*
X97006054Y-78651900D01*
X96913224Y-78427788D01*
X96913218Y-78427779D01*
X96913217Y-78427775D01*
X96791938Y-78217714D01*
X96791936Y-78217711D01*
X96644265Y-78025262D01*
X96644259Y-78025256D01*
X96644255Y-78025251D01*
X96472748Y-77853744D01*
X96472742Y-77853739D01*
X96472738Y-77853735D01*
X96280289Y-77706064D01*
X96280288Y-77706063D01*
X96280285Y-77706061D01*
X96070224Y-77584782D01*
X96070216Y-77584778D01*
X96070212Y-77584776D01*
X95846100Y-77491946D01*
X95846097Y-77491945D01*
X95846095Y-77491944D01*
X95611782Y-77429160D01*
X95371290Y-77397500D01*
X95371288Y-77397500D01*
X95128712Y-77397500D01*
X95128709Y-77397500D01*
X94888217Y-77429160D01*
X94653904Y-77491944D01*
X94653900Y-77491946D01*
X94429786Y-77584777D01*
X94429775Y-77584782D01*
X94219714Y-77706061D01*
X94027262Y-77853735D01*
X94027251Y-77853744D01*
X93855744Y-78025251D01*
X93855735Y-78025262D01*
X93708061Y-78217714D01*
X93586782Y-78427775D01*
X93586777Y-78427786D01*
X93586776Y-78427788D01*
X93557601Y-78498222D01*
X93493946Y-78651900D01*
X93493944Y-78651904D01*
X93431160Y-78886217D01*
X93399500Y-79126709D01*
X9652000Y-79126709D01*
X9652000Y-77724000D01*
X32868496Y-77724000D01*
X32888457Y-77913927D01*
X32918526Y-78006470D01*
X32947473Y-78095556D01*
X32947476Y-78095561D01*
X33042958Y-78260941D01*
X33042965Y-78260951D01*
X33170744Y-78402864D01*
X33170747Y-78402866D01*
X33325248Y-78515118D01*
X33499712Y-78592794D01*
X33686513Y-78632500D01*
X33877487Y-78632500D01*
X34064288Y-78592794D01*
X34238752Y-78515118D01*
X34393253Y-78402866D01*
X34416599Y-78376938D01*
X34521034Y-78260951D01*
X34521035Y-78260949D01*
X34521040Y-78260944D01*
X34616527Y-78095556D01*
X34675542Y-77913928D01*
X34695504Y-77724000D01*
X34675542Y-77534072D01*
X34616527Y-77352444D01*
X34521040Y-77187056D01*
X34521038Y-77187054D01*
X34521034Y-77187048D01*
X34393255Y-77045135D01*
X34238752Y-76932882D01*
X34064288Y-76855206D01*
X33877487Y-76815500D01*
X33686513Y-76815500D01*
X33499711Y-76855206D01*
X33325247Y-76932882D01*
X33170744Y-77045135D01*
X33042965Y-77187048D01*
X33042958Y-77187058D01*
X32947476Y-77352438D01*
X32947473Y-77352445D01*
X32888457Y-77534072D01*
X32868496Y-77724000D01*
X9652000Y-77724000D01*
X9652000Y-75946000D01*
X13564496Y-75946000D01*
X13584457Y-76135927D01*
X13605276Y-76199998D01*
X13643473Y-76317556D01*
X13643476Y-76317561D01*
X13738958Y-76482941D01*
X13738965Y-76482951D01*
X13866744Y-76624864D01*
X13866747Y-76624866D01*
X14021248Y-76737118D01*
X14195712Y-76814794D01*
X14382513Y-76854500D01*
X14573487Y-76854500D01*
X14760288Y-76814794D01*
X14934752Y-76737118D01*
X15089253Y-76624866D01*
X15137249Y-76571561D01*
X15217034Y-76482951D01*
X15217035Y-76482949D01*
X15217040Y-76482944D01*
X15312527Y-76317556D01*
X15350724Y-76200000D01*
X20117696Y-76200000D01*
X20137657Y-76389927D01*
X20164720Y-76473217D01*
X20196673Y-76571556D01*
X20196676Y-76571561D01*
X20292158Y-76736941D01*
X20292165Y-76736951D01*
X20419944Y-76878864D01*
X20419947Y-76878866D01*
X20574448Y-76991118D01*
X20748912Y-77068794D01*
X20935713Y-77108500D01*
X21126687Y-77108500D01*
X21313488Y-77068794D01*
X21487952Y-76991118D01*
X21642453Y-76878866D01*
X21755315Y-76753520D01*
X21770234Y-76736951D01*
X21770235Y-76736949D01*
X21770240Y-76736944D01*
X21865727Y-76571556D01*
X21924742Y-76389928D01*
X21944704Y-76200000D01*
X23470496Y-76200000D01*
X23490457Y-76389927D01*
X23517520Y-76473217D01*
X23549473Y-76571556D01*
X23549476Y-76571561D01*
X23644958Y-76736941D01*
X23644965Y-76736951D01*
X23772744Y-76878864D01*
X23772747Y-76878866D01*
X23927248Y-76991118D01*
X24101712Y-77068794D01*
X24288513Y-77108500D01*
X24479487Y-77108500D01*
X24666288Y-77068794D01*
X24840752Y-76991118D01*
X24995253Y-76878866D01*
X25123040Y-76736944D01*
X25123042Y-76736939D01*
X25127301Y-76732210D01*
X25187747Y-76694970D01*
X25258731Y-76696321D01*
X25317716Y-76735835D01*
X25330057Y-76753520D01*
X25372158Y-76826441D01*
X25372165Y-76826451D01*
X25499944Y-76968364D01*
X25499947Y-76968366D01*
X25654448Y-77080618D01*
X25828912Y-77158294D01*
X26015713Y-77198000D01*
X26206687Y-77198000D01*
X26393488Y-77158294D01*
X26567952Y-77080618D01*
X26722453Y-76968366D01*
X26733328Y-76956288D01*
X26850234Y-76826451D01*
X26850235Y-76826449D01*
X26850240Y-76826444D01*
X26945727Y-76661056D01*
X27004742Y-76479428D01*
X27024704Y-76289500D01*
X27015297Y-76200000D01*
X40742496Y-76200000D01*
X40762457Y-76389927D01*
X40789520Y-76473217D01*
X40821473Y-76571556D01*
X40821476Y-76571561D01*
X40916958Y-76736941D01*
X40916965Y-76736951D01*
X41044744Y-76878864D01*
X41044747Y-76878866D01*
X41199248Y-76991118D01*
X41373712Y-77068794D01*
X41560513Y-77108500D01*
X41751487Y-77108500D01*
X41938288Y-77068794D01*
X42112752Y-76991118D01*
X42267253Y-76878866D01*
X42380115Y-76753520D01*
X42395034Y-76736951D01*
X42395035Y-76736949D01*
X42395040Y-76736944D01*
X42408455Y-76713709D01*
X153089500Y-76713709D01*
X153089500Y-76956290D01*
X153121160Y-77196782D01*
X153183944Y-77431095D01*
X153183945Y-77431097D01*
X153183946Y-77431100D01*
X153276776Y-77655212D01*
X153276777Y-77655213D01*
X153276782Y-77655224D01*
X153398061Y-77865285D01*
X153398063Y-77865288D01*
X153398064Y-77865289D01*
X153545735Y-78057738D01*
X153545739Y-78057742D01*
X153545744Y-78057748D01*
X153717251Y-78229255D01*
X153717256Y-78229259D01*
X153717262Y-78229265D01*
X153909711Y-78376936D01*
X153909714Y-78376938D01*
X154119775Y-78498217D01*
X154119779Y-78498218D01*
X154119788Y-78498224D01*
X154343900Y-78591054D01*
X154578211Y-78653838D01*
X154578215Y-78653838D01*
X154578217Y-78653839D01*
X154640202Y-78661999D01*
X154818712Y-78685500D01*
X154818719Y-78685500D01*
X155061281Y-78685500D01*
X155061288Y-78685500D01*
X155278637Y-78656885D01*
X155301782Y-78653839D01*
X155301782Y-78653838D01*
X155301789Y-78653838D01*
X155536100Y-78591054D01*
X155760212Y-78498224D01*
X155970289Y-78376936D01*
X156162738Y-78229265D01*
X156334265Y-78057738D01*
X156481936Y-77865289D01*
X156603224Y-77655212D01*
X156696054Y-77431100D01*
X156758838Y-77196789D01*
X156790500Y-76956288D01*
X156790500Y-76713712D01*
X156760120Y-76482951D01*
X156758839Y-76473217D01*
X156758838Y-76473215D01*
X156758838Y-76473211D01*
X156696054Y-76238900D01*
X156603224Y-76014788D01*
X156603218Y-76014779D01*
X156603217Y-76014775D01*
X156481938Y-75804714D01*
X156481936Y-75804711D01*
X156334265Y-75612262D01*
X156334259Y-75612256D01*
X156334255Y-75612251D01*
X156162748Y-75440744D01*
X156162742Y-75440739D01*
X156162738Y-75440735D01*
X155970289Y-75293064D01*
X155970288Y-75293063D01*
X155970285Y-75293061D01*
X155760224Y-75171782D01*
X155760216Y-75171778D01*
X155760212Y-75171776D01*
X155536100Y-75078946D01*
X155536097Y-75078945D01*
X155536095Y-75078944D01*
X155301782Y-75016160D01*
X155061290Y-74984500D01*
X155061288Y-74984500D01*
X154818712Y-74984500D01*
X154818709Y-74984500D01*
X154578217Y-75016160D01*
X154343904Y-75078944D01*
X154343900Y-75078946D01*
X154244961Y-75119928D01*
X154119786Y-75171777D01*
X154119775Y-75171782D01*
X153909714Y-75293061D01*
X153717262Y-75440735D01*
X153717251Y-75440744D01*
X153545744Y-75612251D01*
X153545735Y-75612262D01*
X153398061Y-75804714D01*
X153276782Y-76014775D01*
X153276777Y-76014786D01*
X153276776Y-76014788D01*
X153234066Y-76117900D01*
X153183946Y-76238900D01*
X153183944Y-76238904D01*
X153121160Y-76473217D01*
X153089500Y-76713709D01*
X42408455Y-76713709D01*
X42490527Y-76571556D01*
X42549542Y-76389928D01*
X42569504Y-76200000D01*
X42569504Y-76199998D01*
X42569504Y-76193396D01*
X42572383Y-76193396D01*
X42582858Y-76135979D01*
X42631339Y-76084112D01*
X42700164Y-76066689D01*
X42721617Y-76069354D01*
X42830508Y-76092500D01*
X42830513Y-76092500D01*
X43021487Y-76092500D01*
X43208288Y-76052794D01*
X43382752Y-75975118D01*
X43537253Y-75862866D01*
X43636575Y-75752558D01*
X43665034Y-75720951D01*
X43665035Y-75720949D01*
X43665040Y-75720944D01*
X43760527Y-75555556D01*
X43819542Y-75373928D01*
X43839504Y-75184000D01*
X43819542Y-74994072D01*
X43798724Y-74930000D01*
X71476496Y-74930000D01*
X71496457Y-75119927D01*
X71517276Y-75184000D01*
X71555473Y-75301556D01*
X71583841Y-75350691D01*
X71650958Y-75466941D01*
X71650965Y-75466951D01*
X71778744Y-75608864D01*
X71778747Y-75608866D01*
X71933248Y-75721118D01*
X72107712Y-75798794D01*
X72294513Y-75838500D01*
X72485487Y-75838500D01*
X72672288Y-75798794D01*
X72846752Y-75721118D01*
X73001253Y-75608866D01*
X73049249Y-75555561D01*
X73129034Y-75466951D01*
X73129035Y-75466949D01*
X73129040Y-75466944D01*
X73224527Y-75301556D01*
X73283542Y-75119928D01*
X73303504Y-74930000D01*
X73283542Y-74740072D01*
X73224527Y-74558444D01*
X73129040Y-74393056D01*
X73129038Y-74393054D01*
X73129034Y-74393048D01*
X73001255Y-74251135D01*
X72846752Y-74138882D01*
X72672288Y-74061206D01*
X72577227Y-74041000D01*
X159741496Y-74041000D01*
X159761457Y-74230927D01*
X159775940Y-74275500D01*
X159820473Y-74412556D01*
X159820476Y-74412561D01*
X159915958Y-74577941D01*
X159915965Y-74577951D01*
X160043744Y-74719864D01*
X160043747Y-74719866D01*
X160198248Y-74832118D01*
X160372712Y-74909794D01*
X160559513Y-74949500D01*
X160750487Y-74949500D01*
X160937288Y-74909794D01*
X161111752Y-74832118D01*
X161266253Y-74719866D01*
X161266255Y-74719864D01*
X161394034Y-74577951D01*
X161394035Y-74577949D01*
X161394040Y-74577944D01*
X161489527Y-74412556D01*
X161548542Y-74230928D01*
X161568504Y-74041000D01*
X161548542Y-73851072D01*
X161489527Y-73669444D01*
X161394040Y-73504056D01*
X161394038Y-73504054D01*
X161394034Y-73504048D01*
X161266255Y-73362135D01*
X161111752Y-73249882D01*
X160937288Y-73172206D01*
X160750487Y-73132500D01*
X160559513Y-73132500D01*
X160372711Y-73172206D01*
X160198247Y-73249882D01*
X160043744Y-73362135D01*
X159915965Y-73504048D01*
X159915958Y-73504058D01*
X159820476Y-73669438D01*
X159820473Y-73669444D01*
X159809289Y-73703864D01*
X159761457Y-73851072D01*
X159741496Y-74041000D01*
X72577227Y-74041000D01*
X72485487Y-74021500D01*
X72294513Y-74021500D01*
X72107711Y-74061206D01*
X71933247Y-74138882D01*
X71778744Y-74251135D01*
X71650965Y-74393048D01*
X71650958Y-74393058D01*
X71555476Y-74558438D01*
X71555473Y-74558445D01*
X71496457Y-74740072D01*
X71476496Y-74930000D01*
X43798724Y-74930000D01*
X43760527Y-74812444D01*
X43665040Y-74647056D01*
X43665038Y-74647054D01*
X43665034Y-74647048D01*
X43537255Y-74505135D01*
X43382752Y-74392882D01*
X43208288Y-74315206D01*
X43021487Y-74275500D01*
X42830513Y-74275500D01*
X42643711Y-74315206D01*
X42469247Y-74392882D01*
X42314744Y-74505135D01*
X42186965Y-74647048D01*
X42186958Y-74647058D01*
X42091476Y-74812438D01*
X42091473Y-74812444D01*
X42083222Y-74837838D01*
X42032457Y-74994072D01*
X42012496Y-75184001D01*
X42012496Y-75190603D01*
X42009645Y-75190603D01*
X41999070Y-75248159D01*
X41950526Y-75299966D01*
X41881678Y-75317304D01*
X41860382Y-75314646D01*
X41751488Y-75291500D01*
X41751487Y-75291500D01*
X41560513Y-75291500D01*
X41373711Y-75331206D01*
X41199247Y-75408882D01*
X41044744Y-75521135D01*
X40916965Y-75663048D01*
X40916958Y-75663058D01*
X40821476Y-75828438D01*
X40821473Y-75828445D01*
X40762457Y-76010072D01*
X40742496Y-76200000D01*
X27015297Y-76200000D01*
X27004742Y-76099572D01*
X26945727Y-75917944D01*
X26850240Y-75752556D01*
X26850238Y-75752554D01*
X26850234Y-75752548D01*
X26722455Y-75610635D01*
X26567952Y-75498382D01*
X26393488Y-75420706D01*
X26206687Y-75381000D01*
X26015713Y-75381000D01*
X25828911Y-75420706D01*
X25654447Y-75498382D01*
X25499944Y-75610635D01*
X25367897Y-75757289D01*
X25307451Y-75794529D01*
X25236467Y-75793177D01*
X25177483Y-75753664D01*
X25165142Y-75735979D01*
X25156561Y-75721117D01*
X25123040Y-75663056D01*
X25123038Y-75663054D01*
X25123034Y-75663048D01*
X24995255Y-75521135D01*
X24840752Y-75408882D01*
X24666288Y-75331206D01*
X24479487Y-75291500D01*
X24288513Y-75291500D01*
X24101711Y-75331206D01*
X23927247Y-75408882D01*
X23772744Y-75521135D01*
X23644965Y-75663048D01*
X23644958Y-75663058D01*
X23549476Y-75828438D01*
X23549473Y-75828445D01*
X23490457Y-76010072D01*
X23470496Y-76200000D01*
X21944704Y-76200000D01*
X21924742Y-76010072D01*
X21865727Y-75828444D01*
X21770240Y-75663056D01*
X21770238Y-75663054D01*
X21770234Y-75663048D01*
X21642455Y-75521135D01*
X21487952Y-75408882D01*
X21313488Y-75331206D01*
X21126687Y-75291500D01*
X20935713Y-75291500D01*
X20748911Y-75331206D01*
X20574447Y-75408882D01*
X20419944Y-75521135D01*
X20292165Y-75663048D01*
X20292158Y-75663058D01*
X20196676Y-75828438D01*
X20196673Y-75828445D01*
X20137657Y-76010072D01*
X20117696Y-76200000D01*
X15350724Y-76200000D01*
X15371542Y-76135928D01*
X15391504Y-75946000D01*
X15371542Y-75756072D01*
X15312527Y-75574444D01*
X15217040Y-75409056D01*
X15217038Y-75409054D01*
X15217034Y-75409048D01*
X15089255Y-75267135D01*
X15009790Y-75209400D01*
X31319096Y-75209400D01*
X31339057Y-75399327D01*
X31342219Y-75409058D01*
X31398073Y-75580956D01*
X31398076Y-75580961D01*
X31493558Y-75746341D01*
X31493565Y-75746351D01*
X31621344Y-75888264D01*
X31621347Y-75888266D01*
X31775848Y-76000518D01*
X31950312Y-76078194D01*
X32137113Y-76117900D01*
X32328087Y-76117900D01*
X32514888Y-76078194D01*
X32689352Y-76000518D01*
X32843853Y-75888266D01*
X32866725Y-75862864D01*
X32971634Y-75746351D01*
X32971635Y-75746349D01*
X32971640Y-75746344D01*
X33067127Y-75580956D01*
X33126142Y-75399328D01*
X33146104Y-75209400D01*
X33126142Y-75019472D01*
X33067127Y-74837844D01*
X32971640Y-74672456D01*
X32971638Y-74672454D01*
X32971634Y-74672448D01*
X32843855Y-74530535D01*
X32689352Y-74418282D01*
X32514888Y-74340606D01*
X32328087Y-74300900D01*
X32137113Y-74300900D01*
X31950311Y-74340606D01*
X31775847Y-74418282D01*
X31621344Y-74530535D01*
X31493565Y-74672448D01*
X31493558Y-74672458D01*
X31398076Y-74837838D01*
X31398073Y-74837845D01*
X31339057Y-75019472D01*
X31319096Y-75209400D01*
X15009790Y-75209400D01*
X14934752Y-75154882D01*
X14760288Y-75077206D01*
X14573487Y-75037500D01*
X14382513Y-75037500D01*
X14195711Y-75077206D01*
X14021247Y-75154882D01*
X13866744Y-75267135D01*
X13738965Y-75409048D01*
X13738958Y-75409058D01*
X13654379Y-75555554D01*
X13643473Y-75574444D01*
X13632289Y-75608864D01*
X13584457Y-75756072D01*
X13564496Y-75946000D01*
X9652000Y-75946000D01*
X9652000Y-73474646D01*
X18005762Y-73474646D01*
X18018399Y-73482587D01*
X18018408Y-73482591D01*
X18190259Y-73542725D01*
X18190270Y-73542727D01*
X18371200Y-73563112D01*
X18552129Y-73542727D01*
X18552137Y-73542726D01*
X18723991Y-73482590D01*
X18724001Y-73482585D01*
X18736634Y-73474646D01*
X19405762Y-73474646D01*
X19418399Y-73482587D01*
X19418408Y-73482591D01*
X19590259Y-73542725D01*
X19590270Y-73542727D01*
X19771200Y-73563112D01*
X19952129Y-73542727D01*
X19952137Y-73542726D01*
X20123991Y-73482590D01*
X20124001Y-73482585D01*
X20136636Y-73474645D01*
X19978491Y-73316500D01*
X36932496Y-73316500D01*
X36952457Y-73506427D01*
X36970876Y-73563112D01*
X37011473Y-73688056D01*
X37011476Y-73688061D01*
X37106958Y-73853441D01*
X37106965Y-73853451D01*
X37234744Y-73995364D01*
X37234747Y-73995366D01*
X37389248Y-74107618D01*
X37563712Y-74185294D01*
X37750513Y-74225000D01*
X37941487Y-74225000D01*
X38128288Y-74185294D01*
X38302752Y-74107618D01*
X38457253Y-73995366D01*
X38457255Y-73995364D01*
X38585034Y-73853451D01*
X38585035Y-73853449D01*
X38585040Y-73853444D01*
X38680527Y-73688056D01*
X38739542Y-73506428D01*
X38759504Y-73316500D01*
X38739542Y-73126572D01*
X38680527Y-72944944D01*
X38653424Y-72898000D01*
X69952496Y-72898000D01*
X69972457Y-73087927D01*
X69985014Y-73126572D01*
X70031473Y-73269556D01*
X70031476Y-73269561D01*
X70126958Y-73434941D01*
X70126965Y-73434951D01*
X70254744Y-73576864D01*
X70254747Y-73576866D01*
X70409248Y-73689118D01*
X70583712Y-73766794D01*
X70770513Y-73806500D01*
X70961487Y-73806500D01*
X71148288Y-73766794D01*
X71322752Y-73689118D01*
X71477253Y-73576866D01*
X71540676Y-73506428D01*
X71605034Y-73434951D01*
X71605035Y-73434949D01*
X71605040Y-73434944D01*
X71700527Y-73269556D01*
X71759542Y-73087928D01*
X71766156Y-73025000D01*
X73127496Y-73025000D01*
X73147457Y-73214927D01*
X73158815Y-73249882D01*
X73206473Y-73396556D01*
X73206476Y-73396561D01*
X73301958Y-73561941D01*
X73301965Y-73561951D01*
X73429744Y-73703864D01*
X73429747Y-73703866D01*
X73584248Y-73816118D01*
X73758712Y-73893794D01*
X73945513Y-73933500D01*
X74136487Y-73933500D01*
X74323288Y-73893794D01*
X74497752Y-73816118D01*
X74652253Y-73703866D01*
X74666484Y-73688061D01*
X74780034Y-73561951D01*
X74780035Y-73561949D01*
X74780040Y-73561944D01*
X74875527Y-73396556D01*
X74934542Y-73214928D01*
X74954504Y-73025000D01*
X74934542Y-72835072D01*
X74875527Y-72653444D01*
X74780040Y-72488056D01*
X74780038Y-72488054D01*
X74780034Y-72488048D01*
X74652255Y-72346135D01*
X74497752Y-72233882D01*
X74323288Y-72156206D01*
X74136487Y-72116500D01*
X73945513Y-72116500D01*
X73758711Y-72156206D01*
X73584247Y-72233882D01*
X73429744Y-72346135D01*
X73301965Y-72488048D01*
X73301958Y-72488058D01*
X73215600Y-72637635D01*
X73206473Y-72653444D01*
X73193505Y-72693355D01*
X73147457Y-72835072D01*
X73127496Y-73025000D01*
X71766156Y-73025000D01*
X71779504Y-72898000D01*
X71759542Y-72708072D01*
X71700527Y-72526444D01*
X71605040Y-72361056D01*
X71605038Y-72361054D01*
X71605034Y-72361048D01*
X71477255Y-72219135D01*
X71322752Y-72106882D01*
X71148288Y-72029206D01*
X70961487Y-71989500D01*
X70770513Y-71989500D01*
X70583711Y-72029206D01*
X70409247Y-72106882D01*
X70254744Y-72219135D01*
X70126965Y-72361048D01*
X70126958Y-72361058D01*
X70031476Y-72526438D01*
X70031473Y-72526445D01*
X69972457Y-72708072D01*
X69952496Y-72898000D01*
X38653424Y-72898000D01*
X38585040Y-72779556D01*
X38585038Y-72779554D01*
X38585034Y-72779548D01*
X38457255Y-72637635D01*
X38302752Y-72525382D01*
X38128288Y-72447706D01*
X37941487Y-72408000D01*
X37750513Y-72408000D01*
X37563711Y-72447706D01*
X37389247Y-72525382D01*
X37234744Y-72637635D01*
X37106965Y-72779548D01*
X37106958Y-72779558D01*
X37011476Y-72944938D01*
X37011473Y-72944945D01*
X36952457Y-73126572D01*
X36932496Y-73316500D01*
X19978491Y-73316500D01*
X19771201Y-73109210D01*
X19771200Y-73109210D01*
X19405762Y-73474646D01*
X18736634Y-73474646D01*
X18736636Y-73474645D01*
X18371201Y-73109210D01*
X18371200Y-73109210D01*
X18005762Y-73474646D01*
X9652000Y-73474646D01*
X9652000Y-72774646D01*
X17305762Y-72774646D01*
X17318399Y-72782587D01*
X17318408Y-72782591D01*
X17496943Y-72845064D01*
X17496013Y-72847720D01*
X17546857Y-72876161D01*
X17573616Y-72925137D01*
X17576136Y-72924256D01*
X17638611Y-73102799D01*
X17646552Y-73115435D01*
X17646553Y-73115436D01*
X18011990Y-72749999D01*
X17992100Y-72730109D01*
X18271200Y-72730109D01*
X18271200Y-72769891D01*
X18286424Y-72806645D01*
X18314555Y-72834776D01*
X18351309Y-72850000D01*
X18391091Y-72850000D01*
X18427845Y-72834776D01*
X18455976Y-72806645D01*
X18471200Y-72769891D01*
X18471200Y-72749999D01*
X18730410Y-72749999D01*
X18730410Y-72750001D01*
X19071199Y-73090790D01*
X19071201Y-73090790D01*
X19411990Y-72750001D01*
X19411990Y-72749999D01*
X19392100Y-72730109D01*
X19671200Y-72730109D01*
X19671200Y-72769891D01*
X19686424Y-72806645D01*
X19714555Y-72834776D01*
X19751309Y-72850000D01*
X19791091Y-72850000D01*
X19827845Y-72834776D01*
X19855976Y-72806645D01*
X19871200Y-72769891D01*
X19871200Y-72749999D01*
X20130410Y-72749999D01*
X20130410Y-72750001D01*
X20495845Y-73115436D01*
X20503785Y-73102801D01*
X20503790Y-73102791D01*
X20566264Y-72924256D01*
X20568923Y-72925186D01*
X20597348Y-72874354D01*
X20646343Y-72847600D01*
X20645456Y-72845064D01*
X20823991Y-72782590D01*
X20824001Y-72782585D01*
X20836636Y-72774645D01*
X20471201Y-72409210D01*
X20471199Y-72409210D01*
X20130410Y-72749999D01*
X19871200Y-72749999D01*
X19871200Y-72730109D01*
X19855976Y-72693355D01*
X19827845Y-72665224D01*
X19791091Y-72650000D01*
X19751309Y-72650000D01*
X19714555Y-72665224D01*
X19686424Y-72693355D01*
X19671200Y-72730109D01*
X19392100Y-72730109D01*
X19071201Y-72409210D01*
X19071199Y-72409210D01*
X18730410Y-72749999D01*
X18471200Y-72749999D01*
X18471200Y-72730109D01*
X18455976Y-72693355D01*
X18427845Y-72665224D01*
X18391091Y-72650000D01*
X18351309Y-72650000D01*
X18314555Y-72665224D01*
X18286424Y-72693355D01*
X18271200Y-72730109D01*
X17992100Y-72730109D01*
X17671201Y-72409210D01*
X17671200Y-72409210D01*
X17305762Y-72774646D01*
X9652000Y-72774646D01*
X9652000Y-72050000D01*
X16858087Y-72050000D01*
X16878472Y-72230929D01*
X16878473Y-72230937D01*
X16938611Y-72402799D01*
X16946552Y-72415435D01*
X16946553Y-72415436D01*
X17311990Y-72049999D01*
X17292100Y-72030109D01*
X17571200Y-72030109D01*
X17571200Y-72069891D01*
X17586424Y-72106645D01*
X17614555Y-72134776D01*
X17651309Y-72150000D01*
X17691091Y-72150000D01*
X17727845Y-72134776D01*
X17755976Y-72106645D01*
X17771200Y-72069891D01*
X17771200Y-72049999D01*
X18030410Y-72049999D01*
X18030410Y-72050001D01*
X18371199Y-72390790D01*
X18371201Y-72390790D01*
X18711990Y-72050001D01*
X18711990Y-72049999D01*
X18692100Y-72030109D01*
X18971200Y-72030109D01*
X18971200Y-72069891D01*
X18986424Y-72106645D01*
X19014555Y-72134776D01*
X19051309Y-72150000D01*
X19091091Y-72150000D01*
X19127845Y-72134776D01*
X19155976Y-72106645D01*
X19171200Y-72069891D01*
X19171200Y-72049999D01*
X19430410Y-72049999D01*
X19430410Y-72050001D01*
X19771199Y-72390790D01*
X19771201Y-72390790D01*
X20111990Y-72050001D01*
X20111990Y-72049999D01*
X20092100Y-72030109D01*
X20371200Y-72030109D01*
X20371200Y-72069891D01*
X20386424Y-72106645D01*
X20414555Y-72134776D01*
X20451309Y-72150000D01*
X20491091Y-72150000D01*
X20527845Y-72134776D01*
X20555976Y-72106645D01*
X20571200Y-72069891D01*
X20571200Y-72049999D01*
X20830410Y-72049999D01*
X20830410Y-72050001D01*
X21195845Y-72415436D01*
X21203785Y-72402801D01*
X21203790Y-72402791D01*
X21263926Y-72230937D01*
X21263927Y-72230929D01*
X21274623Y-72136000D01*
X23724496Y-72136000D01*
X23744457Y-72325927D01*
X23769435Y-72402799D01*
X23803473Y-72507556D01*
X23803476Y-72507561D01*
X23898958Y-72672941D01*
X23898965Y-72672951D01*
X24026744Y-72814864D01*
X24026747Y-72814866D01*
X24181248Y-72927118D01*
X24355712Y-73004794D01*
X24542513Y-73044500D01*
X24733487Y-73044500D01*
X24920288Y-73004794D01*
X25094752Y-72927118D01*
X25249253Y-72814866D01*
X25278314Y-72782591D01*
X25377034Y-72672951D01*
X25377035Y-72672949D01*
X25377040Y-72672944D01*
X25472527Y-72507556D01*
X25531542Y-72325928D01*
X25551504Y-72136000D01*
X25531542Y-71946072D01*
X25472527Y-71764444D01*
X25377040Y-71599056D01*
X25377038Y-71599054D01*
X25377034Y-71599048D01*
X25249255Y-71457135D01*
X25134829Y-71374000D01*
X31852496Y-71374000D01*
X31872457Y-71563927D01*
X31893276Y-71628000D01*
X31931473Y-71745556D01*
X31931476Y-71745561D01*
X32026958Y-71910941D01*
X32026965Y-71910951D01*
X32154744Y-72052864D01*
X32154747Y-72052866D01*
X32309248Y-72165118D01*
X32483712Y-72242794D01*
X32670513Y-72282500D01*
X32861487Y-72282500D01*
X33048288Y-72242794D01*
X33222752Y-72165118D01*
X33377253Y-72052866D01*
X33379834Y-72050000D01*
X33505034Y-71910951D01*
X33505035Y-71910949D01*
X33505040Y-71910944D01*
X33521751Y-71882000D01*
X59538496Y-71882000D01*
X59558457Y-72071927D01*
X59569738Y-72106645D01*
X59617473Y-72253556D01*
X59617476Y-72253561D01*
X59712958Y-72418941D01*
X59712965Y-72418951D01*
X59840744Y-72560864D01*
X59840747Y-72560866D01*
X59995248Y-72673118D01*
X60169712Y-72750794D01*
X60356513Y-72790500D01*
X60547487Y-72790500D01*
X60734288Y-72750794D01*
X60908752Y-72673118D01*
X61063253Y-72560866D01*
X61111249Y-72507561D01*
X61191034Y-72418951D01*
X61191035Y-72418949D01*
X61191040Y-72418944D01*
X61286527Y-72253556D01*
X61345542Y-72071928D01*
X61365504Y-71882000D01*
X61345542Y-71692072D01*
X61324724Y-71628000D01*
X96368496Y-71628000D01*
X96388457Y-71817927D01*
X96405075Y-71869070D01*
X96447473Y-71999556D01*
X96465113Y-72030109D01*
X96542958Y-72164941D01*
X96542965Y-72164951D01*
X96670744Y-72306864D01*
X96670747Y-72306866D01*
X96825248Y-72419118D01*
X96999712Y-72496794D01*
X97186513Y-72536500D01*
X97377487Y-72536500D01*
X97564288Y-72496794D01*
X97738752Y-72419118D01*
X97893253Y-72306866D01*
X97941249Y-72253561D01*
X98021034Y-72164951D01*
X98021035Y-72164949D01*
X98021040Y-72164944D01*
X98116527Y-71999556D01*
X98175542Y-71817928D01*
X98195504Y-71628000D01*
X98175542Y-71438072D01*
X98116527Y-71256444D01*
X98037751Y-71120000D01*
X123546496Y-71120000D01*
X123566457Y-71309927D01*
X123585941Y-71369891D01*
X123625473Y-71491556D01*
X123625476Y-71491561D01*
X123720958Y-71656941D01*
X123720965Y-71656951D01*
X123848744Y-71798864D01*
X123848747Y-71798866D01*
X124003248Y-71911118D01*
X124177712Y-71988794D01*
X124364513Y-72028500D01*
X124555487Y-72028500D01*
X124742288Y-71988794D01*
X124916752Y-71911118D01*
X125071253Y-71798866D01*
X125119249Y-71745561D01*
X125199034Y-71656951D01*
X125199035Y-71656949D01*
X125199040Y-71656944D01*
X125294527Y-71491556D01*
X125353542Y-71309928D01*
X125373504Y-71120000D01*
X128626496Y-71120000D01*
X128646457Y-71309927D01*
X128665941Y-71369891D01*
X128705473Y-71491556D01*
X128705476Y-71491561D01*
X128800958Y-71656941D01*
X128800965Y-71656951D01*
X128928744Y-71798864D01*
X128928747Y-71798866D01*
X129083248Y-71911118D01*
X129257712Y-71988794D01*
X129444513Y-72028500D01*
X129635487Y-72028500D01*
X129822288Y-71988794D01*
X129996752Y-71911118D01*
X130151253Y-71798866D01*
X130199249Y-71745561D01*
X130279034Y-71656951D01*
X130279035Y-71656949D01*
X130279040Y-71656944D01*
X130374527Y-71491556D01*
X130433542Y-71309928D01*
X130453504Y-71120000D01*
X130433542Y-70930072D01*
X130374527Y-70748444D01*
X130279040Y-70583056D01*
X130279038Y-70583054D01*
X130279034Y-70583048D01*
X130151255Y-70441135D01*
X129996752Y-70328882D01*
X129822288Y-70251206D01*
X129635487Y-70211500D01*
X129444513Y-70211500D01*
X129257711Y-70251206D01*
X129083247Y-70328882D01*
X128928744Y-70441135D01*
X128800965Y-70583048D01*
X128800958Y-70583058D01*
X128713364Y-70734776D01*
X128705473Y-70748444D01*
X128701976Y-70759206D01*
X128646457Y-70930072D01*
X128626496Y-71120000D01*
X125373504Y-71120000D01*
X125353542Y-70930072D01*
X125294527Y-70748444D01*
X125199040Y-70583056D01*
X125199038Y-70583054D01*
X125199034Y-70583048D01*
X125071255Y-70441135D01*
X124916752Y-70328882D01*
X124742288Y-70251206D01*
X124555487Y-70211500D01*
X124364513Y-70211500D01*
X124177711Y-70251206D01*
X124003247Y-70328882D01*
X123848744Y-70441135D01*
X123720965Y-70583048D01*
X123720958Y-70583058D01*
X123633364Y-70734776D01*
X123625473Y-70748444D01*
X123621976Y-70759206D01*
X123566457Y-70930072D01*
X123546496Y-71120000D01*
X98037751Y-71120000D01*
X98021040Y-71091056D01*
X98021038Y-71091054D01*
X98021034Y-71091048D01*
X97893255Y-70949135D01*
X97738752Y-70836882D01*
X97564288Y-70759206D01*
X97377487Y-70719500D01*
X97186513Y-70719500D01*
X96999711Y-70759206D01*
X96825247Y-70836882D01*
X96670744Y-70949135D01*
X96542965Y-71091048D01*
X96542958Y-71091058D01*
X96447476Y-71256438D01*
X96447473Y-71256445D01*
X96388457Y-71438072D01*
X96368496Y-71628000D01*
X61324724Y-71628000D01*
X61286527Y-71510444D01*
X61191040Y-71345056D01*
X61191038Y-71345054D01*
X61191034Y-71345048D01*
X61063255Y-71203135D01*
X60908752Y-71090882D01*
X60734288Y-71013206D01*
X60547487Y-70973500D01*
X60356513Y-70973500D01*
X60169711Y-71013206D01*
X59995247Y-71090882D01*
X59840744Y-71203135D01*
X59712965Y-71345048D01*
X59712958Y-71345058D01*
X59617476Y-71510438D01*
X59617473Y-71510445D01*
X59558457Y-71692072D01*
X59538496Y-71882000D01*
X33521751Y-71882000D01*
X33600527Y-71745556D01*
X33659542Y-71563928D01*
X33679504Y-71374000D01*
X33659542Y-71184072D01*
X33600527Y-71002444D01*
X33505040Y-70837056D01*
X33505038Y-70837054D01*
X33505034Y-70837048D01*
X33377255Y-70695135D01*
X33262829Y-70612000D01*
X87545599Y-70612000D01*
X87565560Y-70801927D01*
X87595629Y-70894470D01*
X87624576Y-70983556D01*
X87642981Y-71015435D01*
X87720061Y-71148941D01*
X87720068Y-71148951D01*
X87847847Y-71290864D01*
X87847850Y-71290866D01*
X88002351Y-71403118D01*
X88176815Y-71480794D01*
X88363616Y-71520500D01*
X88554590Y-71520500D01*
X88741391Y-71480794D01*
X88915855Y-71403118D01*
X89070356Y-71290866D01*
X89127411Y-71227500D01*
X89198137Y-71148951D01*
X89198138Y-71148949D01*
X89198143Y-71148944D01*
X89293630Y-70983556D01*
X89352645Y-70801928D01*
X89372607Y-70612000D01*
X89352645Y-70422072D01*
X89293630Y-70240444D01*
X89214854Y-70104000D01*
X162408496Y-70104000D01*
X162428457Y-70293927D01*
X162433423Y-70309210D01*
X162487473Y-70475556D01*
X162515841Y-70524691D01*
X162582958Y-70640941D01*
X162582965Y-70640951D01*
X162710744Y-70782864D01*
X162710747Y-70782866D01*
X162865248Y-70895118D01*
X163039712Y-70972794D01*
X163226513Y-71012500D01*
X163417487Y-71012500D01*
X163604288Y-70972794D01*
X163778752Y-70895118D01*
X163933253Y-70782866D01*
X163964252Y-70748438D01*
X164061034Y-70640951D01*
X164061035Y-70640949D01*
X164061040Y-70640944D01*
X164156527Y-70475556D01*
X164215542Y-70293928D01*
X164235504Y-70104000D01*
X164215542Y-69914072D01*
X164156527Y-69732444D01*
X164061040Y-69567056D01*
X164061038Y-69567054D01*
X164061034Y-69567048D01*
X163933255Y-69425135D01*
X163778752Y-69312882D01*
X163604288Y-69235206D01*
X163417487Y-69195500D01*
X163226513Y-69195500D01*
X163039711Y-69235206D01*
X162865247Y-69312882D01*
X162710744Y-69425135D01*
X162582965Y-69567048D01*
X162582958Y-69567058D01*
X162487476Y-69732438D01*
X162487473Y-69732445D01*
X162428457Y-69914072D01*
X162408496Y-70104000D01*
X89214854Y-70104000D01*
X89198143Y-70075056D01*
X89198141Y-70075054D01*
X89198137Y-70075048D01*
X89070358Y-69933135D01*
X88915855Y-69820882D01*
X88741391Y-69743206D01*
X88554590Y-69703500D01*
X88363616Y-69703500D01*
X88176814Y-69743206D01*
X88002350Y-69820882D01*
X87847847Y-69933135D01*
X87720068Y-70075048D01*
X87720061Y-70075058D01*
X87624579Y-70240438D01*
X87624576Y-70240445D01*
X87565560Y-70422072D01*
X87545599Y-70612000D01*
X33262829Y-70612000D01*
X33222752Y-70582882D01*
X33048288Y-70505206D01*
X32861487Y-70465500D01*
X32670513Y-70465500D01*
X32483711Y-70505206D01*
X32309247Y-70582882D01*
X32154744Y-70695135D01*
X32026965Y-70837048D01*
X32026958Y-70837058D01*
X31942379Y-70983554D01*
X31931473Y-71002444D01*
X31931358Y-71002799D01*
X31872457Y-71184072D01*
X31852496Y-71374000D01*
X25134829Y-71374000D01*
X25094752Y-71344882D01*
X24920288Y-71267206D01*
X24733487Y-71227500D01*
X24542513Y-71227500D01*
X24355711Y-71267206D01*
X24181247Y-71344882D01*
X24026744Y-71457135D01*
X23898965Y-71599048D01*
X23898958Y-71599058D01*
X23803476Y-71764438D01*
X23803473Y-71764445D01*
X23744457Y-71946072D01*
X23724496Y-72136000D01*
X21274623Y-72136000D01*
X21284312Y-72050000D01*
X21263927Y-71869070D01*
X21263925Y-71869059D01*
X21203791Y-71697208D01*
X21203787Y-71697199D01*
X21195846Y-71684563D01*
X21195846Y-71684562D01*
X20830410Y-72049999D01*
X20571200Y-72049999D01*
X20571200Y-72030109D01*
X20555976Y-71993355D01*
X20527845Y-71965224D01*
X20491091Y-71950000D01*
X20451309Y-71950000D01*
X20414555Y-71965224D01*
X20386424Y-71993355D01*
X20371200Y-72030109D01*
X20092100Y-72030109D01*
X19771201Y-71709210D01*
X19771199Y-71709210D01*
X19430410Y-72049999D01*
X19171200Y-72049999D01*
X19171200Y-72030109D01*
X19155976Y-71993355D01*
X19127845Y-71965224D01*
X19091091Y-71950000D01*
X19051309Y-71950000D01*
X19014555Y-71965224D01*
X18986424Y-71993355D01*
X18971200Y-72030109D01*
X18692100Y-72030109D01*
X18371201Y-71709210D01*
X18371199Y-71709210D01*
X18030410Y-72049999D01*
X17771200Y-72049999D01*
X17771200Y-72030109D01*
X17755976Y-71993355D01*
X17727845Y-71965224D01*
X17691091Y-71950000D01*
X17651309Y-71950000D01*
X17614555Y-71965224D01*
X17586424Y-71993355D01*
X17571200Y-72030109D01*
X17292100Y-72030109D01*
X16946554Y-71684563D01*
X16946552Y-71684563D01*
X16938612Y-71697200D01*
X16938611Y-71697201D01*
X16878473Y-71869062D01*
X16878472Y-71869070D01*
X16858087Y-72050000D01*
X9652000Y-72050000D01*
X9652000Y-71349999D01*
X17330410Y-71349999D01*
X17330410Y-71350001D01*
X17671199Y-71690790D01*
X17671201Y-71690790D01*
X18011990Y-71350001D01*
X18011990Y-71349999D01*
X17992100Y-71330109D01*
X18271200Y-71330109D01*
X18271200Y-71369891D01*
X18286424Y-71406645D01*
X18314555Y-71434776D01*
X18351309Y-71450000D01*
X18391091Y-71450000D01*
X18427845Y-71434776D01*
X18455976Y-71406645D01*
X18471200Y-71369891D01*
X18471200Y-71349999D01*
X18730410Y-71349999D01*
X18730410Y-71350001D01*
X19071199Y-71690790D01*
X19071201Y-71690790D01*
X19411990Y-71350001D01*
X19411990Y-71349999D01*
X19392100Y-71330109D01*
X19671200Y-71330109D01*
X19671200Y-71369891D01*
X19686424Y-71406645D01*
X19714555Y-71434776D01*
X19751309Y-71450000D01*
X19791091Y-71450000D01*
X19827845Y-71434776D01*
X19855976Y-71406645D01*
X19871200Y-71369891D01*
X19871200Y-71349999D01*
X20130410Y-71349999D01*
X20130410Y-71350001D01*
X20471199Y-71690790D01*
X20471201Y-71690790D01*
X20811990Y-71350001D01*
X20811990Y-71349999D01*
X20471201Y-71009210D01*
X20471199Y-71009210D01*
X20130410Y-71349999D01*
X19871200Y-71349999D01*
X19871200Y-71330109D01*
X19855976Y-71293355D01*
X19827845Y-71265224D01*
X19791091Y-71250000D01*
X19751309Y-71250000D01*
X19714555Y-71265224D01*
X19686424Y-71293355D01*
X19671200Y-71330109D01*
X19392100Y-71330109D01*
X19071201Y-71009210D01*
X19071199Y-71009210D01*
X18730410Y-71349999D01*
X18471200Y-71349999D01*
X18471200Y-71330109D01*
X18455976Y-71293355D01*
X18427845Y-71265224D01*
X18391091Y-71250000D01*
X18351309Y-71250000D01*
X18314555Y-71265224D01*
X18286424Y-71293355D01*
X18271200Y-71330109D01*
X17992100Y-71330109D01*
X17671201Y-71009210D01*
X17671199Y-71009210D01*
X17330410Y-71349999D01*
X9652000Y-71349999D01*
X9652000Y-70650000D01*
X16858087Y-70650000D01*
X16878472Y-70830929D01*
X16878473Y-70830937D01*
X16938611Y-71002799D01*
X16946552Y-71015435D01*
X16946553Y-71015436D01*
X17311990Y-70649999D01*
X17292100Y-70630109D01*
X17571200Y-70630109D01*
X17571200Y-70669891D01*
X17586424Y-70706645D01*
X17614555Y-70734776D01*
X17651309Y-70750000D01*
X17691091Y-70750000D01*
X17727845Y-70734776D01*
X17755976Y-70706645D01*
X17771200Y-70669891D01*
X17771200Y-70649999D01*
X18030410Y-70649999D01*
X18030410Y-70650001D01*
X18371199Y-70990790D01*
X18371201Y-70990790D01*
X18711990Y-70650001D01*
X18711990Y-70649999D01*
X18692100Y-70630109D01*
X18971200Y-70630109D01*
X18971200Y-70669891D01*
X18986424Y-70706645D01*
X19014555Y-70734776D01*
X19051309Y-70750000D01*
X19091091Y-70750000D01*
X19127845Y-70734776D01*
X19155976Y-70706645D01*
X19171200Y-70669891D01*
X19171200Y-70649999D01*
X19430410Y-70649999D01*
X19430410Y-70650001D01*
X19771199Y-70990790D01*
X19771201Y-70990790D01*
X20111990Y-70650001D01*
X20111990Y-70649999D01*
X20092100Y-70630109D01*
X20371200Y-70630109D01*
X20371200Y-70669891D01*
X20386424Y-70706645D01*
X20414555Y-70734776D01*
X20451309Y-70750000D01*
X20491091Y-70750000D01*
X20527845Y-70734776D01*
X20555976Y-70706645D01*
X20571200Y-70669891D01*
X20571200Y-70649999D01*
X20830410Y-70649999D01*
X20830410Y-70650001D01*
X21195845Y-71015436D01*
X21203785Y-71002801D01*
X21203790Y-71002791D01*
X21263926Y-70830937D01*
X21263927Y-70830929D01*
X21284312Y-70650000D01*
X21263927Y-70469070D01*
X21263925Y-70469059D01*
X21203791Y-70297208D01*
X21203787Y-70297199D01*
X21195846Y-70284563D01*
X21195846Y-70284562D01*
X20830410Y-70649999D01*
X20571200Y-70649999D01*
X20571200Y-70630109D01*
X20555976Y-70593355D01*
X20527845Y-70565224D01*
X20491091Y-70550000D01*
X20451309Y-70550000D01*
X20414555Y-70565224D01*
X20386424Y-70593355D01*
X20371200Y-70630109D01*
X20092100Y-70630109D01*
X19771201Y-70309210D01*
X19771199Y-70309210D01*
X19430410Y-70649999D01*
X19171200Y-70649999D01*
X19171200Y-70630109D01*
X19155976Y-70593355D01*
X19127845Y-70565224D01*
X19091091Y-70550000D01*
X19051309Y-70550000D01*
X19014555Y-70565224D01*
X18986424Y-70593355D01*
X18971200Y-70630109D01*
X18692100Y-70630109D01*
X18371201Y-70309210D01*
X18371199Y-70309210D01*
X18030410Y-70649999D01*
X17771200Y-70649999D01*
X17771200Y-70630109D01*
X17755976Y-70593355D01*
X17727845Y-70565224D01*
X17691091Y-70550000D01*
X17651309Y-70550000D01*
X17614555Y-70565224D01*
X17586424Y-70593355D01*
X17571200Y-70630109D01*
X17292100Y-70630109D01*
X16946554Y-70284563D01*
X16946552Y-70284563D01*
X16938612Y-70297200D01*
X16938611Y-70297201D01*
X16878473Y-70469062D01*
X16878472Y-70469070D01*
X16858087Y-70650000D01*
X9652000Y-70650000D01*
X9652000Y-69925352D01*
X17305763Y-69925352D01*
X17305763Y-69925354D01*
X17671199Y-70290790D01*
X17671201Y-70290790D01*
X18011990Y-69950001D01*
X18011990Y-69949999D01*
X17992100Y-69930109D01*
X18271200Y-69930109D01*
X18271200Y-69969891D01*
X18286424Y-70006645D01*
X18314555Y-70034776D01*
X18351309Y-70050000D01*
X18391091Y-70050000D01*
X18427845Y-70034776D01*
X18455976Y-70006645D01*
X18471200Y-69969891D01*
X18471200Y-69949999D01*
X18730410Y-69949999D01*
X18730410Y-69950001D01*
X19071199Y-70290790D01*
X19071201Y-70290790D01*
X19411990Y-69950001D01*
X19411990Y-69949999D01*
X19392100Y-69930109D01*
X19671200Y-69930109D01*
X19671200Y-69969891D01*
X19686424Y-70006645D01*
X19714555Y-70034776D01*
X19751309Y-70050000D01*
X19791091Y-70050000D01*
X19827845Y-70034776D01*
X19855976Y-70006645D01*
X19871200Y-69969891D01*
X19871200Y-69949999D01*
X20130410Y-69949999D01*
X20130410Y-69950001D01*
X20471199Y-70290790D01*
X20471200Y-70290790D01*
X20836636Y-69925353D01*
X20836635Y-69925352D01*
X20823998Y-69917411D01*
X20823999Y-69917411D01*
X20645456Y-69854936D01*
X20646382Y-69852289D01*
X20595499Y-69823795D01*
X20568792Y-69774858D01*
X20566264Y-69775743D01*
X20503791Y-69597208D01*
X20503787Y-69597199D01*
X20503033Y-69596000D01*
X67539496Y-69596000D01*
X67559457Y-69785927D01*
X67580276Y-69850000D01*
X67618473Y-69967556D01*
X67618476Y-69967561D01*
X67713958Y-70132941D01*
X67713965Y-70132951D01*
X67841744Y-70274864D01*
X67872487Y-70297200D01*
X67996248Y-70387118D01*
X68170712Y-70464794D01*
X68357513Y-70504500D01*
X68548487Y-70504500D01*
X68735288Y-70464794D01*
X68909752Y-70387118D01*
X69064253Y-70274866D01*
X69192040Y-70132944D01*
X69287527Y-69967556D01*
X69346542Y-69785928D01*
X69366504Y-69596000D01*
X69346542Y-69406072D01*
X69287527Y-69224444D01*
X69192040Y-69059056D01*
X69192038Y-69059054D01*
X69192034Y-69059048D01*
X69064255Y-68917135D01*
X68909752Y-68804882D01*
X68735288Y-68727206D01*
X68548487Y-68687500D01*
X68357513Y-68687500D01*
X68170711Y-68727206D01*
X67996247Y-68804882D01*
X67841744Y-68917135D01*
X67713965Y-69059048D01*
X67713958Y-69059058D01*
X67618476Y-69224438D01*
X67618473Y-69224444D01*
X67614976Y-69235206D01*
X67559457Y-69406072D01*
X67539496Y-69596000D01*
X20503033Y-69596000D01*
X20495846Y-69584563D01*
X20495846Y-69584562D01*
X20130410Y-69949999D01*
X19871200Y-69949999D01*
X19871200Y-69930109D01*
X19855976Y-69893355D01*
X19827845Y-69865224D01*
X19791091Y-69850000D01*
X19751309Y-69850000D01*
X19714555Y-69865224D01*
X19686424Y-69893355D01*
X19671200Y-69930109D01*
X19392100Y-69930109D01*
X19071201Y-69609210D01*
X19071199Y-69609210D01*
X18730410Y-69949999D01*
X18471200Y-69949999D01*
X18471200Y-69930109D01*
X18455976Y-69893355D01*
X18427845Y-69865224D01*
X18391091Y-69850000D01*
X18351309Y-69850000D01*
X18314555Y-69865224D01*
X18286424Y-69893355D01*
X18271200Y-69930109D01*
X17992100Y-69930109D01*
X17646554Y-69584563D01*
X17646552Y-69584563D01*
X17638612Y-69597200D01*
X17638611Y-69597201D01*
X17576136Y-69775744D01*
X17573491Y-69774818D01*
X17544982Y-69825712D01*
X17496064Y-69852422D01*
X17496944Y-69854936D01*
X17318401Y-69917411D01*
X17318400Y-69917412D01*
X17305763Y-69925352D01*
X9652000Y-69925352D01*
X9652000Y-69225352D01*
X18005763Y-69225352D01*
X18005763Y-69225354D01*
X18371199Y-69590790D01*
X18371200Y-69590790D01*
X18736636Y-69225353D01*
X18736635Y-69225352D01*
X19405763Y-69225352D01*
X19405763Y-69225354D01*
X19771199Y-69590790D01*
X19771200Y-69590790D01*
X20136636Y-69225353D01*
X20136635Y-69225352D01*
X20123998Y-69217411D01*
X20123999Y-69217411D01*
X19952137Y-69157273D01*
X19952129Y-69157272D01*
X19771200Y-69136887D01*
X19590270Y-69157272D01*
X19590262Y-69157273D01*
X19418401Y-69217411D01*
X19418400Y-69217412D01*
X19405763Y-69225352D01*
X18736635Y-69225352D01*
X18723998Y-69217411D01*
X18723999Y-69217411D01*
X18552137Y-69157273D01*
X18552129Y-69157272D01*
X18371200Y-69136887D01*
X18190270Y-69157272D01*
X18190262Y-69157273D01*
X18018401Y-69217411D01*
X18018400Y-69217412D01*
X18005763Y-69225352D01*
X9652000Y-69225352D01*
X9652000Y-67945000D01*
X35281496Y-67945000D01*
X35301457Y-68134927D01*
X35331526Y-68227470D01*
X35360473Y-68316556D01*
X35360476Y-68316561D01*
X35455958Y-68481941D01*
X35455965Y-68481951D01*
X35583744Y-68623864D01*
X35583747Y-68623866D01*
X35738248Y-68736118D01*
X35912712Y-68813794D01*
X36099513Y-68853500D01*
X36290487Y-68853500D01*
X36477288Y-68813794D01*
X36651752Y-68736118D01*
X36806253Y-68623866D01*
X36934040Y-68481944D01*
X37029527Y-68316556D01*
X37088542Y-68134928D01*
X37108504Y-67945000D01*
X37088542Y-67755072D01*
X37029527Y-67573444D01*
X36934040Y-67408056D01*
X36934038Y-67408054D01*
X36934034Y-67408048D01*
X36806255Y-67266135D01*
X36651752Y-67153882D01*
X36477288Y-67076206D01*
X36290487Y-67036500D01*
X36099513Y-67036500D01*
X35912711Y-67076206D01*
X35738247Y-67153882D01*
X35583744Y-67266135D01*
X35455965Y-67408048D01*
X35455958Y-67408058D01*
X35403674Y-67498617D01*
X35360473Y-67573444D01*
X35354805Y-67590889D01*
X35301457Y-67755072D01*
X35281496Y-67945000D01*
X9652000Y-67945000D01*
X9652000Y-66294000D01*
X12167496Y-66294000D01*
X12187457Y-66483927D01*
X12198389Y-66517571D01*
X12246473Y-66665556D01*
X12246476Y-66665561D01*
X12341958Y-66830941D01*
X12341965Y-66830951D01*
X12469744Y-66972864D01*
X12469747Y-66972866D01*
X12624248Y-67085118D01*
X12798712Y-67162794D01*
X12985513Y-67202500D01*
X13176487Y-67202500D01*
X13363288Y-67162794D01*
X13537752Y-67085118D01*
X13692253Y-66972866D01*
X13694515Y-66970354D01*
X13820034Y-66830951D01*
X13820035Y-66830949D01*
X13820040Y-66830944D01*
X13915527Y-66665556D01*
X13953724Y-66548000D01*
X19533496Y-66548000D01*
X19553457Y-66737927D01*
X19569964Y-66788728D01*
X19612473Y-66919556D01*
X19612476Y-66919561D01*
X19707958Y-67084941D01*
X19707965Y-67084951D01*
X19835744Y-67226864D01*
X19859949Y-67244450D01*
X19990248Y-67339118D01*
X20164712Y-67416794D01*
X20351513Y-67456500D01*
X20542487Y-67456500D01*
X20729288Y-67416794D01*
X20903752Y-67339118D01*
X21058253Y-67226866D01*
X21157488Y-67116653D01*
X21217932Y-67079415D01*
X21288916Y-67080766D01*
X21347901Y-67120280D01*
X21355004Y-67130459D01*
X21355081Y-67130404D01*
X21358965Y-67135751D01*
X21486744Y-67277664D01*
X21486747Y-67277666D01*
X21641248Y-67389918D01*
X21815712Y-67467594D01*
X22002513Y-67507300D01*
X22193487Y-67507300D01*
X22380288Y-67467594D01*
X22554752Y-67389918D01*
X22709253Y-67277666D01*
X22719636Y-67266135D01*
X22837034Y-67135751D01*
X22837035Y-67135749D01*
X22837040Y-67135744D01*
X22932527Y-66970356D01*
X22991542Y-66788728D01*
X23000079Y-66707499D01*
X25266711Y-66707499D01*
X25286672Y-66897426D01*
X25310369Y-66970356D01*
X25345688Y-67079055D01*
X25367396Y-67116655D01*
X25441173Y-67244440D01*
X25441180Y-67244450D01*
X25568959Y-67386363D01*
X25568962Y-67386365D01*
X25723463Y-67498617D01*
X25897927Y-67576293D01*
X26084728Y-67615999D01*
X26275702Y-67615999D01*
X26462503Y-67576293D01*
X26636967Y-67498617D01*
X26791468Y-67386365D01*
X26791615Y-67386202D01*
X26919249Y-67244450D01*
X26919250Y-67244448D01*
X26919255Y-67244443D01*
X27014742Y-67079055D01*
X27073757Y-66897427D01*
X27093719Y-66707499D01*
X27073757Y-66517571D01*
X27014742Y-66335943D01*
X26919255Y-66170555D01*
X26919253Y-66170553D01*
X26919249Y-66170547D01*
X26801704Y-66040000D01*
X48616496Y-66040000D01*
X48636457Y-66229927D01*
X48650711Y-66273794D01*
X48695473Y-66411556D01*
X48695476Y-66411561D01*
X48790958Y-66576941D01*
X48790965Y-66576951D01*
X48918744Y-66718864D01*
X48918747Y-66718866D01*
X49073248Y-66831118D01*
X49247712Y-66908794D01*
X49434513Y-66948500D01*
X49625487Y-66948500D01*
X49812288Y-66908794D01*
X49986752Y-66831118D01*
X50141253Y-66718866D01*
X50241865Y-66607124D01*
X50302309Y-66569886D01*
X50373293Y-66571237D01*
X50432278Y-66610751D01*
X50460536Y-66675881D01*
X50461500Y-66691436D01*
X50461500Y-67188649D01*
X50468009Y-67249196D01*
X50468011Y-67249204D01*
X50519110Y-67386202D01*
X50519112Y-67386207D01*
X50606738Y-67503261D01*
X50723792Y-67590887D01*
X50723794Y-67590888D01*
X50723796Y-67590889D01*
X50782875Y-67612924D01*
X50860795Y-67641988D01*
X50860803Y-67641990D01*
X50921350Y-67648499D01*
X50921355Y-67648499D01*
X50921362Y-67648500D01*
X50921368Y-67648500D01*
X53218632Y-67648500D01*
X53218638Y-67648500D01*
X53218645Y-67648499D01*
X53218649Y-67648499D01*
X53279196Y-67641990D01*
X53279199Y-67641989D01*
X53279201Y-67641989D01*
X53416204Y-67590889D01*
X53435704Y-67576292D01*
X53533261Y-67503261D01*
X53620887Y-67386207D01*
X53620887Y-67386206D01*
X53620889Y-67386204D01*
X53671989Y-67249201D01*
X53674391Y-67226866D01*
X53678499Y-67188649D01*
X53678500Y-67188632D01*
X53678500Y-66040010D01*
X54712496Y-66040010D01*
X54732457Y-66229937D01*
X54753273Y-66294000D01*
X54791473Y-66411566D01*
X54791476Y-66411571D01*
X54886958Y-66576951D01*
X54886965Y-66576961D01*
X55014744Y-66718874D01*
X55014747Y-66718876D01*
X55169248Y-66831128D01*
X55343712Y-66908804D01*
X55530513Y-66948510D01*
X55721487Y-66948510D01*
X55908288Y-66908804D01*
X56082752Y-66831128D01*
X56237253Y-66718876D01*
X56285258Y-66665561D01*
X56365034Y-66576961D01*
X56365035Y-66576959D01*
X56365040Y-66576954D01*
X56460527Y-66411566D01*
X56519542Y-66229938D01*
X56539504Y-66040010D01*
X56519542Y-65850082D01*
X56460527Y-65668454D01*
X56365040Y-65503066D01*
X56365038Y-65503064D01*
X56365034Y-65503058D01*
X56276742Y-65405000D01*
X122276496Y-65405000D01*
X122296457Y-65594927D01*
X122323842Y-65679206D01*
X122355473Y-65776556D01*
X122373444Y-65807682D01*
X122450958Y-65941941D01*
X122450965Y-65941951D01*
X122578744Y-66083864D01*
X122578747Y-66083866D01*
X122733248Y-66196118D01*
X122907712Y-66273794D01*
X123094513Y-66313500D01*
X123285487Y-66313500D01*
X123472288Y-66273794D01*
X123646752Y-66196118D01*
X123801253Y-66083866D01*
X123801255Y-66083864D01*
X123929034Y-65941951D01*
X123929035Y-65941949D01*
X123929040Y-65941944D01*
X124024527Y-65776556D01*
X124083542Y-65594928D01*
X124103504Y-65405000D01*
X124083542Y-65215072D01*
X124024527Y-65033444D01*
X123929040Y-64868056D01*
X123929038Y-64868054D01*
X123929034Y-64868048D01*
X123801255Y-64726135D01*
X123646752Y-64613882D01*
X123472288Y-64536206D01*
X123285487Y-64496500D01*
X123094513Y-64496500D01*
X122907711Y-64536206D01*
X122733247Y-64613882D01*
X122578744Y-64726135D01*
X122450965Y-64868048D01*
X122450958Y-64868058D01*
X122355476Y-65033438D01*
X122355473Y-65033445D01*
X122296457Y-65215072D01*
X122276496Y-65405000D01*
X56276742Y-65405000D01*
X56237255Y-65361145D01*
X56082752Y-65248892D01*
X55908288Y-65171216D01*
X55721487Y-65131510D01*
X55530513Y-65131510D01*
X55343711Y-65171216D01*
X55169247Y-65248892D01*
X55014744Y-65361145D01*
X54886965Y-65503058D01*
X54886958Y-65503068D01*
X54791478Y-65668445D01*
X54791473Y-65668454D01*
X54784375Y-65690300D01*
X54732457Y-65850082D01*
X54712496Y-66040010D01*
X53678500Y-66040010D01*
X53678500Y-64891367D01*
X53678499Y-64891350D01*
X53671990Y-64830803D01*
X53671988Y-64830795D01*
X53632951Y-64726135D01*
X53620889Y-64693796D01*
X53620888Y-64693794D01*
X53620887Y-64693792D01*
X53533261Y-64576738D01*
X53416207Y-64489112D01*
X53416202Y-64489110D01*
X53279204Y-64438011D01*
X53279196Y-64438009D01*
X53218649Y-64431500D01*
X53218638Y-64431500D01*
X50921362Y-64431500D01*
X50921350Y-64431500D01*
X50860803Y-64438009D01*
X50860795Y-64438011D01*
X50723797Y-64489110D01*
X50723792Y-64489112D01*
X50606738Y-64576738D01*
X50519112Y-64693792D01*
X50519110Y-64693797D01*
X50468011Y-64830795D01*
X50468009Y-64830803D01*
X50461500Y-64891350D01*
X50461500Y-65388563D01*
X50441498Y-65456684D01*
X50387842Y-65503177D01*
X50317568Y-65513281D01*
X50252988Y-65483787D01*
X50241864Y-65472873D01*
X50141255Y-65361135D01*
X49986752Y-65248882D01*
X49812288Y-65171206D01*
X49625487Y-65131500D01*
X49434513Y-65131500D01*
X49247711Y-65171206D01*
X49073247Y-65248882D01*
X48918744Y-65361135D01*
X48790965Y-65503048D01*
X48790958Y-65503058D01*
X48695476Y-65668438D01*
X48695473Y-65668444D01*
X48680999Y-65712986D01*
X48636457Y-65850072D01*
X48616496Y-66040000D01*
X26801704Y-66040000D01*
X26791470Y-66028634D01*
X26636967Y-65916381D01*
X26462503Y-65838705D01*
X26275702Y-65798999D01*
X26084728Y-65798999D01*
X25897926Y-65838705D01*
X25723462Y-65916381D01*
X25568959Y-66028634D01*
X25441180Y-66170547D01*
X25441173Y-66170557D01*
X25345691Y-66335937D01*
X25345688Y-66335944D01*
X25286672Y-66517571D01*
X25266711Y-66707499D01*
X23000079Y-66707499D01*
X23011504Y-66598800D01*
X22991542Y-66408872D01*
X22932527Y-66227244D01*
X22837040Y-66061856D01*
X22837038Y-66061854D01*
X22837034Y-66061848D01*
X22709255Y-65919935D01*
X22554752Y-65807682D01*
X22380288Y-65730006D01*
X22193487Y-65690300D01*
X22002513Y-65690300D01*
X21815711Y-65730006D01*
X21641247Y-65807682D01*
X21486746Y-65919934D01*
X21387512Y-66030145D01*
X21327066Y-66067384D01*
X21256082Y-66066032D01*
X21197098Y-66026518D01*
X21189995Y-66016340D01*
X21189919Y-66016396D01*
X21186034Y-66011048D01*
X21058255Y-65869135D01*
X20903752Y-65756882D01*
X20729288Y-65679206D01*
X20542487Y-65639500D01*
X20351513Y-65639500D01*
X20164711Y-65679206D01*
X19990247Y-65756882D01*
X19835744Y-65869135D01*
X19707965Y-66011048D01*
X19707958Y-66011058D01*
X19612476Y-66176438D01*
X19612473Y-66176444D01*
X19597999Y-66220986D01*
X19553457Y-66358072D01*
X19533496Y-66548000D01*
X13953724Y-66548000D01*
X13974542Y-66483928D01*
X13994504Y-66294000D01*
X13974542Y-66104072D01*
X13915527Y-65922444D01*
X13820040Y-65757056D01*
X13820038Y-65757054D01*
X13820034Y-65757048D01*
X13692255Y-65615135D01*
X13537752Y-65502882D01*
X13363288Y-65425206D01*
X13176487Y-65385500D01*
X12985513Y-65385500D01*
X12798711Y-65425206D01*
X12624247Y-65502882D01*
X12469744Y-65615135D01*
X12341965Y-65757048D01*
X12341958Y-65757058D01*
X12246476Y-65922438D01*
X12246473Y-65922445D01*
X12187457Y-66104072D01*
X12167496Y-66294000D01*
X9652000Y-66294000D01*
X9652000Y-63770802D01*
X13793096Y-63770802D01*
X13813057Y-63960729D01*
X13837821Y-64036941D01*
X13872073Y-64142358D01*
X13872076Y-64142363D01*
X13967558Y-64307743D01*
X13967565Y-64307753D01*
X14095344Y-64449666D01*
X14095347Y-64449668D01*
X14249848Y-64561920D01*
X14424312Y-64639596D01*
X14611113Y-64679302D01*
X14802087Y-64679302D01*
X14988888Y-64639596D01*
X15163352Y-64561920D01*
X15317853Y-64449668D01*
X15332982Y-64432866D01*
X15445634Y-64307753D01*
X15445635Y-64307751D01*
X15445640Y-64307746D01*
X15541127Y-64142358D01*
X15600142Y-63960730D01*
X15610873Y-63858628D01*
X15637884Y-63792974D01*
X15681588Y-63762474D01*
X15788799Y-63762474D01*
X15828195Y-63785721D01*
X15860126Y-63849132D01*
X15861492Y-63858629D01*
X15870457Y-63943927D01*
X15875917Y-63960730D01*
X15929473Y-64125556D01*
X15929476Y-64125561D01*
X16024958Y-64290941D01*
X16024965Y-64290951D01*
X16152744Y-64432864D01*
X16159828Y-64438011D01*
X16307248Y-64545118D01*
X16481712Y-64622794D01*
X16668513Y-64662500D01*
X16859487Y-64662500D01*
X17046288Y-64622794D01*
X17220752Y-64545118D01*
X17375253Y-64432866D01*
X17487905Y-64307753D01*
X17503034Y-64290951D01*
X17503035Y-64290949D01*
X17503040Y-64290944D01*
X17598527Y-64125556D01*
X17657542Y-63943928D01*
X17677504Y-63754000D01*
X17657542Y-63564072D01*
X17598527Y-63382444D01*
X17519751Y-63246000D01*
X25756496Y-63246000D01*
X25776457Y-63435927D01*
X25797276Y-63500000D01*
X25835473Y-63617556D01*
X25835476Y-63617561D01*
X25930958Y-63782941D01*
X25930965Y-63782951D01*
X26058744Y-63924864D01*
X26058747Y-63924866D01*
X26213248Y-64037118D01*
X26387712Y-64114794D01*
X26574513Y-64154500D01*
X26765487Y-64154500D01*
X26952288Y-64114794D01*
X27126752Y-64037118D01*
X27281253Y-63924866D01*
X27329249Y-63871561D01*
X27409034Y-63782951D01*
X27409035Y-63782949D01*
X27409040Y-63782944D01*
X27504527Y-63617556D01*
X27563542Y-63435928D01*
X27583504Y-63246000D01*
X40996496Y-63246000D01*
X41016457Y-63435927D01*
X41037276Y-63500000D01*
X41075473Y-63617556D01*
X41075476Y-63617561D01*
X41170958Y-63782941D01*
X41170965Y-63782951D01*
X41298744Y-63924864D01*
X41298747Y-63924866D01*
X41453248Y-64037118D01*
X41627712Y-64114794D01*
X41814513Y-64154500D01*
X42005487Y-64154500D01*
X42192288Y-64114794D01*
X42366752Y-64037118D01*
X42521253Y-63924866D01*
X42569249Y-63871561D01*
X42649034Y-63782951D01*
X42649035Y-63782949D01*
X42649040Y-63782944D01*
X42744527Y-63617556D01*
X42782724Y-63500000D01*
X88875496Y-63500000D01*
X88895457Y-63689927D01*
X88909711Y-63733794D01*
X88954473Y-63871556D01*
X88954476Y-63871561D01*
X89049958Y-64036941D01*
X89049965Y-64036951D01*
X89177744Y-64178864D01*
X89177747Y-64178866D01*
X89332248Y-64291118D01*
X89506712Y-64368794D01*
X89693513Y-64408500D01*
X89884487Y-64408500D01*
X90071288Y-64368794D01*
X90245752Y-64291118D01*
X90400253Y-64178866D01*
X90422192Y-64154500D01*
X90528034Y-64036951D01*
X90528035Y-64036949D01*
X90528040Y-64036944D01*
X90623527Y-63871556D01*
X90682542Y-63689928D01*
X90702504Y-63500000D01*
X90682542Y-63310072D01*
X90623527Y-63128444D01*
X90544751Y-62992000D01*
X102972496Y-62992000D01*
X102992457Y-63181927D01*
X103009331Y-63233858D01*
X103051473Y-63363556D01*
X103051476Y-63363561D01*
X103146958Y-63528941D01*
X103146965Y-63528951D01*
X103274744Y-63670864D01*
X103274747Y-63670866D01*
X103429248Y-63783118D01*
X103603712Y-63860794D01*
X103790513Y-63900500D01*
X103981487Y-63900500D01*
X104168288Y-63860794D01*
X104342752Y-63783118D01*
X104497253Y-63670866D01*
X104497255Y-63670864D01*
X104625034Y-63528951D01*
X104625035Y-63528949D01*
X104625040Y-63528944D01*
X104720527Y-63363556D01*
X104779542Y-63181928D01*
X104799504Y-62992000D01*
X104786156Y-62865000D01*
X117704496Y-62865000D01*
X117724457Y-63054927D01*
X117736483Y-63091937D01*
X117783473Y-63236556D01*
X117783476Y-63236561D01*
X117878958Y-63401941D01*
X117878965Y-63401951D01*
X118006744Y-63543864D01*
X118006747Y-63543866D01*
X118161248Y-63656118D01*
X118335712Y-63733794D01*
X118522513Y-63773500D01*
X118713487Y-63773500D01*
X118900288Y-63733794D01*
X119074752Y-63656118D01*
X119229253Y-63543866D01*
X119357040Y-63401944D01*
X119452527Y-63236556D01*
X119511542Y-63054928D01*
X119531504Y-62865000D01*
X119511542Y-62675072D01*
X119452527Y-62493444D01*
X119357040Y-62328056D01*
X119357038Y-62328054D01*
X119357034Y-62328048D01*
X119229255Y-62186135D01*
X119074752Y-62073882D01*
X118900288Y-61996206D01*
X118713487Y-61956500D01*
X118522513Y-61956500D01*
X118335711Y-61996206D01*
X118161247Y-62073882D01*
X118006744Y-62186135D01*
X117878965Y-62328048D01*
X117878958Y-62328058D01*
X117783476Y-62493438D01*
X117783473Y-62493445D01*
X117724457Y-62675072D01*
X117704496Y-62865000D01*
X104786156Y-62865000D01*
X104779542Y-62802072D01*
X104720527Y-62620444D01*
X104625040Y-62455056D01*
X104625038Y-62455054D01*
X104625034Y-62455048D01*
X104497255Y-62313135D01*
X104342752Y-62200882D01*
X104168288Y-62123206D01*
X103981487Y-62083500D01*
X103790513Y-62083500D01*
X103603711Y-62123206D01*
X103429247Y-62200882D01*
X103274744Y-62313135D01*
X103146965Y-62455048D01*
X103146958Y-62455058D01*
X103051476Y-62620438D01*
X103051473Y-62620445D01*
X102992457Y-62802072D01*
X102972496Y-62992000D01*
X90544751Y-62992000D01*
X90528040Y-62963056D01*
X90528038Y-62963054D01*
X90528034Y-62963048D01*
X90400255Y-62821135D01*
X90245752Y-62708882D01*
X90071288Y-62631206D01*
X89884487Y-62591500D01*
X89693513Y-62591500D01*
X89506711Y-62631206D01*
X89332247Y-62708882D01*
X89177744Y-62821135D01*
X89049965Y-62963048D01*
X89049958Y-62963058D01*
X88954476Y-63128438D01*
X88954473Y-63128445D01*
X88895457Y-63310072D01*
X88875496Y-63500000D01*
X42782724Y-63500000D01*
X42803542Y-63435928D01*
X42823504Y-63246000D01*
X42803542Y-63056072D01*
X42744527Y-62874444D01*
X42649040Y-62709056D01*
X42649038Y-62709054D01*
X42649034Y-62709048D01*
X42521255Y-62567135D01*
X42366752Y-62454882D01*
X42192288Y-62377206D01*
X42005487Y-62337500D01*
X41814513Y-62337500D01*
X41627711Y-62377206D01*
X41453247Y-62454882D01*
X41298744Y-62567135D01*
X41170965Y-62709048D01*
X41170958Y-62709058D01*
X41075476Y-62874438D01*
X41075473Y-62874445D01*
X41016457Y-63056072D01*
X40996496Y-63246000D01*
X27583504Y-63246000D01*
X27563542Y-63056072D01*
X27504527Y-62874444D01*
X27409040Y-62709056D01*
X27409038Y-62709054D01*
X27409034Y-62709048D01*
X27281255Y-62567135D01*
X27126752Y-62454882D01*
X26952288Y-62377206D01*
X26765487Y-62337500D01*
X26574513Y-62337500D01*
X26387711Y-62377206D01*
X26213247Y-62454882D01*
X26058744Y-62567135D01*
X25930965Y-62709048D01*
X25930958Y-62709058D01*
X25835476Y-62874438D01*
X25835473Y-62874445D01*
X25776457Y-63056072D01*
X25756496Y-63246000D01*
X17519751Y-63246000D01*
X17503040Y-63217056D01*
X17503038Y-63217054D01*
X17503034Y-63217048D01*
X17375255Y-63075135D01*
X17220752Y-62962882D01*
X17046288Y-62885206D01*
X16859487Y-62845500D01*
X16668513Y-62845500D01*
X16481711Y-62885206D01*
X16307247Y-62962882D01*
X16152744Y-63075135D01*
X16024965Y-63217048D01*
X16024958Y-63217058D01*
X15940379Y-63363554D01*
X15929473Y-63382444D01*
X15923138Y-63401941D01*
X15870457Y-63564072D01*
X15859727Y-63666171D01*
X15832714Y-63731828D01*
X15788799Y-63762474D01*
X15681588Y-63762474D01*
X15681799Y-63762327D01*
X15642403Y-63739079D01*
X15610473Y-63675668D01*
X15609107Y-63666171D01*
X15600142Y-63580874D01*
X15588117Y-63543866D01*
X15541127Y-63399246D01*
X15445640Y-63233858D01*
X15445638Y-63233856D01*
X15445634Y-63233850D01*
X15317855Y-63091937D01*
X15163352Y-62979684D01*
X14988888Y-62902008D01*
X14802087Y-62862302D01*
X14611113Y-62862302D01*
X14424311Y-62902008D01*
X14249847Y-62979684D01*
X14095344Y-63091937D01*
X13967565Y-63233850D01*
X13967558Y-63233860D01*
X13881773Y-63382445D01*
X13872073Y-63399246D01*
X13871194Y-63401951D01*
X13813057Y-63580874D01*
X13793096Y-63770802D01*
X9652000Y-63770802D01*
X9652000Y-59182000D01*
X13056496Y-59182000D01*
X13076457Y-59371927D01*
X13087815Y-59406882D01*
X13135473Y-59553556D01*
X13135476Y-59553561D01*
X13230958Y-59718941D01*
X13230965Y-59718951D01*
X13358744Y-59860864D01*
X13358747Y-59860866D01*
X13513248Y-59973118D01*
X13687712Y-60050794D01*
X13874513Y-60090500D01*
X14065487Y-60090500D01*
X14252288Y-60050794D01*
X14426752Y-59973118D01*
X14581253Y-59860866D01*
X14638944Y-59796794D01*
X14709034Y-59718951D01*
X14709035Y-59718949D01*
X14709040Y-59718944D01*
X14804527Y-59553556D01*
X14863542Y-59371928D01*
X14883504Y-59182000D01*
X14863542Y-58992072D01*
X14842724Y-58928000D01*
X28550496Y-58928000D01*
X28570457Y-59117927D01*
X28591276Y-59182000D01*
X28629473Y-59299556D01*
X28657841Y-59348691D01*
X28724958Y-59464941D01*
X28724965Y-59464951D01*
X28852744Y-59606864D01*
X28852747Y-59606866D01*
X29007248Y-59719118D01*
X29065913Y-59745237D01*
X29132434Y-59774854D01*
X29186530Y-59820834D01*
X29207179Y-59888761D01*
X29187827Y-59957070D01*
X29155246Y-59991897D01*
X29106744Y-60027135D01*
X28978965Y-60169048D01*
X28978958Y-60169058D01*
X28883476Y-60334438D01*
X28883473Y-60334445D01*
X28824457Y-60516072D01*
X28804496Y-60706000D01*
X28824457Y-60895927D01*
X28854526Y-60988470D01*
X28883473Y-61077556D01*
X28883476Y-61077561D01*
X28978958Y-61242941D01*
X28978965Y-61242951D01*
X29106744Y-61384864D01*
X29106747Y-61384866D01*
X29261248Y-61497118D01*
X29435712Y-61574794D01*
X29622513Y-61614500D01*
X29813487Y-61614500D01*
X30000288Y-61574794D01*
X30174752Y-61497118D01*
X30329253Y-61384866D01*
X30329255Y-61384864D01*
X30457034Y-61242951D01*
X30457035Y-61242949D01*
X30457040Y-61242944D01*
X30552527Y-61077556D01*
X30611542Y-60895928D01*
X30631504Y-60706000D01*
X30631016Y-60701356D01*
X34133852Y-60701356D01*
X34153813Y-60891283D01*
X34183882Y-60983826D01*
X34212829Y-61072912D01*
X34212832Y-61072917D01*
X34308314Y-61238297D01*
X34308321Y-61238307D01*
X34436100Y-61380220D01*
X34436103Y-61380222D01*
X34590604Y-61492474D01*
X34765068Y-61570150D01*
X34951869Y-61609856D01*
X35142843Y-61609856D01*
X35329644Y-61570150D01*
X35504108Y-61492474D01*
X35658609Y-61380222D01*
X35658611Y-61380220D01*
X35786390Y-61238307D01*
X35786391Y-61238305D01*
X35786396Y-61238300D01*
X35881883Y-61072912D01*
X35940898Y-60891284D01*
X35960860Y-60701356D01*
X35940898Y-60511428D01*
X35881883Y-60329800D01*
X35805788Y-60198000D01*
X46076496Y-60198000D01*
X46096457Y-60387927D01*
X46126526Y-60480470D01*
X46155473Y-60569556D01*
X46155476Y-60569561D01*
X46250958Y-60734941D01*
X46250965Y-60734951D01*
X46378744Y-60876864D01*
X46404982Y-60895927D01*
X46533248Y-60989118D01*
X46707712Y-61066794D01*
X46894513Y-61106500D01*
X47085487Y-61106500D01*
X47272288Y-61066794D01*
X47446752Y-60989118D01*
X47601253Y-60876866D01*
X47729040Y-60734944D01*
X47824527Y-60569556D01*
X47883542Y-60387928D01*
X47903504Y-60198000D01*
X47883542Y-60008072D01*
X47824527Y-59826444D01*
X47745751Y-59690000D01*
X74016496Y-59690000D01*
X74036457Y-59879927D01*
X74046306Y-59910238D01*
X74095473Y-60061556D01*
X74095476Y-60061561D01*
X74190958Y-60226941D01*
X74190965Y-60226951D01*
X74318744Y-60368864D01*
X74318747Y-60368866D01*
X74473248Y-60481118D01*
X74647712Y-60558794D01*
X74834513Y-60598500D01*
X75025487Y-60598500D01*
X75212288Y-60558794D01*
X75386752Y-60481118D01*
X75541253Y-60368866D01*
X75669040Y-60226944D01*
X75764527Y-60061556D01*
X75823542Y-59879928D01*
X75843504Y-59690000D01*
X75823542Y-59500072D01*
X75764527Y-59318444D01*
X75669040Y-59153056D01*
X75669038Y-59153054D01*
X75669034Y-59153048D01*
X75541255Y-59011135D01*
X75386752Y-58898882D01*
X75212288Y-58821206D01*
X75025487Y-58781500D01*
X74834513Y-58781500D01*
X74647711Y-58821206D01*
X74473247Y-58898882D01*
X74318744Y-59011135D01*
X74190965Y-59153048D01*
X74190958Y-59153058D01*
X74095476Y-59318438D01*
X74095473Y-59318445D01*
X74036457Y-59500072D01*
X74016496Y-59690000D01*
X47745751Y-59690000D01*
X47729040Y-59661056D01*
X47729038Y-59661054D01*
X47729034Y-59661048D01*
X47601255Y-59519135D01*
X47446752Y-59406882D01*
X47272288Y-59329206D01*
X47085487Y-59289500D01*
X46894513Y-59289500D01*
X46707711Y-59329206D01*
X46533247Y-59406882D01*
X46378744Y-59519135D01*
X46250965Y-59661048D01*
X46250958Y-59661058D01*
X46155476Y-59826438D01*
X46155473Y-59826445D01*
X46096457Y-60008072D01*
X46076496Y-60198000D01*
X35805788Y-60198000D01*
X35786396Y-60164412D01*
X35786394Y-60164410D01*
X35786390Y-60164404D01*
X35658611Y-60022491D01*
X35504108Y-59910238D01*
X35329644Y-59832562D01*
X35142843Y-59792856D01*
X34951869Y-59792856D01*
X34765067Y-59832562D01*
X34590603Y-59910238D01*
X34436100Y-60022491D01*
X34308321Y-60164404D01*
X34308314Y-60164414D01*
X34212832Y-60329794D01*
X34212829Y-60329801D01*
X34153813Y-60511428D01*
X34133852Y-60701356D01*
X30631016Y-60701356D01*
X30611542Y-60516072D01*
X30552527Y-60334444D01*
X30457040Y-60169056D01*
X30457038Y-60169054D01*
X30457034Y-60169048D01*
X30329255Y-60027135D01*
X30174752Y-59914882D01*
X30049565Y-59859145D01*
X29995469Y-59813164D01*
X29974820Y-59745237D01*
X29994173Y-59676929D01*
X30026752Y-59642104D01*
X30075253Y-59606866D01*
X30123249Y-59553561D01*
X30203034Y-59464951D01*
X30203035Y-59464949D01*
X30203040Y-59464944D01*
X30298527Y-59299556D01*
X30357542Y-59117928D01*
X30377504Y-58928000D01*
X30357542Y-58738072D01*
X30298527Y-58556444D01*
X30203040Y-58391056D01*
X30203038Y-58391054D01*
X30203034Y-58391048D01*
X30075255Y-58249135D01*
X29920752Y-58136882D01*
X29746288Y-58059206D01*
X29559487Y-58019500D01*
X29368513Y-58019500D01*
X29181711Y-58059206D01*
X29007247Y-58136882D01*
X28852744Y-58249135D01*
X28724965Y-58391048D01*
X28724958Y-58391058D01*
X28629476Y-58556438D01*
X28629473Y-58556445D01*
X28570457Y-58738072D01*
X28550496Y-58928000D01*
X14842724Y-58928000D01*
X14804527Y-58810444D01*
X14709040Y-58645056D01*
X14709038Y-58645054D01*
X14709034Y-58645048D01*
X14581255Y-58503135D01*
X14426752Y-58390882D01*
X14252288Y-58313206D01*
X14065487Y-58273500D01*
X13874513Y-58273500D01*
X13687711Y-58313206D01*
X13513247Y-58390882D01*
X13358744Y-58503135D01*
X13230965Y-58645048D01*
X13230958Y-58645058D01*
X13135476Y-58810438D01*
X13135473Y-58810445D01*
X13076457Y-58992072D01*
X13056496Y-59182000D01*
X9652000Y-59182000D01*
X9652000Y-55743402D01*
X12866000Y-55743402D01*
X12866000Y-56388000D01*
X13793297Y-56388000D01*
X13758075Y-56449007D01*
X13724000Y-56576174D01*
X13724000Y-56707826D01*
X13758075Y-56834993D01*
X13793297Y-56896000D01*
X12866000Y-56896000D01*
X12866000Y-57540597D01*
X12872505Y-57601093D01*
X12923555Y-57737964D01*
X12923555Y-57737965D01*
X13011095Y-57854904D01*
X13128034Y-57942444D01*
X13264906Y-57993494D01*
X13325402Y-57999999D01*
X13325415Y-58000000D01*
X13970000Y-58000000D01*
X13970000Y-57072702D01*
X14031007Y-57107925D01*
X14158174Y-57142000D01*
X14289826Y-57142000D01*
X14416993Y-57107925D01*
X14478000Y-57072702D01*
X14478000Y-58000000D01*
X15122585Y-58000000D01*
X15122597Y-57999999D01*
X15183093Y-57993494D01*
X15319964Y-57942444D01*
X15319965Y-57942444D01*
X15436904Y-57854904D01*
X15524444Y-57737965D01*
X15568618Y-57619530D01*
X15611165Y-57562694D01*
X15677685Y-57537883D01*
X15747059Y-57552974D01*
X15779372Y-57578222D01*
X15800427Y-57601093D01*
X15840762Y-57644908D01*
X15875936Y-57672285D01*
X16018424Y-57783189D01*
X16216426Y-57890342D01*
X16216427Y-57890342D01*
X16216428Y-57890343D01*
X16328227Y-57928723D01*
X16429365Y-57963444D01*
X16651431Y-58000500D01*
X16651435Y-58000500D01*
X16876565Y-58000500D01*
X16876569Y-58000500D01*
X17098635Y-57963444D01*
X17311574Y-57890342D01*
X17509576Y-57783189D01*
X17687240Y-57644906D01*
X17839722Y-57479268D01*
X17928518Y-57343354D01*
X17982520Y-57297268D01*
X18052868Y-57287692D01*
X18117225Y-57317669D01*
X18139480Y-57343353D01*
X18172607Y-57394058D01*
X18228275Y-57479265D01*
X18228279Y-57479270D01*
X18380762Y-57644908D01*
X18415936Y-57672285D01*
X18558424Y-57783189D01*
X18756426Y-57890342D01*
X18756427Y-57890342D01*
X18756428Y-57890343D01*
X18868227Y-57928723D01*
X18969365Y-57963444D01*
X19191431Y-58000500D01*
X19191435Y-58000500D01*
X19416565Y-58000500D01*
X19416569Y-58000500D01*
X19638635Y-57963444D01*
X19851574Y-57890342D01*
X20049576Y-57783189D01*
X20227240Y-57644906D01*
X20379722Y-57479268D01*
X20468518Y-57343354D01*
X20522520Y-57297268D01*
X20592868Y-57287692D01*
X20657225Y-57317669D01*
X20679480Y-57343353D01*
X20712607Y-57394058D01*
X20768275Y-57479265D01*
X20768279Y-57479270D01*
X20920762Y-57644908D01*
X20955936Y-57672285D01*
X21098424Y-57783189D01*
X21296426Y-57890342D01*
X21296427Y-57890342D01*
X21296428Y-57890343D01*
X21408227Y-57928723D01*
X21509365Y-57963444D01*
X21731431Y-58000500D01*
X21731435Y-58000500D01*
X21956565Y-58000500D01*
X21956569Y-58000500D01*
X22178635Y-57963444D01*
X22391574Y-57890342D01*
X22589576Y-57783189D01*
X22767240Y-57644906D01*
X22919722Y-57479268D01*
X23008518Y-57343354D01*
X23062520Y-57297268D01*
X23132868Y-57287692D01*
X23197225Y-57317669D01*
X23219480Y-57343353D01*
X23252607Y-57394058D01*
X23308275Y-57479265D01*
X23308279Y-57479270D01*
X23460762Y-57644908D01*
X23495936Y-57672285D01*
X23638424Y-57783189D01*
X23836426Y-57890342D01*
X23836427Y-57890342D01*
X23836428Y-57890343D01*
X23948227Y-57928723D01*
X24049365Y-57963444D01*
X24271431Y-58000500D01*
X24271435Y-58000500D01*
X24496565Y-58000500D01*
X24496569Y-58000500D01*
X24718635Y-57963444D01*
X24931574Y-57890342D01*
X25129576Y-57783189D01*
X25307240Y-57644906D01*
X25459722Y-57479268D01*
X25582860Y-57290791D01*
X25673296Y-57084616D01*
X25728564Y-56866368D01*
X25747156Y-56642000D01*
X25728564Y-56417632D01*
X25718638Y-56378434D01*
X25673297Y-56199387D01*
X25673296Y-56199386D01*
X25673296Y-56199384D01*
X25582860Y-55993209D01*
X25576140Y-55982924D01*
X25459724Y-55804734D01*
X25459720Y-55804729D01*
X25307237Y-55639091D01*
X25290418Y-55626000D01*
X50477289Y-55626000D01*
X51581562Y-55626000D01*
X51557482Y-55667708D01*
X51520000Y-55807591D01*
X51520000Y-55952409D01*
X51557482Y-56092292D01*
X51581562Y-56134000D01*
X50477289Y-56134000D01*
X50535971Y-56378434D01*
X50632830Y-56612272D01*
X50765077Y-56828079D01*
X50929457Y-57020542D01*
X51121920Y-57184922D01*
X51337727Y-57317169D01*
X51571565Y-57414028D01*
X51816000Y-57472710D01*
X51816000Y-56368438D01*
X51857708Y-56392518D01*
X51997591Y-56430000D01*
X52142409Y-56430000D01*
X52282292Y-56392518D01*
X52324000Y-56368438D01*
X52324000Y-57472709D01*
X52568434Y-57414028D01*
X52802272Y-57317169D01*
X53018079Y-57184922D01*
X53058967Y-57150000D01*
X100686496Y-57150000D01*
X100706457Y-57339927D01*
X100730535Y-57414028D01*
X100765473Y-57521556D01*
X100765476Y-57521561D01*
X100860958Y-57686941D01*
X100860965Y-57686951D01*
X100988744Y-57828864D01*
X100988747Y-57828866D01*
X101143248Y-57941118D01*
X101317712Y-58018794D01*
X101504513Y-58058500D01*
X101695487Y-58058500D01*
X101882288Y-58018794D01*
X102056752Y-57941118D01*
X102211253Y-57828866D01*
X102293101Y-57737965D01*
X102339034Y-57686951D01*
X102339035Y-57686949D01*
X102339040Y-57686944D01*
X102434527Y-57521556D01*
X102493542Y-57339928D01*
X102513504Y-57150000D01*
X102493542Y-56960072D01*
X102434527Y-56778444D01*
X102339040Y-56613056D01*
X102339038Y-56613054D01*
X102339034Y-56613048D01*
X102255892Y-56520709D01*
X118037500Y-56520709D01*
X118037500Y-56763290D01*
X118069160Y-57003782D01*
X118131944Y-57238095D01*
X118131945Y-57238097D01*
X118131946Y-57238100D01*
X118224776Y-57462212D01*
X118224777Y-57462213D01*
X118224782Y-57462224D01*
X118346061Y-57672285D01*
X118346063Y-57672288D01*
X118346064Y-57672289D01*
X118493735Y-57864738D01*
X118493739Y-57864742D01*
X118493744Y-57864748D01*
X118665251Y-58036255D01*
X118665256Y-58036259D01*
X118665262Y-58036265D01*
X118857711Y-58183936D01*
X118857714Y-58183938D01*
X119067775Y-58305217D01*
X119067779Y-58305218D01*
X119067788Y-58305224D01*
X119291900Y-58398054D01*
X119526211Y-58460838D01*
X119526215Y-58460838D01*
X119526217Y-58460839D01*
X119588202Y-58468999D01*
X119766712Y-58492500D01*
X119766719Y-58492500D01*
X120009281Y-58492500D01*
X120009288Y-58492500D01*
X120226637Y-58463885D01*
X120249782Y-58460839D01*
X120249782Y-58460838D01*
X120249789Y-58460838D01*
X120484100Y-58398054D01*
X120708212Y-58305224D01*
X120918289Y-58183936D01*
X121110738Y-58036265D01*
X121282265Y-57864738D01*
X121429936Y-57672289D01*
X121551224Y-57462212D01*
X121644054Y-57238100D01*
X121706838Y-57003789D01*
X121738500Y-56763288D01*
X121738500Y-56520712D01*
X121706838Y-56280211D01*
X121644054Y-56045900D01*
X121551224Y-55821788D01*
X121551218Y-55821779D01*
X121551217Y-55821775D01*
X121429938Y-55611714D01*
X121379540Y-55546034D01*
X121282265Y-55419262D01*
X121282259Y-55419256D01*
X121282255Y-55419251D01*
X121110748Y-55247744D01*
X121110742Y-55247739D01*
X121110738Y-55247735D01*
X120918289Y-55100064D01*
X120918288Y-55100063D01*
X120918285Y-55100061D01*
X120708224Y-54978782D01*
X120708216Y-54978778D01*
X120708212Y-54978776D01*
X120484100Y-54885946D01*
X120484097Y-54885945D01*
X120484095Y-54885944D01*
X120249782Y-54823160D01*
X120009290Y-54791500D01*
X120009288Y-54791500D01*
X119766712Y-54791500D01*
X119766709Y-54791500D01*
X119526217Y-54823160D01*
X119291904Y-54885944D01*
X119291900Y-54885946D01*
X119235205Y-54909430D01*
X119067786Y-54978777D01*
X119067775Y-54978782D01*
X118857714Y-55100061D01*
X118665262Y-55247735D01*
X118665251Y-55247744D01*
X118493744Y-55419251D01*
X118493735Y-55419262D01*
X118346061Y-55611714D01*
X118224782Y-55821775D01*
X118224777Y-55821786D01*
X118131946Y-56045900D01*
X118131944Y-56045904D01*
X118069160Y-56280217D01*
X118037500Y-56520709D01*
X102255892Y-56520709D01*
X102211255Y-56471135D01*
X102056752Y-56358882D01*
X101882288Y-56281206D01*
X101695487Y-56241500D01*
X101504513Y-56241500D01*
X101317711Y-56281206D01*
X101143247Y-56358882D01*
X100988744Y-56471135D01*
X100860965Y-56613048D01*
X100860958Y-56613058D01*
X100765476Y-56778438D01*
X100765473Y-56778445D01*
X100706457Y-56960072D01*
X100686496Y-57150000D01*
X53058967Y-57150000D01*
X53210542Y-57020542D01*
X53374922Y-56828079D01*
X53507169Y-56612272D01*
X53604028Y-56378434D01*
X53662711Y-56134000D01*
X52558438Y-56134000D01*
X52582518Y-56092292D01*
X52620000Y-55952409D01*
X52620000Y-55807591D01*
X52582518Y-55667708D01*
X52558438Y-55626000D01*
X53662711Y-55626000D01*
X53604028Y-55381565D01*
X53507169Y-55147727D01*
X53374922Y-54931920D01*
X53210542Y-54739457D01*
X53018079Y-54575077D01*
X52802272Y-54442830D01*
X52568434Y-54345971D01*
X52324000Y-54287288D01*
X52324000Y-55391561D01*
X52282292Y-55367482D01*
X52142409Y-55330000D01*
X51997591Y-55330000D01*
X51857708Y-55367482D01*
X51816000Y-55391561D01*
X51816000Y-54287288D01*
X51571565Y-54345971D01*
X51337727Y-54442830D01*
X51121920Y-54575077D01*
X50929457Y-54739457D01*
X50765077Y-54931920D01*
X50632830Y-55147727D01*
X50535971Y-55381565D01*
X50477289Y-55626000D01*
X25290418Y-55626000D01*
X25187679Y-55546035D01*
X25129576Y-55500811D01*
X24931574Y-55393658D01*
X24931572Y-55393657D01*
X24931571Y-55393656D01*
X24718639Y-55320557D01*
X24718630Y-55320555D01*
X24674476Y-55313187D01*
X24496569Y-55283500D01*
X24271431Y-55283500D01*
X24123211Y-55308233D01*
X24049369Y-55320555D01*
X24049360Y-55320557D01*
X23836428Y-55393656D01*
X23836426Y-55393658D01*
X23750997Y-55439890D01*
X23638426Y-55500810D01*
X23638424Y-55500811D01*
X23460762Y-55639091D01*
X23308279Y-55804729D01*
X23219483Y-55940643D01*
X23165479Y-55986731D01*
X23095131Y-55996306D01*
X23030774Y-55966329D01*
X23008517Y-55940643D01*
X22919720Y-55804729D01*
X22767237Y-55639091D01*
X22647679Y-55546035D01*
X22589576Y-55500811D01*
X22391574Y-55393658D01*
X22391572Y-55393657D01*
X22391571Y-55393656D01*
X22178639Y-55320557D01*
X22178630Y-55320555D01*
X22134476Y-55313187D01*
X21956569Y-55283500D01*
X21731431Y-55283500D01*
X21583211Y-55308233D01*
X21509369Y-55320555D01*
X21509360Y-55320557D01*
X21296428Y-55393656D01*
X21296426Y-55393658D01*
X21210997Y-55439890D01*
X21098426Y-55500810D01*
X21098424Y-55500811D01*
X20920762Y-55639091D01*
X20768279Y-55804729D01*
X20679483Y-55940643D01*
X20625479Y-55986731D01*
X20555131Y-55996306D01*
X20490774Y-55966329D01*
X20468517Y-55940643D01*
X20379720Y-55804729D01*
X20227237Y-55639091D01*
X20107679Y-55546035D01*
X20049576Y-55500811D01*
X19851574Y-55393658D01*
X19851572Y-55393657D01*
X19851571Y-55393656D01*
X19638639Y-55320557D01*
X19638630Y-55320555D01*
X19594476Y-55313187D01*
X19416569Y-55283500D01*
X19191431Y-55283500D01*
X19043211Y-55308233D01*
X18969369Y-55320555D01*
X18969360Y-55320557D01*
X18756428Y-55393656D01*
X18756426Y-55393658D01*
X18670997Y-55439890D01*
X18558426Y-55500810D01*
X18558424Y-55500811D01*
X18380762Y-55639091D01*
X18228279Y-55804729D01*
X18139483Y-55940643D01*
X18085479Y-55986731D01*
X18015131Y-55996306D01*
X17950774Y-55966329D01*
X17928517Y-55940643D01*
X17839720Y-55804729D01*
X17687237Y-55639091D01*
X17567679Y-55546035D01*
X17509576Y-55500811D01*
X17311574Y-55393658D01*
X17311572Y-55393657D01*
X17311571Y-55393656D01*
X17098639Y-55320557D01*
X17098630Y-55320555D01*
X17054476Y-55313187D01*
X16876569Y-55283500D01*
X16651431Y-55283500D01*
X16503211Y-55308233D01*
X16429369Y-55320555D01*
X16429360Y-55320557D01*
X16216428Y-55393656D01*
X16216426Y-55393658D01*
X16130997Y-55439890D01*
X16018426Y-55500810D01*
X16018424Y-55500811D01*
X15840759Y-55639094D01*
X15779374Y-55705775D01*
X15718521Y-55742346D01*
X15647557Y-55740211D01*
X15589012Y-55700049D01*
X15568618Y-55664470D01*
X15524443Y-55546033D01*
X15436904Y-55429095D01*
X15319965Y-55341555D01*
X15183093Y-55290505D01*
X15122597Y-55284000D01*
X14478000Y-55284000D01*
X14478000Y-56211297D01*
X14416993Y-56176075D01*
X14289826Y-56142000D01*
X14158174Y-56142000D01*
X14031007Y-56176075D01*
X13970000Y-56211297D01*
X13970000Y-55284000D01*
X13325402Y-55284000D01*
X13264906Y-55290505D01*
X13128035Y-55341555D01*
X13128034Y-55341555D01*
X13011095Y-55429095D01*
X12923555Y-55546034D01*
X12923555Y-55546035D01*
X12872505Y-55682906D01*
X12866000Y-55743402D01*
X9652000Y-55743402D01*
X9652000Y-54040637D01*
X30912739Y-54040637D01*
X30932700Y-54230564D01*
X30962769Y-54323107D01*
X30991716Y-54412193D01*
X30991719Y-54412198D01*
X31087201Y-54577578D01*
X31087208Y-54577588D01*
X31214987Y-54719501D01*
X31214990Y-54719503D01*
X31369491Y-54831755D01*
X31543955Y-54909431D01*
X31730756Y-54949137D01*
X31921730Y-54949137D01*
X32108531Y-54909431D01*
X32282995Y-54831755D01*
X32437496Y-54719503D01*
X32565283Y-54577581D01*
X32660770Y-54412193D01*
X32719785Y-54230565D01*
X32739747Y-54040637D01*
X32719785Y-53850709D01*
X32660770Y-53669081D01*
X32565283Y-53503693D01*
X32565281Y-53503691D01*
X32565277Y-53503685D01*
X32437498Y-53361772D01*
X32407531Y-53340000D01*
X142596496Y-53340000D01*
X142616457Y-53529927D01*
X142630734Y-53573866D01*
X142675473Y-53711556D01*
X142675476Y-53711561D01*
X142770958Y-53876941D01*
X142770965Y-53876951D01*
X142898744Y-54018864D01*
X142898747Y-54018866D01*
X143053248Y-54131118D01*
X143227712Y-54208794D01*
X143414513Y-54248500D01*
X143605487Y-54248500D01*
X143792288Y-54208794D01*
X143966752Y-54131118D01*
X144121253Y-54018866D01*
X144249040Y-53876944D01*
X144344527Y-53711556D01*
X144403542Y-53529928D01*
X144423504Y-53340000D01*
X144403542Y-53150072D01*
X144344527Y-52968444D01*
X144249040Y-52803056D01*
X144249038Y-52803054D01*
X144249034Y-52803048D01*
X144121255Y-52661135D01*
X144006829Y-52578000D01*
X161900496Y-52578000D01*
X161920457Y-52767927D01*
X161950526Y-52860470D01*
X161979473Y-52949556D01*
X161979476Y-52949561D01*
X162074958Y-53114941D01*
X162074965Y-53114951D01*
X162202744Y-53256864D01*
X162202747Y-53256866D01*
X162357248Y-53369118D01*
X162531712Y-53446794D01*
X162718513Y-53486500D01*
X162909487Y-53486500D01*
X163096288Y-53446794D01*
X163270752Y-53369118D01*
X163425253Y-53256866D01*
X163521411Y-53150072D01*
X163553034Y-53114951D01*
X163553035Y-53114949D01*
X163553040Y-53114944D01*
X163648527Y-52949556D01*
X163707542Y-52767928D01*
X163727504Y-52578000D01*
X163707542Y-52388072D01*
X163686724Y-52324000D01*
X168250496Y-52324000D01*
X168270457Y-52513927D01*
X168273550Y-52523445D01*
X168329473Y-52695556D01*
X168329476Y-52695561D01*
X168424958Y-52860941D01*
X168424965Y-52860951D01*
X168552744Y-53002864D01*
X168552747Y-53002866D01*
X168707248Y-53115118D01*
X168881712Y-53192794D01*
X169068513Y-53232500D01*
X169259487Y-53232500D01*
X169446288Y-53192794D01*
X169620752Y-53115118D01*
X169775253Y-53002866D01*
X169823249Y-52949561D01*
X169903034Y-52860951D01*
X169903035Y-52860949D01*
X169903040Y-52860944D01*
X169998527Y-52695556D01*
X170057542Y-52513928D01*
X170077504Y-52324000D01*
X170057542Y-52134072D01*
X169998527Y-51952444D01*
X169903040Y-51787056D01*
X169903038Y-51787054D01*
X169903034Y-51787048D01*
X169775255Y-51645135D01*
X169620752Y-51532882D01*
X169446288Y-51455206D01*
X169259487Y-51415500D01*
X169068513Y-51415500D01*
X168881711Y-51455206D01*
X168707247Y-51532882D01*
X168552744Y-51645135D01*
X168424965Y-51787048D01*
X168424958Y-51787058D01*
X168329476Y-51952438D01*
X168329473Y-51952444D01*
X168314999Y-51996986D01*
X168270457Y-52134072D01*
X168250496Y-52324000D01*
X163686724Y-52324000D01*
X163648527Y-52206444D01*
X163553040Y-52041056D01*
X163553038Y-52041054D01*
X163553034Y-52041048D01*
X163425255Y-51899135D01*
X163270752Y-51786882D01*
X163096288Y-51709206D01*
X162909487Y-51669500D01*
X162718513Y-51669500D01*
X162531711Y-51709206D01*
X162357247Y-51786882D01*
X162202744Y-51899135D01*
X162074965Y-52041048D01*
X162074958Y-52041058D01*
X161979476Y-52206438D01*
X161979473Y-52206445D01*
X161920457Y-52388072D01*
X161900496Y-52578000D01*
X144006829Y-52578000D01*
X143966752Y-52548882D01*
X143792288Y-52471206D01*
X143605487Y-52431500D01*
X143414513Y-52431500D01*
X143227711Y-52471206D01*
X143053247Y-52548882D01*
X142898744Y-52661135D01*
X142770965Y-52803048D01*
X142770958Y-52803058D01*
X142675476Y-52968438D01*
X142675473Y-52968445D01*
X142616457Y-53150072D01*
X142596496Y-53340000D01*
X32407531Y-53340000D01*
X32282995Y-53249519D01*
X32108531Y-53171843D01*
X31921730Y-53132137D01*
X31730756Y-53132137D01*
X31543954Y-53171843D01*
X31369490Y-53249519D01*
X31214987Y-53361772D01*
X31087208Y-53503685D01*
X31087201Y-53503695D01*
X30991719Y-53669075D01*
X30991716Y-53669082D01*
X30932700Y-53850709D01*
X30912739Y-54040637D01*
X9652000Y-54040637D01*
X9652000Y-52895000D01*
X16866496Y-52895000D01*
X16886457Y-53084927D01*
X16896213Y-53114951D01*
X16945473Y-53266556D01*
X16945476Y-53266561D01*
X17040958Y-53431941D01*
X17040965Y-53431951D01*
X17168744Y-53573864D01*
X17168747Y-53573866D01*
X17323248Y-53686118D01*
X17497712Y-53763794D01*
X17684513Y-53803500D01*
X17875487Y-53803500D01*
X18062288Y-53763794D01*
X18236752Y-53686118D01*
X18391253Y-53573866D01*
X18519040Y-53431944D01*
X18614527Y-53266556D01*
X18673542Y-53084928D01*
X18693504Y-52895000D01*
X18673542Y-52705072D01*
X18614527Y-52523444D01*
X18519040Y-52358056D01*
X18519038Y-52358054D01*
X18519034Y-52358048D01*
X18391255Y-52216135D01*
X18236752Y-52103882D01*
X18062288Y-52026206D01*
X17875487Y-51986500D01*
X17684513Y-51986500D01*
X17497711Y-52026206D01*
X17323247Y-52103882D01*
X17168744Y-52216135D01*
X17040965Y-52358048D01*
X17040958Y-52358058D01*
X16945476Y-52523438D01*
X16945473Y-52523445D01*
X16886457Y-52705072D01*
X16866496Y-52895000D01*
X9652000Y-52895000D01*
X9652000Y-50546000D01*
X22200496Y-50546000D01*
X22220457Y-50735927D01*
X22238709Y-50792099D01*
X22279473Y-50917556D01*
X22279476Y-50917561D01*
X22374958Y-51082941D01*
X22374965Y-51082951D01*
X22502744Y-51224864D01*
X22563999Y-51269368D01*
X22657248Y-51337118D01*
X22831712Y-51414794D01*
X23018513Y-51454500D01*
X23209487Y-51454500D01*
X23396288Y-51414794D01*
X23570752Y-51337118D01*
X23725253Y-51224866D01*
X23843665Y-51093356D01*
X23853034Y-51082951D01*
X23853035Y-51082949D01*
X23853040Y-51082944D01*
X23948527Y-50917556D01*
X24007542Y-50735928D01*
X24025611Y-50564002D01*
X24052624Y-50498348D01*
X24110845Y-50457718D01*
X24181790Y-50455015D01*
X24242935Y-50491097D01*
X24270754Y-50538238D01*
X24280587Y-50568500D01*
X24311473Y-50663556D01*
X24311476Y-50663561D01*
X24406958Y-50828941D01*
X24406965Y-50828951D01*
X24534744Y-50970864D01*
X24534747Y-50970866D01*
X24689248Y-51083118D01*
X24863712Y-51160794D01*
X25050513Y-51200500D01*
X25241487Y-51200500D01*
X25428288Y-51160794D01*
X25602752Y-51083118D01*
X25757253Y-50970866D01*
X25805249Y-50917561D01*
X25885034Y-50828951D01*
X25885035Y-50828949D01*
X25885040Y-50828944D01*
X25980527Y-50663556D01*
X26039542Y-50481928D01*
X26059504Y-50292000D01*
X26039542Y-50102072D01*
X25980527Y-49920444D01*
X25885040Y-49755056D01*
X25885038Y-49755054D01*
X25885034Y-49755048D01*
X25757255Y-49613135D01*
X25602752Y-49500882D01*
X25428288Y-49423206D01*
X25241487Y-49383500D01*
X25050513Y-49383500D01*
X24863711Y-49423206D01*
X24689247Y-49500882D01*
X24534744Y-49613135D01*
X24406965Y-49755048D01*
X24406958Y-49755058D01*
X24311476Y-49920438D01*
X24311473Y-49920444D01*
X24302070Y-49949384D01*
X24252457Y-50102072D01*
X24234388Y-50273995D01*
X24207375Y-50339651D01*
X24149153Y-50380281D01*
X24078208Y-50382984D01*
X24017064Y-50346902D01*
X23989245Y-50299761D01*
X23948527Y-50174444D01*
X23853040Y-50009056D01*
X23853038Y-50009054D01*
X23853034Y-50009048D01*
X23725255Y-49867135D01*
X23570752Y-49754882D01*
X23396288Y-49677206D01*
X23209487Y-49637500D01*
X23018513Y-49637500D01*
X22831711Y-49677206D01*
X22657247Y-49754882D01*
X22502744Y-49867135D01*
X22374965Y-50009048D01*
X22374958Y-50009058D01*
X22279476Y-50174438D01*
X22279473Y-50174444D01*
X22272163Y-50196941D01*
X22220457Y-50356072D01*
X22200496Y-50546000D01*
X9652000Y-50546000D01*
X9652000Y-48515999D01*
X11083976Y-48515999D01*
X11083976Y-48516000D01*
X11901140Y-48516000D01*
X11876995Y-48529940D01*
X11821140Y-48585795D01*
X11781644Y-48654204D01*
X11761200Y-48730504D01*
X11761200Y-48809496D01*
X11781644Y-48885796D01*
X11821140Y-48954205D01*
X11876995Y-49010060D01*
X11901140Y-49024000D01*
X11083976Y-49024000D01*
X11091937Y-49064023D01*
X11091939Y-49064028D01*
X11167922Y-49247466D01*
X11278232Y-49412557D01*
X11278237Y-49412564D01*
X11418635Y-49552962D01*
X11418642Y-49552967D01*
X11583733Y-49663277D01*
X11767171Y-49739260D01*
X11767176Y-49739262D01*
X11961918Y-49777999D01*
X11961922Y-49778000D01*
X12207200Y-49778000D01*
X12207200Y-49070000D01*
X12715200Y-49070000D01*
X12715200Y-49778000D01*
X12960478Y-49778000D01*
X12960481Y-49777999D01*
X13155223Y-49739262D01*
X13155228Y-49739260D01*
X13338666Y-49663277D01*
X13503757Y-49552967D01*
X13503764Y-49552962D01*
X13644162Y-49412564D01*
X13644167Y-49412557D01*
X13754477Y-49247466D01*
X13830460Y-49064028D01*
X13830462Y-49064023D01*
X13838424Y-49024000D01*
X13021260Y-49024000D01*
X13045405Y-49010060D01*
X13101260Y-48954205D01*
X13140756Y-48885796D01*
X13161200Y-48809496D01*
X13161200Y-48730504D01*
X13140756Y-48654204D01*
X13101260Y-48585795D01*
X13045405Y-48529940D01*
X13021260Y-48516000D01*
X13838424Y-48516000D01*
X13838423Y-48515999D01*
X15083976Y-48515999D01*
X15083976Y-48516000D01*
X15901140Y-48516000D01*
X15876995Y-48529940D01*
X15821140Y-48585795D01*
X15781644Y-48654204D01*
X15761200Y-48730504D01*
X15761200Y-48809496D01*
X15781644Y-48885796D01*
X15821140Y-48954205D01*
X15876995Y-49010060D01*
X15901140Y-49024000D01*
X15083976Y-49024000D01*
X15091937Y-49064023D01*
X15091939Y-49064028D01*
X15167922Y-49247466D01*
X15278232Y-49412557D01*
X15278237Y-49412564D01*
X15418635Y-49552962D01*
X15418642Y-49552967D01*
X15583733Y-49663277D01*
X15767171Y-49739260D01*
X15767176Y-49739262D01*
X15961918Y-49777999D01*
X15961922Y-49778000D01*
X16357200Y-49778000D01*
X16357200Y-49070000D01*
X16865200Y-49070000D01*
X16865200Y-49778000D01*
X17260478Y-49778000D01*
X17260481Y-49777999D01*
X17455223Y-49739262D01*
X17455228Y-49739260D01*
X17638666Y-49663277D01*
X17803757Y-49552967D01*
X17803764Y-49552962D01*
X17944162Y-49412564D01*
X17944167Y-49412557D01*
X18002670Y-49325001D01*
X38661495Y-49325001D01*
X38681456Y-49514928D01*
X38695614Y-49558500D01*
X38740472Y-49696557D01*
X38740475Y-49696562D01*
X38835957Y-49861942D01*
X38835964Y-49861952D01*
X38963743Y-50003865D01*
X38963746Y-50003867D01*
X39118247Y-50116119D01*
X39292711Y-50193795D01*
X39479512Y-50233501D01*
X39670486Y-50233501D01*
X39857287Y-50193795D01*
X40031751Y-50116119D01*
X40186252Y-50003867D01*
X40256296Y-49926075D01*
X40314033Y-49861952D01*
X40314034Y-49861950D01*
X40314039Y-49861945D01*
X40409526Y-49696557D01*
X40468541Y-49514929D01*
X40470804Y-49493402D01*
X43092000Y-49493402D01*
X43092000Y-50138000D01*
X44019297Y-50138000D01*
X43984075Y-50199007D01*
X43950000Y-50326174D01*
X43950000Y-50457826D01*
X43984075Y-50584993D01*
X44019297Y-50646000D01*
X43092000Y-50646000D01*
X43092000Y-51290597D01*
X43098505Y-51351093D01*
X43149555Y-51487964D01*
X43149555Y-51487965D01*
X43237095Y-51604904D01*
X43354034Y-51692444D01*
X43490906Y-51743494D01*
X43551402Y-51749999D01*
X43551415Y-51750000D01*
X44196000Y-51750000D01*
X44196000Y-50822702D01*
X44257007Y-50857925D01*
X44384174Y-50892000D01*
X44515826Y-50892000D01*
X44642993Y-50857925D01*
X44704000Y-50822702D01*
X44704000Y-51750000D01*
X45348585Y-51750000D01*
X45348597Y-51749999D01*
X45409093Y-51743494D01*
X45545964Y-51692444D01*
X45545965Y-51692444D01*
X45662904Y-51604904D01*
X45750444Y-51487965D01*
X45794618Y-51369530D01*
X45837165Y-51312694D01*
X45903685Y-51287883D01*
X45973059Y-51302974D01*
X46005372Y-51328222D01*
X46026427Y-51351093D01*
X46066762Y-51394908D01*
X46092312Y-51414794D01*
X46244424Y-51533189D01*
X46442426Y-51640342D01*
X46442427Y-51640342D01*
X46442428Y-51640343D01*
X46527360Y-51669500D01*
X46655365Y-51713444D01*
X46877431Y-51750500D01*
X46877435Y-51750500D01*
X47102565Y-51750500D01*
X47102569Y-51750500D01*
X47324635Y-51713444D01*
X47537574Y-51640342D01*
X47735576Y-51533189D01*
X47913240Y-51394906D01*
X48065722Y-51229268D01*
X48154518Y-51093354D01*
X48208520Y-51047268D01*
X48278868Y-51037692D01*
X48343225Y-51067669D01*
X48365480Y-51093353D01*
X48398607Y-51144058D01*
X48454275Y-51229265D01*
X48454279Y-51229270D01*
X48606762Y-51394908D01*
X48632312Y-51414794D01*
X48784424Y-51533189D01*
X48982426Y-51640342D01*
X48982427Y-51640342D01*
X48982428Y-51640343D01*
X49067360Y-51669500D01*
X49195365Y-51713444D01*
X49417431Y-51750500D01*
X49417435Y-51750500D01*
X49642565Y-51750500D01*
X49642569Y-51750500D01*
X49864635Y-51713444D01*
X50077574Y-51640342D01*
X50275576Y-51533189D01*
X50453240Y-51394906D01*
X50605722Y-51229268D01*
X50728860Y-51040791D01*
X50819296Y-50834616D01*
X50874564Y-50616368D01*
X50893156Y-50392000D01*
X50874564Y-50167632D01*
X50833093Y-50003867D01*
X50819297Y-49949387D01*
X50819296Y-49949386D01*
X50819296Y-49949384D01*
X50728860Y-49743209D01*
X50722140Y-49732924D01*
X50674497Y-49660000D01*
X149656496Y-49660000D01*
X149676457Y-49849927D01*
X149701200Y-49926075D01*
X149735473Y-50031556D01*
X149735476Y-50031561D01*
X149830958Y-50196941D01*
X149830965Y-50196951D01*
X149958744Y-50338864D01*
X149982429Y-50356072D01*
X150113248Y-50451118D01*
X150287712Y-50528794D01*
X150474513Y-50568500D01*
X150665487Y-50568500D01*
X150852288Y-50528794D01*
X151026752Y-50451118D01*
X151181253Y-50338866D01*
X151216463Y-50299761D01*
X151309034Y-50196951D01*
X151309035Y-50196949D01*
X151309040Y-50196944D01*
X151404527Y-50031556D01*
X151463542Y-49849928D01*
X151483504Y-49660000D01*
X151463542Y-49470072D01*
X151404527Y-49288444D01*
X151309040Y-49123056D01*
X151309038Y-49123054D01*
X151309034Y-49123048D01*
X151181255Y-48981135D01*
X151026752Y-48868882D01*
X150852288Y-48791206D01*
X150665487Y-48751500D01*
X150474513Y-48751500D01*
X150287711Y-48791206D01*
X150113247Y-48868882D01*
X149958744Y-48981135D01*
X149830965Y-49123048D01*
X149830958Y-49123058D01*
X149735476Y-49288438D01*
X149735473Y-49288445D01*
X149676457Y-49470072D01*
X149656496Y-49660000D01*
X50674497Y-49660000D01*
X50605724Y-49554734D01*
X50605720Y-49554729D01*
X50453237Y-49389091D01*
X50333679Y-49296035D01*
X50275576Y-49250811D01*
X50077574Y-49143658D01*
X50077572Y-49143657D01*
X50077571Y-49143656D01*
X49864639Y-49070557D01*
X49864630Y-49070555D01*
X49820476Y-49063187D01*
X49642569Y-49033500D01*
X49417431Y-49033500D01*
X49269211Y-49058233D01*
X49195369Y-49070555D01*
X49195360Y-49070557D01*
X48982428Y-49143656D01*
X48982426Y-49143658D01*
X48784426Y-49250810D01*
X48784424Y-49250811D01*
X48606762Y-49389091D01*
X48454279Y-49554729D01*
X48365483Y-49690643D01*
X48311479Y-49736731D01*
X48241131Y-49746306D01*
X48176774Y-49716329D01*
X48154517Y-49690643D01*
X48065720Y-49554729D01*
X47913237Y-49389091D01*
X47793679Y-49296035D01*
X47735576Y-49250811D01*
X47537574Y-49143658D01*
X47537572Y-49143657D01*
X47537571Y-49143656D01*
X47324639Y-49070557D01*
X47324630Y-49070555D01*
X47280476Y-49063187D01*
X47102569Y-49033500D01*
X46877431Y-49033500D01*
X46729211Y-49058233D01*
X46655369Y-49070555D01*
X46655360Y-49070557D01*
X46442428Y-49143656D01*
X46442426Y-49143658D01*
X46244426Y-49250810D01*
X46244424Y-49250811D01*
X46066759Y-49389094D01*
X46005374Y-49455775D01*
X45944521Y-49492346D01*
X45873557Y-49490211D01*
X45815012Y-49450049D01*
X45794618Y-49414470D01*
X45750443Y-49296033D01*
X45662904Y-49179095D01*
X45545965Y-49091555D01*
X45409093Y-49040505D01*
X45348597Y-49034000D01*
X44704000Y-49034000D01*
X44704000Y-49961297D01*
X44642993Y-49926075D01*
X44515826Y-49892000D01*
X44384174Y-49892000D01*
X44257007Y-49926075D01*
X44196000Y-49961297D01*
X44196000Y-49034000D01*
X43551402Y-49034000D01*
X43490906Y-49040505D01*
X43354035Y-49091555D01*
X43354034Y-49091555D01*
X43237095Y-49179095D01*
X43149555Y-49296034D01*
X43149555Y-49296035D01*
X43098505Y-49432906D01*
X43092000Y-49493402D01*
X40470804Y-49493402D01*
X40488503Y-49325001D01*
X40468541Y-49135073D01*
X40409526Y-48953445D01*
X40314039Y-48788057D01*
X40314037Y-48788055D01*
X40314033Y-48788049D01*
X40189733Y-48650000D01*
X127806496Y-48650000D01*
X127826457Y-48839927D01*
X127856526Y-48932470D01*
X127885473Y-49021556D01*
X127885476Y-49021561D01*
X127980958Y-49186941D01*
X127980965Y-49186951D01*
X128108744Y-49328864D01*
X128108747Y-49328866D01*
X128263248Y-49441118D01*
X128437712Y-49518794D01*
X128624513Y-49558500D01*
X128815487Y-49558500D01*
X129002288Y-49518794D01*
X129176752Y-49441118D01*
X129331253Y-49328866D01*
X129367649Y-49288444D01*
X129459034Y-49186951D01*
X129459035Y-49186949D01*
X129459040Y-49186944D01*
X129554527Y-49021556D01*
X129613542Y-48839928D01*
X129633504Y-48650000D01*
X129613542Y-48460072D01*
X129554527Y-48278444D01*
X129459040Y-48113056D01*
X129459038Y-48113054D01*
X129459034Y-48113048D01*
X129331255Y-47971135D01*
X129176752Y-47858882D01*
X129002288Y-47781206D01*
X128815487Y-47741500D01*
X128624513Y-47741500D01*
X128437711Y-47781206D01*
X128263247Y-47858882D01*
X128108744Y-47971135D01*
X127980965Y-48113048D01*
X127980958Y-48113058D01*
X127885476Y-48278438D01*
X127885473Y-48278445D01*
X127826457Y-48460072D01*
X127806496Y-48650000D01*
X40189733Y-48650000D01*
X40186254Y-48646136D01*
X40031751Y-48533883D01*
X39857287Y-48456207D01*
X39670486Y-48416501D01*
X39479512Y-48416501D01*
X39292710Y-48456207D01*
X39118246Y-48533883D01*
X38963743Y-48646136D01*
X38835964Y-48788049D01*
X38835957Y-48788059D01*
X38740475Y-48953439D01*
X38740472Y-48953446D01*
X38681456Y-49135073D01*
X38661495Y-49325001D01*
X18002670Y-49325001D01*
X18054477Y-49247466D01*
X18130460Y-49064028D01*
X18130462Y-49064023D01*
X18138424Y-49024000D01*
X17321260Y-49024000D01*
X17345405Y-49010060D01*
X17401260Y-48954205D01*
X17440756Y-48885796D01*
X17461200Y-48809496D01*
X17461200Y-48730504D01*
X17440756Y-48654204D01*
X17401260Y-48585795D01*
X17345405Y-48529940D01*
X17321260Y-48516000D01*
X18138424Y-48516000D01*
X18138423Y-48515999D01*
X18130462Y-48475976D01*
X18130460Y-48475971D01*
X18054477Y-48292533D01*
X17944167Y-48127442D01*
X17944162Y-48127435D01*
X17803764Y-47987037D01*
X17803757Y-47987032D01*
X17638666Y-47876722D01*
X17455228Y-47800739D01*
X17455223Y-47800737D01*
X17260481Y-47762000D01*
X16865200Y-47762000D01*
X16865200Y-48470000D01*
X16357200Y-48470000D01*
X16357200Y-47906379D01*
X16377202Y-47838258D01*
X16420197Y-47797262D01*
X16449215Y-47780509D01*
X16551709Y-47678015D01*
X16624184Y-47552485D01*
X16661700Y-47412475D01*
X16661700Y-47267525D01*
X16624184Y-47127515D01*
X16551709Y-47001985D01*
X16551707Y-47001983D01*
X16551703Y-47001978D01*
X16449221Y-46899496D01*
X16449211Y-46899488D01*
X16323685Y-46827016D01*
X16183675Y-46789500D01*
X16038725Y-46789500D01*
X15945385Y-46814510D01*
X15898714Y-46827016D01*
X15773188Y-46899488D01*
X15773178Y-46899496D01*
X15670696Y-47001978D01*
X15670688Y-47001988D01*
X15598216Y-47127514D01*
X15560700Y-47267526D01*
X15560700Y-47412473D01*
X15560699Y-47412473D01*
X15598216Y-47552485D01*
X15674653Y-47684878D01*
X15691391Y-47753874D01*
X15668170Y-47820965D01*
X15613754Y-47864286D01*
X15583735Y-47876720D01*
X15583733Y-47876721D01*
X15418642Y-47987032D01*
X15418635Y-47987037D01*
X15278237Y-48127435D01*
X15278232Y-48127442D01*
X15167922Y-48292533D01*
X15091939Y-48475971D01*
X15091937Y-48475976D01*
X15083976Y-48515999D01*
X13838423Y-48515999D01*
X13830462Y-48475976D01*
X13830460Y-48475971D01*
X13754477Y-48292533D01*
X13644167Y-48127442D01*
X13644162Y-48127435D01*
X13503764Y-47987037D01*
X13503757Y-47987032D01*
X13338666Y-47876722D01*
X13155228Y-47800739D01*
X13155223Y-47800737D01*
X12960481Y-47762000D01*
X12715200Y-47762000D01*
X12715200Y-48470000D01*
X12207200Y-48470000D01*
X12207200Y-47762000D01*
X11961918Y-47762000D01*
X11767176Y-47800737D01*
X11767171Y-47800739D01*
X11583733Y-47876722D01*
X11418642Y-47987032D01*
X11418635Y-47987037D01*
X11278237Y-48127435D01*
X11278232Y-48127442D01*
X11167922Y-48292533D01*
X11091939Y-48475971D01*
X11091937Y-48475976D01*
X11083976Y-48515999D01*
X9652000Y-48515999D01*
X9652000Y-46228000D01*
X17831696Y-46228000D01*
X17851657Y-46417927D01*
X17871587Y-46479264D01*
X17910673Y-46599556D01*
X17910676Y-46599561D01*
X18006158Y-46764941D01*
X18006165Y-46764951D01*
X18133944Y-46906864D01*
X18133947Y-46906866D01*
X18288448Y-47019118D01*
X18462912Y-47096794D01*
X18649713Y-47136500D01*
X18840687Y-47136500D01*
X19027488Y-47096794D01*
X19201952Y-47019118D01*
X19356453Y-46906866D01*
X19359179Y-46903839D01*
X19484234Y-46764951D01*
X19484235Y-46764949D01*
X19484240Y-46764944D01*
X19579727Y-46599556D01*
X19638742Y-46417928D01*
X19658704Y-46228000D01*
X30582496Y-46228000D01*
X30602457Y-46417927D01*
X30622387Y-46479264D01*
X30661473Y-46599556D01*
X30661476Y-46599561D01*
X30756958Y-46764941D01*
X30756965Y-46764951D01*
X30884744Y-46906864D01*
X30884747Y-46906866D01*
X31039248Y-47019118D01*
X31213712Y-47096794D01*
X31400513Y-47136500D01*
X31591487Y-47136500D01*
X31778288Y-47096794D01*
X31778288Y-47096793D01*
X31778292Y-47096793D01*
X31893041Y-47045703D01*
X31939469Y-47025031D01*
X32009835Y-47015597D01*
X32074132Y-47045703D01*
X32111945Y-47105792D01*
X32116027Y-47153307D01*
X32106496Y-47243999D01*
X32126457Y-47433927D01*
X32156526Y-47526470D01*
X32185473Y-47615556D01*
X32185476Y-47615561D01*
X32280958Y-47780941D01*
X32280965Y-47780951D01*
X32408744Y-47922864D01*
X32408747Y-47922866D01*
X32563248Y-48035118D01*
X32737712Y-48112794D01*
X32924513Y-48152500D01*
X33115487Y-48152500D01*
X33302288Y-48112794D01*
X33476752Y-48035118D01*
X33631253Y-47922866D01*
X33646098Y-47906379D01*
X33759034Y-47780951D01*
X33759035Y-47780949D01*
X33759040Y-47780944D01*
X33854527Y-47615556D01*
X33913542Y-47433928D01*
X33933504Y-47244000D01*
X33913542Y-47054072D01*
X33854527Y-46872444D01*
X33759040Y-46707056D01*
X33759038Y-46707054D01*
X33759034Y-46707048D01*
X33631255Y-46565135D01*
X33476752Y-46452882D01*
X33302288Y-46375206D01*
X33115487Y-46335500D01*
X32924513Y-46335500D01*
X32737711Y-46375206D01*
X32576531Y-46446968D01*
X32506164Y-46456402D01*
X32441867Y-46426295D01*
X32404053Y-46366206D01*
X32399972Y-46318691D01*
X32401685Y-46302389D01*
X32409504Y-46228000D01*
X32389542Y-46038072D01*
X32330527Y-45856444D01*
X32235040Y-45691056D01*
X32235038Y-45691054D01*
X32235034Y-45691048D01*
X32107255Y-45549135D01*
X31952752Y-45436882D01*
X31778288Y-45359206D01*
X31591487Y-45319500D01*
X31400513Y-45319500D01*
X31213711Y-45359206D01*
X31039247Y-45436882D01*
X30884744Y-45549135D01*
X30756965Y-45691048D01*
X30756958Y-45691058D01*
X30665973Y-45848649D01*
X30661473Y-45856444D01*
X30647278Y-45900132D01*
X30602457Y-46038072D01*
X30582496Y-46228000D01*
X19658704Y-46228000D01*
X19638742Y-46038072D01*
X19579727Y-45856444D01*
X19484240Y-45691056D01*
X19484238Y-45691054D01*
X19484234Y-45691048D01*
X19356455Y-45549135D01*
X19201952Y-45436882D01*
X19027488Y-45359206D01*
X18840687Y-45319500D01*
X18649713Y-45319500D01*
X18462911Y-45359206D01*
X18288447Y-45436882D01*
X18133944Y-45549135D01*
X18006165Y-45691048D01*
X18006158Y-45691058D01*
X17915173Y-45848649D01*
X17910673Y-45856444D01*
X17896478Y-45900132D01*
X17851657Y-46038072D01*
X17831696Y-46228000D01*
X9652000Y-46228000D01*
X9652000Y-44449998D01*
X12497696Y-44449998D01*
X12517657Y-44639925D01*
X12542106Y-44715168D01*
X12576673Y-44821554D01*
X12576676Y-44821559D01*
X12672158Y-44986939D01*
X12672165Y-44986949D01*
X12799944Y-45128862D01*
X12799947Y-45128864D01*
X12954448Y-45241116D01*
X13128912Y-45318792D01*
X13315713Y-45358498D01*
X13506687Y-45358498D01*
X13693488Y-45318792D01*
X13867952Y-45241116D01*
X14022453Y-45128864D01*
X14027822Y-45122901D01*
X14150234Y-44986949D01*
X14150235Y-44986947D01*
X14150240Y-44986942D01*
X14163654Y-44963709D01*
X36884500Y-44963709D01*
X36884500Y-45206290D01*
X36916160Y-45446782D01*
X36978944Y-45681095D01*
X36978945Y-45681097D01*
X36978946Y-45681100D01*
X37071776Y-45905212D01*
X37071777Y-45905213D01*
X37071782Y-45905224D01*
X37193061Y-46115285D01*
X37193063Y-46115288D01*
X37193064Y-46115289D01*
X37340735Y-46307738D01*
X37340739Y-46307742D01*
X37340744Y-46307748D01*
X37512251Y-46479255D01*
X37512256Y-46479259D01*
X37512262Y-46479265D01*
X37704711Y-46626936D01*
X37704714Y-46626938D01*
X37914775Y-46748217D01*
X37914779Y-46748218D01*
X37914788Y-46748224D01*
X38138900Y-46841054D01*
X38373211Y-46903838D01*
X38373215Y-46903838D01*
X38373217Y-46903839D01*
X38435202Y-46911999D01*
X38613712Y-46935500D01*
X38613719Y-46935500D01*
X38856281Y-46935500D01*
X38856288Y-46935500D01*
X39073804Y-46906864D01*
X39096782Y-46903839D01*
X39096782Y-46903838D01*
X39096789Y-46903838D01*
X39331100Y-46841054D01*
X39555212Y-46748224D01*
X39765289Y-46626936D01*
X39957738Y-46479265D01*
X40129265Y-46307738D01*
X40276936Y-46115289D01*
X40398224Y-45905212D01*
X40491054Y-45681100D01*
X40553838Y-45446789D01*
X40585500Y-45206288D01*
X40585500Y-44963712D01*
X40559549Y-44766592D01*
X40553839Y-44723217D01*
X40553838Y-44723215D01*
X40553838Y-44723211D01*
X40491054Y-44488900D01*
X40398224Y-44264788D01*
X40398218Y-44264779D01*
X40398217Y-44264775D01*
X40276938Y-44054714D01*
X40276936Y-44054711D01*
X40129265Y-43862262D01*
X40129259Y-43862256D01*
X40129255Y-43862251D01*
X39957748Y-43690744D01*
X39957742Y-43690739D01*
X39957738Y-43690735D01*
X39765289Y-43543064D01*
X39765288Y-43543063D01*
X39765285Y-43543061D01*
X39555224Y-43421782D01*
X39555216Y-43421778D01*
X39555212Y-43421776D01*
X39331100Y-43328946D01*
X39331097Y-43328945D01*
X39331095Y-43328944D01*
X39096782Y-43266160D01*
X38856290Y-43234500D01*
X38856288Y-43234500D01*
X38613712Y-43234500D01*
X38613709Y-43234500D01*
X38373217Y-43266160D01*
X38138904Y-43328944D01*
X38138900Y-43328946D01*
X38016577Y-43379614D01*
X37914786Y-43421777D01*
X37914775Y-43421782D01*
X37704714Y-43543061D01*
X37512262Y-43690735D01*
X37512251Y-43690744D01*
X37340744Y-43862251D01*
X37340735Y-43862262D01*
X37193061Y-44054714D01*
X37071782Y-44264775D01*
X37071777Y-44264786D01*
X36978946Y-44488900D01*
X36978944Y-44488904D01*
X36916160Y-44723217D01*
X36884500Y-44963709D01*
X14163654Y-44963709D01*
X14245727Y-44821554D01*
X14304742Y-44639926D01*
X14324704Y-44449998D01*
X14304742Y-44260070D01*
X14304742Y-44260068D01*
X14291455Y-44219177D01*
X14289426Y-44148210D01*
X14326087Y-44087411D01*
X14389799Y-44056085D01*
X14437485Y-44056993D01*
X14585709Y-44088500D01*
X14585713Y-44088500D01*
X14776687Y-44088500D01*
X14963488Y-44048794D01*
X15137952Y-43971118D01*
X15292453Y-43858866D01*
X15374083Y-43768207D01*
X15420234Y-43716951D01*
X15420235Y-43716949D01*
X15420240Y-43716944D01*
X15515727Y-43551556D01*
X15574742Y-43369928D01*
X15594704Y-43180000D01*
X15574742Y-42990072D01*
X15515727Y-42808444D01*
X15420240Y-42643056D01*
X15420238Y-42643054D01*
X15420234Y-42643048D01*
X15292455Y-42501135D01*
X15137952Y-42388882D01*
X14963488Y-42311206D01*
X14776687Y-42271500D01*
X14585713Y-42271500D01*
X14398911Y-42311206D01*
X14224447Y-42388882D01*
X14069944Y-42501135D01*
X13942165Y-42643048D01*
X13942158Y-42643058D01*
X13846676Y-42808438D01*
X13846673Y-42808445D01*
X13787657Y-42990072D01*
X13767696Y-43180000D01*
X13787657Y-43369927D01*
X13800945Y-43410821D01*
X13802973Y-43481789D01*
X13766310Y-43542587D01*
X13702598Y-43573912D01*
X13654915Y-43573005D01*
X13506687Y-43541498D01*
X13315713Y-43541498D01*
X13128911Y-43581204D01*
X12954447Y-43658880D01*
X12799944Y-43771133D01*
X12672165Y-43913046D01*
X12672158Y-43913056D01*
X12576676Y-44078436D01*
X12576673Y-44078443D01*
X12517657Y-44260070D01*
X12497696Y-44449998D01*
X9652000Y-44449998D01*
X9652000Y-39875999D01*
X11083976Y-39875999D01*
X11083976Y-39876000D01*
X11901140Y-39876000D01*
X11876995Y-39889940D01*
X11821140Y-39945795D01*
X11781644Y-40014204D01*
X11761200Y-40090504D01*
X11761200Y-40169496D01*
X11781644Y-40245796D01*
X11821140Y-40314205D01*
X11876995Y-40370060D01*
X11901140Y-40384000D01*
X11083976Y-40384000D01*
X11091937Y-40424023D01*
X11091939Y-40424028D01*
X11167922Y-40607466D01*
X11278232Y-40772557D01*
X11278237Y-40772564D01*
X11418635Y-40912962D01*
X11418642Y-40912967D01*
X11583733Y-41023277D01*
X11767171Y-41099260D01*
X11767176Y-41099262D01*
X11961918Y-41137999D01*
X11961922Y-41138000D01*
X12207200Y-41138000D01*
X12207200Y-40430000D01*
X12715200Y-40430000D01*
X12715200Y-41138000D01*
X12960478Y-41138000D01*
X12960481Y-41137999D01*
X13155223Y-41099262D01*
X13155228Y-41099260D01*
X13338666Y-41023277D01*
X13503757Y-40912967D01*
X13503764Y-40912962D01*
X13644162Y-40772564D01*
X13644167Y-40772557D01*
X13754477Y-40607466D01*
X13830460Y-40424028D01*
X13830462Y-40424023D01*
X13838424Y-40384000D01*
X13021260Y-40384000D01*
X13045405Y-40370060D01*
X13101260Y-40314205D01*
X13140756Y-40245796D01*
X13161200Y-40169496D01*
X13161200Y-40090504D01*
X13140756Y-40014204D01*
X13101260Y-39945795D01*
X13045405Y-39889940D01*
X13021260Y-39876000D01*
X13838424Y-39876000D01*
X13838423Y-39875999D01*
X15083976Y-39875999D01*
X15083976Y-39876000D01*
X15901140Y-39876000D01*
X15876995Y-39889940D01*
X15821140Y-39945795D01*
X15781644Y-40014204D01*
X15761200Y-40090504D01*
X15761200Y-40169496D01*
X15781644Y-40245796D01*
X15821140Y-40314205D01*
X15876995Y-40370060D01*
X15901140Y-40384000D01*
X15083976Y-40384000D01*
X15091937Y-40424023D01*
X15091939Y-40424028D01*
X15167922Y-40607466D01*
X15278232Y-40772557D01*
X15278237Y-40772564D01*
X15418635Y-40912962D01*
X15418642Y-40912967D01*
X15583732Y-41023277D01*
X15613752Y-41035712D01*
X15669033Y-41080260D01*
X15691454Y-41147623D01*
X15674654Y-41215120D01*
X15598216Y-41347515D01*
X15560700Y-41487526D01*
X15560700Y-41632473D01*
X15560699Y-41632473D01*
X15598216Y-41772485D01*
X15670688Y-41898011D01*
X15670696Y-41898021D01*
X15773178Y-42000503D01*
X15773183Y-42000507D01*
X15773185Y-42000509D01*
X15773186Y-42000510D01*
X15773188Y-42000511D01*
X15812502Y-42023209D01*
X15898715Y-42072984D01*
X16038725Y-42110500D01*
X16038727Y-42110500D01*
X16183673Y-42110500D01*
X16183675Y-42110500D01*
X16224727Y-42099500D01*
X18339696Y-42099500D01*
X18359657Y-42289427D01*
X18366734Y-42311206D01*
X18418673Y-42471056D01*
X18418676Y-42471061D01*
X18514158Y-42636441D01*
X18514165Y-42636451D01*
X18641944Y-42778364D01*
X18655536Y-42788239D01*
X18796448Y-42890618D01*
X18970912Y-42968294D01*
X19157713Y-43008000D01*
X19348687Y-43008000D01*
X19535488Y-42968294D01*
X19709952Y-42890618D01*
X19864453Y-42778366D01*
X19885375Y-42755130D01*
X19992234Y-42636451D01*
X19992235Y-42636449D01*
X19992240Y-42636444D01*
X20087727Y-42471056D01*
X20104966Y-42417999D01*
X43128455Y-42417999D01*
X43128456Y-42418000D01*
X44034297Y-42418000D01*
X43999075Y-42479007D01*
X43965000Y-42606174D01*
X43965000Y-42737826D01*
X43999075Y-42864993D01*
X44034297Y-42926000D01*
X43128455Y-42926000D01*
X43176176Y-43114449D01*
X43176179Y-43114456D01*
X43266580Y-43320548D01*
X43389674Y-43508958D01*
X43542097Y-43674534D01*
X43719698Y-43812767D01*
X43719699Y-43812768D01*
X43917628Y-43919882D01*
X43917630Y-43919883D01*
X44130483Y-43992955D01*
X44130492Y-43992957D01*
X44211000Y-44006391D01*
X44211000Y-43102702D01*
X44272007Y-43137925D01*
X44399174Y-43172000D01*
X44530826Y-43172000D01*
X44657993Y-43137925D01*
X44719000Y-43102702D01*
X44719000Y-44006390D01*
X44799507Y-43992957D01*
X44799516Y-43992955D01*
X45012369Y-43919883D01*
X45012371Y-43919882D01*
X45210300Y-43812768D01*
X45210301Y-43812767D01*
X45387902Y-43674534D01*
X45540327Y-43508955D01*
X45629217Y-43372899D01*
X45683220Y-43326810D01*
X45753568Y-43317235D01*
X45817925Y-43347212D01*
X45840183Y-43372898D01*
X45929279Y-43509270D01*
X46081762Y-43674908D01*
X46126587Y-43709797D01*
X46259424Y-43813189D01*
X46457426Y-43920342D01*
X46457427Y-43920342D01*
X46457428Y-43920343D01*
X46569227Y-43958723D01*
X46670365Y-43993444D01*
X46892431Y-44030500D01*
X46892435Y-44030500D01*
X47117565Y-44030500D01*
X47117569Y-44030500D01*
X47339635Y-43993444D01*
X47552574Y-43920342D01*
X47750576Y-43813189D01*
X47928240Y-43674906D01*
X47989245Y-43608637D01*
X48050096Y-43572067D01*
X48121061Y-43574200D01*
X48179606Y-43614362D01*
X48200000Y-43649941D01*
X48244111Y-43768204D01*
X48244112Y-43768207D01*
X48331738Y-43885261D01*
X48448792Y-43972887D01*
X48448794Y-43972888D01*
X48448796Y-43972889D01*
X48502600Y-43992957D01*
X48585795Y-44023988D01*
X48585803Y-44023990D01*
X48646350Y-44030499D01*
X48646355Y-44030499D01*
X48646362Y-44030500D01*
X48646368Y-44030500D01*
X50443632Y-44030500D01*
X50443638Y-44030500D01*
X50443645Y-44030499D01*
X50443649Y-44030499D01*
X50504196Y-44023990D01*
X50504199Y-44023989D01*
X50504201Y-44023989D01*
X50641204Y-43972889D01*
X50711399Y-43920342D01*
X50758261Y-43885261D01*
X50845887Y-43768207D01*
X50845887Y-43768206D01*
X50845889Y-43768204D01*
X50896989Y-43631201D01*
X50898800Y-43614362D01*
X50903499Y-43570649D01*
X50903500Y-43570632D01*
X50903500Y-43051350D01*
X59881500Y-43051350D01*
X59881500Y-45848649D01*
X59888009Y-45909196D01*
X59888011Y-45909204D01*
X59939110Y-46046202D01*
X59939112Y-46046207D01*
X60026738Y-46163261D01*
X60143792Y-46250887D01*
X60143794Y-46250888D01*
X60143796Y-46250889D01*
X60202875Y-46272924D01*
X60280795Y-46301988D01*
X60280803Y-46301990D01*
X60341350Y-46308499D01*
X60341355Y-46308499D01*
X60341362Y-46308500D01*
X60341368Y-46308500D01*
X63138632Y-46308500D01*
X63138638Y-46308500D01*
X63138645Y-46308499D01*
X63138649Y-46308499D01*
X63199196Y-46301990D01*
X63199199Y-46301989D01*
X63199201Y-46301989D01*
X63336204Y-46250889D01*
X63366782Y-46227999D01*
X63453261Y-46163261D01*
X63540887Y-46046207D01*
X63540887Y-46046206D01*
X63540889Y-46046204D01*
X63591989Y-45909201D01*
X63592963Y-45900149D01*
X63598499Y-45848649D01*
X63598500Y-45848632D01*
X63598500Y-44450000D01*
X64956753Y-44450000D01*
X64975718Y-44715171D01*
X65032225Y-44974928D01*
X65032225Y-44974929D01*
X65125130Y-45224020D01*
X65150651Y-45270757D01*
X65252537Y-45457347D01*
X65411852Y-45670167D01*
X65411853Y-45670168D01*
X65411861Y-45670177D01*
X65599822Y-45858138D01*
X65599831Y-45858146D01*
X65599833Y-45858148D01*
X65812653Y-46017463D01*
X66045979Y-46144869D01*
X66295063Y-46237772D01*
X66295066Y-46237772D01*
X66295070Y-46237774D01*
X66445400Y-46270476D01*
X66554832Y-46294282D01*
X66820000Y-46313247D01*
X67085168Y-46294282D01*
X67344928Y-46237774D01*
X67344929Y-46237774D01*
X67344930Y-46237773D01*
X67344937Y-46237772D01*
X67594021Y-46144869D01*
X67827347Y-46017463D01*
X68040167Y-45858148D01*
X68228148Y-45670167D01*
X68387463Y-45457347D01*
X68514869Y-45224021D01*
X68607772Y-44974937D01*
X68664282Y-44715168D01*
X68683247Y-44450000D01*
X70036753Y-44450000D01*
X70055718Y-44715171D01*
X70112225Y-44974928D01*
X70112225Y-44974929D01*
X70205130Y-45224020D01*
X70230651Y-45270757D01*
X70332537Y-45457347D01*
X70491852Y-45670167D01*
X70491853Y-45670168D01*
X70491861Y-45670177D01*
X70679822Y-45858138D01*
X70679831Y-45858146D01*
X70679833Y-45858148D01*
X70892653Y-46017463D01*
X71125979Y-46144869D01*
X71375063Y-46237772D01*
X71375066Y-46237772D01*
X71375070Y-46237774D01*
X71525400Y-46270476D01*
X71634832Y-46294282D01*
X71900000Y-46313247D01*
X72165168Y-46294282D01*
X72424928Y-46237774D01*
X72424929Y-46237774D01*
X72424930Y-46237773D01*
X72424937Y-46237772D01*
X72674021Y-46144869D01*
X72907347Y-46017463D01*
X73120167Y-45858148D01*
X73308148Y-45670167D01*
X73467463Y-45457347D01*
X73594869Y-45224021D01*
X73687772Y-44974937D01*
X73744282Y-44715168D01*
X73763247Y-44450000D01*
X75116753Y-44450000D01*
X75135718Y-44715171D01*
X75192225Y-44974928D01*
X75192225Y-44974929D01*
X75285130Y-45224020D01*
X75310651Y-45270757D01*
X75412537Y-45457347D01*
X75571852Y-45670167D01*
X75571853Y-45670168D01*
X75571861Y-45670177D01*
X75759822Y-45858138D01*
X75759831Y-45858146D01*
X75759833Y-45858148D01*
X75972653Y-46017463D01*
X76205979Y-46144869D01*
X76455063Y-46237772D01*
X76455066Y-46237772D01*
X76455070Y-46237774D01*
X76605400Y-46270476D01*
X76714832Y-46294282D01*
X76980000Y-46313247D01*
X77245168Y-46294282D01*
X77504928Y-46237774D01*
X77504929Y-46237774D01*
X77504930Y-46237773D01*
X77504937Y-46237772D01*
X77754021Y-46144869D01*
X77987347Y-46017463D01*
X78200167Y-45858148D01*
X78388148Y-45670167D01*
X78547463Y-45457347D01*
X78674869Y-45224021D01*
X78767772Y-44974937D01*
X78824282Y-44715168D01*
X78843247Y-44450000D01*
X78824282Y-44184832D01*
X78796472Y-44056993D01*
X78767774Y-43925071D01*
X78767774Y-43925070D01*
X78767772Y-43925066D01*
X78767772Y-43925063D01*
X78674869Y-43675979D01*
X78547463Y-43442653D01*
X78388148Y-43229833D01*
X78388146Y-43229831D01*
X78388138Y-43229822D01*
X78209666Y-43051350D01*
X85281500Y-43051350D01*
X85281500Y-45848649D01*
X85288009Y-45909196D01*
X85288011Y-45909204D01*
X85339110Y-46046202D01*
X85339112Y-46046207D01*
X85426738Y-46163261D01*
X85543792Y-46250887D01*
X85543794Y-46250888D01*
X85543796Y-46250889D01*
X85602875Y-46272924D01*
X85680795Y-46301988D01*
X85680803Y-46301990D01*
X85741350Y-46308499D01*
X85741355Y-46308499D01*
X85741362Y-46308500D01*
X85741368Y-46308500D01*
X88538632Y-46308500D01*
X88538638Y-46308500D01*
X88538645Y-46308499D01*
X88538649Y-46308499D01*
X88599196Y-46301990D01*
X88599199Y-46301989D01*
X88599201Y-46301989D01*
X88736204Y-46250889D01*
X88766782Y-46227999D01*
X88853261Y-46163261D01*
X88940887Y-46046207D01*
X88940887Y-46046206D01*
X88940889Y-46046204D01*
X88991989Y-45909201D01*
X88992963Y-45900149D01*
X88998499Y-45848649D01*
X88998500Y-45848632D01*
X88998500Y-44450000D01*
X90356753Y-44450000D01*
X90375718Y-44715171D01*
X90432225Y-44974928D01*
X90432225Y-44974929D01*
X90525130Y-45224020D01*
X90550651Y-45270757D01*
X90652537Y-45457347D01*
X90811852Y-45670167D01*
X90811853Y-45670168D01*
X90811861Y-45670177D01*
X90999822Y-45858138D01*
X90999831Y-45858146D01*
X90999833Y-45858148D01*
X91212653Y-46017463D01*
X91445979Y-46144869D01*
X91695063Y-46237772D01*
X91695066Y-46237772D01*
X91695070Y-46237774D01*
X91845400Y-46270476D01*
X91954832Y-46294282D01*
X92220000Y-46313247D01*
X92485168Y-46294282D01*
X92744928Y-46237774D01*
X92744929Y-46237774D01*
X92744930Y-46237773D01*
X92744937Y-46237772D01*
X92994021Y-46144869D01*
X93227347Y-46017463D01*
X93440167Y-45858148D01*
X93628148Y-45670167D01*
X93787463Y-45457347D01*
X93914869Y-45224021D01*
X94007772Y-44974937D01*
X94064282Y-44715168D01*
X94083247Y-44450000D01*
X95436753Y-44450000D01*
X95455718Y-44715171D01*
X95512225Y-44974928D01*
X95512225Y-44974929D01*
X95605130Y-45224020D01*
X95630651Y-45270757D01*
X95732537Y-45457347D01*
X95891852Y-45670167D01*
X95891853Y-45670168D01*
X95891861Y-45670177D01*
X96079822Y-45858138D01*
X96079831Y-45858146D01*
X96079833Y-45858148D01*
X96292653Y-46017463D01*
X96525979Y-46144869D01*
X96775063Y-46237772D01*
X96775066Y-46237772D01*
X96775070Y-46237774D01*
X96925400Y-46270476D01*
X97034832Y-46294282D01*
X97300000Y-46313247D01*
X97565168Y-46294282D01*
X97824928Y-46237774D01*
X97824929Y-46237774D01*
X97824930Y-46237773D01*
X97824937Y-46237772D01*
X98074021Y-46144869D01*
X98307347Y-46017463D01*
X98520167Y-45858148D01*
X98708148Y-45670167D01*
X98867463Y-45457347D01*
X98994869Y-45224021D01*
X99087772Y-44974937D01*
X99144282Y-44715168D01*
X99163247Y-44450000D01*
X100516753Y-44450000D01*
X100535718Y-44715171D01*
X100592225Y-44974928D01*
X100592225Y-44974929D01*
X100685130Y-45224020D01*
X100710651Y-45270757D01*
X100812537Y-45457347D01*
X100971852Y-45670167D01*
X100971853Y-45670168D01*
X100971861Y-45670177D01*
X101159822Y-45858138D01*
X101159831Y-45858146D01*
X101159833Y-45858148D01*
X101372653Y-46017463D01*
X101605979Y-46144869D01*
X101855063Y-46237772D01*
X101855066Y-46237772D01*
X101855070Y-46237774D01*
X102005400Y-46270476D01*
X102114832Y-46294282D01*
X102380000Y-46313247D01*
X102645168Y-46294282D01*
X102904928Y-46237774D01*
X102904929Y-46237774D01*
X102904930Y-46237773D01*
X102904937Y-46237772D01*
X103154021Y-46144869D01*
X103387347Y-46017463D01*
X103600167Y-45858148D01*
X103788148Y-45670167D01*
X103947463Y-45457347D01*
X104074869Y-45224021D01*
X104167772Y-44974937D01*
X104224282Y-44715168D01*
X104243247Y-44450000D01*
X104224282Y-44184832D01*
X104196472Y-44056993D01*
X104167774Y-43925071D01*
X104167774Y-43925070D01*
X104167772Y-43925066D01*
X104167772Y-43925063D01*
X104074869Y-43675979D01*
X103947463Y-43442653D01*
X103788148Y-43229833D01*
X103788146Y-43229831D01*
X103788138Y-43229822D01*
X103661166Y-43102850D01*
X109877500Y-43102850D01*
X109877500Y-45900149D01*
X109884009Y-45960696D01*
X109884011Y-45960704D01*
X109935110Y-46097702D01*
X109935112Y-46097707D01*
X110022738Y-46214761D01*
X110139792Y-46302387D01*
X110139794Y-46302388D01*
X110139796Y-46302389D01*
X110183503Y-46318691D01*
X110276795Y-46353488D01*
X110276803Y-46353490D01*
X110337350Y-46359999D01*
X110337355Y-46359999D01*
X110337362Y-46360000D01*
X110337368Y-46360000D01*
X113134632Y-46360000D01*
X113134638Y-46360000D01*
X113134645Y-46359999D01*
X113134649Y-46359999D01*
X113195196Y-46353490D01*
X113195199Y-46353489D01*
X113195201Y-46353489D01*
X113332204Y-46302389D01*
X113332739Y-46301989D01*
X113449261Y-46214761D01*
X113536887Y-46097707D01*
X113536887Y-46097706D01*
X113536889Y-46097704D01*
X113587989Y-45960701D01*
X113593526Y-45909204D01*
X113594499Y-45900149D01*
X113594500Y-45900132D01*
X113594500Y-44501500D01*
X114953254Y-44501500D01*
X114972213Y-44766592D01*
X115028707Y-45026293D01*
X115121587Y-45275314D01*
X115248958Y-45508576D01*
X115334903Y-45623384D01*
X115334903Y-45623385D01*
X116098495Y-44859792D01*
X116107049Y-44880442D01*
X116194599Y-45011470D01*
X116306030Y-45122901D01*
X116437058Y-45210451D01*
X116457705Y-45219003D01*
X115694113Y-45982595D01*
X115808923Y-46068542D01*
X116042185Y-46195912D01*
X116291206Y-46288792D01*
X116550907Y-46345286D01*
X116816000Y-46364245D01*
X117081092Y-46345286D01*
X117340793Y-46288792D01*
X117589814Y-46195912D01*
X117823081Y-46068539D01*
X117937884Y-45982596D01*
X117937885Y-45982594D01*
X117174294Y-45219003D01*
X117194942Y-45210451D01*
X117325970Y-45122901D01*
X117437401Y-45011470D01*
X117524951Y-44880442D01*
X117533503Y-44859794D01*
X118297094Y-45623385D01*
X118297096Y-45623384D01*
X118383039Y-45508581D01*
X118510412Y-45275314D01*
X118603292Y-45026293D01*
X118659786Y-44766592D01*
X118678745Y-44501500D01*
X118659786Y-44236407D01*
X118603292Y-43976706D01*
X118510412Y-43727685D01*
X118383042Y-43494423D01*
X118297095Y-43379614D01*
X118297095Y-43379613D01*
X117533503Y-44143205D01*
X117524951Y-44122558D01*
X117437401Y-43991530D01*
X117325970Y-43880099D01*
X117194942Y-43792549D01*
X117174293Y-43783996D01*
X117906938Y-43051350D01*
X124711500Y-43051350D01*
X124711500Y-45848649D01*
X124718009Y-45909196D01*
X124718011Y-45909204D01*
X124769110Y-46046202D01*
X124769112Y-46046207D01*
X124856738Y-46163261D01*
X124973792Y-46250887D01*
X124973794Y-46250888D01*
X124973796Y-46250889D01*
X125032875Y-46272924D01*
X125110795Y-46301988D01*
X125110803Y-46301990D01*
X125171350Y-46308499D01*
X125171355Y-46308499D01*
X125171362Y-46308500D01*
X125171368Y-46308500D01*
X127968632Y-46308500D01*
X127968638Y-46308500D01*
X127968645Y-46308499D01*
X127968649Y-46308499D01*
X128029196Y-46301990D01*
X128029199Y-46301989D01*
X128029201Y-46301989D01*
X128166204Y-46250889D01*
X128196782Y-46227999D01*
X128283261Y-46163261D01*
X128370887Y-46046207D01*
X128370887Y-46046206D01*
X128370889Y-46046204D01*
X128421989Y-45909201D01*
X128422963Y-45900149D01*
X128428499Y-45848649D01*
X128428500Y-45848632D01*
X128428500Y-44450000D01*
X129786753Y-44450000D01*
X129805718Y-44715171D01*
X129862225Y-44974928D01*
X129862225Y-44974929D01*
X129955130Y-45224020D01*
X129980651Y-45270757D01*
X130082537Y-45457347D01*
X130241852Y-45670167D01*
X130241853Y-45670168D01*
X130241861Y-45670177D01*
X130429822Y-45858138D01*
X130429831Y-45858146D01*
X130429833Y-45858148D01*
X130642653Y-46017463D01*
X130875979Y-46144869D01*
X131125063Y-46237772D01*
X131125066Y-46237772D01*
X131125070Y-46237774D01*
X131275400Y-46270476D01*
X131384832Y-46294282D01*
X131650000Y-46313247D01*
X131915168Y-46294282D01*
X132174928Y-46237774D01*
X132174929Y-46237774D01*
X132174930Y-46237773D01*
X132174937Y-46237772D01*
X132424021Y-46144869D01*
X132657347Y-46017463D01*
X132870167Y-45858148D01*
X133058148Y-45670167D01*
X133217463Y-45457347D01*
X133344869Y-45224021D01*
X133437772Y-44974937D01*
X133494282Y-44715168D01*
X133513247Y-44450000D01*
X134866753Y-44450000D01*
X134885718Y-44715171D01*
X134942225Y-44974928D01*
X134942225Y-44974929D01*
X135035130Y-45224020D01*
X135060651Y-45270757D01*
X135162537Y-45457347D01*
X135321852Y-45670167D01*
X135321853Y-45670168D01*
X135321861Y-45670177D01*
X135509822Y-45858138D01*
X135509831Y-45858146D01*
X135509833Y-45858148D01*
X135722653Y-46017463D01*
X135955979Y-46144869D01*
X136205063Y-46237772D01*
X136205066Y-46237772D01*
X136205070Y-46237774D01*
X136355400Y-46270476D01*
X136464832Y-46294282D01*
X136730000Y-46313247D01*
X136995168Y-46294282D01*
X137254928Y-46237774D01*
X137254929Y-46237774D01*
X137254930Y-46237773D01*
X137254937Y-46237772D01*
X137504021Y-46144869D01*
X137737347Y-46017463D01*
X137950167Y-45858148D01*
X138138148Y-45670167D01*
X138297463Y-45457347D01*
X138424869Y-45224021D01*
X138517772Y-44974937D01*
X138574282Y-44715168D01*
X138593247Y-44450000D01*
X139946753Y-44450000D01*
X139965718Y-44715171D01*
X140022225Y-44974928D01*
X140022225Y-44974929D01*
X140115130Y-45224020D01*
X140140651Y-45270757D01*
X140242537Y-45457347D01*
X140401852Y-45670167D01*
X140401853Y-45670168D01*
X140401861Y-45670177D01*
X140589822Y-45858138D01*
X140589831Y-45858146D01*
X140589833Y-45858148D01*
X140802653Y-46017463D01*
X141035979Y-46144869D01*
X141285063Y-46237772D01*
X141285066Y-46237772D01*
X141285070Y-46237774D01*
X141435400Y-46270476D01*
X141544832Y-46294282D01*
X141810000Y-46313247D01*
X142075168Y-46294282D01*
X142334928Y-46237774D01*
X142334929Y-46237774D01*
X142334930Y-46237773D01*
X142334937Y-46237772D01*
X142584021Y-46144869D01*
X142817347Y-46017463D01*
X143030167Y-45858148D01*
X143218148Y-45670167D01*
X143377463Y-45457347D01*
X143504869Y-45224021D01*
X143597772Y-44974937D01*
X143654282Y-44715168D01*
X143673247Y-44450000D01*
X143654282Y-44184832D01*
X143626472Y-44056993D01*
X143597774Y-43925071D01*
X143597774Y-43925070D01*
X143597772Y-43925066D01*
X143597772Y-43925063D01*
X143504869Y-43675979D01*
X143377463Y-43442653D01*
X143218148Y-43229833D01*
X143218146Y-43229831D01*
X143218138Y-43229822D01*
X143039666Y-43051350D01*
X150111500Y-43051350D01*
X150111500Y-45848649D01*
X150118009Y-45909196D01*
X150118011Y-45909204D01*
X150169110Y-46046202D01*
X150169112Y-46046207D01*
X150256738Y-46163261D01*
X150373792Y-46250887D01*
X150373794Y-46250888D01*
X150373796Y-46250889D01*
X150432875Y-46272924D01*
X150510795Y-46301988D01*
X150510803Y-46301990D01*
X150571350Y-46308499D01*
X150571355Y-46308499D01*
X150571362Y-46308500D01*
X150571368Y-46308500D01*
X153368632Y-46308500D01*
X153368638Y-46308500D01*
X153368645Y-46308499D01*
X153368649Y-46308499D01*
X153429196Y-46301990D01*
X153429199Y-46301989D01*
X153429201Y-46301989D01*
X153566204Y-46250889D01*
X153596782Y-46227999D01*
X153683261Y-46163261D01*
X153770887Y-46046207D01*
X153770887Y-46046206D01*
X153770889Y-46046204D01*
X153821989Y-45909201D01*
X153822963Y-45900149D01*
X153828499Y-45848649D01*
X153828500Y-45848632D01*
X153828500Y-44450000D01*
X155186753Y-44450000D01*
X155205718Y-44715171D01*
X155262225Y-44974928D01*
X155262225Y-44974929D01*
X155355130Y-45224020D01*
X155380651Y-45270757D01*
X155482537Y-45457347D01*
X155641852Y-45670167D01*
X155641853Y-45670168D01*
X155641861Y-45670177D01*
X155829822Y-45858138D01*
X155829831Y-45858146D01*
X155829833Y-45858148D01*
X156042653Y-46017463D01*
X156275979Y-46144869D01*
X156525063Y-46237772D01*
X156525066Y-46237772D01*
X156525070Y-46237774D01*
X156675400Y-46270476D01*
X156784832Y-46294282D01*
X157050000Y-46313247D01*
X157315168Y-46294282D01*
X157574928Y-46237774D01*
X157574929Y-46237774D01*
X157574930Y-46237773D01*
X157574937Y-46237772D01*
X157824021Y-46144869D01*
X158057347Y-46017463D01*
X158270167Y-45858148D01*
X158458148Y-45670167D01*
X158617463Y-45457347D01*
X158744869Y-45224021D01*
X158837772Y-44974937D01*
X158894282Y-44715168D01*
X158913247Y-44450000D01*
X160266753Y-44450000D01*
X160285718Y-44715171D01*
X160342225Y-44974928D01*
X160342225Y-44974929D01*
X160435130Y-45224020D01*
X160460651Y-45270757D01*
X160562537Y-45457347D01*
X160721852Y-45670167D01*
X160721853Y-45670168D01*
X160721861Y-45670177D01*
X160909822Y-45858138D01*
X160909831Y-45858146D01*
X160909833Y-45858148D01*
X161122653Y-46017463D01*
X161355979Y-46144869D01*
X161605063Y-46237772D01*
X161605066Y-46237772D01*
X161605070Y-46237774D01*
X161755400Y-46270476D01*
X161864832Y-46294282D01*
X162130000Y-46313247D01*
X162395168Y-46294282D01*
X162654928Y-46237774D01*
X162654929Y-46237774D01*
X162654930Y-46237773D01*
X162654937Y-46237772D01*
X162904021Y-46144869D01*
X163137347Y-46017463D01*
X163350167Y-45858148D01*
X163538148Y-45670167D01*
X163697463Y-45457347D01*
X163824869Y-45224021D01*
X163917772Y-44974937D01*
X163974282Y-44715168D01*
X163993247Y-44450000D01*
X165346753Y-44450000D01*
X165365718Y-44715171D01*
X165422225Y-44974928D01*
X165422225Y-44974929D01*
X165515130Y-45224020D01*
X165540651Y-45270757D01*
X165642537Y-45457347D01*
X165801852Y-45670167D01*
X165801853Y-45670168D01*
X165801861Y-45670177D01*
X165989822Y-45858138D01*
X165989831Y-45858146D01*
X165989833Y-45858148D01*
X166202653Y-46017463D01*
X166435979Y-46144869D01*
X166685063Y-46237772D01*
X166685066Y-46237772D01*
X166685070Y-46237774D01*
X166835400Y-46270476D01*
X166944832Y-46294282D01*
X167210000Y-46313247D01*
X167475168Y-46294282D01*
X167734928Y-46237774D01*
X167734929Y-46237774D01*
X167734930Y-46237773D01*
X167734937Y-46237772D01*
X167984021Y-46144869D01*
X168217347Y-46017463D01*
X168430167Y-45858148D01*
X168618148Y-45670167D01*
X168777463Y-45457347D01*
X168904869Y-45224021D01*
X168997772Y-44974937D01*
X169054282Y-44715168D01*
X169073247Y-44450000D01*
X169054282Y-44184832D01*
X169026472Y-44056993D01*
X168997774Y-43925071D01*
X168997774Y-43925070D01*
X168997772Y-43925066D01*
X168997772Y-43925063D01*
X168904869Y-43675979D01*
X168777463Y-43442653D01*
X168618148Y-43229833D01*
X168618146Y-43229831D01*
X168618138Y-43229822D01*
X168430177Y-43041861D01*
X168430168Y-43041853D01*
X168361968Y-42990799D01*
X168217347Y-42882537D01*
X168026569Y-42778364D01*
X167984020Y-42755130D01*
X167734929Y-42662225D01*
X167475170Y-42605718D01*
X167475172Y-42605718D01*
X167210000Y-42586753D01*
X166944828Y-42605718D01*
X166685071Y-42662225D01*
X166685070Y-42662225D01*
X166435979Y-42755130D01*
X166202653Y-42882537D01*
X165989831Y-43041853D01*
X165989822Y-43041861D01*
X165801861Y-43229822D01*
X165801853Y-43229831D01*
X165642537Y-43442653D01*
X165515130Y-43675979D01*
X165422225Y-43925070D01*
X165422225Y-43925071D01*
X165365718Y-44184828D01*
X165346753Y-44450000D01*
X163993247Y-44450000D01*
X163974282Y-44184832D01*
X163946472Y-44056993D01*
X163917774Y-43925071D01*
X163917774Y-43925070D01*
X163917772Y-43925066D01*
X163917772Y-43925063D01*
X163824869Y-43675979D01*
X163697463Y-43442653D01*
X163538148Y-43229833D01*
X163538146Y-43229831D01*
X163538138Y-43229822D01*
X163350177Y-43041861D01*
X163350168Y-43041853D01*
X163281968Y-42990799D01*
X163137347Y-42882537D01*
X162946569Y-42778364D01*
X162904020Y-42755130D01*
X162654929Y-42662225D01*
X162395170Y-42605718D01*
X162395172Y-42605718D01*
X162130000Y-42586753D01*
X161864828Y-42605718D01*
X161605071Y-42662225D01*
X161605070Y-42662225D01*
X161355979Y-42755130D01*
X161122653Y-42882537D01*
X160909831Y-43041853D01*
X160909822Y-43041861D01*
X160721861Y-43229822D01*
X160721853Y-43229831D01*
X160562537Y-43442653D01*
X160435130Y-43675979D01*
X160342225Y-43925070D01*
X160342225Y-43925071D01*
X160285718Y-44184828D01*
X160266753Y-44450000D01*
X158913247Y-44450000D01*
X158894282Y-44184832D01*
X158866472Y-44056993D01*
X158837774Y-43925071D01*
X158837774Y-43925070D01*
X158837772Y-43925066D01*
X158837772Y-43925063D01*
X158744869Y-43675979D01*
X158617463Y-43442653D01*
X158458148Y-43229833D01*
X158458146Y-43229831D01*
X158458138Y-43229822D01*
X158270177Y-43041861D01*
X158270168Y-43041853D01*
X158201968Y-42990799D01*
X158057347Y-42882537D01*
X157866569Y-42778364D01*
X157824020Y-42755130D01*
X157574929Y-42662225D01*
X157315170Y-42605718D01*
X157315172Y-42605718D01*
X157050000Y-42586753D01*
X156784828Y-42605718D01*
X156525071Y-42662225D01*
X156525070Y-42662225D01*
X156275979Y-42755130D01*
X156042653Y-42882537D01*
X155829831Y-43041853D01*
X155829822Y-43041861D01*
X155641861Y-43229822D01*
X155641853Y-43229831D01*
X155482537Y-43442653D01*
X155355130Y-43675979D01*
X155262225Y-43925070D01*
X155262225Y-43925071D01*
X155205718Y-44184828D01*
X155186753Y-44450000D01*
X153828500Y-44450000D01*
X153828500Y-43051367D01*
X153828499Y-43051350D01*
X153821990Y-42990803D01*
X153821988Y-42990795D01*
X153770889Y-42853797D01*
X153770887Y-42853792D01*
X153683261Y-42736738D01*
X153566207Y-42649112D01*
X153566202Y-42649110D01*
X153429204Y-42598011D01*
X153429196Y-42598009D01*
X153368649Y-42591500D01*
X153368638Y-42591500D01*
X150571362Y-42591500D01*
X150571350Y-42591500D01*
X150510803Y-42598009D01*
X150510795Y-42598011D01*
X150373797Y-42649110D01*
X150373792Y-42649112D01*
X150256738Y-42736738D01*
X150169112Y-42853792D01*
X150169110Y-42853797D01*
X150118011Y-42990795D01*
X150118009Y-42990803D01*
X150111500Y-43051350D01*
X143039666Y-43051350D01*
X143030177Y-43041861D01*
X143030168Y-43041853D01*
X142961968Y-42990799D01*
X142817347Y-42882537D01*
X142626569Y-42778364D01*
X142584020Y-42755130D01*
X142334929Y-42662225D01*
X142075170Y-42605718D01*
X142075172Y-42605718D01*
X141810000Y-42586753D01*
X141544828Y-42605718D01*
X141285071Y-42662225D01*
X141285070Y-42662225D01*
X141035979Y-42755130D01*
X140802653Y-42882537D01*
X140589831Y-43041853D01*
X140589822Y-43041861D01*
X140401861Y-43229822D01*
X140401853Y-43229831D01*
X140242537Y-43442653D01*
X140115130Y-43675979D01*
X140022225Y-43925070D01*
X140022225Y-43925071D01*
X139965718Y-44184828D01*
X139946753Y-44450000D01*
X138593247Y-44450000D01*
X138574282Y-44184832D01*
X138546472Y-44056993D01*
X138517774Y-43925071D01*
X138517774Y-43925070D01*
X138517772Y-43925066D01*
X138517772Y-43925063D01*
X138424869Y-43675979D01*
X138297463Y-43442653D01*
X138138148Y-43229833D01*
X138138146Y-43229831D01*
X138138138Y-43229822D01*
X137950177Y-43041861D01*
X137950168Y-43041853D01*
X137881968Y-42990799D01*
X137737347Y-42882537D01*
X137546569Y-42778364D01*
X137504020Y-42755130D01*
X137254929Y-42662225D01*
X136995170Y-42605718D01*
X136995172Y-42605718D01*
X136730000Y-42586753D01*
X136464828Y-42605718D01*
X136205071Y-42662225D01*
X136205070Y-42662225D01*
X135955979Y-42755130D01*
X135722653Y-42882537D01*
X135509831Y-43041853D01*
X135509822Y-43041861D01*
X135321861Y-43229822D01*
X135321853Y-43229831D01*
X135162537Y-43442653D01*
X135035130Y-43675979D01*
X134942225Y-43925070D01*
X134942225Y-43925071D01*
X134885718Y-44184828D01*
X134866753Y-44450000D01*
X133513247Y-44450000D01*
X133494282Y-44184832D01*
X133466472Y-44056993D01*
X133437774Y-43925071D01*
X133437774Y-43925070D01*
X133437772Y-43925066D01*
X133437772Y-43925063D01*
X133344869Y-43675979D01*
X133217463Y-43442653D01*
X133058148Y-43229833D01*
X133058146Y-43229831D01*
X133058138Y-43229822D01*
X132870177Y-43041861D01*
X132870168Y-43041853D01*
X132801968Y-42990799D01*
X132657347Y-42882537D01*
X132466569Y-42778364D01*
X132424020Y-42755130D01*
X132174929Y-42662225D01*
X131915170Y-42605718D01*
X131915172Y-42605718D01*
X131650000Y-42586753D01*
X131384828Y-42605718D01*
X131125071Y-42662225D01*
X131125070Y-42662225D01*
X130875979Y-42755130D01*
X130642653Y-42882537D01*
X130429831Y-43041853D01*
X130429822Y-43041861D01*
X130241861Y-43229822D01*
X130241853Y-43229831D01*
X130082537Y-43442653D01*
X129955130Y-43675979D01*
X129862225Y-43925070D01*
X129862225Y-43925071D01*
X129805718Y-44184828D01*
X129786753Y-44450000D01*
X128428500Y-44450000D01*
X128428500Y-43051367D01*
X128428499Y-43051350D01*
X128421990Y-42990803D01*
X128421988Y-42990795D01*
X128370889Y-42853797D01*
X128370887Y-42853792D01*
X128283261Y-42736738D01*
X128166207Y-42649112D01*
X128166202Y-42649110D01*
X128029204Y-42598011D01*
X128029196Y-42598009D01*
X127968649Y-42591500D01*
X127968638Y-42591500D01*
X125171362Y-42591500D01*
X125171350Y-42591500D01*
X125110803Y-42598009D01*
X125110795Y-42598011D01*
X124973797Y-42649110D01*
X124973792Y-42649112D01*
X124856738Y-42736738D01*
X124769112Y-42853792D01*
X124769110Y-42853797D01*
X124718011Y-42990795D01*
X124718009Y-42990803D01*
X124711500Y-43051350D01*
X117906938Y-43051350D01*
X117937885Y-43020403D01*
X117823076Y-42934458D01*
X117589814Y-42807087D01*
X117340793Y-42714207D01*
X117081092Y-42657713D01*
X116816000Y-42638754D01*
X116550907Y-42657713D01*
X116291206Y-42714207D01*
X116042185Y-42807087D01*
X115808923Y-42934458D01*
X115694114Y-43020403D01*
X115694113Y-43020403D01*
X116457706Y-43783996D01*
X116437058Y-43792549D01*
X116306030Y-43880099D01*
X116194599Y-43991530D01*
X116107049Y-44122558D01*
X116098496Y-44143206D01*
X115334903Y-43379613D01*
X115334903Y-43379614D01*
X115248958Y-43494423D01*
X115121587Y-43727685D01*
X115028707Y-43976706D01*
X114972213Y-44236407D01*
X114953254Y-44501500D01*
X113594500Y-44501500D01*
X113594500Y-43102867D01*
X113594499Y-43102850D01*
X113587990Y-43042303D01*
X113587988Y-43042295D01*
X113536889Y-42905297D01*
X113536887Y-42905292D01*
X113449261Y-42788238D01*
X113332207Y-42700612D01*
X113332202Y-42700610D01*
X113195204Y-42649511D01*
X113195196Y-42649509D01*
X113134649Y-42643000D01*
X113134638Y-42643000D01*
X110337362Y-42643000D01*
X110337350Y-42643000D01*
X110276803Y-42649509D01*
X110276795Y-42649511D01*
X110139797Y-42700610D01*
X110139792Y-42700612D01*
X110022738Y-42788238D01*
X109935112Y-42905292D01*
X109935110Y-42905297D01*
X109884011Y-43042295D01*
X109884009Y-43042303D01*
X109877500Y-43102850D01*
X103661166Y-43102850D01*
X103600177Y-43041861D01*
X103600168Y-43041853D01*
X103531968Y-42990799D01*
X103387347Y-42882537D01*
X103196569Y-42778364D01*
X103154020Y-42755130D01*
X102904929Y-42662225D01*
X102645170Y-42605718D01*
X102645172Y-42605718D01*
X102380000Y-42586753D01*
X102114828Y-42605718D01*
X101855071Y-42662225D01*
X101855070Y-42662225D01*
X101605979Y-42755130D01*
X101372653Y-42882537D01*
X101159831Y-43041853D01*
X101159822Y-43041861D01*
X100971861Y-43229822D01*
X100971853Y-43229831D01*
X100812537Y-43442653D01*
X100685130Y-43675979D01*
X100592225Y-43925070D01*
X100592225Y-43925071D01*
X100535718Y-44184828D01*
X100516753Y-44450000D01*
X99163247Y-44450000D01*
X99144282Y-44184832D01*
X99116472Y-44056993D01*
X99087774Y-43925071D01*
X99087774Y-43925070D01*
X99087772Y-43925066D01*
X99087772Y-43925063D01*
X98994869Y-43675979D01*
X98867463Y-43442653D01*
X98708148Y-43229833D01*
X98708146Y-43229831D01*
X98708138Y-43229822D01*
X98520177Y-43041861D01*
X98520168Y-43041853D01*
X98451968Y-42990799D01*
X98307347Y-42882537D01*
X98116569Y-42778364D01*
X98074020Y-42755130D01*
X97824929Y-42662225D01*
X97565170Y-42605718D01*
X97565172Y-42605718D01*
X97300000Y-42586753D01*
X97034828Y-42605718D01*
X96775071Y-42662225D01*
X96775070Y-42662225D01*
X96525979Y-42755130D01*
X96292653Y-42882537D01*
X96079831Y-43041853D01*
X96079822Y-43041861D01*
X95891861Y-43229822D01*
X95891853Y-43229831D01*
X95732537Y-43442653D01*
X95605130Y-43675979D01*
X95512225Y-43925070D01*
X95512225Y-43925071D01*
X95455718Y-44184828D01*
X95436753Y-44450000D01*
X94083247Y-44450000D01*
X94064282Y-44184832D01*
X94036472Y-44056993D01*
X94007774Y-43925071D01*
X94007774Y-43925070D01*
X94007772Y-43925066D01*
X94007772Y-43925063D01*
X93914869Y-43675979D01*
X93787463Y-43442653D01*
X93628148Y-43229833D01*
X93628146Y-43229831D01*
X93628138Y-43229822D01*
X93440177Y-43041861D01*
X93440168Y-43041853D01*
X93371968Y-42990799D01*
X93227347Y-42882537D01*
X93036569Y-42778364D01*
X92994020Y-42755130D01*
X92744929Y-42662225D01*
X92485170Y-42605718D01*
X92485172Y-42605718D01*
X92220000Y-42586753D01*
X91954828Y-42605718D01*
X91695071Y-42662225D01*
X91695070Y-42662225D01*
X91445979Y-42755130D01*
X91212653Y-42882537D01*
X90999831Y-43041853D01*
X90999822Y-43041861D01*
X90811861Y-43229822D01*
X90811853Y-43229831D01*
X90652537Y-43442653D01*
X90525130Y-43675979D01*
X90432225Y-43925070D01*
X90432225Y-43925071D01*
X90375718Y-44184828D01*
X90356753Y-44450000D01*
X88998500Y-44450000D01*
X88998500Y-43051367D01*
X88998499Y-43051350D01*
X88991990Y-42990803D01*
X88991988Y-42990795D01*
X88940889Y-42853797D01*
X88940887Y-42853792D01*
X88853261Y-42736738D01*
X88736207Y-42649112D01*
X88736202Y-42649110D01*
X88599204Y-42598011D01*
X88599196Y-42598009D01*
X88538649Y-42591500D01*
X88538638Y-42591500D01*
X85741362Y-42591500D01*
X85741350Y-42591500D01*
X85680803Y-42598009D01*
X85680795Y-42598011D01*
X85543797Y-42649110D01*
X85543792Y-42649112D01*
X85426738Y-42736738D01*
X85339112Y-42853792D01*
X85339110Y-42853797D01*
X85288011Y-42990795D01*
X85288009Y-42990803D01*
X85281500Y-43051350D01*
X78209666Y-43051350D01*
X78200177Y-43041861D01*
X78200168Y-43041853D01*
X78131968Y-42990799D01*
X77987347Y-42882537D01*
X77796569Y-42778364D01*
X77754020Y-42755130D01*
X77504929Y-42662225D01*
X77245170Y-42605718D01*
X77245172Y-42605718D01*
X76980000Y-42586753D01*
X76714828Y-42605718D01*
X76455071Y-42662225D01*
X76455070Y-42662225D01*
X76205979Y-42755130D01*
X75972653Y-42882537D01*
X75759831Y-43041853D01*
X75759822Y-43041861D01*
X75571861Y-43229822D01*
X75571853Y-43229831D01*
X75412537Y-43442653D01*
X75285130Y-43675979D01*
X75192225Y-43925070D01*
X75192225Y-43925071D01*
X75135718Y-44184828D01*
X75116753Y-44450000D01*
X73763247Y-44450000D01*
X73744282Y-44184832D01*
X73716472Y-44056993D01*
X73687774Y-43925071D01*
X73687774Y-43925070D01*
X73687772Y-43925066D01*
X73687772Y-43925063D01*
X73594869Y-43675979D01*
X73467463Y-43442653D01*
X73308148Y-43229833D01*
X73308146Y-43229831D01*
X73308138Y-43229822D01*
X73120177Y-43041861D01*
X73120168Y-43041853D01*
X73051968Y-42990799D01*
X72907347Y-42882537D01*
X72716569Y-42778364D01*
X72674020Y-42755130D01*
X72424929Y-42662225D01*
X72165170Y-42605718D01*
X72165172Y-42605718D01*
X71900000Y-42586753D01*
X71634828Y-42605718D01*
X71375071Y-42662225D01*
X71375070Y-42662225D01*
X71125979Y-42755130D01*
X70892653Y-42882537D01*
X70679831Y-43041853D01*
X70679822Y-43041861D01*
X70491861Y-43229822D01*
X70491853Y-43229831D01*
X70332537Y-43442653D01*
X70205130Y-43675979D01*
X70112225Y-43925070D01*
X70112225Y-43925071D01*
X70055718Y-44184828D01*
X70036753Y-44450000D01*
X68683247Y-44450000D01*
X68664282Y-44184832D01*
X68636472Y-44056993D01*
X68607774Y-43925071D01*
X68607774Y-43925070D01*
X68607772Y-43925066D01*
X68607772Y-43925063D01*
X68514869Y-43675979D01*
X68387463Y-43442653D01*
X68228148Y-43229833D01*
X68228146Y-43229831D01*
X68228138Y-43229822D01*
X68040177Y-43041861D01*
X68040168Y-43041853D01*
X67971968Y-42990799D01*
X67827347Y-42882537D01*
X67636569Y-42778364D01*
X67594020Y-42755130D01*
X67344929Y-42662225D01*
X67085170Y-42605718D01*
X67085172Y-42605718D01*
X66820000Y-42586753D01*
X66554828Y-42605718D01*
X66295071Y-42662225D01*
X66295070Y-42662225D01*
X66045979Y-42755130D01*
X65812653Y-42882537D01*
X65599831Y-43041853D01*
X65599822Y-43041861D01*
X65411861Y-43229822D01*
X65411853Y-43229831D01*
X65252537Y-43442653D01*
X65125130Y-43675979D01*
X65032225Y-43925070D01*
X65032225Y-43925071D01*
X64975718Y-44184828D01*
X64956753Y-44450000D01*
X63598500Y-44450000D01*
X63598500Y-43051367D01*
X63598499Y-43051350D01*
X63591990Y-42990803D01*
X63591988Y-42990795D01*
X63540889Y-42853797D01*
X63540887Y-42853792D01*
X63453261Y-42736738D01*
X63336207Y-42649112D01*
X63336202Y-42649110D01*
X63199204Y-42598011D01*
X63199196Y-42598009D01*
X63138649Y-42591500D01*
X63138638Y-42591500D01*
X60341362Y-42591500D01*
X60341350Y-42591500D01*
X60280803Y-42598009D01*
X60280795Y-42598011D01*
X60143797Y-42649110D01*
X60143792Y-42649112D01*
X60026738Y-42736738D01*
X59939112Y-42853792D01*
X59939110Y-42853797D01*
X59888011Y-42990795D01*
X59888009Y-42990803D01*
X59881500Y-43051350D01*
X50903500Y-43051350D01*
X50903500Y-41773367D01*
X50903499Y-41773350D01*
X50896990Y-41712803D01*
X50896988Y-41712795D01*
X50845889Y-41575797D01*
X50845887Y-41575792D01*
X50758261Y-41458738D01*
X50641207Y-41371112D01*
X50641202Y-41371110D01*
X50504204Y-41320011D01*
X50504196Y-41320009D01*
X50443649Y-41313500D01*
X50443638Y-41313500D01*
X48646362Y-41313500D01*
X48646350Y-41313500D01*
X48585803Y-41320009D01*
X48585795Y-41320011D01*
X48448797Y-41371110D01*
X48448792Y-41371112D01*
X48331738Y-41458738D01*
X48244112Y-41575792D01*
X48244111Y-41575795D01*
X48200000Y-41694058D01*
X48157453Y-41750893D01*
X48090932Y-41775703D01*
X48021558Y-41760611D01*
X47989246Y-41735363D01*
X47928240Y-41669094D01*
X47928239Y-41669093D01*
X47928237Y-41669091D01*
X47808372Y-41575796D01*
X47750576Y-41530811D01*
X47552574Y-41423658D01*
X47552572Y-41423657D01*
X47552571Y-41423656D01*
X47339639Y-41350557D01*
X47339630Y-41350555D01*
X47262029Y-41337606D01*
X47117569Y-41313500D01*
X46892431Y-41313500D01*
X46747971Y-41337606D01*
X46670369Y-41350555D01*
X46670360Y-41350557D01*
X46457428Y-41423656D01*
X46457426Y-41423658D01*
X46259426Y-41530810D01*
X46259424Y-41530811D01*
X46081762Y-41669091D01*
X45929279Y-41834729D01*
X45840183Y-41971101D01*
X45786179Y-42017189D01*
X45715831Y-42026764D01*
X45651474Y-41996786D01*
X45629217Y-41971100D01*
X45540327Y-41835044D01*
X45387902Y-41669465D01*
X45210301Y-41531232D01*
X45210300Y-41531231D01*
X45012371Y-41424117D01*
X45012369Y-41424116D01*
X44799512Y-41351043D01*
X44799501Y-41351040D01*
X44719000Y-41337606D01*
X44719000Y-42241297D01*
X44657993Y-42206075D01*
X44530826Y-42172000D01*
X44399174Y-42172000D01*
X44272007Y-42206075D01*
X44211000Y-42241297D01*
X44211000Y-41337607D01*
X44210999Y-41337606D01*
X44130498Y-41351040D01*
X44130487Y-41351043D01*
X43917630Y-41424116D01*
X43917628Y-41424117D01*
X43719699Y-41531231D01*
X43719698Y-41531232D01*
X43542097Y-41669465D01*
X43389674Y-41835041D01*
X43266580Y-42023451D01*
X43176179Y-42229543D01*
X43176176Y-42229550D01*
X43128455Y-42417999D01*
X20104966Y-42417999D01*
X20146742Y-42289428D01*
X20166704Y-42099500D01*
X20146742Y-41909572D01*
X20087727Y-41727944D01*
X19992240Y-41562556D01*
X19992238Y-41562554D01*
X19992234Y-41562548D01*
X19864455Y-41420635D01*
X19709952Y-41308382D01*
X19535488Y-41230706D01*
X19348687Y-41191000D01*
X19157713Y-41191000D01*
X18970911Y-41230706D01*
X18796447Y-41308382D01*
X18641944Y-41420635D01*
X18514165Y-41562548D01*
X18514158Y-41562558D01*
X18418676Y-41727938D01*
X18418673Y-41727944D01*
X18408059Y-41760611D01*
X18359657Y-41909572D01*
X18339696Y-42099500D01*
X16224727Y-42099500D01*
X16323685Y-42072984D01*
X16449215Y-42000509D01*
X16551709Y-41898015D01*
X16624184Y-41772485D01*
X16661700Y-41632475D01*
X16661700Y-41487525D01*
X16624184Y-41347515D01*
X16551709Y-41221985D01*
X16551707Y-41221983D01*
X16551703Y-41221978D01*
X16449222Y-41119497D01*
X16449218Y-41119494D01*
X16449215Y-41119491D01*
X16448372Y-41119004D01*
X16420197Y-41102736D01*
X16371205Y-41051352D01*
X16357200Y-40993619D01*
X16357200Y-40430000D01*
X16865200Y-40430000D01*
X16865200Y-41138000D01*
X17260478Y-41138000D01*
X17260481Y-41137999D01*
X17455223Y-41099262D01*
X17455228Y-41099260D01*
X17638666Y-41023277D01*
X17803757Y-40912967D01*
X17803764Y-40912962D01*
X17944162Y-40772564D01*
X17944167Y-40772557D01*
X18054477Y-40607466D01*
X18130460Y-40424028D01*
X18130462Y-40424023D01*
X18138424Y-40384000D01*
X17321260Y-40384000D01*
X17345405Y-40370060D01*
X17401260Y-40314205D01*
X17440756Y-40245796D01*
X17461200Y-40169496D01*
X17461200Y-40090504D01*
X17440756Y-40014204D01*
X17401260Y-39945795D01*
X17345405Y-39889940D01*
X17321260Y-39876000D01*
X18138424Y-39876000D01*
X18138423Y-39875999D01*
X18130462Y-39835976D01*
X18130460Y-39835971D01*
X18054477Y-39652533D01*
X17944167Y-39487442D01*
X17944162Y-39487435D01*
X17803764Y-39347037D01*
X17803757Y-39347032D01*
X17638666Y-39236722D01*
X17455228Y-39160739D01*
X17455223Y-39160737D01*
X17260481Y-39122000D01*
X16865200Y-39122000D01*
X16865200Y-39830000D01*
X16357200Y-39830000D01*
X16357200Y-39122000D01*
X15961918Y-39122000D01*
X15767176Y-39160737D01*
X15767171Y-39160739D01*
X15583733Y-39236722D01*
X15418642Y-39347032D01*
X15418635Y-39347037D01*
X15278237Y-39487435D01*
X15278232Y-39487442D01*
X15167922Y-39652533D01*
X15091939Y-39835971D01*
X15091937Y-39835976D01*
X15083976Y-39875999D01*
X13838423Y-39875999D01*
X13830462Y-39835976D01*
X13830460Y-39835971D01*
X13754477Y-39652533D01*
X13644167Y-39487442D01*
X13644162Y-39487435D01*
X13503764Y-39347037D01*
X13503757Y-39347032D01*
X13338666Y-39236722D01*
X13155228Y-39160739D01*
X13155223Y-39160737D01*
X12960481Y-39122000D01*
X12715200Y-39122000D01*
X12715200Y-39830000D01*
X12207200Y-39830000D01*
X12207200Y-39122000D01*
X11961918Y-39122000D01*
X11767176Y-39160737D01*
X11767171Y-39160739D01*
X11583733Y-39236722D01*
X11418642Y-39347032D01*
X11418635Y-39347037D01*
X11278237Y-39487435D01*
X11278232Y-39487442D01*
X11167922Y-39652533D01*
X11091939Y-39835971D01*
X11091937Y-39835976D01*
X11083976Y-39875999D01*
X9652000Y-39875999D01*
X9652000Y-37591000D01*
X9672002Y-37522879D01*
X9725658Y-37476386D01*
X9778000Y-37465000D01*
X172086000Y-37465000D01*
X172154121Y-37485002D01*
G37*
G04 #@! TD.AperFunction*
G04 #@! TD*
M02*
